%TF.GenerationSoftware,KiCad,Pcbnew,(5.1.7-0-10_14)*%
%TF.CreationDate,2020-10-19T14:39:56+02:00*%
%TF.ProjectId,32Bit shift register,33324269-7420-4736-9869-667420726567,rev?*%
%TF.SameCoordinates,Original*%
%TF.FileFunction,Soldermask,Top*%
%TF.FilePolarity,Negative*%
%FSLAX46Y46*%
G04 Gerber Fmt 4.6, Leading zero omitted, Abs format (unit mm)*
G04 Created by KiCad (PCBNEW (5.1.7-0-10_14)) date 2020-10-19 14:39:56*
%MOMM*%
%LPD*%
G01*
G04 APERTURE LIST*
%ADD10C,2.200000*%
%ADD11R,3.000000X3.000000*%
%ADD12C,3.000000*%
%ADD13O,1.700000X1.700000*%
%ADD14R,1.700000X1.700000*%
%ADD15O,1.600000X2.400000*%
%ADD16R,1.600000X2.400000*%
%ADD17C,1.700000*%
%ADD18C,1.600000*%
G04 APERTURE END LIST*
D10*
%TO.C,REF\u002A\u002A*%
X58200000Y-41700000D03*
%TD*%
%TO.C,REF\u002A\u002A*%
X58250000Y-77300000D03*
%TD*%
%TO.C,REF\u002A\u002A*%
X153850000Y-77300000D03*
%TD*%
%TO.C,REF\u002A\u002A*%
X153850000Y-41700000D03*
%TD*%
D11*
%TO.C,J7*%
X108585000Y-72390000D03*
D12*
X103505000Y-72390000D03*
%TD*%
D13*
%TO.C,J2*%
X66040000Y-45085000D03*
X68580000Y-45085000D03*
D14*
X71120000Y-45085000D03*
%TD*%
D13*
%TO.C,J4*%
X146050000Y-45085000D03*
X143510000Y-45085000D03*
D14*
X140970000Y-45085000D03*
%TD*%
D15*
%TO.C,U4*%
X133350000Y-49530000D03*
X151130000Y-57150000D03*
X135890000Y-49530000D03*
X148590000Y-57150000D03*
X138430000Y-49530000D03*
X146050000Y-57150000D03*
X140970000Y-49530000D03*
X143510000Y-57150000D03*
X143510000Y-49530000D03*
X140970000Y-57150000D03*
X146050000Y-49530000D03*
X138430000Y-57150000D03*
X148590000Y-49530000D03*
X135890000Y-57150000D03*
X151130000Y-49530000D03*
D16*
X133350000Y-57150000D03*
%TD*%
D15*
%TO.C,U3*%
X109220000Y-49530000D03*
X127000000Y-57150000D03*
X111760000Y-49530000D03*
X124460000Y-57150000D03*
X114300000Y-49530000D03*
X121920000Y-57150000D03*
X116840000Y-49530000D03*
X119380000Y-57150000D03*
X119380000Y-49530000D03*
X116840000Y-57150000D03*
X121920000Y-49530000D03*
X114300000Y-57150000D03*
X124460000Y-49530000D03*
X111760000Y-57150000D03*
X127000000Y-49530000D03*
D16*
X109220000Y-57150000D03*
%TD*%
D15*
%TO.C,U2*%
X85090000Y-49530000D03*
X102870000Y-57150000D03*
X87630000Y-49530000D03*
X100330000Y-57150000D03*
X90170000Y-49530000D03*
X97790000Y-57150000D03*
X92710000Y-49530000D03*
X95250000Y-57150000D03*
X95250000Y-49530000D03*
X92710000Y-57150000D03*
X97790000Y-49530000D03*
X90170000Y-57150000D03*
X100330000Y-49530000D03*
X87630000Y-57150000D03*
X102870000Y-49530000D03*
D16*
X85090000Y-57150000D03*
%TD*%
D15*
%TO.C,U1*%
X60960000Y-49530000D03*
X78740000Y-57150000D03*
X63500000Y-49530000D03*
X76200000Y-57150000D03*
X66040000Y-49530000D03*
X73660000Y-57150000D03*
X68580000Y-49530000D03*
X71120000Y-57150000D03*
X71120000Y-49530000D03*
X68580000Y-57150000D03*
X73660000Y-49530000D03*
X66040000Y-57150000D03*
X76200000Y-49530000D03*
X63500000Y-57150000D03*
X78740000Y-49530000D03*
D16*
X60960000Y-57150000D03*
%TD*%
%TO.C,R32*%
G36*
G01*
X151580001Y-62100000D02*
X150679999Y-62100000D01*
G75*
G02*
X150430000Y-61850001I0J249999D01*
G01*
X150430000Y-61149999D01*
G75*
G02*
X150679999Y-60900000I249999J0D01*
G01*
X151580001Y-60900000D01*
G75*
G02*
X151830000Y-61149999I0J-249999D01*
G01*
X151830000Y-61850001D01*
G75*
G02*
X151580001Y-62100000I-249999J0D01*
G01*
G37*
G36*
G01*
X151580001Y-64100000D02*
X150679999Y-64100000D01*
G75*
G02*
X150430000Y-63850001I0J249999D01*
G01*
X150430000Y-63149999D01*
G75*
G02*
X150679999Y-62900000I249999J0D01*
G01*
X151580001Y-62900000D01*
G75*
G02*
X151830000Y-63149999I0J-249999D01*
G01*
X151830000Y-63850001D01*
G75*
G02*
X151580001Y-64100000I-249999J0D01*
G01*
G37*
%TD*%
%TO.C,R31*%
G36*
G01*
X149040001Y-62100000D02*
X148139999Y-62100000D01*
G75*
G02*
X147890000Y-61850001I0J249999D01*
G01*
X147890000Y-61149999D01*
G75*
G02*
X148139999Y-60900000I249999J0D01*
G01*
X149040001Y-60900000D01*
G75*
G02*
X149290000Y-61149999I0J-249999D01*
G01*
X149290000Y-61850001D01*
G75*
G02*
X149040001Y-62100000I-249999J0D01*
G01*
G37*
G36*
G01*
X149040001Y-64100000D02*
X148139999Y-64100000D01*
G75*
G02*
X147890000Y-63850001I0J249999D01*
G01*
X147890000Y-63149999D01*
G75*
G02*
X148139999Y-62900000I249999J0D01*
G01*
X149040001Y-62900000D01*
G75*
G02*
X149290000Y-63149999I0J-249999D01*
G01*
X149290000Y-63850001D01*
G75*
G02*
X149040001Y-64100000I-249999J0D01*
G01*
G37*
%TD*%
%TO.C,R30*%
G36*
G01*
X146500001Y-62100000D02*
X145599999Y-62100000D01*
G75*
G02*
X145350000Y-61850001I0J249999D01*
G01*
X145350000Y-61149999D01*
G75*
G02*
X145599999Y-60900000I249999J0D01*
G01*
X146500001Y-60900000D01*
G75*
G02*
X146750000Y-61149999I0J-249999D01*
G01*
X146750000Y-61850001D01*
G75*
G02*
X146500001Y-62100000I-249999J0D01*
G01*
G37*
G36*
G01*
X146500001Y-64100000D02*
X145599999Y-64100000D01*
G75*
G02*
X145350000Y-63850001I0J249999D01*
G01*
X145350000Y-63149999D01*
G75*
G02*
X145599999Y-62900000I249999J0D01*
G01*
X146500001Y-62900000D01*
G75*
G02*
X146750000Y-63149999I0J-249999D01*
G01*
X146750000Y-63850001D01*
G75*
G02*
X146500001Y-64100000I-249999J0D01*
G01*
G37*
%TD*%
%TO.C,R29*%
G36*
G01*
X143960001Y-62100000D02*
X143059999Y-62100000D01*
G75*
G02*
X142810000Y-61850001I0J249999D01*
G01*
X142810000Y-61149999D01*
G75*
G02*
X143059999Y-60900000I249999J0D01*
G01*
X143960001Y-60900000D01*
G75*
G02*
X144210000Y-61149999I0J-249999D01*
G01*
X144210000Y-61850001D01*
G75*
G02*
X143960001Y-62100000I-249999J0D01*
G01*
G37*
G36*
G01*
X143960001Y-64100000D02*
X143059999Y-64100000D01*
G75*
G02*
X142810000Y-63850001I0J249999D01*
G01*
X142810000Y-63149999D01*
G75*
G02*
X143059999Y-62900000I249999J0D01*
G01*
X143960001Y-62900000D01*
G75*
G02*
X144210000Y-63149999I0J-249999D01*
G01*
X144210000Y-63850001D01*
G75*
G02*
X143960001Y-64100000I-249999J0D01*
G01*
G37*
%TD*%
%TO.C,R28*%
G36*
G01*
X141420001Y-62100000D02*
X140519999Y-62100000D01*
G75*
G02*
X140270000Y-61850001I0J249999D01*
G01*
X140270000Y-61149999D01*
G75*
G02*
X140519999Y-60900000I249999J0D01*
G01*
X141420001Y-60900000D01*
G75*
G02*
X141670000Y-61149999I0J-249999D01*
G01*
X141670000Y-61850001D01*
G75*
G02*
X141420001Y-62100000I-249999J0D01*
G01*
G37*
G36*
G01*
X141420001Y-64100000D02*
X140519999Y-64100000D01*
G75*
G02*
X140270000Y-63850001I0J249999D01*
G01*
X140270000Y-63149999D01*
G75*
G02*
X140519999Y-62900000I249999J0D01*
G01*
X141420001Y-62900000D01*
G75*
G02*
X141670000Y-63149999I0J-249999D01*
G01*
X141670000Y-63850001D01*
G75*
G02*
X141420001Y-64100000I-249999J0D01*
G01*
G37*
%TD*%
%TO.C,R27*%
G36*
G01*
X138880001Y-62100000D02*
X137979999Y-62100000D01*
G75*
G02*
X137730000Y-61850001I0J249999D01*
G01*
X137730000Y-61149999D01*
G75*
G02*
X137979999Y-60900000I249999J0D01*
G01*
X138880001Y-60900000D01*
G75*
G02*
X139130000Y-61149999I0J-249999D01*
G01*
X139130000Y-61850001D01*
G75*
G02*
X138880001Y-62100000I-249999J0D01*
G01*
G37*
G36*
G01*
X138880001Y-64100000D02*
X137979999Y-64100000D01*
G75*
G02*
X137730000Y-63850001I0J249999D01*
G01*
X137730000Y-63149999D01*
G75*
G02*
X137979999Y-62900000I249999J0D01*
G01*
X138880001Y-62900000D01*
G75*
G02*
X139130000Y-63149999I0J-249999D01*
G01*
X139130000Y-63850001D01*
G75*
G02*
X138880001Y-64100000I-249999J0D01*
G01*
G37*
%TD*%
%TO.C,R26*%
G36*
G01*
X136340001Y-62100000D02*
X135439999Y-62100000D01*
G75*
G02*
X135190000Y-61850001I0J249999D01*
G01*
X135190000Y-61149999D01*
G75*
G02*
X135439999Y-60900000I249999J0D01*
G01*
X136340001Y-60900000D01*
G75*
G02*
X136590000Y-61149999I0J-249999D01*
G01*
X136590000Y-61850001D01*
G75*
G02*
X136340001Y-62100000I-249999J0D01*
G01*
G37*
G36*
G01*
X136340001Y-64100000D02*
X135439999Y-64100000D01*
G75*
G02*
X135190000Y-63850001I0J249999D01*
G01*
X135190000Y-63149999D01*
G75*
G02*
X135439999Y-62900000I249999J0D01*
G01*
X136340001Y-62900000D01*
G75*
G02*
X136590000Y-63149999I0J-249999D01*
G01*
X136590000Y-63850001D01*
G75*
G02*
X136340001Y-64100000I-249999J0D01*
G01*
G37*
%TD*%
%TO.C,R25*%
G36*
G01*
X133800001Y-62100000D02*
X132899999Y-62100000D01*
G75*
G02*
X132650000Y-61850001I0J249999D01*
G01*
X132650000Y-61149999D01*
G75*
G02*
X132899999Y-60900000I249999J0D01*
G01*
X133800001Y-60900000D01*
G75*
G02*
X134050000Y-61149999I0J-249999D01*
G01*
X134050000Y-61850001D01*
G75*
G02*
X133800001Y-62100000I-249999J0D01*
G01*
G37*
G36*
G01*
X133800001Y-64100000D02*
X132899999Y-64100000D01*
G75*
G02*
X132650000Y-63850001I0J249999D01*
G01*
X132650000Y-63149999D01*
G75*
G02*
X132899999Y-62900000I249999J0D01*
G01*
X133800001Y-62900000D01*
G75*
G02*
X134050000Y-63149999I0J-249999D01*
G01*
X134050000Y-63850001D01*
G75*
G02*
X133800001Y-64100000I-249999J0D01*
G01*
G37*
%TD*%
%TO.C,R24*%
G36*
G01*
X127450001Y-62100000D02*
X126549999Y-62100000D01*
G75*
G02*
X126300000Y-61850001I0J249999D01*
G01*
X126300000Y-61149999D01*
G75*
G02*
X126549999Y-60900000I249999J0D01*
G01*
X127450001Y-60900000D01*
G75*
G02*
X127700000Y-61149999I0J-249999D01*
G01*
X127700000Y-61850001D01*
G75*
G02*
X127450001Y-62100000I-249999J0D01*
G01*
G37*
G36*
G01*
X127450001Y-64100000D02*
X126549999Y-64100000D01*
G75*
G02*
X126300000Y-63850001I0J249999D01*
G01*
X126300000Y-63149999D01*
G75*
G02*
X126549999Y-62900000I249999J0D01*
G01*
X127450001Y-62900000D01*
G75*
G02*
X127700000Y-63149999I0J-249999D01*
G01*
X127700000Y-63850001D01*
G75*
G02*
X127450001Y-64100000I-249999J0D01*
G01*
G37*
%TD*%
%TO.C,R23*%
G36*
G01*
X124910001Y-62100000D02*
X124009999Y-62100000D01*
G75*
G02*
X123760000Y-61850001I0J249999D01*
G01*
X123760000Y-61149999D01*
G75*
G02*
X124009999Y-60900000I249999J0D01*
G01*
X124910001Y-60900000D01*
G75*
G02*
X125160000Y-61149999I0J-249999D01*
G01*
X125160000Y-61850001D01*
G75*
G02*
X124910001Y-62100000I-249999J0D01*
G01*
G37*
G36*
G01*
X124910001Y-64100000D02*
X124009999Y-64100000D01*
G75*
G02*
X123760000Y-63850001I0J249999D01*
G01*
X123760000Y-63149999D01*
G75*
G02*
X124009999Y-62900000I249999J0D01*
G01*
X124910001Y-62900000D01*
G75*
G02*
X125160000Y-63149999I0J-249999D01*
G01*
X125160000Y-63850001D01*
G75*
G02*
X124910001Y-64100000I-249999J0D01*
G01*
G37*
%TD*%
%TO.C,R22*%
G36*
G01*
X122370001Y-62100000D02*
X121469999Y-62100000D01*
G75*
G02*
X121220000Y-61850001I0J249999D01*
G01*
X121220000Y-61149999D01*
G75*
G02*
X121469999Y-60900000I249999J0D01*
G01*
X122370001Y-60900000D01*
G75*
G02*
X122620000Y-61149999I0J-249999D01*
G01*
X122620000Y-61850001D01*
G75*
G02*
X122370001Y-62100000I-249999J0D01*
G01*
G37*
G36*
G01*
X122370001Y-64100000D02*
X121469999Y-64100000D01*
G75*
G02*
X121220000Y-63850001I0J249999D01*
G01*
X121220000Y-63149999D01*
G75*
G02*
X121469999Y-62900000I249999J0D01*
G01*
X122370001Y-62900000D01*
G75*
G02*
X122620000Y-63149999I0J-249999D01*
G01*
X122620000Y-63850001D01*
G75*
G02*
X122370001Y-64100000I-249999J0D01*
G01*
G37*
%TD*%
%TO.C,R21*%
G36*
G01*
X119830001Y-62100000D02*
X118929999Y-62100000D01*
G75*
G02*
X118680000Y-61850001I0J249999D01*
G01*
X118680000Y-61149999D01*
G75*
G02*
X118929999Y-60900000I249999J0D01*
G01*
X119830001Y-60900000D01*
G75*
G02*
X120080000Y-61149999I0J-249999D01*
G01*
X120080000Y-61850001D01*
G75*
G02*
X119830001Y-62100000I-249999J0D01*
G01*
G37*
G36*
G01*
X119830001Y-64100000D02*
X118929999Y-64100000D01*
G75*
G02*
X118680000Y-63850001I0J249999D01*
G01*
X118680000Y-63149999D01*
G75*
G02*
X118929999Y-62900000I249999J0D01*
G01*
X119830001Y-62900000D01*
G75*
G02*
X120080000Y-63149999I0J-249999D01*
G01*
X120080000Y-63850001D01*
G75*
G02*
X119830001Y-64100000I-249999J0D01*
G01*
G37*
%TD*%
%TO.C,R20*%
G36*
G01*
X117290001Y-62100000D02*
X116389999Y-62100000D01*
G75*
G02*
X116140000Y-61850001I0J249999D01*
G01*
X116140000Y-61149999D01*
G75*
G02*
X116389999Y-60900000I249999J0D01*
G01*
X117290001Y-60900000D01*
G75*
G02*
X117540000Y-61149999I0J-249999D01*
G01*
X117540000Y-61850001D01*
G75*
G02*
X117290001Y-62100000I-249999J0D01*
G01*
G37*
G36*
G01*
X117290001Y-64100000D02*
X116389999Y-64100000D01*
G75*
G02*
X116140000Y-63850001I0J249999D01*
G01*
X116140000Y-63149999D01*
G75*
G02*
X116389999Y-62900000I249999J0D01*
G01*
X117290001Y-62900000D01*
G75*
G02*
X117540000Y-63149999I0J-249999D01*
G01*
X117540000Y-63850001D01*
G75*
G02*
X117290001Y-64100000I-249999J0D01*
G01*
G37*
%TD*%
%TO.C,R19*%
G36*
G01*
X114750001Y-62100000D02*
X113849999Y-62100000D01*
G75*
G02*
X113600000Y-61850001I0J249999D01*
G01*
X113600000Y-61149999D01*
G75*
G02*
X113849999Y-60900000I249999J0D01*
G01*
X114750001Y-60900000D01*
G75*
G02*
X115000000Y-61149999I0J-249999D01*
G01*
X115000000Y-61850001D01*
G75*
G02*
X114750001Y-62100000I-249999J0D01*
G01*
G37*
G36*
G01*
X114750001Y-64100000D02*
X113849999Y-64100000D01*
G75*
G02*
X113600000Y-63850001I0J249999D01*
G01*
X113600000Y-63149999D01*
G75*
G02*
X113849999Y-62900000I249999J0D01*
G01*
X114750001Y-62900000D01*
G75*
G02*
X115000000Y-63149999I0J-249999D01*
G01*
X115000000Y-63850001D01*
G75*
G02*
X114750001Y-64100000I-249999J0D01*
G01*
G37*
%TD*%
%TO.C,R18*%
G36*
G01*
X112210001Y-62100000D02*
X111309999Y-62100000D01*
G75*
G02*
X111060000Y-61850001I0J249999D01*
G01*
X111060000Y-61149999D01*
G75*
G02*
X111309999Y-60900000I249999J0D01*
G01*
X112210001Y-60900000D01*
G75*
G02*
X112460000Y-61149999I0J-249999D01*
G01*
X112460000Y-61850001D01*
G75*
G02*
X112210001Y-62100000I-249999J0D01*
G01*
G37*
G36*
G01*
X112210001Y-64100000D02*
X111309999Y-64100000D01*
G75*
G02*
X111060000Y-63850001I0J249999D01*
G01*
X111060000Y-63149999D01*
G75*
G02*
X111309999Y-62900000I249999J0D01*
G01*
X112210001Y-62900000D01*
G75*
G02*
X112460000Y-63149999I0J-249999D01*
G01*
X112460000Y-63850001D01*
G75*
G02*
X112210001Y-64100000I-249999J0D01*
G01*
G37*
%TD*%
%TO.C,R17*%
G36*
G01*
X109670001Y-62100000D02*
X108769999Y-62100000D01*
G75*
G02*
X108520000Y-61850001I0J249999D01*
G01*
X108520000Y-61149999D01*
G75*
G02*
X108769999Y-60900000I249999J0D01*
G01*
X109670001Y-60900000D01*
G75*
G02*
X109920000Y-61149999I0J-249999D01*
G01*
X109920000Y-61850001D01*
G75*
G02*
X109670001Y-62100000I-249999J0D01*
G01*
G37*
G36*
G01*
X109670001Y-64100000D02*
X108769999Y-64100000D01*
G75*
G02*
X108520000Y-63850001I0J249999D01*
G01*
X108520000Y-63149999D01*
G75*
G02*
X108769999Y-62900000I249999J0D01*
G01*
X109670001Y-62900000D01*
G75*
G02*
X109920000Y-63149999I0J-249999D01*
G01*
X109920000Y-63850001D01*
G75*
G02*
X109670001Y-64100000I-249999J0D01*
G01*
G37*
%TD*%
%TO.C,R16*%
G36*
G01*
X103320001Y-62100000D02*
X102419999Y-62100000D01*
G75*
G02*
X102170000Y-61850001I0J249999D01*
G01*
X102170000Y-61149999D01*
G75*
G02*
X102419999Y-60900000I249999J0D01*
G01*
X103320001Y-60900000D01*
G75*
G02*
X103570000Y-61149999I0J-249999D01*
G01*
X103570000Y-61850001D01*
G75*
G02*
X103320001Y-62100000I-249999J0D01*
G01*
G37*
G36*
G01*
X103320001Y-64100000D02*
X102419999Y-64100000D01*
G75*
G02*
X102170000Y-63850001I0J249999D01*
G01*
X102170000Y-63149999D01*
G75*
G02*
X102419999Y-62900000I249999J0D01*
G01*
X103320001Y-62900000D01*
G75*
G02*
X103570000Y-63149999I0J-249999D01*
G01*
X103570000Y-63850001D01*
G75*
G02*
X103320001Y-64100000I-249999J0D01*
G01*
G37*
%TD*%
%TO.C,R15*%
G36*
G01*
X100780001Y-62100000D02*
X99879999Y-62100000D01*
G75*
G02*
X99630000Y-61850001I0J249999D01*
G01*
X99630000Y-61149999D01*
G75*
G02*
X99879999Y-60900000I249999J0D01*
G01*
X100780001Y-60900000D01*
G75*
G02*
X101030000Y-61149999I0J-249999D01*
G01*
X101030000Y-61850001D01*
G75*
G02*
X100780001Y-62100000I-249999J0D01*
G01*
G37*
G36*
G01*
X100780001Y-64100000D02*
X99879999Y-64100000D01*
G75*
G02*
X99630000Y-63850001I0J249999D01*
G01*
X99630000Y-63149999D01*
G75*
G02*
X99879999Y-62900000I249999J0D01*
G01*
X100780001Y-62900000D01*
G75*
G02*
X101030000Y-63149999I0J-249999D01*
G01*
X101030000Y-63850001D01*
G75*
G02*
X100780001Y-64100000I-249999J0D01*
G01*
G37*
%TD*%
%TO.C,R14*%
G36*
G01*
X98240001Y-62100000D02*
X97339999Y-62100000D01*
G75*
G02*
X97090000Y-61850001I0J249999D01*
G01*
X97090000Y-61149999D01*
G75*
G02*
X97339999Y-60900000I249999J0D01*
G01*
X98240001Y-60900000D01*
G75*
G02*
X98490000Y-61149999I0J-249999D01*
G01*
X98490000Y-61850001D01*
G75*
G02*
X98240001Y-62100000I-249999J0D01*
G01*
G37*
G36*
G01*
X98240001Y-64100000D02*
X97339999Y-64100000D01*
G75*
G02*
X97090000Y-63850001I0J249999D01*
G01*
X97090000Y-63149999D01*
G75*
G02*
X97339999Y-62900000I249999J0D01*
G01*
X98240001Y-62900000D01*
G75*
G02*
X98490000Y-63149999I0J-249999D01*
G01*
X98490000Y-63850001D01*
G75*
G02*
X98240001Y-64100000I-249999J0D01*
G01*
G37*
%TD*%
%TO.C,R13*%
G36*
G01*
X95700001Y-62100000D02*
X94799999Y-62100000D01*
G75*
G02*
X94550000Y-61850001I0J249999D01*
G01*
X94550000Y-61149999D01*
G75*
G02*
X94799999Y-60900000I249999J0D01*
G01*
X95700001Y-60900000D01*
G75*
G02*
X95950000Y-61149999I0J-249999D01*
G01*
X95950000Y-61850001D01*
G75*
G02*
X95700001Y-62100000I-249999J0D01*
G01*
G37*
G36*
G01*
X95700001Y-64100000D02*
X94799999Y-64100000D01*
G75*
G02*
X94550000Y-63850001I0J249999D01*
G01*
X94550000Y-63149999D01*
G75*
G02*
X94799999Y-62900000I249999J0D01*
G01*
X95700001Y-62900000D01*
G75*
G02*
X95950000Y-63149999I0J-249999D01*
G01*
X95950000Y-63850001D01*
G75*
G02*
X95700001Y-64100000I-249999J0D01*
G01*
G37*
%TD*%
%TO.C,R12*%
G36*
G01*
X93160001Y-62100000D02*
X92259999Y-62100000D01*
G75*
G02*
X92010000Y-61850001I0J249999D01*
G01*
X92010000Y-61149999D01*
G75*
G02*
X92259999Y-60900000I249999J0D01*
G01*
X93160001Y-60900000D01*
G75*
G02*
X93410000Y-61149999I0J-249999D01*
G01*
X93410000Y-61850001D01*
G75*
G02*
X93160001Y-62100000I-249999J0D01*
G01*
G37*
G36*
G01*
X93160001Y-64100000D02*
X92259999Y-64100000D01*
G75*
G02*
X92010000Y-63850001I0J249999D01*
G01*
X92010000Y-63149999D01*
G75*
G02*
X92259999Y-62900000I249999J0D01*
G01*
X93160001Y-62900000D01*
G75*
G02*
X93410000Y-63149999I0J-249999D01*
G01*
X93410000Y-63850001D01*
G75*
G02*
X93160001Y-64100000I-249999J0D01*
G01*
G37*
%TD*%
%TO.C,R11*%
G36*
G01*
X90620001Y-62100000D02*
X89719999Y-62100000D01*
G75*
G02*
X89470000Y-61850001I0J249999D01*
G01*
X89470000Y-61149999D01*
G75*
G02*
X89719999Y-60900000I249999J0D01*
G01*
X90620001Y-60900000D01*
G75*
G02*
X90870000Y-61149999I0J-249999D01*
G01*
X90870000Y-61850001D01*
G75*
G02*
X90620001Y-62100000I-249999J0D01*
G01*
G37*
G36*
G01*
X90620001Y-64100000D02*
X89719999Y-64100000D01*
G75*
G02*
X89470000Y-63850001I0J249999D01*
G01*
X89470000Y-63149999D01*
G75*
G02*
X89719999Y-62900000I249999J0D01*
G01*
X90620001Y-62900000D01*
G75*
G02*
X90870000Y-63149999I0J-249999D01*
G01*
X90870000Y-63850001D01*
G75*
G02*
X90620001Y-64100000I-249999J0D01*
G01*
G37*
%TD*%
%TO.C,R10*%
G36*
G01*
X88080001Y-62100000D02*
X87179999Y-62100000D01*
G75*
G02*
X86930000Y-61850001I0J249999D01*
G01*
X86930000Y-61149999D01*
G75*
G02*
X87179999Y-60900000I249999J0D01*
G01*
X88080001Y-60900000D01*
G75*
G02*
X88330000Y-61149999I0J-249999D01*
G01*
X88330000Y-61850001D01*
G75*
G02*
X88080001Y-62100000I-249999J0D01*
G01*
G37*
G36*
G01*
X88080001Y-64100000D02*
X87179999Y-64100000D01*
G75*
G02*
X86930000Y-63850001I0J249999D01*
G01*
X86930000Y-63149999D01*
G75*
G02*
X87179999Y-62900000I249999J0D01*
G01*
X88080001Y-62900000D01*
G75*
G02*
X88330000Y-63149999I0J-249999D01*
G01*
X88330000Y-63850001D01*
G75*
G02*
X88080001Y-64100000I-249999J0D01*
G01*
G37*
%TD*%
%TO.C,R9*%
G36*
G01*
X85540001Y-62100000D02*
X84639999Y-62100000D01*
G75*
G02*
X84390000Y-61850001I0J249999D01*
G01*
X84390000Y-61149999D01*
G75*
G02*
X84639999Y-60900000I249999J0D01*
G01*
X85540001Y-60900000D01*
G75*
G02*
X85790000Y-61149999I0J-249999D01*
G01*
X85790000Y-61850001D01*
G75*
G02*
X85540001Y-62100000I-249999J0D01*
G01*
G37*
G36*
G01*
X85540001Y-64100000D02*
X84639999Y-64100000D01*
G75*
G02*
X84390000Y-63850001I0J249999D01*
G01*
X84390000Y-63149999D01*
G75*
G02*
X84639999Y-62900000I249999J0D01*
G01*
X85540001Y-62900000D01*
G75*
G02*
X85790000Y-63149999I0J-249999D01*
G01*
X85790000Y-63850001D01*
G75*
G02*
X85540001Y-64100000I-249999J0D01*
G01*
G37*
%TD*%
%TO.C,R8*%
G36*
G01*
X79190001Y-62100000D02*
X78289999Y-62100000D01*
G75*
G02*
X78040000Y-61850001I0J249999D01*
G01*
X78040000Y-61149999D01*
G75*
G02*
X78289999Y-60900000I249999J0D01*
G01*
X79190001Y-60900000D01*
G75*
G02*
X79440000Y-61149999I0J-249999D01*
G01*
X79440000Y-61850001D01*
G75*
G02*
X79190001Y-62100000I-249999J0D01*
G01*
G37*
G36*
G01*
X79190001Y-64100000D02*
X78289999Y-64100000D01*
G75*
G02*
X78040000Y-63850001I0J249999D01*
G01*
X78040000Y-63149999D01*
G75*
G02*
X78289999Y-62900000I249999J0D01*
G01*
X79190001Y-62900000D01*
G75*
G02*
X79440000Y-63149999I0J-249999D01*
G01*
X79440000Y-63850001D01*
G75*
G02*
X79190001Y-64100000I-249999J0D01*
G01*
G37*
%TD*%
%TO.C,R7*%
G36*
G01*
X76650001Y-62100000D02*
X75749999Y-62100000D01*
G75*
G02*
X75500000Y-61850001I0J249999D01*
G01*
X75500000Y-61149999D01*
G75*
G02*
X75749999Y-60900000I249999J0D01*
G01*
X76650001Y-60900000D01*
G75*
G02*
X76900000Y-61149999I0J-249999D01*
G01*
X76900000Y-61850001D01*
G75*
G02*
X76650001Y-62100000I-249999J0D01*
G01*
G37*
G36*
G01*
X76650001Y-64100000D02*
X75749999Y-64100000D01*
G75*
G02*
X75500000Y-63850001I0J249999D01*
G01*
X75500000Y-63149999D01*
G75*
G02*
X75749999Y-62900000I249999J0D01*
G01*
X76650001Y-62900000D01*
G75*
G02*
X76900000Y-63149999I0J-249999D01*
G01*
X76900000Y-63850001D01*
G75*
G02*
X76650001Y-64100000I-249999J0D01*
G01*
G37*
%TD*%
%TO.C,R6*%
G36*
G01*
X74110001Y-62100000D02*
X73209999Y-62100000D01*
G75*
G02*
X72960000Y-61850001I0J249999D01*
G01*
X72960000Y-61149999D01*
G75*
G02*
X73209999Y-60900000I249999J0D01*
G01*
X74110001Y-60900000D01*
G75*
G02*
X74360000Y-61149999I0J-249999D01*
G01*
X74360000Y-61850001D01*
G75*
G02*
X74110001Y-62100000I-249999J0D01*
G01*
G37*
G36*
G01*
X74110001Y-64100000D02*
X73209999Y-64100000D01*
G75*
G02*
X72960000Y-63850001I0J249999D01*
G01*
X72960000Y-63149999D01*
G75*
G02*
X73209999Y-62900000I249999J0D01*
G01*
X74110001Y-62900000D01*
G75*
G02*
X74360000Y-63149999I0J-249999D01*
G01*
X74360000Y-63850001D01*
G75*
G02*
X74110001Y-64100000I-249999J0D01*
G01*
G37*
%TD*%
%TO.C,R5*%
G36*
G01*
X71570001Y-62100000D02*
X70669999Y-62100000D01*
G75*
G02*
X70420000Y-61850001I0J249999D01*
G01*
X70420000Y-61149999D01*
G75*
G02*
X70669999Y-60900000I249999J0D01*
G01*
X71570001Y-60900000D01*
G75*
G02*
X71820000Y-61149999I0J-249999D01*
G01*
X71820000Y-61850001D01*
G75*
G02*
X71570001Y-62100000I-249999J0D01*
G01*
G37*
G36*
G01*
X71570001Y-64100000D02*
X70669999Y-64100000D01*
G75*
G02*
X70420000Y-63850001I0J249999D01*
G01*
X70420000Y-63149999D01*
G75*
G02*
X70669999Y-62900000I249999J0D01*
G01*
X71570001Y-62900000D01*
G75*
G02*
X71820000Y-63149999I0J-249999D01*
G01*
X71820000Y-63850001D01*
G75*
G02*
X71570001Y-64100000I-249999J0D01*
G01*
G37*
%TD*%
%TO.C,R4*%
G36*
G01*
X69030001Y-62100000D02*
X68129999Y-62100000D01*
G75*
G02*
X67880000Y-61850001I0J249999D01*
G01*
X67880000Y-61149999D01*
G75*
G02*
X68129999Y-60900000I249999J0D01*
G01*
X69030001Y-60900000D01*
G75*
G02*
X69280000Y-61149999I0J-249999D01*
G01*
X69280000Y-61850001D01*
G75*
G02*
X69030001Y-62100000I-249999J0D01*
G01*
G37*
G36*
G01*
X69030001Y-64100000D02*
X68129999Y-64100000D01*
G75*
G02*
X67880000Y-63850001I0J249999D01*
G01*
X67880000Y-63149999D01*
G75*
G02*
X68129999Y-62900000I249999J0D01*
G01*
X69030001Y-62900000D01*
G75*
G02*
X69280000Y-63149999I0J-249999D01*
G01*
X69280000Y-63850001D01*
G75*
G02*
X69030001Y-64100000I-249999J0D01*
G01*
G37*
%TD*%
%TO.C,R3*%
G36*
G01*
X66490001Y-62100000D02*
X65589999Y-62100000D01*
G75*
G02*
X65340000Y-61850001I0J249999D01*
G01*
X65340000Y-61149999D01*
G75*
G02*
X65589999Y-60900000I249999J0D01*
G01*
X66490001Y-60900000D01*
G75*
G02*
X66740000Y-61149999I0J-249999D01*
G01*
X66740000Y-61850001D01*
G75*
G02*
X66490001Y-62100000I-249999J0D01*
G01*
G37*
G36*
G01*
X66490001Y-64100000D02*
X65589999Y-64100000D01*
G75*
G02*
X65340000Y-63850001I0J249999D01*
G01*
X65340000Y-63149999D01*
G75*
G02*
X65589999Y-62900000I249999J0D01*
G01*
X66490001Y-62900000D01*
G75*
G02*
X66740000Y-63149999I0J-249999D01*
G01*
X66740000Y-63850001D01*
G75*
G02*
X66490001Y-64100000I-249999J0D01*
G01*
G37*
%TD*%
%TO.C,R2*%
G36*
G01*
X63950001Y-62100000D02*
X63049999Y-62100000D01*
G75*
G02*
X62800000Y-61850001I0J249999D01*
G01*
X62800000Y-61149999D01*
G75*
G02*
X63049999Y-60900000I249999J0D01*
G01*
X63950001Y-60900000D01*
G75*
G02*
X64200000Y-61149999I0J-249999D01*
G01*
X64200000Y-61850001D01*
G75*
G02*
X63950001Y-62100000I-249999J0D01*
G01*
G37*
G36*
G01*
X63950001Y-64100000D02*
X63049999Y-64100000D01*
G75*
G02*
X62800000Y-63850001I0J249999D01*
G01*
X62800000Y-63149999D01*
G75*
G02*
X63049999Y-62900000I249999J0D01*
G01*
X63950001Y-62900000D01*
G75*
G02*
X64200000Y-63149999I0J-249999D01*
G01*
X64200000Y-63850001D01*
G75*
G02*
X63950001Y-64100000I-249999J0D01*
G01*
G37*
%TD*%
%TO.C,R1*%
G36*
G01*
X61410001Y-62100000D02*
X60509999Y-62100000D01*
G75*
G02*
X60260000Y-61850001I0J249999D01*
G01*
X60260000Y-61149999D01*
G75*
G02*
X60509999Y-60900000I249999J0D01*
G01*
X61410001Y-60900000D01*
G75*
G02*
X61660000Y-61149999I0J-249999D01*
G01*
X61660000Y-61850001D01*
G75*
G02*
X61410001Y-62100000I-249999J0D01*
G01*
G37*
G36*
G01*
X61410001Y-64100000D02*
X60509999Y-64100000D01*
G75*
G02*
X60260000Y-63850001I0J249999D01*
G01*
X60260000Y-63149999D01*
G75*
G02*
X60509999Y-62900000I249999J0D01*
G01*
X61410001Y-62900000D01*
G75*
G02*
X61660000Y-63149999I0J-249999D01*
G01*
X61660000Y-63850001D01*
G75*
G02*
X61410001Y-64100000I-249999J0D01*
G01*
G37*
%TD*%
%TO.C,J6*%
G36*
G01*
X139030000Y-74510000D02*
X137830000Y-74510000D01*
G75*
G02*
X137580000Y-74260000I0J250000D01*
G01*
X137580000Y-73060000D01*
G75*
G02*
X137830000Y-72810000I250000J0D01*
G01*
X139030000Y-72810000D01*
G75*
G02*
X139280000Y-73060000I0J-250000D01*
G01*
X139280000Y-74260000D01*
G75*
G02*
X139030000Y-74510000I-250000J0D01*
G01*
G37*
D17*
X140970000Y-73660000D03*
X143510000Y-73660000D03*
X146050000Y-73660000D03*
X138430000Y-71120000D03*
X140970000Y-71120000D03*
X143510000Y-71120000D03*
X146050000Y-71120000D03*
%TD*%
%TO.C,J5*%
G36*
G01*
X118710000Y-74510000D02*
X117510000Y-74510000D01*
G75*
G02*
X117260000Y-74260000I0J250000D01*
G01*
X117260000Y-73060000D01*
G75*
G02*
X117510000Y-72810000I250000J0D01*
G01*
X118710000Y-72810000D01*
G75*
G02*
X118960000Y-73060000I0J-250000D01*
G01*
X118960000Y-74260000D01*
G75*
G02*
X118710000Y-74510000I-250000J0D01*
G01*
G37*
X120650000Y-73660000D03*
X123190000Y-73660000D03*
X125730000Y-73660000D03*
X118110000Y-71120000D03*
X120650000Y-71120000D03*
X123190000Y-71120000D03*
X125730000Y-71120000D03*
%TD*%
%TO.C,J3*%
X93980000Y-71120000D03*
X91440000Y-71120000D03*
X88900000Y-71120000D03*
X86360000Y-71120000D03*
X93980000Y-73660000D03*
X91440000Y-73660000D03*
X88900000Y-73660000D03*
G36*
G01*
X86960000Y-74510000D02*
X85760000Y-74510000D01*
G75*
G02*
X85510000Y-74260000I0J250000D01*
G01*
X85510000Y-73060000D01*
G75*
G02*
X85760000Y-72810000I250000J0D01*
G01*
X86960000Y-72810000D01*
G75*
G02*
X87210000Y-73060000I0J-250000D01*
G01*
X87210000Y-74260000D01*
G75*
G02*
X86960000Y-74510000I-250000J0D01*
G01*
G37*
%TD*%
%TO.C,J1*%
X73660000Y-71120000D03*
X71120000Y-71120000D03*
X68580000Y-71120000D03*
X66040000Y-71120000D03*
X73660000Y-73660000D03*
X71120000Y-73660000D03*
X68580000Y-73660000D03*
G36*
G01*
X66640000Y-74510000D02*
X65440000Y-74510000D01*
G75*
G02*
X65190000Y-74260000I0J250000D01*
G01*
X65190000Y-73060000D01*
G75*
G02*
X65440000Y-72810000I250000J0D01*
G01*
X66640000Y-72810000D01*
G75*
G02*
X66890000Y-73060000I0J-250000D01*
G01*
X66890000Y-74260000D01*
G75*
G02*
X66640000Y-74510000I-250000J0D01*
G01*
G37*
%TD*%
D18*
%TO.C,C5*%
X154178000Y-52070000D03*
X154178000Y-54570000D03*
%TD*%
%TO.C,C4*%
X130175000Y-52110000D03*
X130175000Y-54610000D03*
%TD*%
%TO.C,C3*%
X106045000Y-52110000D03*
X106045000Y-54610000D03*
%TD*%
%TO.C,C2*%
X81915000Y-54610000D03*
X81915000Y-52110000D03*
%TD*%
%TO.C,C1*%
X57873900Y-52070000D03*
X57873900Y-54570000D03*
%TD*%
M02*
