%TF.GenerationSoftware,KiCad,Pcbnew,(5.1.7-0-10_14)*%
%TF.CreationDate,2020-10-19T14:39:56+02:00*%
%TF.ProjectId,32Bit shift register,33324269-7420-4736-9869-667420726567,rev?*%
%TF.SameCoordinates,Original*%
%TF.FileFunction,Copper,L2,Bot*%
%TF.FilePolarity,Positive*%
%FSLAX46Y46*%
G04 Gerber Fmt 4.6, Leading zero omitted, Abs format (unit mm)*
G04 Created by KiCad (PCBNEW (5.1.7-0-10_14)) date 2020-10-19 14:39:56*
%MOMM*%
%LPD*%
G01*
G04 APERTURE LIST*
%TA.AperFunction,ComponentPad*%
%ADD10R,3.000000X3.000000*%
%TD*%
%TA.AperFunction,ComponentPad*%
%ADD11C,3.000000*%
%TD*%
%TA.AperFunction,ComponentPad*%
%ADD12O,1.700000X1.700000*%
%TD*%
%TA.AperFunction,ComponentPad*%
%ADD13R,1.700000X1.700000*%
%TD*%
%TA.AperFunction,ComponentPad*%
%ADD14O,1.600000X2.400000*%
%TD*%
%TA.AperFunction,ComponentPad*%
%ADD15R,1.600000X2.400000*%
%TD*%
%TA.AperFunction,ComponentPad*%
%ADD16C,1.700000*%
%TD*%
%TA.AperFunction,ComponentPad*%
%ADD17C,1.600000*%
%TD*%
%TA.AperFunction,ViaPad*%
%ADD18C,0.800000*%
%TD*%
%TA.AperFunction,Conductor*%
%ADD19C,0.250000*%
%TD*%
%TA.AperFunction,Conductor*%
%ADD20C,0.254000*%
%TD*%
%TA.AperFunction,Conductor*%
%ADD21C,0.100000*%
%TD*%
G04 APERTURE END LIST*
D10*
%TO.P,J7,1*%
%TO.N,VCC*%
X108585000Y-72390000D03*
D11*
%TO.P,J7,2*%
%TO.N,GND*%
X103505000Y-72390000D03*
%TD*%
D12*
%TO.P,J2,3*%
%TO.N,/DIN*%
X66040000Y-45085000D03*
%TO.P,J2,2*%
%TO.N,/WCK*%
X68580000Y-45085000D03*
D13*
%TO.P,J2,1*%
%TO.N,/BCK*%
X71120000Y-45085000D03*
%TD*%
D12*
%TO.P,J4,3*%
%TO.N,/DOUT*%
X146050000Y-45085000D03*
%TO.P,J4,2*%
%TO.N,/WCK*%
X143510000Y-45085000D03*
D13*
%TO.P,J4,1*%
%TO.N,/BCK*%
X140970000Y-45085000D03*
%TD*%
D14*
%TO.P,U4,16*%
%TO.N,VCC*%
X133350000Y-49530000D03*
%TO.P,U4,8*%
%TO.N,GND*%
X151130000Y-57150000D03*
%TO.P,U4,15*%
%TO.N,Net-(R25-Pad2)*%
X135890000Y-49530000D03*
%TO.P,U4,7*%
%TO.N,Net-(R32-Pad2)*%
X148590000Y-57150000D03*
%TO.P,U4,14*%
%TO.N,Net-(U3-Pad9)*%
X138430000Y-49530000D03*
%TO.P,U4,6*%
%TO.N,Net-(R31-Pad2)*%
X146050000Y-57150000D03*
%TO.P,U4,13*%
%TO.N,GND*%
X140970000Y-49530000D03*
%TO.P,U4,5*%
%TO.N,Net-(R30-Pad2)*%
X143510000Y-57150000D03*
%TO.P,U4,12*%
%TO.N,/WCK*%
X143510000Y-49530000D03*
%TO.P,U4,4*%
%TO.N,Net-(R29-Pad2)*%
X140970000Y-57150000D03*
%TO.P,U4,11*%
%TO.N,/BCK*%
X146050000Y-49530000D03*
%TO.P,U4,3*%
%TO.N,Net-(R28-Pad2)*%
X138430000Y-57150000D03*
%TO.P,U4,10*%
%TO.N,VCC*%
X148590000Y-49530000D03*
%TO.P,U4,2*%
%TO.N,Net-(R27-Pad2)*%
X135890000Y-57150000D03*
%TO.P,U4,9*%
%TO.N,/DOUT*%
X151130000Y-49530000D03*
D15*
%TO.P,U4,1*%
%TO.N,Net-(R26-Pad2)*%
X133350000Y-57150000D03*
%TD*%
D14*
%TO.P,U3,16*%
%TO.N,VCC*%
X109220000Y-49530000D03*
%TO.P,U3,8*%
%TO.N,GND*%
X127000000Y-57150000D03*
%TO.P,U3,15*%
%TO.N,Net-(R17-Pad2)*%
X111760000Y-49530000D03*
%TO.P,U3,7*%
%TO.N,Net-(R24-Pad2)*%
X124460000Y-57150000D03*
%TO.P,U3,14*%
%TO.N,Net-(U2-Pad9)*%
X114300000Y-49530000D03*
%TO.P,U3,6*%
%TO.N,Net-(R23-Pad2)*%
X121920000Y-57150000D03*
%TO.P,U3,13*%
%TO.N,GND*%
X116840000Y-49530000D03*
%TO.P,U3,5*%
%TO.N,Net-(R22-Pad2)*%
X119380000Y-57150000D03*
%TO.P,U3,12*%
%TO.N,/WCK*%
X119380000Y-49530000D03*
%TO.P,U3,4*%
%TO.N,Net-(R21-Pad2)*%
X116840000Y-57150000D03*
%TO.P,U3,11*%
%TO.N,/BCK*%
X121920000Y-49530000D03*
%TO.P,U3,3*%
%TO.N,Net-(R20-Pad2)*%
X114300000Y-57150000D03*
%TO.P,U3,10*%
%TO.N,VCC*%
X124460000Y-49530000D03*
%TO.P,U3,2*%
%TO.N,Net-(R19-Pad2)*%
X111760000Y-57150000D03*
%TO.P,U3,9*%
%TO.N,Net-(U3-Pad9)*%
X127000000Y-49530000D03*
D15*
%TO.P,U3,1*%
%TO.N,Net-(R18-Pad2)*%
X109220000Y-57150000D03*
%TD*%
D14*
%TO.P,U2,16*%
%TO.N,VCC*%
X85090000Y-49530000D03*
%TO.P,U2,8*%
%TO.N,GND*%
X102870000Y-57150000D03*
%TO.P,U2,15*%
%TO.N,Net-(R9-Pad2)*%
X87630000Y-49530000D03*
%TO.P,U2,7*%
%TO.N,Net-(R16-Pad2)*%
X100330000Y-57150000D03*
%TO.P,U2,14*%
%TO.N,Net-(U1-Pad9)*%
X90170000Y-49530000D03*
%TO.P,U2,6*%
%TO.N,Net-(R15-Pad2)*%
X97790000Y-57150000D03*
%TO.P,U2,13*%
%TO.N,GND*%
X92710000Y-49530000D03*
%TO.P,U2,5*%
%TO.N,Net-(R14-Pad2)*%
X95250000Y-57150000D03*
%TO.P,U2,12*%
%TO.N,/WCK*%
X95250000Y-49530000D03*
%TO.P,U2,4*%
%TO.N,Net-(R13-Pad2)*%
X92710000Y-57150000D03*
%TO.P,U2,11*%
%TO.N,/BCK*%
X97790000Y-49530000D03*
%TO.P,U2,3*%
%TO.N,Net-(R12-Pad2)*%
X90170000Y-57150000D03*
%TO.P,U2,10*%
%TO.N,VCC*%
X100330000Y-49530000D03*
%TO.P,U2,2*%
%TO.N,Net-(R11-Pad2)*%
X87630000Y-57150000D03*
%TO.P,U2,9*%
%TO.N,Net-(U2-Pad9)*%
X102870000Y-49530000D03*
D15*
%TO.P,U2,1*%
%TO.N,Net-(R10-Pad2)*%
X85090000Y-57150000D03*
%TD*%
D14*
%TO.P,U1,16*%
%TO.N,VCC*%
X60960000Y-49530000D03*
%TO.P,U1,8*%
%TO.N,GND*%
X78740000Y-57150000D03*
%TO.P,U1,15*%
%TO.N,Net-(R1-Pad2)*%
X63500000Y-49530000D03*
%TO.P,U1,7*%
%TO.N,Net-(R8-Pad2)*%
X76200000Y-57150000D03*
%TO.P,U1,14*%
%TO.N,/DIN*%
X66040000Y-49530000D03*
%TO.P,U1,6*%
%TO.N,Net-(R7-Pad2)*%
X73660000Y-57150000D03*
%TO.P,U1,13*%
%TO.N,GND*%
X68580000Y-49530000D03*
%TO.P,U1,5*%
%TO.N,Net-(R6-Pad2)*%
X71120000Y-57150000D03*
%TO.P,U1,12*%
%TO.N,/WCK*%
X71120000Y-49530000D03*
%TO.P,U1,4*%
%TO.N,Net-(R5-Pad2)*%
X68580000Y-57150000D03*
%TO.P,U1,11*%
%TO.N,/BCK*%
X73660000Y-49530000D03*
%TO.P,U1,3*%
%TO.N,Net-(R4-Pad2)*%
X66040000Y-57150000D03*
%TO.P,U1,10*%
%TO.N,VCC*%
X76200000Y-49530000D03*
%TO.P,U1,2*%
%TO.N,Net-(R3-Pad2)*%
X63500000Y-57150000D03*
%TO.P,U1,9*%
%TO.N,Net-(U1-Pad9)*%
X78740000Y-49530000D03*
D15*
%TO.P,U1,1*%
%TO.N,Net-(R2-Pad2)*%
X60960000Y-57150000D03*
%TD*%
%TO.P,J6,1*%
%TO.N,Net-(J6-Pad1)*%
%TA.AperFunction,ComponentPad*%
G36*
G01*
X139030000Y-74510000D02*
X137830000Y-74510000D01*
G75*
G02*
X137580000Y-74260000I0J250000D01*
G01*
X137580000Y-73060000D01*
G75*
G02*
X137830000Y-72810000I250000J0D01*
G01*
X139030000Y-72810000D01*
G75*
G02*
X139280000Y-73060000I0J-250000D01*
G01*
X139280000Y-74260000D01*
G75*
G02*
X139030000Y-74510000I-250000J0D01*
G01*
G37*
%TD.AperFunction*%
D16*
%TO.P,J6,3*%
%TO.N,Net-(J6-Pad3)*%
X140970000Y-73660000D03*
%TO.P,J6,5*%
%TO.N,Net-(J6-Pad5)*%
X143510000Y-73660000D03*
%TO.P,J6,7*%
%TO.N,Net-(J6-Pad7)*%
X146050000Y-73660000D03*
%TO.P,J6,2*%
%TO.N,Net-(J6-Pad2)*%
X138430000Y-71120000D03*
%TO.P,J6,4*%
%TO.N,Net-(J6-Pad4)*%
X140970000Y-71120000D03*
%TO.P,J6,6*%
%TO.N,Net-(J6-Pad6)*%
X143510000Y-71120000D03*
%TO.P,J6,8*%
%TO.N,Net-(J6-Pad8)*%
X146050000Y-71120000D03*
%TD*%
%TO.P,J5,1*%
%TO.N,Net-(J5-Pad1)*%
%TA.AperFunction,ComponentPad*%
G36*
G01*
X118710000Y-74510000D02*
X117510000Y-74510000D01*
G75*
G02*
X117260000Y-74260000I0J250000D01*
G01*
X117260000Y-73060000D01*
G75*
G02*
X117510000Y-72810000I250000J0D01*
G01*
X118710000Y-72810000D01*
G75*
G02*
X118960000Y-73060000I0J-250000D01*
G01*
X118960000Y-74260000D01*
G75*
G02*
X118710000Y-74510000I-250000J0D01*
G01*
G37*
%TD.AperFunction*%
%TO.P,J5,3*%
%TO.N,Net-(J5-Pad3)*%
X120650000Y-73660000D03*
%TO.P,J5,5*%
%TO.N,Net-(J5-Pad5)*%
X123190000Y-73660000D03*
%TO.P,J5,7*%
%TO.N,Net-(J5-Pad7)*%
X125730000Y-73660000D03*
%TO.P,J5,2*%
%TO.N,Net-(J5-Pad2)*%
X118110000Y-71120000D03*
%TO.P,J5,4*%
%TO.N,Net-(J5-Pad4)*%
X120650000Y-71120000D03*
%TO.P,J5,6*%
%TO.N,Net-(J5-Pad6)*%
X123190000Y-71120000D03*
%TO.P,J5,8*%
%TO.N,Net-(J5-Pad8)*%
X125730000Y-71120000D03*
%TD*%
%TO.P,J3,8*%
%TO.N,Net-(J3-Pad8)*%
X93980000Y-71120000D03*
%TO.P,J3,6*%
%TO.N,Net-(J3-Pad6)*%
X91440000Y-71120000D03*
%TO.P,J3,4*%
%TO.N,Net-(J3-Pad4)*%
X88900000Y-71120000D03*
%TO.P,J3,2*%
%TO.N,Net-(J3-Pad2)*%
X86360000Y-71120000D03*
%TO.P,J3,7*%
%TO.N,Net-(J3-Pad7)*%
X93980000Y-73660000D03*
%TO.P,J3,5*%
%TO.N,Net-(J3-Pad5)*%
X91440000Y-73660000D03*
%TO.P,J3,3*%
%TO.N,Net-(J3-Pad3)*%
X88900000Y-73660000D03*
%TO.P,J3,1*%
%TO.N,Net-(J3-Pad1)*%
%TA.AperFunction,ComponentPad*%
G36*
G01*
X86960000Y-74510000D02*
X85760000Y-74510000D01*
G75*
G02*
X85510000Y-74260000I0J250000D01*
G01*
X85510000Y-73060000D01*
G75*
G02*
X85760000Y-72810000I250000J0D01*
G01*
X86960000Y-72810000D01*
G75*
G02*
X87210000Y-73060000I0J-250000D01*
G01*
X87210000Y-74260000D01*
G75*
G02*
X86960000Y-74510000I-250000J0D01*
G01*
G37*
%TD.AperFunction*%
%TD*%
%TO.P,J1,8*%
%TO.N,Net-(J1-Pad8)*%
X73660000Y-71120000D03*
%TO.P,J1,6*%
%TO.N,Net-(J1-Pad6)*%
X71120000Y-71120000D03*
%TO.P,J1,4*%
%TO.N,Net-(J1-Pad4)*%
X68580000Y-71120000D03*
%TO.P,J1,2*%
%TO.N,Net-(J1-Pad2)*%
X66040000Y-71120000D03*
%TO.P,J1,7*%
%TO.N,Net-(J1-Pad7)*%
X73660000Y-73660000D03*
%TO.P,J1,5*%
%TO.N,Net-(J1-Pad5)*%
X71120000Y-73660000D03*
%TO.P,J1,3*%
%TO.N,Net-(J1-Pad3)*%
X68580000Y-73660000D03*
%TO.P,J1,1*%
%TO.N,Net-(J1-Pad1)*%
%TA.AperFunction,ComponentPad*%
G36*
G01*
X66640000Y-74510000D02*
X65440000Y-74510000D01*
G75*
G02*
X65190000Y-74260000I0J250000D01*
G01*
X65190000Y-73060000D01*
G75*
G02*
X65440000Y-72810000I250000J0D01*
G01*
X66640000Y-72810000D01*
G75*
G02*
X66890000Y-73060000I0J-250000D01*
G01*
X66890000Y-74260000D01*
G75*
G02*
X66640000Y-74510000I-250000J0D01*
G01*
G37*
%TD.AperFunction*%
%TD*%
D17*
%TO.P,C5,2*%
%TO.N,GND*%
X154178000Y-52070000D03*
%TO.P,C5,1*%
%TO.N,VCC*%
X154178000Y-54570000D03*
%TD*%
%TO.P,C4,2*%
%TO.N,GND*%
X130175000Y-52110000D03*
%TO.P,C4,1*%
%TO.N,VCC*%
X130175000Y-54610000D03*
%TD*%
%TO.P,C3,2*%
%TO.N,GND*%
X106045000Y-52110000D03*
%TO.P,C3,1*%
%TO.N,VCC*%
X106045000Y-54610000D03*
%TD*%
%TO.P,C2,1*%
%TO.N,VCC*%
X81915000Y-54610000D03*
%TO.P,C2,2*%
%TO.N,GND*%
X81915000Y-52110000D03*
%TD*%
%TO.P,C1,2*%
%TO.N,GND*%
X57873900Y-52070000D03*
%TO.P,C1,1*%
%TO.N,VCC*%
X57873900Y-54570000D03*
%TD*%
D18*
%TO.N,GND*%
X75000000Y-43400000D03*
X75000000Y-47200000D03*
X62484000Y-47180500D03*
X77300000Y-43400000D03*
X77300000Y-47200000D03*
X99187000Y-43497500D03*
X99200000Y-47100000D03*
X101500000Y-47100000D03*
X123100000Y-47300000D03*
X125700000Y-47300000D03*
X150939500Y-46228000D03*
X101500000Y-43400000D03*
X123317000Y-43434000D03*
X125666500Y-43497500D03*
X148971000Y-43497500D03*
X138430000Y-43434000D03*
X114300000Y-43400000D03*
X90170000Y-43500000D03*
X64770000Y-43434000D03*
X113030000Y-72517000D03*
X134620000Y-72517000D03*
X77470000Y-72390000D03*
X62039500Y-72199500D03*
X83629500Y-72453500D03*
X96700000Y-72500000D03*
X128000000Y-72500000D03*
X149479000Y-72263000D03*
X151765000Y-66103500D03*
X131889500Y-65900000D03*
X128500000Y-65800000D03*
X107600000Y-65800000D03*
X104200000Y-65800000D03*
X83800000Y-65800000D03*
X79900000Y-65900000D03*
X59690000Y-65900000D03*
X57900000Y-47200000D03*
X154700000Y-47000000D03*
X154300000Y-72200000D03*
X57700000Y-72200000D03*
X148844000Y-78359000D03*
X130048000Y-78359000D03*
X106045000Y-78359000D03*
X81915000Y-78359000D03*
X62103000Y-78359000D03*
X76200000Y-40449500D03*
X124460000Y-40449500D03*
X100330000Y-40449500D03*
X149225000Y-40449500D03*
X60960000Y-41211500D03*
%TO.N,Net-(U1-Pad9)*%
X90170000Y-45085000D03*
%TO.N,Net-(U2-Pad9)*%
X114300000Y-45212000D03*
%TO.N,Net-(U3-Pad9)*%
X138430000Y-45085000D03*
%TD*%
D19*
%TO.N,Net-(U1-Pad9)*%
X90170000Y-45085000D02*
X90170000Y-49530000D01*
%TO.N,Net-(U2-Pad9)*%
X114300000Y-45212000D02*
X114300000Y-49657000D01*
%TO.N,Net-(U3-Pad9)*%
X138430000Y-45085000D02*
X138430000Y-49530000D01*
%TD*%
D20*
%TO.N,GND*%
X153028169Y-40162463D02*
X152744002Y-40352337D01*
X152502337Y-40594002D01*
X152312463Y-40878169D01*
X152181675Y-41193919D01*
X152115000Y-41529117D01*
X152115000Y-41870883D01*
X152181675Y-42206081D01*
X152312463Y-42521831D01*
X152502337Y-42805998D01*
X152744002Y-43047663D01*
X153028169Y-43237537D01*
X153343919Y-43368325D01*
X153679117Y-43435000D01*
X154020883Y-43435000D01*
X154356081Y-43368325D01*
X154671831Y-43237537D01*
X154955998Y-43047663D01*
X155197663Y-42805998D01*
X155387537Y-42521831D01*
X155390001Y-42515883D01*
X155390001Y-51321247D01*
X155170702Y-51256903D01*
X154357605Y-52070000D01*
X155170702Y-52883097D01*
X155390001Y-52818753D01*
X155390001Y-53800956D01*
X155292637Y-53655241D01*
X155092759Y-53455363D01*
X154892131Y-53321308D01*
X154919514Y-53306671D01*
X154991097Y-53062702D01*
X154178000Y-52249605D01*
X153364903Y-53062702D01*
X153436486Y-53306671D01*
X153465341Y-53320324D01*
X153263241Y-53455363D01*
X153063363Y-53655241D01*
X152906320Y-53890273D01*
X152798147Y-54151426D01*
X152743000Y-54428665D01*
X152743000Y-54711335D01*
X152798147Y-54988574D01*
X152906320Y-55249727D01*
X153063363Y-55484759D01*
X153263241Y-55684637D01*
X153498273Y-55841680D01*
X153759426Y-55949853D01*
X154036665Y-56005000D01*
X154319335Y-56005000D01*
X154596574Y-55949853D01*
X154857727Y-55841680D01*
X155092759Y-55684637D01*
X155292637Y-55484759D01*
X155390001Y-55339044D01*
X155390000Y-76484115D01*
X155387537Y-76478169D01*
X155197663Y-76194002D01*
X154955998Y-75952337D01*
X154671831Y-75762463D01*
X154356081Y-75631675D01*
X154020883Y-75565000D01*
X153679117Y-75565000D01*
X153343919Y-75631675D01*
X153028169Y-75762463D01*
X152744002Y-75952337D01*
X152502337Y-76194002D01*
X152312463Y-76478169D01*
X152181675Y-76793919D01*
X152115000Y-77129117D01*
X152115000Y-77470883D01*
X152181675Y-77806081D01*
X152312463Y-78121831D01*
X152502337Y-78405998D01*
X152744002Y-78647663D01*
X153028169Y-78837537D01*
X153034115Y-78840000D01*
X59065885Y-78840000D01*
X59071831Y-78837537D01*
X59355998Y-78647663D01*
X59597663Y-78405998D01*
X59787537Y-78121831D01*
X59918325Y-77806081D01*
X59985000Y-77470883D01*
X59985000Y-77129117D01*
X59918325Y-76793919D01*
X59787537Y-76478169D01*
X59597663Y-76194002D01*
X59355998Y-75952337D01*
X59071831Y-75762463D01*
X58756081Y-75631675D01*
X58420883Y-75565000D01*
X58079117Y-75565000D01*
X57743919Y-75631675D01*
X57428169Y-75762463D01*
X57144002Y-75952337D01*
X56902337Y-76194002D01*
X56712463Y-76478169D01*
X56706242Y-76493188D01*
X56701951Y-73060000D01*
X64551928Y-73060000D01*
X64551928Y-74260000D01*
X64568992Y-74433254D01*
X64619528Y-74599850D01*
X64701595Y-74753386D01*
X64812038Y-74887962D01*
X64946614Y-74998405D01*
X65100150Y-75080472D01*
X65266746Y-75131008D01*
X65440000Y-75148072D01*
X66640000Y-75148072D01*
X66813254Y-75131008D01*
X66979850Y-75080472D01*
X67133386Y-74998405D01*
X67267962Y-74887962D01*
X67378405Y-74753386D01*
X67446285Y-74626392D01*
X67633368Y-74813475D01*
X67876589Y-74975990D01*
X68146842Y-75087932D01*
X68433740Y-75145000D01*
X68726260Y-75145000D01*
X69013158Y-75087932D01*
X69283411Y-74975990D01*
X69526632Y-74813475D01*
X69733475Y-74606632D01*
X69850000Y-74432240D01*
X69966525Y-74606632D01*
X70173368Y-74813475D01*
X70416589Y-74975990D01*
X70686842Y-75087932D01*
X70973740Y-75145000D01*
X71266260Y-75145000D01*
X71553158Y-75087932D01*
X71823411Y-74975990D01*
X72066632Y-74813475D01*
X72273475Y-74606632D01*
X72390000Y-74432240D01*
X72506525Y-74606632D01*
X72713368Y-74813475D01*
X72956589Y-74975990D01*
X73226842Y-75087932D01*
X73513740Y-75145000D01*
X73806260Y-75145000D01*
X74093158Y-75087932D01*
X74363411Y-74975990D01*
X74606632Y-74813475D01*
X74813475Y-74606632D01*
X74975990Y-74363411D01*
X75087932Y-74093158D01*
X75145000Y-73806260D01*
X75145000Y-73513740D01*
X75087932Y-73226842D01*
X75018825Y-73060000D01*
X84871928Y-73060000D01*
X84871928Y-74260000D01*
X84888992Y-74433254D01*
X84939528Y-74599850D01*
X85021595Y-74753386D01*
X85132038Y-74887962D01*
X85266614Y-74998405D01*
X85420150Y-75080472D01*
X85586746Y-75131008D01*
X85760000Y-75148072D01*
X86960000Y-75148072D01*
X87133254Y-75131008D01*
X87299850Y-75080472D01*
X87453386Y-74998405D01*
X87587962Y-74887962D01*
X87698405Y-74753386D01*
X87766285Y-74626392D01*
X87953368Y-74813475D01*
X88196589Y-74975990D01*
X88466842Y-75087932D01*
X88753740Y-75145000D01*
X89046260Y-75145000D01*
X89333158Y-75087932D01*
X89603411Y-74975990D01*
X89846632Y-74813475D01*
X90053475Y-74606632D01*
X90170000Y-74432240D01*
X90286525Y-74606632D01*
X90493368Y-74813475D01*
X90736589Y-74975990D01*
X91006842Y-75087932D01*
X91293740Y-75145000D01*
X91586260Y-75145000D01*
X91873158Y-75087932D01*
X92143411Y-74975990D01*
X92386632Y-74813475D01*
X92593475Y-74606632D01*
X92710000Y-74432240D01*
X92826525Y-74606632D01*
X93033368Y-74813475D01*
X93276589Y-74975990D01*
X93546842Y-75087932D01*
X93833740Y-75145000D01*
X94126260Y-75145000D01*
X94413158Y-75087932D01*
X94683411Y-74975990D01*
X94926632Y-74813475D01*
X95133475Y-74606632D01*
X95295990Y-74363411D01*
X95407932Y-74093158D01*
X95450003Y-73881653D01*
X102192952Y-73881653D01*
X102348962Y-74197214D01*
X102723745Y-74388020D01*
X103128551Y-74502044D01*
X103547824Y-74534902D01*
X103965451Y-74485334D01*
X104365383Y-74355243D01*
X104661038Y-74197214D01*
X104817048Y-73881653D01*
X103505000Y-72569605D01*
X102192952Y-73881653D01*
X95450003Y-73881653D01*
X95465000Y-73806260D01*
X95465000Y-73513740D01*
X95407932Y-73226842D01*
X95295990Y-72956589D01*
X95133475Y-72713368D01*
X94926632Y-72506525D01*
X94816331Y-72432824D01*
X101360098Y-72432824D01*
X101409666Y-72850451D01*
X101539757Y-73250383D01*
X101697786Y-73546038D01*
X102013347Y-73702048D01*
X103325395Y-72390000D01*
X103684605Y-72390000D01*
X104996653Y-73702048D01*
X105312214Y-73546038D01*
X105503020Y-73171255D01*
X105617044Y-72766449D01*
X105649902Y-72347176D01*
X105600334Y-71929549D01*
X105470243Y-71529617D01*
X105312214Y-71233962D01*
X104996653Y-71077952D01*
X103684605Y-72390000D01*
X103325395Y-72390000D01*
X102013347Y-71077952D01*
X101697786Y-71233962D01*
X101506980Y-71608745D01*
X101392956Y-72013551D01*
X101360098Y-72432824D01*
X94816331Y-72432824D01*
X94752240Y-72390000D01*
X94926632Y-72273475D01*
X95133475Y-72066632D01*
X95295990Y-71823411D01*
X95407932Y-71553158D01*
X95465000Y-71266260D01*
X95465000Y-70973740D01*
X95450004Y-70898347D01*
X102192952Y-70898347D01*
X103505000Y-72210395D01*
X104817048Y-70898347D01*
X104812922Y-70890000D01*
X106446928Y-70890000D01*
X106446928Y-73890000D01*
X106459188Y-74014482D01*
X106495498Y-74134180D01*
X106554463Y-74244494D01*
X106633815Y-74341185D01*
X106730506Y-74420537D01*
X106840820Y-74479502D01*
X106960518Y-74515812D01*
X107085000Y-74528072D01*
X110085000Y-74528072D01*
X110209482Y-74515812D01*
X110329180Y-74479502D01*
X110439494Y-74420537D01*
X110536185Y-74341185D01*
X110615537Y-74244494D01*
X110674502Y-74134180D01*
X110710812Y-74014482D01*
X110723072Y-73890000D01*
X110723072Y-73060000D01*
X116621928Y-73060000D01*
X116621928Y-74260000D01*
X116638992Y-74433254D01*
X116689528Y-74599850D01*
X116771595Y-74753386D01*
X116882038Y-74887962D01*
X117016614Y-74998405D01*
X117170150Y-75080472D01*
X117336746Y-75131008D01*
X117510000Y-75148072D01*
X118710000Y-75148072D01*
X118883254Y-75131008D01*
X119049850Y-75080472D01*
X119203386Y-74998405D01*
X119337962Y-74887962D01*
X119448405Y-74753386D01*
X119516285Y-74626392D01*
X119703368Y-74813475D01*
X119946589Y-74975990D01*
X120216842Y-75087932D01*
X120503740Y-75145000D01*
X120796260Y-75145000D01*
X121083158Y-75087932D01*
X121353411Y-74975990D01*
X121596632Y-74813475D01*
X121803475Y-74606632D01*
X121920000Y-74432240D01*
X122036525Y-74606632D01*
X122243368Y-74813475D01*
X122486589Y-74975990D01*
X122756842Y-75087932D01*
X123043740Y-75145000D01*
X123336260Y-75145000D01*
X123623158Y-75087932D01*
X123893411Y-74975990D01*
X124136632Y-74813475D01*
X124343475Y-74606632D01*
X124460000Y-74432240D01*
X124576525Y-74606632D01*
X124783368Y-74813475D01*
X125026589Y-74975990D01*
X125296842Y-75087932D01*
X125583740Y-75145000D01*
X125876260Y-75145000D01*
X126163158Y-75087932D01*
X126433411Y-74975990D01*
X126676632Y-74813475D01*
X126883475Y-74606632D01*
X127045990Y-74363411D01*
X127157932Y-74093158D01*
X127215000Y-73806260D01*
X127215000Y-73513740D01*
X127157932Y-73226842D01*
X127088825Y-73060000D01*
X136941928Y-73060000D01*
X136941928Y-74260000D01*
X136958992Y-74433254D01*
X137009528Y-74599850D01*
X137091595Y-74753386D01*
X137202038Y-74887962D01*
X137336614Y-74998405D01*
X137490150Y-75080472D01*
X137656746Y-75131008D01*
X137830000Y-75148072D01*
X139030000Y-75148072D01*
X139203254Y-75131008D01*
X139369850Y-75080472D01*
X139523386Y-74998405D01*
X139657962Y-74887962D01*
X139768405Y-74753386D01*
X139836285Y-74626392D01*
X140023368Y-74813475D01*
X140266589Y-74975990D01*
X140536842Y-75087932D01*
X140823740Y-75145000D01*
X141116260Y-75145000D01*
X141403158Y-75087932D01*
X141673411Y-74975990D01*
X141916632Y-74813475D01*
X142123475Y-74606632D01*
X142240000Y-74432240D01*
X142356525Y-74606632D01*
X142563368Y-74813475D01*
X142806589Y-74975990D01*
X143076842Y-75087932D01*
X143363740Y-75145000D01*
X143656260Y-75145000D01*
X143943158Y-75087932D01*
X144213411Y-74975990D01*
X144456632Y-74813475D01*
X144663475Y-74606632D01*
X144780000Y-74432240D01*
X144896525Y-74606632D01*
X145103368Y-74813475D01*
X145346589Y-74975990D01*
X145616842Y-75087932D01*
X145903740Y-75145000D01*
X146196260Y-75145000D01*
X146483158Y-75087932D01*
X146753411Y-74975990D01*
X146996632Y-74813475D01*
X147203475Y-74606632D01*
X147365990Y-74363411D01*
X147477932Y-74093158D01*
X147535000Y-73806260D01*
X147535000Y-73513740D01*
X147477932Y-73226842D01*
X147365990Y-72956589D01*
X147203475Y-72713368D01*
X146996632Y-72506525D01*
X146822240Y-72390000D01*
X146996632Y-72273475D01*
X147203475Y-72066632D01*
X147365990Y-71823411D01*
X147477932Y-71553158D01*
X147535000Y-71266260D01*
X147535000Y-70973740D01*
X147477932Y-70686842D01*
X147365990Y-70416589D01*
X147203475Y-70173368D01*
X146996632Y-69966525D01*
X146753411Y-69804010D01*
X146483158Y-69692068D01*
X146196260Y-69635000D01*
X145903740Y-69635000D01*
X145616842Y-69692068D01*
X145346589Y-69804010D01*
X145103368Y-69966525D01*
X144896525Y-70173368D01*
X144780000Y-70347760D01*
X144663475Y-70173368D01*
X144456632Y-69966525D01*
X144213411Y-69804010D01*
X143943158Y-69692068D01*
X143656260Y-69635000D01*
X143363740Y-69635000D01*
X143076842Y-69692068D01*
X142806589Y-69804010D01*
X142563368Y-69966525D01*
X142356525Y-70173368D01*
X142240000Y-70347760D01*
X142123475Y-70173368D01*
X141916632Y-69966525D01*
X141673411Y-69804010D01*
X141403158Y-69692068D01*
X141116260Y-69635000D01*
X140823740Y-69635000D01*
X140536842Y-69692068D01*
X140266589Y-69804010D01*
X140023368Y-69966525D01*
X139816525Y-70173368D01*
X139700000Y-70347760D01*
X139583475Y-70173368D01*
X139376632Y-69966525D01*
X139133411Y-69804010D01*
X138863158Y-69692068D01*
X138576260Y-69635000D01*
X138283740Y-69635000D01*
X137996842Y-69692068D01*
X137726589Y-69804010D01*
X137483368Y-69966525D01*
X137276525Y-70173368D01*
X137114010Y-70416589D01*
X137002068Y-70686842D01*
X136945000Y-70973740D01*
X136945000Y-71266260D01*
X137002068Y-71553158D01*
X137114010Y-71823411D01*
X137276525Y-72066632D01*
X137463608Y-72253715D01*
X137336614Y-72321595D01*
X137202038Y-72432038D01*
X137091595Y-72566614D01*
X137009528Y-72720150D01*
X136958992Y-72886746D01*
X136941928Y-73060000D01*
X127088825Y-73060000D01*
X127045990Y-72956589D01*
X126883475Y-72713368D01*
X126676632Y-72506525D01*
X126502240Y-72390000D01*
X126676632Y-72273475D01*
X126883475Y-72066632D01*
X127045990Y-71823411D01*
X127157932Y-71553158D01*
X127215000Y-71266260D01*
X127215000Y-70973740D01*
X127157932Y-70686842D01*
X127045990Y-70416589D01*
X126883475Y-70173368D01*
X126676632Y-69966525D01*
X126433411Y-69804010D01*
X126163158Y-69692068D01*
X125876260Y-69635000D01*
X125583740Y-69635000D01*
X125296842Y-69692068D01*
X125026589Y-69804010D01*
X124783368Y-69966525D01*
X124576525Y-70173368D01*
X124460000Y-70347760D01*
X124343475Y-70173368D01*
X124136632Y-69966525D01*
X123893411Y-69804010D01*
X123623158Y-69692068D01*
X123336260Y-69635000D01*
X123043740Y-69635000D01*
X122756842Y-69692068D01*
X122486589Y-69804010D01*
X122243368Y-69966525D01*
X122036525Y-70173368D01*
X121920000Y-70347760D01*
X121803475Y-70173368D01*
X121596632Y-69966525D01*
X121353411Y-69804010D01*
X121083158Y-69692068D01*
X120796260Y-69635000D01*
X120503740Y-69635000D01*
X120216842Y-69692068D01*
X119946589Y-69804010D01*
X119703368Y-69966525D01*
X119496525Y-70173368D01*
X119380000Y-70347760D01*
X119263475Y-70173368D01*
X119056632Y-69966525D01*
X118813411Y-69804010D01*
X118543158Y-69692068D01*
X118256260Y-69635000D01*
X117963740Y-69635000D01*
X117676842Y-69692068D01*
X117406589Y-69804010D01*
X117163368Y-69966525D01*
X116956525Y-70173368D01*
X116794010Y-70416589D01*
X116682068Y-70686842D01*
X116625000Y-70973740D01*
X116625000Y-71266260D01*
X116682068Y-71553158D01*
X116794010Y-71823411D01*
X116956525Y-72066632D01*
X117143608Y-72253715D01*
X117016614Y-72321595D01*
X116882038Y-72432038D01*
X116771595Y-72566614D01*
X116689528Y-72720150D01*
X116638992Y-72886746D01*
X116621928Y-73060000D01*
X110723072Y-73060000D01*
X110723072Y-70890000D01*
X110710812Y-70765518D01*
X110674502Y-70645820D01*
X110615537Y-70535506D01*
X110536185Y-70438815D01*
X110439494Y-70359463D01*
X110329180Y-70300498D01*
X110209482Y-70264188D01*
X110085000Y-70251928D01*
X107085000Y-70251928D01*
X106960518Y-70264188D01*
X106840820Y-70300498D01*
X106730506Y-70359463D01*
X106633815Y-70438815D01*
X106554463Y-70535506D01*
X106495498Y-70645820D01*
X106459188Y-70765518D01*
X106446928Y-70890000D01*
X104812922Y-70890000D01*
X104661038Y-70582786D01*
X104286255Y-70391980D01*
X103881449Y-70277956D01*
X103462176Y-70245098D01*
X103044549Y-70294666D01*
X102644617Y-70424757D01*
X102348962Y-70582786D01*
X102192952Y-70898347D01*
X95450004Y-70898347D01*
X95407932Y-70686842D01*
X95295990Y-70416589D01*
X95133475Y-70173368D01*
X94926632Y-69966525D01*
X94683411Y-69804010D01*
X94413158Y-69692068D01*
X94126260Y-69635000D01*
X93833740Y-69635000D01*
X93546842Y-69692068D01*
X93276589Y-69804010D01*
X93033368Y-69966525D01*
X92826525Y-70173368D01*
X92710000Y-70347760D01*
X92593475Y-70173368D01*
X92386632Y-69966525D01*
X92143411Y-69804010D01*
X91873158Y-69692068D01*
X91586260Y-69635000D01*
X91293740Y-69635000D01*
X91006842Y-69692068D01*
X90736589Y-69804010D01*
X90493368Y-69966525D01*
X90286525Y-70173368D01*
X90170000Y-70347760D01*
X90053475Y-70173368D01*
X89846632Y-69966525D01*
X89603411Y-69804010D01*
X89333158Y-69692068D01*
X89046260Y-69635000D01*
X88753740Y-69635000D01*
X88466842Y-69692068D01*
X88196589Y-69804010D01*
X87953368Y-69966525D01*
X87746525Y-70173368D01*
X87630000Y-70347760D01*
X87513475Y-70173368D01*
X87306632Y-69966525D01*
X87063411Y-69804010D01*
X86793158Y-69692068D01*
X86506260Y-69635000D01*
X86213740Y-69635000D01*
X85926842Y-69692068D01*
X85656589Y-69804010D01*
X85413368Y-69966525D01*
X85206525Y-70173368D01*
X85044010Y-70416589D01*
X84932068Y-70686842D01*
X84875000Y-70973740D01*
X84875000Y-71266260D01*
X84932068Y-71553158D01*
X85044010Y-71823411D01*
X85206525Y-72066632D01*
X85393608Y-72253715D01*
X85266614Y-72321595D01*
X85132038Y-72432038D01*
X85021595Y-72566614D01*
X84939528Y-72720150D01*
X84888992Y-72886746D01*
X84871928Y-73060000D01*
X75018825Y-73060000D01*
X74975990Y-72956589D01*
X74813475Y-72713368D01*
X74606632Y-72506525D01*
X74432240Y-72390000D01*
X74606632Y-72273475D01*
X74813475Y-72066632D01*
X74975990Y-71823411D01*
X75087932Y-71553158D01*
X75145000Y-71266260D01*
X75145000Y-70973740D01*
X75087932Y-70686842D01*
X74975990Y-70416589D01*
X74813475Y-70173368D01*
X74606632Y-69966525D01*
X74363411Y-69804010D01*
X74093158Y-69692068D01*
X73806260Y-69635000D01*
X73513740Y-69635000D01*
X73226842Y-69692068D01*
X72956589Y-69804010D01*
X72713368Y-69966525D01*
X72506525Y-70173368D01*
X72390000Y-70347760D01*
X72273475Y-70173368D01*
X72066632Y-69966525D01*
X71823411Y-69804010D01*
X71553158Y-69692068D01*
X71266260Y-69635000D01*
X70973740Y-69635000D01*
X70686842Y-69692068D01*
X70416589Y-69804010D01*
X70173368Y-69966525D01*
X69966525Y-70173368D01*
X69850000Y-70347760D01*
X69733475Y-70173368D01*
X69526632Y-69966525D01*
X69283411Y-69804010D01*
X69013158Y-69692068D01*
X68726260Y-69635000D01*
X68433740Y-69635000D01*
X68146842Y-69692068D01*
X67876589Y-69804010D01*
X67633368Y-69966525D01*
X67426525Y-70173368D01*
X67310000Y-70347760D01*
X67193475Y-70173368D01*
X66986632Y-69966525D01*
X66743411Y-69804010D01*
X66473158Y-69692068D01*
X66186260Y-69635000D01*
X65893740Y-69635000D01*
X65606842Y-69692068D01*
X65336589Y-69804010D01*
X65093368Y-69966525D01*
X64886525Y-70173368D01*
X64724010Y-70416589D01*
X64612068Y-70686842D01*
X64555000Y-70973740D01*
X64555000Y-71266260D01*
X64612068Y-71553158D01*
X64724010Y-71823411D01*
X64886525Y-72066632D01*
X65073608Y-72253715D01*
X64946614Y-72321595D01*
X64812038Y-72432038D01*
X64701595Y-72566614D01*
X64619528Y-72720150D01*
X64568992Y-72886746D01*
X64551928Y-73060000D01*
X56701951Y-73060000D01*
X56679832Y-55365882D01*
X56759263Y-55484759D01*
X56959141Y-55684637D01*
X57194173Y-55841680D01*
X57455326Y-55949853D01*
X57732565Y-56005000D01*
X58015235Y-56005000D01*
X58291734Y-55950000D01*
X59521928Y-55950000D01*
X59521928Y-58350000D01*
X59534188Y-58474482D01*
X59570498Y-58594180D01*
X59629463Y-58704494D01*
X59708815Y-58801185D01*
X59805506Y-58880537D01*
X59915820Y-58939502D01*
X60035518Y-58975812D01*
X60160000Y-58988072D01*
X61760000Y-58988072D01*
X61884482Y-58975812D01*
X62004180Y-58939502D01*
X62114494Y-58880537D01*
X62211185Y-58801185D01*
X62290537Y-58704494D01*
X62349502Y-58594180D01*
X62385812Y-58474482D01*
X62387581Y-58456517D01*
X62480393Y-58569608D01*
X62698900Y-58748932D01*
X62948193Y-58882182D01*
X63218692Y-58964236D01*
X63500000Y-58991943D01*
X63781309Y-58964236D01*
X64051808Y-58882182D01*
X64301101Y-58748932D01*
X64519608Y-58569608D01*
X64698932Y-58351101D01*
X64770000Y-58218142D01*
X64841068Y-58351101D01*
X65020393Y-58569608D01*
X65238900Y-58748932D01*
X65488193Y-58882182D01*
X65758692Y-58964236D01*
X66040000Y-58991943D01*
X66321309Y-58964236D01*
X66591808Y-58882182D01*
X66841101Y-58748932D01*
X67059608Y-58569608D01*
X67238932Y-58351101D01*
X67310000Y-58218142D01*
X67381068Y-58351101D01*
X67560393Y-58569608D01*
X67778900Y-58748932D01*
X68028193Y-58882182D01*
X68298692Y-58964236D01*
X68580000Y-58991943D01*
X68861309Y-58964236D01*
X69131808Y-58882182D01*
X69381101Y-58748932D01*
X69599608Y-58569608D01*
X69778932Y-58351101D01*
X69850000Y-58218142D01*
X69921068Y-58351101D01*
X70100393Y-58569608D01*
X70318900Y-58748932D01*
X70568193Y-58882182D01*
X70838692Y-58964236D01*
X71120000Y-58991943D01*
X71401309Y-58964236D01*
X71671808Y-58882182D01*
X71921101Y-58748932D01*
X72139608Y-58569608D01*
X72318932Y-58351101D01*
X72390000Y-58218142D01*
X72461068Y-58351101D01*
X72640393Y-58569608D01*
X72858900Y-58748932D01*
X73108193Y-58882182D01*
X73378692Y-58964236D01*
X73660000Y-58991943D01*
X73941309Y-58964236D01*
X74211808Y-58882182D01*
X74461101Y-58748932D01*
X74679608Y-58569608D01*
X74858932Y-58351101D01*
X74930000Y-58218142D01*
X75001068Y-58351101D01*
X75180393Y-58569608D01*
X75398900Y-58748932D01*
X75648193Y-58882182D01*
X75918692Y-58964236D01*
X76200000Y-58991943D01*
X76481309Y-58964236D01*
X76751808Y-58882182D01*
X77001101Y-58748932D01*
X77219608Y-58569608D01*
X77398932Y-58351101D01*
X77467265Y-58223259D01*
X77617399Y-58452839D01*
X77815105Y-58654500D01*
X78048354Y-58813715D01*
X78308182Y-58924367D01*
X78390961Y-58941904D01*
X78613000Y-58819915D01*
X78613000Y-57277000D01*
X78867000Y-57277000D01*
X78867000Y-58819915D01*
X79089039Y-58941904D01*
X79171818Y-58924367D01*
X79431646Y-58813715D01*
X79664895Y-58654500D01*
X79862601Y-58452839D01*
X80017166Y-58216483D01*
X80122650Y-57954514D01*
X80175000Y-57677000D01*
X80175000Y-57277000D01*
X78867000Y-57277000D01*
X78613000Y-57277000D01*
X78593000Y-57277000D01*
X78593000Y-57023000D01*
X78613000Y-57023000D01*
X78613000Y-55480085D01*
X78867000Y-55480085D01*
X78867000Y-57023000D01*
X80175000Y-57023000D01*
X80175000Y-56623000D01*
X80122650Y-56345486D01*
X80017166Y-56083517D01*
X79862601Y-55847161D01*
X79664895Y-55645500D01*
X79431646Y-55486285D01*
X79171818Y-55375633D01*
X79089039Y-55358096D01*
X78867000Y-55480085D01*
X78613000Y-55480085D01*
X78390961Y-55358096D01*
X78308182Y-55375633D01*
X78048354Y-55486285D01*
X77815105Y-55645500D01*
X77617399Y-55847161D01*
X77467265Y-56076741D01*
X77398932Y-55948899D01*
X77219607Y-55730392D01*
X77001100Y-55551068D01*
X76751807Y-55417818D01*
X76481308Y-55335764D01*
X76200000Y-55308057D01*
X75918691Y-55335764D01*
X75648192Y-55417818D01*
X75398899Y-55551068D01*
X75180392Y-55730393D01*
X75001068Y-55948900D01*
X74930000Y-56081858D01*
X74858932Y-55948899D01*
X74679607Y-55730392D01*
X74461100Y-55551068D01*
X74211807Y-55417818D01*
X73941308Y-55335764D01*
X73660000Y-55308057D01*
X73378691Y-55335764D01*
X73108192Y-55417818D01*
X72858899Y-55551068D01*
X72640392Y-55730393D01*
X72461068Y-55948900D01*
X72390000Y-56081858D01*
X72318932Y-55948899D01*
X72139607Y-55730392D01*
X71921100Y-55551068D01*
X71671807Y-55417818D01*
X71401308Y-55335764D01*
X71120000Y-55308057D01*
X70838691Y-55335764D01*
X70568192Y-55417818D01*
X70318899Y-55551068D01*
X70100392Y-55730393D01*
X69921068Y-55948900D01*
X69850000Y-56081858D01*
X69778932Y-55948899D01*
X69599607Y-55730392D01*
X69381100Y-55551068D01*
X69131807Y-55417818D01*
X68861308Y-55335764D01*
X68580000Y-55308057D01*
X68298691Y-55335764D01*
X68028192Y-55417818D01*
X67778899Y-55551068D01*
X67560392Y-55730393D01*
X67381068Y-55948900D01*
X67310000Y-56081858D01*
X67238932Y-55948899D01*
X67059607Y-55730392D01*
X66841100Y-55551068D01*
X66591807Y-55417818D01*
X66321308Y-55335764D01*
X66040000Y-55308057D01*
X65758691Y-55335764D01*
X65488192Y-55417818D01*
X65238899Y-55551068D01*
X65020392Y-55730393D01*
X64841068Y-55948900D01*
X64770000Y-56081858D01*
X64698932Y-55948899D01*
X64519607Y-55730392D01*
X64301100Y-55551068D01*
X64051807Y-55417818D01*
X63781308Y-55335764D01*
X63500000Y-55308057D01*
X63218691Y-55335764D01*
X62948192Y-55417818D01*
X62698899Y-55551068D01*
X62480392Y-55730393D01*
X62387581Y-55843483D01*
X62385812Y-55825518D01*
X62349502Y-55705820D01*
X62290537Y-55595506D01*
X62211185Y-55498815D01*
X62114494Y-55419463D01*
X62004180Y-55360498D01*
X61884482Y-55324188D01*
X61760000Y-55311928D01*
X60160000Y-55311928D01*
X60035518Y-55324188D01*
X59915820Y-55360498D01*
X59805506Y-55419463D01*
X59708815Y-55498815D01*
X59629463Y-55595506D01*
X59570498Y-55705820D01*
X59534188Y-55825518D01*
X59521928Y-55950000D01*
X58291734Y-55950000D01*
X58292474Y-55949853D01*
X58553627Y-55841680D01*
X58788659Y-55684637D01*
X58988537Y-55484759D01*
X59145580Y-55249727D01*
X59253753Y-54988574D01*
X59308900Y-54711335D01*
X59308900Y-54468665D01*
X80480000Y-54468665D01*
X80480000Y-54751335D01*
X80535147Y-55028574D01*
X80643320Y-55289727D01*
X80800363Y-55524759D01*
X81000241Y-55724637D01*
X81235273Y-55881680D01*
X81496426Y-55989853D01*
X81773665Y-56045000D01*
X82056335Y-56045000D01*
X82333574Y-55989853D01*
X82429787Y-55950000D01*
X83651928Y-55950000D01*
X83651928Y-58350000D01*
X83664188Y-58474482D01*
X83700498Y-58594180D01*
X83759463Y-58704494D01*
X83838815Y-58801185D01*
X83935506Y-58880537D01*
X84045820Y-58939502D01*
X84165518Y-58975812D01*
X84290000Y-58988072D01*
X85890000Y-58988072D01*
X86014482Y-58975812D01*
X86134180Y-58939502D01*
X86244494Y-58880537D01*
X86341185Y-58801185D01*
X86420537Y-58704494D01*
X86479502Y-58594180D01*
X86515812Y-58474482D01*
X86517581Y-58456517D01*
X86610393Y-58569608D01*
X86828900Y-58748932D01*
X87078193Y-58882182D01*
X87348692Y-58964236D01*
X87630000Y-58991943D01*
X87911309Y-58964236D01*
X88181808Y-58882182D01*
X88431101Y-58748932D01*
X88649608Y-58569608D01*
X88828932Y-58351101D01*
X88900000Y-58218142D01*
X88971068Y-58351101D01*
X89150393Y-58569608D01*
X89368900Y-58748932D01*
X89618193Y-58882182D01*
X89888692Y-58964236D01*
X90170000Y-58991943D01*
X90451309Y-58964236D01*
X90721808Y-58882182D01*
X90971101Y-58748932D01*
X91189608Y-58569608D01*
X91368932Y-58351101D01*
X91440000Y-58218142D01*
X91511068Y-58351101D01*
X91690393Y-58569608D01*
X91908900Y-58748932D01*
X92158193Y-58882182D01*
X92428692Y-58964236D01*
X92710000Y-58991943D01*
X92991309Y-58964236D01*
X93261808Y-58882182D01*
X93511101Y-58748932D01*
X93729608Y-58569608D01*
X93908932Y-58351101D01*
X93980000Y-58218142D01*
X94051068Y-58351101D01*
X94230393Y-58569608D01*
X94448900Y-58748932D01*
X94698193Y-58882182D01*
X94968692Y-58964236D01*
X95250000Y-58991943D01*
X95531309Y-58964236D01*
X95801808Y-58882182D01*
X96051101Y-58748932D01*
X96269608Y-58569608D01*
X96448932Y-58351101D01*
X96520000Y-58218142D01*
X96591068Y-58351101D01*
X96770393Y-58569608D01*
X96988900Y-58748932D01*
X97238193Y-58882182D01*
X97508692Y-58964236D01*
X97790000Y-58991943D01*
X98071309Y-58964236D01*
X98341808Y-58882182D01*
X98591101Y-58748932D01*
X98809608Y-58569608D01*
X98988932Y-58351101D01*
X99060000Y-58218142D01*
X99131068Y-58351101D01*
X99310393Y-58569608D01*
X99528900Y-58748932D01*
X99778193Y-58882182D01*
X100048692Y-58964236D01*
X100330000Y-58991943D01*
X100611309Y-58964236D01*
X100881808Y-58882182D01*
X101131101Y-58748932D01*
X101349608Y-58569608D01*
X101528932Y-58351101D01*
X101597265Y-58223259D01*
X101747399Y-58452839D01*
X101945105Y-58654500D01*
X102178354Y-58813715D01*
X102438182Y-58924367D01*
X102520961Y-58941904D01*
X102743000Y-58819915D01*
X102743000Y-57277000D01*
X102997000Y-57277000D01*
X102997000Y-58819915D01*
X103219039Y-58941904D01*
X103301818Y-58924367D01*
X103561646Y-58813715D01*
X103794895Y-58654500D01*
X103992601Y-58452839D01*
X104147166Y-58216483D01*
X104252650Y-57954514D01*
X104305000Y-57677000D01*
X104305000Y-57277000D01*
X102997000Y-57277000D01*
X102743000Y-57277000D01*
X102723000Y-57277000D01*
X102723000Y-57023000D01*
X102743000Y-57023000D01*
X102743000Y-55480085D01*
X102997000Y-55480085D01*
X102997000Y-57023000D01*
X104305000Y-57023000D01*
X104305000Y-56623000D01*
X104252650Y-56345486D01*
X104147166Y-56083517D01*
X103992601Y-55847161D01*
X103794895Y-55645500D01*
X103561646Y-55486285D01*
X103301818Y-55375633D01*
X103219039Y-55358096D01*
X102997000Y-55480085D01*
X102743000Y-55480085D01*
X102520961Y-55358096D01*
X102438182Y-55375633D01*
X102178354Y-55486285D01*
X101945105Y-55645500D01*
X101747399Y-55847161D01*
X101597265Y-56076741D01*
X101528932Y-55948899D01*
X101349607Y-55730392D01*
X101131100Y-55551068D01*
X100881807Y-55417818D01*
X100611308Y-55335764D01*
X100330000Y-55308057D01*
X100048691Y-55335764D01*
X99778192Y-55417818D01*
X99528899Y-55551068D01*
X99310392Y-55730393D01*
X99131068Y-55948900D01*
X99060000Y-56081858D01*
X98988932Y-55948899D01*
X98809607Y-55730392D01*
X98591100Y-55551068D01*
X98341807Y-55417818D01*
X98071308Y-55335764D01*
X97790000Y-55308057D01*
X97508691Y-55335764D01*
X97238192Y-55417818D01*
X96988899Y-55551068D01*
X96770392Y-55730393D01*
X96591068Y-55948900D01*
X96520000Y-56081858D01*
X96448932Y-55948899D01*
X96269607Y-55730392D01*
X96051100Y-55551068D01*
X95801807Y-55417818D01*
X95531308Y-55335764D01*
X95250000Y-55308057D01*
X94968691Y-55335764D01*
X94698192Y-55417818D01*
X94448899Y-55551068D01*
X94230392Y-55730393D01*
X94051068Y-55948900D01*
X93980000Y-56081858D01*
X93908932Y-55948899D01*
X93729607Y-55730392D01*
X93511100Y-55551068D01*
X93261807Y-55417818D01*
X92991308Y-55335764D01*
X92710000Y-55308057D01*
X92428691Y-55335764D01*
X92158192Y-55417818D01*
X91908899Y-55551068D01*
X91690392Y-55730393D01*
X91511068Y-55948900D01*
X91440000Y-56081858D01*
X91368932Y-55948899D01*
X91189607Y-55730392D01*
X90971100Y-55551068D01*
X90721807Y-55417818D01*
X90451308Y-55335764D01*
X90170000Y-55308057D01*
X89888691Y-55335764D01*
X89618192Y-55417818D01*
X89368899Y-55551068D01*
X89150392Y-55730393D01*
X88971068Y-55948900D01*
X88900000Y-56081858D01*
X88828932Y-55948899D01*
X88649607Y-55730392D01*
X88431100Y-55551068D01*
X88181807Y-55417818D01*
X87911308Y-55335764D01*
X87630000Y-55308057D01*
X87348691Y-55335764D01*
X87078192Y-55417818D01*
X86828899Y-55551068D01*
X86610392Y-55730393D01*
X86517581Y-55843483D01*
X86515812Y-55825518D01*
X86479502Y-55705820D01*
X86420537Y-55595506D01*
X86341185Y-55498815D01*
X86244494Y-55419463D01*
X86134180Y-55360498D01*
X86014482Y-55324188D01*
X85890000Y-55311928D01*
X84290000Y-55311928D01*
X84165518Y-55324188D01*
X84045820Y-55360498D01*
X83935506Y-55419463D01*
X83838815Y-55498815D01*
X83759463Y-55595506D01*
X83700498Y-55705820D01*
X83664188Y-55825518D01*
X83651928Y-55950000D01*
X82429787Y-55950000D01*
X82594727Y-55881680D01*
X82829759Y-55724637D01*
X83029637Y-55524759D01*
X83186680Y-55289727D01*
X83294853Y-55028574D01*
X83350000Y-54751335D01*
X83350000Y-54468665D01*
X104610000Y-54468665D01*
X104610000Y-54751335D01*
X104665147Y-55028574D01*
X104773320Y-55289727D01*
X104930363Y-55524759D01*
X105130241Y-55724637D01*
X105365273Y-55881680D01*
X105626426Y-55989853D01*
X105903665Y-56045000D01*
X106186335Y-56045000D01*
X106463574Y-55989853D01*
X106559787Y-55950000D01*
X107781928Y-55950000D01*
X107781928Y-58350000D01*
X107794188Y-58474482D01*
X107830498Y-58594180D01*
X107889463Y-58704494D01*
X107968815Y-58801185D01*
X108065506Y-58880537D01*
X108175820Y-58939502D01*
X108295518Y-58975812D01*
X108420000Y-58988072D01*
X110020000Y-58988072D01*
X110144482Y-58975812D01*
X110264180Y-58939502D01*
X110374494Y-58880537D01*
X110471185Y-58801185D01*
X110550537Y-58704494D01*
X110609502Y-58594180D01*
X110645812Y-58474482D01*
X110647581Y-58456517D01*
X110740393Y-58569608D01*
X110958900Y-58748932D01*
X111208193Y-58882182D01*
X111478692Y-58964236D01*
X111760000Y-58991943D01*
X112041309Y-58964236D01*
X112311808Y-58882182D01*
X112561101Y-58748932D01*
X112779608Y-58569608D01*
X112958932Y-58351101D01*
X113030000Y-58218142D01*
X113101068Y-58351101D01*
X113280393Y-58569608D01*
X113498900Y-58748932D01*
X113748193Y-58882182D01*
X114018692Y-58964236D01*
X114300000Y-58991943D01*
X114581309Y-58964236D01*
X114851808Y-58882182D01*
X115101101Y-58748932D01*
X115319608Y-58569608D01*
X115498932Y-58351101D01*
X115570000Y-58218142D01*
X115641068Y-58351101D01*
X115820393Y-58569608D01*
X116038900Y-58748932D01*
X116288193Y-58882182D01*
X116558692Y-58964236D01*
X116840000Y-58991943D01*
X117121309Y-58964236D01*
X117391808Y-58882182D01*
X117641101Y-58748932D01*
X117859608Y-58569608D01*
X118038932Y-58351101D01*
X118110000Y-58218142D01*
X118181068Y-58351101D01*
X118360393Y-58569608D01*
X118578900Y-58748932D01*
X118828193Y-58882182D01*
X119098692Y-58964236D01*
X119380000Y-58991943D01*
X119661309Y-58964236D01*
X119931808Y-58882182D01*
X120181101Y-58748932D01*
X120399608Y-58569608D01*
X120578932Y-58351101D01*
X120650000Y-58218142D01*
X120721068Y-58351101D01*
X120900393Y-58569608D01*
X121118900Y-58748932D01*
X121368193Y-58882182D01*
X121638692Y-58964236D01*
X121920000Y-58991943D01*
X122201309Y-58964236D01*
X122471808Y-58882182D01*
X122721101Y-58748932D01*
X122939608Y-58569608D01*
X123118932Y-58351101D01*
X123190000Y-58218142D01*
X123261068Y-58351101D01*
X123440393Y-58569608D01*
X123658900Y-58748932D01*
X123908193Y-58882182D01*
X124178692Y-58964236D01*
X124460000Y-58991943D01*
X124741309Y-58964236D01*
X125011808Y-58882182D01*
X125261101Y-58748932D01*
X125479608Y-58569608D01*
X125658932Y-58351101D01*
X125727265Y-58223259D01*
X125877399Y-58452839D01*
X126075105Y-58654500D01*
X126308354Y-58813715D01*
X126568182Y-58924367D01*
X126650961Y-58941904D01*
X126873000Y-58819915D01*
X126873000Y-57277000D01*
X127127000Y-57277000D01*
X127127000Y-58819915D01*
X127349039Y-58941904D01*
X127431818Y-58924367D01*
X127691646Y-58813715D01*
X127924895Y-58654500D01*
X128122601Y-58452839D01*
X128277166Y-58216483D01*
X128382650Y-57954514D01*
X128435000Y-57677000D01*
X128435000Y-57277000D01*
X127127000Y-57277000D01*
X126873000Y-57277000D01*
X126853000Y-57277000D01*
X126853000Y-57023000D01*
X126873000Y-57023000D01*
X126873000Y-55480085D01*
X127127000Y-55480085D01*
X127127000Y-57023000D01*
X128435000Y-57023000D01*
X128435000Y-56623000D01*
X128382650Y-56345486D01*
X128277166Y-56083517D01*
X128122601Y-55847161D01*
X127924895Y-55645500D01*
X127691646Y-55486285D01*
X127431818Y-55375633D01*
X127349039Y-55358096D01*
X127127000Y-55480085D01*
X126873000Y-55480085D01*
X126650961Y-55358096D01*
X126568182Y-55375633D01*
X126308354Y-55486285D01*
X126075105Y-55645500D01*
X125877399Y-55847161D01*
X125727265Y-56076741D01*
X125658932Y-55948899D01*
X125479607Y-55730392D01*
X125261100Y-55551068D01*
X125011807Y-55417818D01*
X124741308Y-55335764D01*
X124460000Y-55308057D01*
X124178691Y-55335764D01*
X123908192Y-55417818D01*
X123658899Y-55551068D01*
X123440392Y-55730393D01*
X123261068Y-55948900D01*
X123190000Y-56081858D01*
X123118932Y-55948899D01*
X122939607Y-55730392D01*
X122721100Y-55551068D01*
X122471807Y-55417818D01*
X122201308Y-55335764D01*
X121920000Y-55308057D01*
X121638691Y-55335764D01*
X121368192Y-55417818D01*
X121118899Y-55551068D01*
X120900392Y-55730393D01*
X120721068Y-55948900D01*
X120650000Y-56081858D01*
X120578932Y-55948899D01*
X120399607Y-55730392D01*
X120181100Y-55551068D01*
X119931807Y-55417818D01*
X119661308Y-55335764D01*
X119380000Y-55308057D01*
X119098691Y-55335764D01*
X118828192Y-55417818D01*
X118578899Y-55551068D01*
X118360392Y-55730393D01*
X118181068Y-55948900D01*
X118110000Y-56081858D01*
X118038932Y-55948899D01*
X117859607Y-55730392D01*
X117641100Y-55551068D01*
X117391807Y-55417818D01*
X117121308Y-55335764D01*
X116840000Y-55308057D01*
X116558691Y-55335764D01*
X116288192Y-55417818D01*
X116038899Y-55551068D01*
X115820392Y-55730393D01*
X115641068Y-55948900D01*
X115570000Y-56081858D01*
X115498932Y-55948899D01*
X115319607Y-55730392D01*
X115101100Y-55551068D01*
X114851807Y-55417818D01*
X114581308Y-55335764D01*
X114300000Y-55308057D01*
X114018691Y-55335764D01*
X113748192Y-55417818D01*
X113498899Y-55551068D01*
X113280392Y-55730393D01*
X113101068Y-55948900D01*
X113030000Y-56081858D01*
X112958932Y-55948899D01*
X112779607Y-55730392D01*
X112561100Y-55551068D01*
X112311807Y-55417818D01*
X112041308Y-55335764D01*
X111760000Y-55308057D01*
X111478691Y-55335764D01*
X111208192Y-55417818D01*
X110958899Y-55551068D01*
X110740392Y-55730393D01*
X110647581Y-55843483D01*
X110645812Y-55825518D01*
X110609502Y-55705820D01*
X110550537Y-55595506D01*
X110471185Y-55498815D01*
X110374494Y-55419463D01*
X110264180Y-55360498D01*
X110144482Y-55324188D01*
X110020000Y-55311928D01*
X108420000Y-55311928D01*
X108295518Y-55324188D01*
X108175820Y-55360498D01*
X108065506Y-55419463D01*
X107968815Y-55498815D01*
X107889463Y-55595506D01*
X107830498Y-55705820D01*
X107794188Y-55825518D01*
X107781928Y-55950000D01*
X106559787Y-55950000D01*
X106724727Y-55881680D01*
X106959759Y-55724637D01*
X107159637Y-55524759D01*
X107316680Y-55289727D01*
X107424853Y-55028574D01*
X107480000Y-54751335D01*
X107480000Y-54468665D01*
X128740000Y-54468665D01*
X128740000Y-54751335D01*
X128795147Y-55028574D01*
X128903320Y-55289727D01*
X129060363Y-55524759D01*
X129260241Y-55724637D01*
X129495273Y-55881680D01*
X129756426Y-55989853D01*
X130033665Y-56045000D01*
X130316335Y-56045000D01*
X130593574Y-55989853D01*
X130689787Y-55950000D01*
X131911928Y-55950000D01*
X131911928Y-58350000D01*
X131924188Y-58474482D01*
X131960498Y-58594180D01*
X132019463Y-58704494D01*
X132098815Y-58801185D01*
X132195506Y-58880537D01*
X132305820Y-58939502D01*
X132425518Y-58975812D01*
X132550000Y-58988072D01*
X134150000Y-58988072D01*
X134274482Y-58975812D01*
X134394180Y-58939502D01*
X134504494Y-58880537D01*
X134601185Y-58801185D01*
X134680537Y-58704494D01*
X134739502Y-58594180D01*
X134775812Y-58474482D01*
X134777581Y-58456517D01*
X134870393Y-58569608D01*
X135088900Y-58748932D01*
X135338193Y-58882182D01*
X135608692Y-58964236D01*
X135890000Y-58991943D01*
X136171309Y-58964236D01*
X136441808Y-58882182D01*
X136691101Y-58748932D01*
X136909608Y-58569608D01*
X137088932Y-58351101D01*
X137160000Y-58218142D01*
X137231068Y-58351101D01*
X137410393Y-58569608D01*
X137628900Y-58748932D01*
X137878193Y-58882182D01*
X138148692Y-58964236D01*
X138430000Y-58991943D01*
X138711309Y-58964236D01*
X138981808Y-58882182D01*
X139231101Y-58748932D01*
X139449608Y-58569608D01*
X139628932Y-58351101D01*
X139700000Y-58218142D01*
X139771068Y-58351101D01*
X139950393Y-58569608D01*
X140168900Y-58748932D01*
X140418193Y-58882182D01*
X140688692Y-58964236D01*
X140970000Y-58991943D01*
X141251309Y-58964236D01*
X141521808Y-58882182D01*
X141771101Y-58748932D01*
X141989608Y-58569608D01*
X142168932Y-58351101D01*
X142240000Y-58218142D01*
X142311068Y-58351101D01*
X142490393Y-58569608D01*
X142708900Y-58748932D01*
X142958193Y-58882182D01*
X143228692Y-58964236D01*
X143510000Y-58991943D01*
X143791309Y-58964236D01*
X144061808Y-58882182D01*
X144311101Y-58748932D01*
X144529608Y-58569608D01*
X144708932Y-58351101D01*
X144780000Y-58218142D01*
X144851068Y-58351101D01*
X145030393Y-58569608D01*
X145248900Y-58748932D01*
X145498193Y-58882182D01*
X145768692Y-58964236D01*
X146050000Y-58991943D01*
X146331309Y-58964236D01*
X146601808Y-58882182D01*
X146851101Y-58748932D01*
X147069608Y-58569608D01*
X147248932Y-58351101D01*
X147320000Y-58218142D01*
X147391068Y-58351101D01*
X147570393Y-58569608D01*
X147788900Y-58748932D01*
X148038193Y-58882182D01*
X148308692Y-58964236D01*
X148590000Y-58991943D01*
X148871309Y-58964236D01*
X149141808Y-58882182D01*
X149391101Y-58748932D01*
X149609608Y-58569608D01*
X149788932Y-58351101D01*
X149857265Y-58223259D01*
X150007399Y-58452839D01*
X150205105Y-58654500D01*
X150438354Y-58813715D01*
X150698182Y-58924367D01*
X150780961Y-58941904D01*
X151003000Y-58819915D01*
X151003000Y-57277000D01*
X151257000Y-57277000D01*
X151257000Y-58819915D01*
X151479039Y-58941904D01*
X151561818Y-58924367D01*
X151821646Y-58813715D01*
X152054895Y-58654500D01*
X152252601Y-58452839D01*
X152407166Y-58216483D01*
X152512650Y-57954514D01*
X152565000Y-57677000D01*
X152565000Y-57277000D01*
X151257000Y-57277000D01*
X151003000Y-57277000D01*
X150983000Y-57277000D01*
X150983000Y-57023000D01*
X151003000Y-57023000D01*
X151003000Y-55480085D01*
X151257000Y-55480085D01*
X151257000Y-57023000D01*
X152565000Y-57023000D01*
X152565000Y-56623000D01*
X152512650Y-56345486D01*
X152407166Y-56083517D01*
X152252601Y-55847161D01*
X152054895Y-55645500D01*
X151821646Y-55486285D01*
X151561818Y-55375633D01*
X151479039Y-55358096D01*
X151257000Y-55480085D01*
X151003000Y-55480085D01*
X150780961Y-55358096D01*
X150698182Y-55375633D01*
X150438354Y-55486285D01*
X150205105Y-55645500D01*
X150007399Y-55847161D01*
X149857265Y-56076741D01*
X149788932Y-55948899D01*
X149609607Y-55730392D01*
X149391100Y-55551068D01*
X149141807Y-55417818D01*
X148871308Y-55335764D01*
X148590000Y-55308057D01*
X148308691Y-55335764D01*
X148038192Y-55417818D01*
X147788899Y-55551068D01*
X147570392Y-55730393D01*
X147391068Y-55948900D01*
X147320000Y-56081858D01*
X147248932Y-55948899D01*
X147069607Y-55730392D01*
X146851100Y-55551068D01*
X146601807Y-55417818D01*
X146331308Y-55335764D01*
X146050000Y-55308057D01*
X145768691Y-55335764D01*
X145498192Y-55417818D01*
X145248899Y-55551068D01*
X145030392Y-55730393D01*
X144851068Y-55948900D01*
X144780000Y-56081858D01*
X144708932Y-55948899D01*
X144529607Y-55730392D01*
X144311100Y-55551068D01*
X144061807Y-55417818D01*
X143791308Y-55335764D01*
X143510000Y-55308057D01*
X143228691Y-55335764D01*
X142958192Y-55417818D01*
X142708899Y-55551068D01*
X142490392Y-55730393D01*
X142311068Y-55948900D01*
X142240000Y-56081858D01*
X142168932Y-55948899D01*
X141989607Y-55730392D01*
X141771100Y-55551068D01*
X141521807Y-55417818D01*
X141251308Y-55335764D01*
X140970000Y-55308057D01*
X140688691Y-55335764D01*
X140418192Y-55417818D01*
X140168899Y-55551068D01*
X139950392Y-55730393D01*
X139771068Y-55948900D01*
X139700000Y-56081858D01*
X139628932Y-55948899D01*
X139449607Y-55730392D01*
X139231100Y-55551068D01*
X138981807Y-55417818D01*
X138711308Y-55335764D01*
X138430000Y-55308057D01*
X138148691Y-55335764D01*
X137878192Y-55417818D01*
X137628899Y-55551068D01*
X137410392Y-55730393D01*
X137231068Y-55948900D01*
X137160000Y-56081858D01*
X137088932Y-55948899D01*
X136909607Y-55730392D01*
X136691100Y-55551068D01*
X136441807Y-55417818D01*
X136171308Y-55335764D01*
X135890000Y-55308057D01*
X135608691Y-55335764D01*
X135338192Y-55417818D01*
X135088899Y-55551068D01*
X134870392Y-55730393D01*
X134777581Y-55843483D01*
X134775812Y-55825518D01*
X134739502Y-55705820D01*
X134680537Y-55595506D01*
X134601185Y-55498815D01*
X134504494Y-55419463D01*
X134394180Y-55360498D01*
X134274482Y-55324188D01*
X134150000Y-55311928D01*
X132550000Y-55311928D01*
X132425518Y-55324188D01*
X132305820Y-55360498D01*
X132195506Y-55419463D01*
X132098815Y-55498815D01*
X132019463Y-55595506D01*
X131960498Y-55705820D01*
X131924188Y-55825518D01*
X131911928Y-55950000D01*
X130689787Y-55950000D01*
X130854727Y-55881680D01*
X131089759Y-55724637D01*
X131289637Y-55524759D01*
X131446680Y-55289727D01*
X131554853Y-55028574D01*
X131610000Y-54751335D01*
X131610000Y-54468665D01*
X131554853Y-54191426D01*
X131446680Y-53930273D01*
X131289637Y-53695241D01*
X131089759Y-53495363D01*
X130889131Y-53361308D01*
X130916514Y-53346671D01*
X130988097Y-53102702D01*
X130175000Y-52289605D01*
X129361903Y-53102702D01*
X129433486Y-53346671D01*
X129462341Y-53360324D01*
X129260241Y-53495363D01*
X129060363Y-53695241D01*
X128903320Y-53930273D01*
X128795147Y-54191426D01*
X128740000Y-54468665D01*
X107480000Y-54468665D01*
X107424853Y-54191426D01*
X107316680Y-53930273D01*
X107159637Y-53695241D01*
X106959759Y-53495363D01*
X106759131Y-53361308D01*
X106786514Y-53346671D01*
X106858097Y-53102702D01*
X106045000Y-52289605D01*
X105231903Y-53102702D01*
X105303486Y-53346671D01*
X105332341Y-53360324D01*
X105130241Y-53495363D01*
X104930363Y-53695241D01*
X104773320Y-53930273D01*
X104665147Y-54191426D01*
X104610000Y-54468665D01*
X83350000Y-54468665D01*
X83294853Y-54191426D01*
X83186680Y-53930273D01*
X83029637Y-53695241D01*
X82829759Y-53495363D01*
X82629131Y-53361308D01*
X82656514Y-53346671D01*
X82728097Y-53102702D01*
X81915000Y-52289605D01*
X81101903Y-53102702D01*
X81173486Y-53346671D01*
X81202341Y-53360324D01*
X81000241Y-53495363D01*
X80800363Y-53695241D01*
X80643320Y-53930273D01*
X80535147Y-54191426D01*
X80480000Y-54468665D01*
X59308900Y-54468665D01*
X59308900Y-54428665D01*
X59253753Y-54151426D01*
X59145580Y-53890273D01*
X58988537Y-53655241D01*
X58788659Y-53455363D01*
X58588031Y-53321308D01*
X58615414Y-53306671D01*
X58686997Y-53062702D01*
X57873900Y-52249605D01*
X57060803Y-53062702D01*
X57132386Y-53306671D01*
X57161241Y-53320324D01*
X56959141Y-53455363D01*
X56759263Y-53655241D01*
X56677846Y-53777090D01*
X56676654Y-52823082D01*
X56881198Y-52883097D01*
X57694295Y-52070000D01*
X58053505Y-52070000D01*
X58866602Y-52883097D01*
X59110571Y-52811514D01*
X59231471Y-52556004D01*
X59300200Y-52281816D01*
X59305193Y-52180512D01*
X80474783Y-52180512D01*
X80516213Y-52460130D01*
X80611397Y-52726292D01*
X80678329Y-52851514D01*
X80922298Y-52923097D01*
X81735395Y-52110000D01*
X82094605Y-52110000D01*
X82907702Y-52923097D01*
X83151671Y-52851514D01*
X83272571Y-52596004D01*
X83341300Y-52321816D01*
X83348265Y-52180512D01*
X104604783Y-52180512D01*
X104646213Y-52460130D01*
X104741397Y-52726292D01*
X104808329Y-52851514D01*
X105052298Y-52923097D01*
X105865395Y-52110000D01*
X106224605Y-52110000D01*
X107037702Y-52923097D01*
X107281671Y-52851514D01*
X107402571Y-52596004D01*
X107471300Y-52321816D01*
X107478265Y-52180512D01*
X128734783Y-52180512D01*
X128776213Y-52460130D01*
X128871397Y-52726292D01*
X128938329Y-52851514D01*
X129182298Y-52923097D01*
X129995395Y-52110000D01*
X130354605Y-52110000D01*
X131167702Y-52923097D01*
X131411671Y-52851514D01*
X131532571Y-52596004D01*
X131601300Y-52321816D01*
X131610237Y-52140512D01*
X152737783Y-52140512D01*
X152779213Y-52420130D01*
X152874397Y-52686292D01*
X152941329Y-52811514D01*
X153185298Y-52883097D01*
X153998395Y-52070000D01*
X153185298Y-51256903D01*
X152941329Y-51328486D01*
X152820429Y-51583996D01*
X152751700Y-51858184D01*
X152737783Y-52140512D01*
X131610237Y-52140512D01*
X131615217Y-52039488D01*
X131573787Y-51759870D01*
X131478603Y-51493708D01*
X131411671Y-51368486D01*
X131167702Y-51296903D01*
X130354605Y-52110000D01*
X129995395Y-52110000D01*
X129182298Y-51296903D01*
X128938329Y-51368486D01*
X128817429Y-51623996D01*
X128748700Y-51898184D01*
X128734783Y-52180512D01*
X107478265Y-52180512D01*
X107485217Y-52039488D01*
X107443787Y-51759870D01*
X107348603Y-51493708D01*
X107281671Y-51368486D01*
X107037702Y-51296903D01*
X106224605Y-52110000D01*
X105865395Y-52110000D01*
X105052298Y-51296903D01*
X104808329Y-51368486D01*
X104687429Y-51623996D01*
X104618700Y-51898184D01*
X104604783Y-52180512D01*
X83348265Y-52180512D01*
X83355217Y-52039488D01*
X83313787Y-51759870D01*
X83218603Y-51493708D01*
X83151671Y-51368486D01*
X82907702Y-51296903D01*
X82094605Y-52110000D01*
X81735395Y-52110000D01*
X80922298Y-51296903D01*
X80678329Y-51368486D01*
X80557429Y-51623996D01*
X80488700Y-51898184D01*
X80474783Y-52180512D01*
X59305193Y-52180512D01*
X59314117Y-51999488D01*
X59272687Y-51719870D01*
X59177503Y-51453708D01*
X59110571Y-51328486D01*
X58866602Y-51256903D01*
X58053505Y-52070000D01*
X57694295Y-52070000D01*
X56881198Y-51256903D01*
X56674772Y-51317471D01*
X56674472Y-51077298D01*
X57060803Y-51077298D01*
X57873900Y-51890395D01*
X58686997Y-51077298D01*
X58615414Y-50833329D01*
X58359904Y-50712429D01*
X58085716Y-50643700D01*
X57803388Y-50629783D01*
X57523770Y-50671213D01*
X57257608Y-50766397D01*
X57132386Y-50833329D01*
X57060803Y-51077298D01*
X56674472Y-51077298D01*
X56671950Y-49059509D01*
X59525000Y-49059509D01*
X59525000Y-50000492D01*
X59545764Y-50211309D01*
X59627818Y-50481808D01*
X59761068Y-50731101D01*
X59940393Y-50949608D01*
X60158900Y-51128932D01*
X60408193Y-51262182D01*
X60678692Y-51344236D01*
X60960000Y-51371943D01*
X61241309Y-51344236D01*
X61511808Y-51262182D01*
X61761101Y-51128932D01*
X61979608Y-50949608D01*
X62158932Y-50731101D01*
X62230000Y-50598142D01*
X62301068Y-50731101D01*
X62480393Y-50949608D01*
X62698900Y-51128932D01*
X62948193Y-51262182D01*
X63218692Y-51344236D01*
X63500000Y-51371943D01*
X63781309Y-51344236D01*
X64051808Y-51262182D01*
X64301101Y-51128932D01*
X64519608Y-50949608D01*
X64698932Y-50731101D01*
X64770000Y-50598142D01*
X64841068Y-50731101D01*
X65020393Y-50949608D01*
X65238900Y-51128932D01*
X65488193Y-51262182D01*
X65758692Y-51344236D01*
X66040000Y-51371943D01*
X66321309Y-51344236D01*
X66591808Y-51262182D01*
X66841101Y-51128932D01*
X67059608Y-50949608D01*
X67238932Y-50731101D01*
X67307265Y-50603259D01*
X67457399Y-50832839D01*
X67655105Y-51034500D01*
X67888354Y-51193715D01*
X68148182Y-51304367D01*
X68230961Y-51321904D01*
X68453000Y-51199915D01*
X68453000Y-49657000D01*
X68433000Y-49657000D01*
X68433000Y-49403000D01*
X68453000Y-49403000D01*
X68453000Y-47860085D01*
X68707000Y-47860085D01*
X68707000Y-49403000D01*
X68727000Y-49403000D01*
X68727000Y-49657000D01*
X68707000Y-49657000D01*
X68707000Y-51199915D01*
X68929039Y-51321904D01*
X69011818Y-51304367D01*
X69271646Y-51193715D01*
X69504895Y-51034500D01*
X69702601Y-50832839D01*
X69852735Y-50603259D01*
X69921068Y-50731101D01*
X70100393Y-50949608D01*
X70318900Y-51128932D01*
X70568193Y-51262182D01*
X70838692Y-51344236D01*
X71120000Y-51371943D01*
X71401309Y-51344236D01*
X71671808Y-51262182D01*
X71921101Y-51128932D01*
X72139608Y-50949608D01*
X72318932Y-50731101D01*
X72390000Y-50598142D01*
X72461068Y-50731101D01*
X72640393Y-50949608D01*
X72858900Y-51128932D01*
X73108193Y-51262182D01*
X73378692Y-51344236D01*
X73660000Y-51371943D01*
X73941309Y-51344236D01*
X74211808Y-51262182D01*
X74461101Y-51128932D01*
X74679608Y-50949608D01*
X74858932Y-50731101D01*
X74930000Y-50598142D01*
X75001068Y-50731101D01*
X75180393Y-50949608D01*
X75398900Y-51128932D01*
X75648193Y-51262182D01*
X75918692Y-51344236D01*
X76200000Y-51371943D01*
X76481309Y-51344236D01*
X76751808Y-51262182D01*
X77001101Y-51128932D01*
X77219608Y-50949608D01*
X77398932Y-50731101D01*
X77470000Y-50598142D01*
X77541068Y-50731101D01*
X77720393Y-50949608D01*
X77938900Y-51128932D01*
X78188193Y-51262182D01*
X78458692Y-51344236D01*
X78740000Y-51371943D01*
X79021309Y-51344236D01*
X79291808Y-51262182D01*
X79541101Y-51128932D01*
X79555277Y-51117298D01*
X81101903Y-51117298D01*
X81915000Y-51930395D01*
X82728097Y-51117298D01*
X82656514Y-50873329D01*
X82401004Y-50752429D01*
X82126816Y-50683700D01*
X81844488Y-50669783D01*
X81564870Y-50711213D01*
X81298708Y-50806397D01*
X81173486Y-50873329D01*
X81101903Y-51117298D01*
X79555277Y-51117298D01*
X79759608Y-50949608D01*
X79938932Y-50731101D01*
X80072182Y-50481808D01*
X80154236Y-50211309D01*
X80175000Y-50000491D01*
X80175000Y-49059509D01*
X83655000Y-49059509D01*
X83655000Y-50000492D01*
X83675764Y-50211309D01*
X83757818Y-50481808D01*
X83891068Y-50731101D01*
X84070393Y-50949608D01*
X84288900Y-51128932D01*
X84538193Y-51262182D01*
X84808692Y-51344236D01*
X85090000Y-51371943D01*
X85371309Y-51344236D01*
X85641808Y-51262182D01*
X85891101Y-51128932D01*
X86109608Y-50949608D01*
X86288932Y-50731101D01*
X86360000Y-50598142D01*
X86431068Y-50731101D01*
X86610393Y-50949608D01*
X86828900Y-51128932D01*
X87078193Y-51262182D01*
X87348692Y-51344236D01*
X87630000Y-51371943D01*
X87911309Y-51344236D01*
X88181808Y-51262182D01*
X88431101Y-51128932D01*
X88649608Y-50949608D01*
X88828932Y-50731101D01*
X88900000Y-50598142D01*
X88971068Y-50731101D01*
X89150393Y-50949608D01*
X89368900Y-51128932D01*
X89618193Y-51262182D01*
X89888692Y-51344236D01*
X90170000Y-51371943D01*
X90451309Y-51344236D01*
X90721808Y-51262182D01*
X90971101Y-51128932D01*
X91189608Y-50949608D01*
X91368932Y-50731101D01*
X91437265Y-50603259D01*
X91587399Y-50832839D01*
X91785105Y-51034500D01*
X92018354Y-51193715D01*
X92278182Y-51304367D01*
X92360961Y-51321904D01*
X92583000Y-51199915D01*
X92583000Y-49657000D01*
X92563000Y-49657000D01*
X92563000Y-49403000D01*
X92583000Y-49403000D01*
X92583000Y-47860085D01*
X92837000Y-47860085D01*
X92837000Y-49403000D01*
X92857000Y-49403000D01*
X92857000Y-49657000D01*
X92837000Y-49657000D01*
X92837000Y-51199915D01*
X93059039Y-51321904D01*
X93141818Y-51304367D01*
X93401646Y-51193715D01*
X93634895Y-51034500D01*
X93832601Y-50832839D01*
X93982735Y-50603259D01*
X94051068Y-50731101D01*
X94230393Y-50949608D01*
X94448900Y-51128932D01*
X94698193Y-51262182D01*
X94968692Y-51344236D01*
X95250000Y-51371943D01*
X95531309Y-51344236D01*
X95801808Y-51262182D01*
X96051101Y-51128932D01*
X96269608Y-50949608D01*
X96448932Y-50731101D01*
X96520000Y-50598142D01*
X96591068Y-50731101D01*
X96770393Y-50949608D01*
X96988900Y-51128932D01*
X97238193Y-51262182D01*
X97508692Y-51344236D01*
X97790000Y-51371943D01*
X98071309Y-51344236D01*
X98341808Y-51262182D01*
X98591101Y-51128932D01*
X98809608Y-50949608D01*
X98988932Y-50731101D01*
X99060000Y-50598142D01*
X99131068Y-50731101D01*
X99310393Y-50949608D01*
X99528900Y-51128932D01*
X99778193Y-51262182D01*
X100048692Y-51344236D01*
X100330000Y-51371943D01*
X100611309Y-51344236D01*
X100881808Y-51262182D01*
X101131101Y-51128932D01*
X101349608Y-50949608D01*
X101528932Y-50731101D01*
X101600000Y-50598142D01*
X101671068Y-50731101D01*
X101850393Y-50949608D01*
X102068900Y-51128932D01*
X102318193Y-51262182D01*
X102588692Y-51344236D01*
X102870000Y-51371943D01*
X103151309Y-51344236D01*
X103421808Y-51262182D01*
X103671101Y-51128932D01*
X103685277Y-51117298D01*
X105231903Y-51117298D01*
X106045000Y-51930395D01*
X106858097Y-51117298D01*
X106786514Y-50873329D01*
X106531004Y-50752429D01*
X106256816Y-50683700D01*
X105974488Y-50669783D01*
X105694870Y-50711213D01*
X105428708Y-50806397D01*
X105303486Y-50873329D01*
X105231903Y-51117298D01*
X103685277Y-51117298D01*
X103889608Y-50949608D01*
X104068932Y-50731101D01*
X104202182Y-50481808D01*
X104284236Y-50211309D01*
X104305000Y-50000491D01*
X104305000Y-49059509D01*
X107785000Y-49059509D01*
X107785000Y-50000492D01*
X107805764Y-50211309D01*
X107887818Y-50481808D01*
X108021068Y-50731101D01*
X108200393Y-50949608D01*
X108418900Y-51128932D01*
X108668193Y-51262182D01*
X108938692Y-51344236D01*
X109220000Y-51371943D01*
X109501309Y-51344236D01*
X109771808Y-51262182D01*
X110021101Y-51128932D01*
X110239608Y-50949608D01*
X110418932Y-50731101D01*
X110490000Y-50598142D01*
X110561068Y-50731101D01*
X110740393Y-50949608D01*
X110958900Y-51128932D01*
X111208193Y-51262182D01*
X111478692Y-51344236D01*
X111760000Y-51371943D01*
X112041309Y-51344236D01*
X112311808Y-51262182D01*
X112561101Y-51128932D01*
X112779608Y-50949608D01*
X112958932Y-50731101D01*
X113030000Y-50598142D01*
X113101068Y-50731101D01*
X113280393Y-50949608D01*
X113498900Y-51128932D01*
X113748193Y-51262182D01*
X114018692Y-51344236D01*
X114300000Y-51371943D01*
X114581309Y-51344236D01*
X114851808Y-51262182D01*
X115101101Y-51128932D01*
X115319608Y-50949608D01*
X115498932Y-50731101D01*
X115567265Y-50603259D01*
X115717399Y-50832839D01*
X115915105Y-51034500D01*
X116148354Y-51193715D01*
X116408182Y-51304367D01*
X116490961Y-51321904D01*
X116713000Y-51199915D01*
X116713000Y-49657000D01*
X116693000Y-49657000D01*
X116693000Y-49403000D01*
X116713000Y-49403000D01*
X116713000Y-47860085D01*
X116967000Y-47860085D01*
X116967000Y-49403000D01*
X116987000Y-49403000D01*
X116987000Y-49657000D01*
X116967000Y-49657000D01*
X116967000Y-51199915D01*
X117189039Y-51321904D01*
X117271818Y-51304367D01*
X117531646Y-51193715D01*
X117764895Y-51034500D01*
X117962601Y-50832839D01*
X118112735Y-50603259D01*
X118181068Y-50731101D01*
X118360393Y-50949608D01*
X118578900Y-51128932D01*
X118828193Y-51262182D01*
X119098692Y-51344236D01*
X119380000Y-51371943D01*
X119661309Y-51344236D01*
X119931808Y-51262182D01*
X120181101Y-51128932D01*
X120399608Y-50949608D01*
X120578932Y-50731101D01*
X120650000Y-50598142D01*
X120721068Y-50731101D01*
X120900393Y-50949608D01*
X121118900Y-51128932D01*
X121368193Y-51262182D01*
X121638692Y-51344236D01*
X121920000Y-51371943D01*
X122201309Y-51344236D01*
X122471808Y-51262182D01*
X122721101Y-51128932D01*
X122939608Y-50949608D01*
X123118932Y-50731101D01*
X123190000Y-50598142D01*
X123261068Y-50731101D01*
X123440393Y-50949608D01*
X123658900Y-51128932D01*
X123908193Y-51262182D01*
X124178692Y-51344236D01*
X124460000Y-51371943D01*
X124741309Y-51344236D01*
X125011808Y-51262182D01*
X125261101Y-51128932D01*
X125479608Y-50949608D01*
X125658932Y-50731101D01*
X125730000Y-50598142D01*
X125801068Y-50731101D01*
X125980393Y-50949608D01*
X126198900Y-51128932D01*
X126448193Y-51262182D01*
X126718692Y-51344236D01*
X127000000Y-51371943D01*
X127281309Y-51344236D01*
X127551808Y-51262182D01*
X127801101Y-51128932D01*
X127815277Y-51117298D01*
X129361903Y-51117298D01*
X130175000Y-51930395D01*
X130988097Y-51117298D01*
X130916514Y-50873329D01*
X130661004Y-50752429D01*
X130386816Y-50683700D01*
X130104488Y-50669783D01*
X129824870Y-50711213D01*
X129558708Y-50806397D01*
X129433486Y-50873329D01*
X129361903Y-51117298D01*
X127815277Y-51117298D01*
X128019608Y-50949608D01*
X128198932Y-50731101D01*
X128332182Y-50481808D01*
X128414236Y-50211309D01*
X128435000Y-50000491D01*
X128435000Y-49059509D01*
X131915000Y-49059509D01*
X131915000Y-50000492D01*
X131935764Y-50211309D01*
X132017818Y-50481808D01*
X132151068Y-50731101D01*
X132330393Y-50949608D01*
X132548900Y-51128932D01*
X132798193Y-51262182D01*
X133068692Y-51344236D01*
X133350000Y-51371943D01*
X133631309Y-51344236D01*
X133901808Y-51262182D01*
X134151101Y-51128932D01*
X134369608Y-50949608D01*
X134548932Y-50731101D01*
X134620000Y-50598142D01*
X134691068Y-50731101D01*
X134870393Y-50949608D01*
X135088900Y-51128932D01*
X135338193Y-51262182D01*
X135608692Y-51344236D01*
X135890000Y-51371943D01*
X136171309Y-51344236D01*
X136441808Y-51262182D01*
X136691101Y-51128932D01*
X136909608Y-50949608D01*
X137088932Y-50731101D01*
X137160000Y-50598142D01*
X137231068Y-50731101D01*
X137410393Y-50949608D01*
X137628900Y-51128932D01*
X137878193Y-51262182D01*
X138148692Y-51344236D01*
X138430000Y-51371943D01*
X138711309Y-51344236D01*
X138981808Y-51262182D01*
X139231101Y-51128932D01*
X139449608Y-50949608D01*
X139628932Y-50731101D01*
X139697265Y-50603259D01*
X139847399Y-50832839D01*
X140045105Y-51034500D01*
X140278354Y-51193715D01*
X140538182Y-51304367D01*
X140620961Y-51321904D01*
X140843000Y-51199915D01*
X140843000Y-49657000D01*
X140823000Y-49657000D01*
X140823000Y-49403000D01*
X140843000Y-49403000D01*
X140843000Y-47860085D01*
X141097000Y-47860085D01*
X141097000Y-49403000D01*
X141117000Y-49403000D01*
X141117000Y-49657000D01*
X141097000Y-49657000D01*
X141097000Y-51199915D01*
X141319039Y-51321904D01*
X141401818Y-51304367D01*
X141661646Y-51193715D01*
X141894895Y-51034500D01*
X142092601Y-50832839D01*
X142242735Y-50603259D01*
X142311068Y-50731101D01*
X142490393Y-50949608D01*
X142708900Y-51128932D01*
X142958193Y-51262182D01*
X143228692Y-51344236D01*
X143510000Y-51371943D01*
X143791309Y-51344236D01*
X144061808Y-51262182D01*
X144311101Y-51128932D01*
X144529608Y-50949608D01*
X144708932Y-50731101D01*
X144780000Y-50598142D01*
X144851068Y-50731101D01*
X145030393Y-50949608D01*
X145248900Y-51128932D01*
X145498193Y-51262182D01*
X145768692Y-51344236D01*
X146050000Y-51371943D01*
X146331309Y-51344236D01*
X146601808Y-51262182D01*
X146851101Y-51128932D01*
X147069608Y-50949608D01*
X147248932Y-50731101D01*
X147320000Y-50598142D01*
X147391068Y-50731101D01*
X147570393Y-50949608D01*
X147788900Y-51128932D01*
X148038193Y-51262182D01*
X148308692Y-51344236D01*
X148590000Y-51371943D01*
X148871309Y-51344236D01*
X149141808Y-51262182D01*
X149391101Y-51128932D01*
X149609608Y-50949608D01*
X149788932Y-50731101D01*
X149860000Y-50598142D01*
X149931068Y-50731101D01*
X150110393Y-50949608D01*
X150328900Y-51128932D01*
X150578193Y-51262182D01*
X150848692Y-51344236D01*
X151130000Y-51371943D01*
X151411309Y-51344236D01*
X151681808Y-51262182D01*
X151931101Y-51128932D01*
X151994017Y-51077298D01*
X153364903Y-51077298D01*
X154178000Y-51890395D01*
X154991097Y-51077298D01*
X154919514Y-50833329D01*
X154664004Y-50712429D01*
X154389816Y-50643700D01*
X154107488Y-50629783D01*
X153827870Y-50671213D01*
X153561708Y-50766397D01*
X153436486Y-50833329D01*
X153364903Y-51077298D01*
X151994017Y-51077298D01*
X152149608Y-50949608D01*
X152328932Y-50731101D01*
X152462182Y-50481808D01*
X152544236Y-50211309D01*
X152565000Y-50000491D01*
X152565000Y-49059508D01*
X152544236Y-48848691D01*
X152462182Y-48578192D01*
X152328932Y-48328899D01*
X152149607Y-48110392D01*
X151931100Y-47931068D01*
X151681807Y-47797818D01*
X151411308Y-47715764D01*
X151130000Y-47688057D01*
X150848691Y-47715764D01*
X150578192Y-47797818D01*
X150328899Y-47931068D01*
X150110392Y-48110393D01*
X149931068Y-48328900D01*
X149860000Y-48461858D01*
X149788932Y-48328899D01*
X149609607Y-48110392D01*
X149391100Y-47931068D01*
X149141807Y-47797818D01*
X148871308Y-47715764D01*
X148590000Y-47688057D01*
X148308691Y-47715764D01*
X148038192Y-47797818D01*
X147788899Y-47931068D01*
X147570392Y-48110393D01*
X147391068Y-48328900D01*
X147320000Y-48461858D01*
X147248932Y-48328899D01*
X147069607Y-48110392D01*
X146851100Y-47931068D01*
X146601807Y-47797818D01*
X146331308Y-47715764D01*
X146050000Y-47688057D01*
X145768691Y-47715764D01*
X145498192Y-47797818D01*
X145248899Y-47931068D01*
X145030392Y-48110393D01*
X144851068Y-48328900D01*
X144780000Y-48461858D01*
X144708932Y-48328899D01*
X144529607Y-48110392D01*
X144311100Y-47931068D01*
X144061807Y-47797818D01*
X143791308Y-47715764D01*
X143510000Y-47688057D01*
X143228691Y-47715764D01*
X142958192Y-47797818D01*
X142708899Y-47931068D01*
X142490392Y-48110393D01*
X142311068Y-48328900D01*
X142242735Y-48456742D01*
X142092601Y-48227161D01*
X141894895Y-48025500D01*
X141661646Y-47866285D01*
X141401818Y-47755633D01*
X141319039Y-47738096D01*
X141097000Y-47860085D01*
X140843000Y-47860085D01*
X140620961Y-47738096D01*
X140538182Y-47755633D01*
X140278354Y-47866285D01*
X140045105Y-48025500D01*
X139847399Y-48227161D01*
X139697265Y-48456741D01*
X139628932Y-48328899D01*
X139449607Y-48110392D01*
X139231100Y-47931068D01*
X139190000Y-47909100D01*
X139190000Y-45788711D01*
X139233937Y-45744774D01*
X139347205Y-45575256D01*
X139425226Y-45386898D01*
X139465000Y-45186939D01*
X139465000Y-44983061D01*
X139425226Y-44783102D01*
X139347205Y-44594744D01*
X139233937Y-44425226D01*
X139089774Y-44281063D01*
X139020836Y-44235000D01*
X139481928Y-44235000D01*
X139481928Y-45935000D01*
X139494188Y-46059482D01*
X139530498Y-46179180D01*
X139589463Y-46289494D01*
X139668815Y-46386185D01*
X139765506Y-46465537D01*
X139875820Y-46524502D01*
X139995518Y-46560812D01*
X140120000Y-46573072D01*
X141820000Y-46573072D01*
X141944482Y-46560812D01*
X142064180Y-46524502D01*
X142174494Y-46465537D01*
X142271185Y-46386185D01*
X142350537Y-46289494D01*
X142409502Y-46179180D01*
X142431513Y-46106620D01*
X142563368Y-46238475D01*
X142806589Y-46400990D01*
X143076842Y-46512932D01*
X143363740Y-46570000D01*
X143656260Y-46570000D01*
X143943158Y-46512932D01*
X144213411Y-46400990D01*
X144456632Y-46238475D01*
X144663475Y-46031632D01*
X144780000Y-45857240D01*
X144896525Y-46031632D01*
X145103368Y-46238475D01*
X145346589Y-46400990D01*
X145616842Y-46512932D01*
X145903740Y-46570000D01*
X146196260Y-46570000D01*
X146483158Y-46512932D01*
X146753411Y-46400990D01*
X146996632Y-46238475D01*
X147203475Y-46031632D01*
X147365990Y-45788411D01*
X147477932Y-45518158D01*
X147535000Y-45231260D01*
X147535000Y-44938740D01*
X147477932Y-44651842D01*
X147365990Y-44381589D01*
X147203475Y-44138368D01*
X146996632Y-43931525D01*
X146753411Y-43769010D01*
X146483158Y-43657068D01*
X146196260Y-43600000D01*
X145903740Y-43600000D01*
X145616842Y-43657068D01*
X145346589Y-43769010D01*
X145103368Y-43931525D01*
X144896525Y-44138368D01*
X144780000Y-44312760D01*
X144663475Y-44138368D01*
X144456632Y-43931525D01*
X144213411Y-43769010D01*
X143943158Y-43657068D01*
X143656260Y-43600000D01*
X143363740Y-43600000D01*
X143076842Y-43657068D01*
X142806589Y-43769010D01*
X142563368Y-43931525D01*
X142431513Y-44063380D01*
X142409502Y-43990820D01*
X142350537Y-43880506D01*
X142271185Y-43783815D01*
X142174494Y-43704463D01*
X142064180Y-43645498D01*
X141944482Y-43609188D01*
X141820000Y-43596928D01*
X140120000Y-43596928D01*
X139995518Y-43609188D01*
X139875820Y-43645498D01*
X139765506Y-43704463D01*
X139668815Y-43783815D01*
X139589463Y-43880506D01*
X139530498Y-43990820D01*
X139494188Y-44110518D01*
X139481928Y-44235000D01*
X139020836Y-44235000D01*
X138920256Y-44167795D01*
X138731898Y-44089774D01*
X138531939Y-44050000D01*
X138328061Y-44050000D01*
X138128102Y-44089774D01*
X137939744Y-44167795D01*
X137770226Y-44281063D01*
X137626063Y-44425226D01*
X137512795Y-44594744D01*
X137434774Y-44783102D01*
X137395000Y-44983061D01*
X137395000Y-45186939D01*
X137434774Y-45386898D01*
X137512795Y-45575256D01*
X137626063Y-45744774D01*
X137670000Y-45788711D01*
X137670001Y-47909099D01*
X137628899Y-47931068D01*
X137410392Y-48110393D01*
X137231068Y-48328900D01*
X137160000Y-48461858D01*
X137088932Y-48328899D01*
X136909607Y-48110392D01*
X136691100Y-47931068D01*
X136441807Y-47797818D01*
X136171308Y-47715764D01*
X135890000Y-47688057D01*
X135608691Y-47715764D01*
X135338192Y-47797818D01*
X135088899Y-47931068D01*
X134870392Y-48110393D01*
X134691068Y-48328900D01*
X134620000Y-48461858D01*
X134548932Y-48328899D01*
X134369607Y-48110392D01*
X134151100Y-47931068D01*
X133901807Y-47797818D01*
X133631308Y-47715764D01*
X133350000Y-47688057D01*
X133068691Y-47715764D01*
X132798192Y-47797818D01*
X132548899Y-47931068D01*
X132330392Y-48110393D01*
X132151068Y-48328900D01*
X132017818Y-48578193D01*
X131935764Y-48848692D01*
X131915000Y-49059509D01*
X128435000Y-49059509D01*
X128435000Y-49059508D01*
X128414236Y-48848691D01*
X128332182Y-48578192D01*
X128198932Y-48328899D01*
X128019607Y-48110392D01*
X127801100Y-47931068D01*
X127551807Y-47797818D01*
X127281308Y-47715764D01*
X127000000Y-47688057D01*
X126718691Y-47715764D01*
X126448192Y-47797818D01*
X126198899Y-47931068D01*
X125980392Y-48110393D01*
X125801068Y-48328900D01*
X125730000Y-48461858D01*
X125658932Y-48328899D01*
X125479607Y-48110392D01*
X125261100Y-47931068D01*
X125011807Y-47797818D01*
X124741308Y-47715764D01*
X124460000Y-47688057D01*
X124178691Y-47715764D01*
X123908192Y-47797818D01*
X123658899Y-47931068D01*
X123440392Y-48110393D01*
X123261068Y-48328900D01*
X123190000Y-48461858D01*
X123118932Y-48328899D01*
X122939607Y-48110392D01*
X122721100Y-47931068D01*
X122471807Y-47797818D01*
X122201308Y-47715764D01*
X121920000Y-47688057D01*
X121638691Y-47715764D01*
X121368192Y-47797818D01*
X121118899Y-47931068D01*
X120900392Y-48110393D01*
X120721068Y-48328900D01*
X120650000Y-48461858D01*
X120578932Y-48328899D01*
X120399607Y-48110392D01*
X120181100Y-47931068D01*
X119931807Y-47797818D01*
X119661308Y-47715764D01*
X119380000Y-47688057D01*
X119098691Y-47715764D01*
X118828192Y-47797818D01*
X118578899Y-47931068D01*
X118360392Y-48110393D01*
X118181068Y-48328900D01*
X118112735Y-48456742D01*
X117962601Y-48227161D01*
X117764895Y-48025500D01*
X117531646Y-47866285D01*
X117271818Y-47755633D01*
X117189039Y-47738096D01*
X116967000Y-47860085D01*
X116713000Y-47860085D01*
X116490961Y-47738096D01*
X116408182Y-47755633D01*
X116148354Y-47866285D01*
X115915105Y-48025500D01*
X115717399Y-48227161D01*
X115567265Y-48456741D01*
X115498932Y-48328899D01*
X115319607Y-48110392D01*
X115101100Y-47931068D01*
X115060000Y-47909100D01*
X115060000Y-45915711D01*
X115103937Y-45871774D01*
X115217205Y-45702256D01*
X115295226Y-45513898D01*
X115335000Y-45313939D01*
X115335000Y-45110061D01*
X115295226Y-44910102D01*
X115217205Y-44721744D01*
X115103937Y-44552226D01*
X114959774Y-44408063D01*
X114790256Y-44294795D01*
X114601898Y-44216774D01*
X114401939Y-44177000D01*
X114198061Y-44177000D01*
X113998102Y-44216774D01*
X113809744Y-44294795D01*
X113640226Y-44408063D01*
X113496063Y-44552226D01*
X113382795Y-44721744D01*
X113304774Y-44910102D01*
X113265000Y-45110061D01*
X113265000Y-45313939D01*
X113304774Y-45513898D01*
X113382795Y-45702256D01*
X113496063Y-45871774D01*
X113540000Y-45915711D01*
X113540001Y-47909099D01*
X113498899Y-47931068D01*
X113280392Y-48110393D01*
X113101068Y-48328900D01*
X113030000Y-48461858D01*
X112958932Y-48328899D01*
X112779607Y-48110392D01*
X112561100Y-47931068D01*
X112311807Y-47797818D01*
X112041308Y-47715764D01*
X111760000Y-47688057D01*
X111478691Y-47715764D01*
X111208192Y-47797818D01*
X110958899Y-47931068D01*
X110740392Y-48110393D01*
X110561068Y-48328900D01*
X110490000Y-48461858D01*
X110418932Y-48328899D01*
X110239607Y-48110392D01*
X110021100Y-47931068D01*
X109771807Y-47797818D01*
X109501308Y-47715764D01*
X109220000Y-47688057D01*
X108938691Y-47715764D01*
X108668192Y-47797818D01*
X108418899Y-47931068D01*
X108200392Y-48110393D01*
X108021068Y-48328900D01*
X107887818Y-48578193D01*
X107805764Y-48848692D01*
X107785000Y-49059509D01*
X104305000Y-49059509D01*
X104305000Y-49059508D01*
X104284236Y-48848691D01*
X104202182Y-48578192D01*
X104068932Y-48328899D01*
X103889607Y-48110392D01*
X103671100Y-47931068D01*
X103421807Y-47797818D01*
X103151308Y-47715764D01*
X102870000Y-47688057D01*
X102588691Y-47715764D01*
X102318192Y-47797818D01*
X102068899Y-47931068D01*
X101850392Y-48110393D01*
X101671068Y-48328900D01*
X101600000Y-48461858D01*
X101528932Y-48328899D01*
X101349607Y-48110392D01*
X101131100Y-47931068D01*
X100881807Y-47797818D01*
X100611308Y-47715764D01*
X100330000Y-47688057D01*
X100048691Y-47715764D01*
X99778192Y-47797818D01*
X99528899Y-47931068D01*
X99310392Y-48110393D01*
X99131068Y-48328900D01*
X99060000Y-48461858D01*
X98988932Y-48328899D01*
X98809607Y-48110392D01*
X98591100Y-47931068D01*
X98341807Y-47797818D01*
X98071308Y-47715764D01*
X97790000Y-47688057D01*
X97508691Y-47715764D01*
X97238192Y-47797818D01*
X96988899Y-47931068D01*
X96770392Y-48110393D01*
X96591068Y-48328900D01*
X96520000Y-48461858D01*
X96448932Y-48328899D01*
X96269607Y-48110392D01*
X96051100Y-47931068D01*
X95801807Y-47797818D01*
X95531308Y-47715764D01*
X95250000Y-47688057D01*
X94968691Y-47715764D01*
X94698192Y-47797818D01*
X94448899Y-47931068D01*
X94230392Y-48110393D01*
X94051068Y-48328900D01*
X93982735Y-48456742D01*
X93832601Y-48227161D01*
X93634895Y-48025500D01*
X93401646Y-47866285D01*
X93141818Y-47755633D01*
X93059039Y-47738096D01*
X92837000Y-47860085D01*
X92583000Y-47860085D01*
X92360961Y-47738096D01*
X92278182Y-47755633D01*
X92018354Y-47866285D01*
X91785105Y-48025500D01*
X91587399Y-48227161D01*
X91437265Y-48456741D01*
X91368932Y-48328899D01*
X91189607Y-48110392D01*
X90971100Y-47931068D01*
X90930000Y-47909100D01*
X90930000Y-45788711D01*
X90973937Y-45744774D01*
X91087205Y-45575256D01*
X91165226Y-45386898D01*
X91205000Y-45186939D01*
X91205000Y-44983061D01*
X91165226Y-44783102D01*
X91087205Y-44594744D01*
X90973937Y-44425226D01*
X90829774Y-44281063D01*
X90660256Y-44167795D01*
X90471898Y-44089774D01*
X90271939Y-44050000D01*
X90068061Y-44050000D01*
X89868102Y-44089774D01*
X89679744Y-44167795D01*
X89510226Y-44281063D01*
X89366063Y-44425226D01*
X89252795Y-44594744D01*
X89174774Y-44783102D01*
X89135000Y-44983061D01*
X89135000Y-45186939D01*
X89174774Y-45386898D01*
X89252795Y-45575256D01*
X89366063Y-45744774D01*
X89410000Y-45788711D01*
X89410001Y-47909099D01*
X89368899Y-47931068D01*
X89150392Y-48110393D01*
X88971068Y-48328900D01*
X88900000Y-48461858D01*
X88828932Y-48328899D01*
X88649607Y-48110392D01*
X88431100Y-47931068D01*
X88181807Y-47797818D01*
X87911308Y-47715764D01*
X87630000Y-47688057D01*
X87348691Y-47715764D01*
X87078192Y-47797818D01*
X86828899Y-47931068D01*
X86610392Y-48110393D01*
X86431068Y-48328900D01*
X86360000Y-48461858D01*
X86288932Y-48328899D01*
X86109607Y-48110392D01*
X85891100Y-47931068D01*
X85641807Y-47797818D01*
X85371308Y-47715764D01*
X85090000Y-47688057D01*
X84808691Y-47715764D01*
X84538192Y-47797818D01*
X84288899Y-47931068D01*
X84070392Y-48110393D01*
X83891068Y-48328900D01*
X83757818Y-48578193D01*
X83675764Y-48848692D01*
X83655000Y-49059509D01*
X80175000Y-49059509D01*
X80175000Y-49059508D01*
X80154236Y-48848691D01*
X80072182Y-48578192D01*
X79938932Y-48328899D01*
X79759607Y-48110392D01*
X79541100Y-47931068D01*
X79291807Y-47797818D01*
X79021308Y-47715764D01*
X78740000Y-47688057D01*
X78458691Y-47715764D01*
X78188192Y-47797818D01*
X77938899Y-47931068D01*
X77720392Y-48110393D01*
X77541068Y-48328900D01*
X77470000Y-48461858D01*
X77398932Y-48328899D01*
X77219607Y-48110392D01*
X77001100Y-47931068D01*
X76751807Y-47797818D01*
X76481308Y-47715764D01*
X76200000Y-47688057D01*
X75918691Y-47715764D01*
X75648192Y-47797818D01*
X75398899Y-47931068D01*
X75180392Y-48110393D01*
X75001068Y-48328900D01*
X74930000Y-48461858D01*
X74858932Y-48328899D01*
X74679607Y-48110392D01*
X74461100Y-47931068D01*
X74211807Y-47797818D01*
X73941308Y-47715764D01*
X73660000Y-47688057D01*
X73378691Y-47715764D01*
X73108192Y-47797818D01*
X72858899Y-47931068D01*
X72640392Y-48110393D01*
X72461068Y-48328900D01*
X72390000Y-48461858D01*
X72318932Y-48328899D01*
X72139607Y-48110392D01*
X71921100Y-47931068D01*
X71671807Y-47797818D01*
X71401308Y-47715764D01*
X71120000Y-47688057D01*
X70838691Y-47715764D01*
X70568192Y-47797818D01*
X70318899Y-47931068D01*
X70100392Y-48110393D01*
X69921068Y-48328900D01*
X69852735Y-48456742D01*
X69702601Y-48227161D01*
X69504895Y-48025500D01*
X69271646Y-47866285D01*
X69011818Y-47755633D01*
X68929039Y-47738096D01*
X68707000Y-47860085D01*
X68453000Y-47860085D01*
X68230961Y-47738096D01*
X68148182Y-47755633D01*
X67888354Y-47866285D01*
X67655105Y-48025500D01*
X67457399Y-48227161D01*
X67307265Y-48456741D01*
X67238932Y-48328899D01*
X67059607Y-48110392D01*
X66841100Y-47931068D01*
X66591807Y-47797818D01*
X66321308Y-47715764D01*
X66040000Y-47688057D01*
X65758691Y-47715764D01*
X65488192Y-47797818D01*
X65238899Y-47931068D01*
X65020392Y-48110393D01*
X64841068Y-48328900D01*
X64770000Y-48461858D01*
X64698932Y-48328899D01*
X64519607Y-48110392D01*
X64301100Y-47931068D01*
X64051807Y-47797818D01*
X63781308Y-47715764D01*
X63500000Y-47688057D01*
X63218691Y-47715764D01*
X62948192Y-47797818D01*
X62698899Y-47931068D01*
X62480392Y-48110393D01*
X62301068Y-48328900D01*
X62230000Y-48461858D01*
X62158932Y-48328899D01*
X61979607Y-48110392D01*
X61761100Y-47931068D01*
X61511807Y-47797818D01*
X61241308Y-47715764D01*
X60960000Y-47688057D01*
X60678691Y-47715764D01*
X60408192Y-47797818D01*
X60158899Y-47931068D01*
X59940392Y-48110393D01*
X59761068Y-48328900D01*
X59627818Y-48578193D01*
X59545764Y-48848692D01*
X59525000Y-49059509D01*
X56671950Y-49059509D01*
X56666799Y-44938740D01*
X64555000Y-44938740D01*
X64555000Y-45231260D01*
X64612068Y-45518158D01*
X64724010Y-45788411D01*
X64886525Y-46031632D01*
X65093368Y-46238475D01*
X65336589Y-46400990D01*
X65606842Y-46512932D01*
X65893740Y-46570000D01*
X66186260Y-46570000D01*
X66473158Y-46512932D01*
X66743411Y-46400990D01*
X66986632Y-46238475D01*
X67193475Y-46031632D01*
X67310000Y-45857240D01*
X67426525Y-46031632D01*
X67633368Y-46238475D01*
X67876589Y-46400990D01*
X68146842Y-46512932D01*
X68433740Y-46570000D01*
X68726260Y-46570000D01*
X69013158Y-46512932D01*
X69283411Y-46400990D01*
X69526632Y-46238475D01*
X69658487Y-46106620D01*
X69680498Y-46179180D01*
X69739463Y-46289494D01*
X69818815Y-46386185D01*
X69915506Y-46465537D01*
X70025820Y-46524502D01*
X70145518Y-46560812D01*
X70270000Y-46573072D01*
X71970000Y-46573072D01*
X72094482Y-46560812D01*
X72214180Y-46524502D01*
X72324494Y-46465537D01*
X72421185Y-46386185D01*
X72500537Y-46289494D01*
X72559502Y-46179180D01*
X72595812Y-46059482D01*
X72608072Y-45935000D01*
X72608072Y-44235000D01*
X72595812Y-44110518D01*
X72559502Y-43990820D01*
X72500537Y-43880506D01*
X72421185Y-43783815D01*
X72324494Y-43704463D01*
X72214180Y-43645498D01*
X72094482Y-43609188D01*
X71970000Y-43596928D01*
X70270000Y-43596928D01*
X70145518Y-43609188D01*
X70025820Y-43645498D01*
X69915506Y-43704463D01*
X69818815Y-43783815D01*
X69739463Y-43880506D01*
X69680498Y-43990820D01*
X69658487Y-44063380D01*
X69526632Y-43931525D01*
X69283411Y-43769010D01*
X69013158Y-43657068D01*
X68726260Y-43600000D01*
X68433740Y-43600000D01*
X68146842Y-43657068D01*
X67876589Y-43769010D01*
X67633368Y-43931525D01*
X67426525Y-44138368D01*
X67310000Y-44312760D01*
X67193475Y-44138368D01*
X66986632Y-43931525D01*
X66743411Y-43769010D01*
X66473158Y-43657068D01*
X66186260Y-43600000D01*
X65893740Y-43600000D01*
X65606842Y-43657068D01*
X65336589Y-43769010D01*
X65093368Y-43931525D01*
X64886525Y-44138368D01*
X64724010Y-44381589D01*
X64612068Y-44651842D01*
X64555000Y-44938740D01*
X56666799Y-44938740D01*
X56663779Y-42523801D01*
X56852337Y-42805998D01*
X57094002Y-43047663D01*
X57378169Y-43237537D01*
X57693919Y-43368325D01*
X58029117Y-43435000D01*
X58370883Y-43435000D01*
X58706081Y-43368325D01*
X59021831Y-43237537D01*
X59305998Y-43047663D01*
X59547663Y-42805998D01*
X59737537Y-42521831D01*
X59868325Y-42206081D01*
X59935000Y-41870883D01*
X59935000Y-41529117D01*
X59868325Y-41193919D01*
X59737537Y-40878169D01*
X59547663Y-40594002D01*
X59305998Y-40352337D01*
X59021831Y-40162463D01*
X59015885Y-40160000D01*
X153034115Y-40160000D01*
X153028169Y-40162463D01*
%TA.AperFunction,Conductor*%
D21*
G36*
X153028169Y-40162463D02*
G01*
X152744002Y-40352337D01*
X152502337Y-40594002D01*
X152312463Y-40878169D01*
X152181675Y-41193919D01*
X152115000Y-41529117D01*
X152115000Y-41870883D01*
X152181675Y-42206081D01*
X152312463Y-42521831D01*
X152502337Y-42805998D01*
X152744002Y-43047663D01*
X153028169Y-43237537D01*
X153343919Y-43368325D01*
X153679117Y-43435000D01*
X154020883Y-43435000D01*
X154356081Y-43368325D01*
X154671831Y-43237537D01*
X154955998Y-43047663D01*
X155197663Y-42805998D01*
X155387537Y-42521831D01*
X155390001Y-42515883D01*
X155390001Y-51321247D01*
X155170702Y-51256903D01*
X154357605Y-52070000D01*
X155170702Y-52883097D01*
X155390001Y-52818753D01*
X155390001Y-53800956D01*
X155292637Y-53655241D01*
X155092759Y-53455363D01*
X154892131Y-53321308D01*
X154919514Y-53306671D01*
X154991097Y-53062702D01*
X154178000Y-52249605D01*
X153364903Y-53062702D01*
X153436486Y-53306671D01*
X153465341Y-53320324D01*
X153263241Y-53455363D01*
X153063363Y-53655241D01*
X152906320Y-53890273D01*
X152798147Y-54151426D01*
X152743000Y-54428665D01*
X152743000Y-54711335D01*
X152798147Y-54988574D01*
X152906320Y-55249727D01*
X153063363Y-55484759D01*
X153263241Y-55684637D01*
X153498273Y-55841680D01*
X153759426Y-55949853D01*
X154036665Y-56005000D01*
X154319335Y-56005000D01*
X154596574Y-55949853D01*
X154857727Y-55841680D01*
X155092759Y-55684637D01*
X155292637Y-55484759D01*
X155390001Y-55339044D01*
X155390000Y-76484115D01*
X155387537Y-76478169D01*
X155197663Y-76194002D01*
X154955998Y-75952337D01*
X154671831Y-75762463D01*
X154356081Y-75631675D01*
X154020883Y-75565000D01*
X153679117Y-75565000D01*
X153343919Y-75631675D01*
X153028169Y-75762463D01*
X152744002Y-75952337D01*
X152502337Y-76194002D01*
X152312463Y-76478169D01*
X152181675Y-76793919D01*
X152115000Y-77129117D01*
X152115000Y-77470883D01*
X152181675Y-77806081D01*
X152312463Y-78121831D01*
X152502337Y-78405998D01*
X152744002Y-78647663D01*
X153028169Y-78837537D01*
X153034115Y-78840000D01*
X59065885Y-78840000D01*
X59071831Y-78837537D01*
X59355998Y-78647663D01*
X59597663Y-78405998D01*
X59787537Y-78121831D01*
X59918325Y-77806081D01*
X59985000Y-77470883D01*
X59985000Y-77129117D01*
X59918325Y-76793919D01*
X59787537Y-76478169D01*
X59597663Y-76194002D01*
X59355998Y-75952337D01*
X59071831Y-75762463D01*
X58756081Y-75631675D01*
X58420883Y-75565000D01*
X58079117Y-75565000D01*
X57743919Y-75631675D01*
X57428169Y-75762463D01*
X57144002Y-75952337D01*
X56902337Y-76194002D01*
X56712463Y-76478169D01*
X56706242Y-76493188D01*
X56701951Y-73060000D01*
X64551928Y-73060000D01*
X64551928Y-74260000D01*
X64568992Y-74433254D01*
X64619528Y-74599850D01*
X64701595Y-74753386D01*
X64812038Y-74887962D01*
X64946614Y-74998405D01*
X65100150Y-75080472D01*
X65266746Y-75131008D01*
X65440000Y-75148072D01*
X66640000Y-75148072D01*
X66813254Y-75131008D01*
X66979850Y-75080472D01*
X67133386Y-74998405D01*
X67267962Y-74887962D01*
X67378405Y-74753386D01*
X67446285Y-74626392D01*
X67633368Y-74813475D01*
X67876589Y-74975990D01*
X68146842Y-75087932D01*
X68433740Y-75145000D01*
X68726260Y-75145000D01*
X69013158Y-75087932D01*
X69283411Y-74975990D01*
X69526632Y-74813475D01*
X69733475Y-74606632D01*
X69850000Y-74432240D01*
X69966525Y-74606632D01*
X70173368Y-74813475D01*
X70416589Y-74975990D01*
X70686842Y-75087932D01*
X70973740Y-75145000D01*
X71266260Y-75145000D01*
X71553158Y-75087932D01*
X71823411Y-74975990D01*
X72066632Y-74813475D01*
X72273475Y-74606632D01*
X72390000Y-74432240D01*
X72506525Y-74606632D01*
X72713368Y-74813475D01*
X72956589Y-74975990D01*
X73226842Y-75087932D01*
X73513740Y-75145000D01*
X73806260Y-75145000D01*
X74093158Y-75087932D01*
X74363411Y-74975990D01*
X74606632Y-74813475D01*
X74813475Y-74606632D01*
X74975990Y-74363411D01*
X75087932Y-74093158D01*
X75145000Y-73806260D01*
X75145000Y-73513740D01*
X75087932Y-73226842D01*
X75018825Y-73060000D01*
X84871928Y-73060000D01*
X84871928Y-74260000D01*
X84888992Y-74433254D01*
X84939528Y-74599850D01*
X85021595Y-74753386D01*
X85132038Y-74887962D01*
X85266614Y-74998405D01*
X85420150Y-75080472D01*
X85586746Y-75131008D01*
X85760000Y-75148072D01*
X86960000Y-75148072D01*
X87133254Y-75131008D01*
X87299850Y-75080472D01*
X87453386Y-74998405D01*
X87587962Y-74887962D01*
X87698405Y-74753386D01*
X87766285Y-74626392D01*
X87953368Y-74813475D01*
X88196589Y-74975990D01*
X88466842Y-75087932D01*
X88753740Y-75145000D01*
X89046260Y-75145000D01*
X89333158Y-75087932D01*
X89603411Y-74975990D01*
X89846632Y-74813475D01*
X90053475Y-74606632D01*
X90170000Y-74432240D01*
X90286525Y-74606632D01*
X90493368Y-74813475D01*
X90736589Y-74975990D01*
X91006842Y-75087932D01*
X91293740Y-75145000D01*
X91586260Y-75145000D01*
X91873158Y-75087932D01*
X92143411Y-74975990D01*
X92386632Y-74813475D01*
X92593475Y-74606632D01*
X92710000Y-74432240D01*
X92826525Y-74606632D01*
X93033368Y-74813475D01*
X93276589Y-74975990D01*
X93546842Y-75087932D01*
X93833740Y-75145000D01*
X94126260Y-75145000D01*
X94413158Y-75087932D01*
X94683411Y-74975990D01*
X94926632Y-74813475D01*
X95133475Y-74606632D01*
X95295990Y-74363411D01*
X95407932Y-74093158D01*
X95450003Y-73881653D01*
X102192952Y-73881653D01*
X102348962Y-74197214D01*
X102723745Y-74388020D01*
X103128551Y-74502044D01*
X103547824Y-74534902D01*
X103965451Y-74485334D01*
X104365383Y-74355243D01*
X104661038Y-74197214D01*
X104817048Y-73881653D01*
X103505000Y-72569605D01*
X102192952Y-73881653D01*
X95450003Y-73881653D01*
X95465000Y-73806260D01*
X95465000Y-73513740D01*
X95407932Y-73226842D01*
X95295990Y-72956589D01*
X95133475Y-72713368D01*
X94926632Y-72506525D01*
X94816331Y-72432824D01*
X101360098Y-72432824D01*
X101409666Y-72850451D01*
X101539757Y-73250383D01*
X101697786Y-73546038D01*
X102013347Y-73702048D01*
X103325395Y-72390000D01*
X103684605Y-72390000D01*
X104996653Y-73702048D01*
X105312214Y-73546038D01*
X105503020Y-73171255D01*
X105617044Y-72766449D01*
X105649902Y-72347176D01*
X105600334Y-71929549D01*
X105470243Y-71529617D01*
X105312214Y-71233962D01*
X104996653Y-71077952D01*
X103684605Y-72390000D01*
X103325395Y-72390000D01*
X102013347Y-71077952D01*
X101697786Y-71233962D01*
X101506980Y-71608745D01*
X101392956Y-72013551D01*
X101360098Y-72432824D01*
X94816331Y-72432824D01*
X94752240Y-72390000D01*
X94926632Y-72273475D01*
X95133475Y-72066632D01*
X95295990Y-71823411D01*
X95407932Y-71553158D01*
X95465000Y-71266260D01*
X95465000Y-70973740D01*
X95450004Y-70898347D01*
X102192952Y-70898347D01*
X103505000Y-72210395D01*
X104817048Y-70898347D01*
X104812922Y-70890000D01*
X106446928Y-70890000D01*
X106446928Y-73890000D01*
X106459188Y-74014482D01*
X106495498Y-74134180D01*
X106554463Y-74244494D01*
X106633815Y-74341185D01*
X106730506Y-74420537D01*
X106840820Y-74479502D01*
X106960518Y-74515812D01*
X107085000Y-74528072D01*
X110085000Y-74528072D01*
X110209482Y-74515812D01*
X110329180Y-74479502D01*
X110439494Y-74420537D01*
X110536185Y-74341185D01*
X110615537Y-74244494D01*
X110674502Y-74134180D01*
X110710812Y-74014482D01*
X110723072Y-73890000D01*
X110723072Y-73060000D01*
X116621928Y-73060000D01*
X116621928Y-74260000D01*
X116638992Y-74433254D01*
X116689528Y-74599850D01*
X116771595Y-74753386D01*
X116882038Y-74887962D01*
X117016614Y-74998405D01*
X117170150Y-75080472D01*
X117336746Y-75131008D01*
X117510000Y-75148072D01*
X118710000Y-75148072D01*
X118883254Y-75131008D01*
X119049850Y-75080472D01*
X119203386Y-74998405D01*
X119337962Y-74887962D01*
X119448405Y-74753386D01*
X119516285Y-74626392D01*
X119703368Y-74813475D01*
X119946589Y-74975990D01*
X120216842Y-75087932D01*
X120503740Y-75145000D01*
X120796260Y-75145000D01*
X121083158Y-75087932D01*
X121353411Y-74975990D01*
X121596632Y-74813475D01*
X121803475Y-74606632D01*
X121920000Y-74432240D01*
X122036525Y-74606632D01*
X122243368Y-74813475D01*
X122486589Y-74975990D01*
X122756842Y-75087932D01*
X123043740Y-75145000D01*
X123336260Y-75145000D01*
X123623158Y-75087932D01*
X123893411Y-74975990D01*
X124136632Y-74813475D01*
X124343475Y-74606632D01*
X124460000Y-74432240D01*
X124576525Y-74606632D01*
X124783368Y-74813475D01*
X125026589Y-74975990D01*
X125296842Y-75087932D01*
X125583740Y-75145000D01*
X125876260Y-75145000D01*
X126163158Y-75087932D01*
X126433411Y-74975990D01*
X126676632Y-74813475D01*
X126883475Y-74606632D01*
X127045990Y-74363411D01*
X127157932Y-74093158D01*
X127215000Y-73806260D01*
X127215000Y-73513740D01*
X127157932Y-73226842D01*
X127088825Y-73060000D01*
X136941928Y-73060000D01*
X136941928Y-74260000D01*
X136958992Y-74433254D01*
X137009528Y-74599850D01*
X137091595Y-74753386D01*
X137202038Y-74887962D01*
X137336614Y-74998405D01*
X137490150Y-75080472D01*
X137656746Y-75131008D01*
X137830000Y-75148072D01*
X139030000Y-75148072D01*
X139203254Y-75131008D01*
X139369850Y-75080472D01*
X139523386Y-74998405D01*
X139657962Y-74887962D01*
X139768405Y-74753386D01*
X139836285Y-74626392D01*
X140023368Y-74813475D01*
X140266589Y-74975990D01*
X140536842Y-75087932D01*
X140823740Y-75145000D01*
X141116260Y-75145000D01*
X141403158Y-75087932D01*
X141673411Y-74975990D01*
X141916632Y-74813475D01*
X142123475Y-74606632D01*
X142240000Y-74432240D01*
X142356525Y-74606632D01*
X142563368Y-74813475D01*
X142806589Y-74975990D01*
X143076842Y-75087932D01*
X143363740Y-75145000D01*
X143656260Y-75145000D01*
X143943158Y-75087932D01*
X144213411Y-74975990D01*
X144456632Y-74813475D01*
X144663475Y-74606632D01*
X144780000Y-74432240D01*
X144896525Y-74606632D01*
X145103368Y-74813475D01*
X145346589Y-74975990D01*
X145616842Y-75087932D01*
X145903740Y-75145000D01*
X146196260Y-75145000D01*
X146483158Y-75087932D01*
X146753411Y-74975990D01*
X146996632Y-74813475D01*
X147203475Y-74606632D01*
X147365990Y-74363411D01*
X147477932Y-74093158D01*
X147535000Y-73806260D01*
X147535000Y-73513740D01*
X147477932Y-73226842D01*
X147365990Y-72956589D01*
X147203475Y-72713368D01*
X146996632Y-72506525D01*
X146822240Y-72390000D01*
X146996632Y-72273475D01*
X147203475Y-72066632D01*
X147365990Y-71823411D01*
X147477932Y-71553158D01*
X147535000Y-71266260D01*
X147535000Y-70973740D01*
X147477932Y-70686842D01*
X147365990Y-70416589D01*
X147203475Y-70173368D01*
X146996632Y-69966525D01*
X146753411Y-69804010D01*
X146483158Y-69692068D01*
X146196260Y-69635000D01*
X145903740Y-69635000D01*
X145616842Y-69692068D01*
X145346589Y-69804010D01*
X145103368Y-69966525D01*
X144896525Y-70173368D01*
X144780000Y-70347760D01*
X144663475Y-70173368D01*
X144456632Y-69966525D01*
X144213411Y-69804010D01*
X143943158Y-69692068D01*
X143656260Y-69635000D01*
X143363740Y-69635000D01*
X143076842Y-69692068D01*
X142806589Y-69804010D01*
X142563368Y-69966525D01*
X142356525Y-70173368D01*
X142240000Y-70347760D01*
X142123475Y-70173368D01*
X141916632Y-69966525D01*
X141673411Y-69804010D01*
X141403158Y-69692068D01*
X141116260Y-69635000D01*
X140823740Y-69635000D01*
X140536842Y-69692068D01*
X140266589Y-69804010D01*
X140023368Y-69966525D01*
X139816525Y-70173368D01*
X139700000Y-70347760D01*
X139583475Y-70173368D01*
X139376632Y-69966525D01*
X139133411Y-69804010D01*
X138863158Y-69692068D01*
X138576260Y-69635000D01*
X138283740Y-69635000D01*
X137996842Y-69692068D01*
X137726589Y-69804010D01*
X137483368Y-69966525D01*
X137276525Y-70173368D01*
X137114010Y-70416589D01*
X137002068Y-70686842D01*
X136945000Y-70973740D01*
X136945000Y-71266260D01*
X137002068Y-71553158D01*
X137114010Y-71823411D01*
X137276525Y-72066632D01*
X137463608Y-72253715D01*
X137336614Y-72321595D01*
X137202038Y-72432038D01*
X137091595Y-72566614D01*
X137009528Y-72720150D01*
X136958992Y-72886746D01*
X136941928Y-73060000D01*
X127088825Y-73060000D01*
X127045990Y-72956589D01*
X126883475Y-72713368D01*
X126676632Y-72506525D01*
X126502240Y-72390000D01*
X126676632Y-72273475D01*
X126883475Y-72066632D01*
X127045990Y-71823411D01*
X127157932Y-71553158D01*
X127215000Y-71266260D01*
X127215000Y-70973740D01*
X127157932Y-70686842D01*
X127045990Y-70416589D01*
X126883475Y-70173368D01*
X126676632Y-69966525D01*
X126433411Y-69804010D01*
X126163158Y-69692068D01*
X125876260Y-69635000D01*
X125583740Y-69635000D01*
X125296842Y-69692068D01*
X125026589Y-69804010D01*
X124783368Y-69966525D01*
X124576525Y-70173368D01*
X124460000Y-70347760D01*
X124343475Y-70173368D01*
X124136632Y-69966525D01*
X123893411Y-69804010D01*
X123623158Y-69692068D01*
X123336260Y-69635000D01*
X123043740Y-69635000D01*
X122756842Y-69692068D01*
X122486589Y-69804010D01*
X122243368Y-69966525D01*
X122036525Y-70173368D01*
X121920000Y-70347760D01*
X121803475Y-70173368D01*
X121596632Y-69966525D01*
X121353411Y-69804010D01*
X121083158Y-69692068D01*
X120796260Y-69635000D01*
X120503740Y-69635000D01*
X120216842Y-69692068D01*
X119946589Y-69804010D01*
X119703368Y-69966525D01*
X119496525Y-70173368D01*
X119380000Y-70347760D01*
X119263475Y-70173368D01*
X119056632Y-69966525D01*
X118813411Y-69804010D01*
X118543158Y-69692068D01*
X118256260Y-69635000D01*
X117963740Y-69635000D01*
X117676842Y-69692068D01*
X117406589Y-69804010D01*
X117163368Y-69966525D01*
X116956525Y-70173368D01*
X116794010Y-70416589D01*
X116682068Y-70686842D01*
X116625000Y-70973740D01*
X116625000Y-71266260D01*
X116682068Y-71553158D01*
X116794010Y-71823411D01*
X116956525Y-72066632D01*
X117143608Y-72253715D01*
X117016614Y-72321595D01*
X116882038Y-72432038D01*
X116771595Y-72566614D01*
X116689528Y-72720150D01*
X116638992Y-72886746D01*
X116621928Y-73060000D01*
X110723072Y-73060000D01*
X110723072Y-70890000D01*
X110710812Y-70765518D01*
X110674502Y-70645820D01*
X110615537Y-70535506D01*
X110536185Y-70438815D01*
X110439494Y-70359463D01*
X110329180Y-70300498D01*
X110209482Y-70264188D01*
X110085000Y-70251928D01*
X107085000Y-70251928D01*
X106960518Y-70264188D01*
X106840820Y-70300498D01*
X106730506Y-70359463D01*
X106633815Y-70438815D01*
X106554463Y-70535506D01*
X106495498Y-70645820D01*
X106459188Y-70765518D01*
X106446928Y-70890000D01*
X104812922Y-70890000D01*
X104661038Y-70582786D01*
X104286255Y-70391980D01*
X103881449Y-70277956D01*
X103462176Y-70245098D01*
X103044549Y-70294666D01*
X102644617Y-70424757D01*
X102348962Y-70582786D01*
X102192952Y-70898347D01*
X95450004Y-70898347D01*
X95407932Y-70686842D01*
X95295990Y-70416589D01*
X95133475Y-70173368D01*
X94926632Y-69966525D01*
X94683411Y-69804010D01*
X94413158Y-69692068D01*
X94126260Y-69635000D01*
X93833740Y-69635000D01*
X93546842Y-69692068D01*
X93276589Y-69804010D01*
X93033368Y-69966525D01*
X92826525Y-70173368D01*
X92710000Y-70347760D01*
X92593475Y-70173368D01*
X92386632Y-69966525D01*
X92143411Y-69804010D01*
X91873158Y-69692068D01*
X91586260Y-69635000D01*
X91293740Y-69635000D01*
X91006842Y-69692068D01*
X90736589Y-69804010D01*
X90493368Y-69966525D01*
X90286525Y-70173368D01*
X90170000Y-70347760D01*
X90053475Y-70173368D01*
X89846632Y-69966525D01*
X89603411Y-69804010D01*
X89333158Y-69692068D01*
X89046260Y-69635000D01*
X88753740Y-69635000D01*
X88466842Y-69692068D01*
X88196589Y-69804010D01*
X87953368Y-69966525D01*
X87746525Y-70173368D01*
X87630000Y-70347760D01*
X87513475Y-70173368D01*
X87306632Y-69966525D01*
X87063411Y-69804010D01*
X86793158Y-69692068D01*
X86506260Y-69635000D01*
X86213740Y-69635000D01*
X85926842Y-69692068D01*
X85656589Y-69804010D01*
X85413368Y-69966525D01*
X85206525Y-70173368D01*
X85044010Y-70416589D01*
X84932068Y-70686842D01*
X84875000Y-70973740D01*
X84875000Y-71266260D01*
X84932068Y-71553158D01*
X85044010Y-71823411D01*
X85206525Y-72066632D01*
X85393608Y-72253715D01*
X85266614Y-72321595D01*
X85132038Y-72432038D01*
X85021595Y-72566614D01*
X84939528Y-72720150D01*
X84888992Y-72886746D01*
X84871928Y-73060000D01*
X75018825Y-73060000D01*
X74975990Y-72956589D01*
X74813475Y-72713368D01*
X74606632Y-72506525D01*
X74432240Y-72390000D01*
X74606632Y-72273475D01*
X74813475Y-72066632D01*
X74975990Y-71823411D01*
X75087932Y-71553158D01*
X75145000Y-71266260D01*
X75145000Y-70973740D01*
X75087932Y-70686842D01*
X74975990Y-70416589D01*
X74813475Y-70173368D01*
X74606632Y-69966525D01*
X74363411Y-69804010D01*
X74093158Y-69692068D01*
X73806260Y-69635000D01*
X73513740Y-69635000D01*
X73226842Y-69692068D01*
X72956589Y-69804010D01*
X72713368Y-69966525D01*
X72506525Y-70173368D01*
X72390000Y-70347760D01*
X72273475Y-70173368D01*
X72066632Y-69966525D01*
X71823411Y-69804010D01*
X71553158Y-69692068D01*
X71266260Y-69635000D01*
X70973740Y-69635000D01*
X70686842Y-69692068D01*
X70416589Y-69804010D01*
X70173368Y-69966525D01*
X69966525Y-70173368D01*
X69850000Y-70347760D01*
X69733475Y-70173368D01*
X69526632Y-69966525D01*
X69283411Y-69804010D01*
X69013158Y-69692068D01*
X68726260Y-69635000D01*
X68433740Y-69635000D01*
X68146842Y-69692068D01*
X67876589Y-69804010D01*
X67633368Y-69966525D01*
X67426525Y-70173368D01*
X67310000Y-70347760D01*
X67193475Y-70173368D01*
X66986632Y-69966525D01*
X66743411Y-69804010D01*
X66473158Y-69692068D01*
X66186260Y-69635000D01*
X65893740Y-69635000D01*
X65606842Y-69692068D01*
X65336589Y-69804010D01*
X65093368Y-69966525D01*
X64886525Y-70173368D01*
X64724010Y-70416589D01*
X64612068Y-70686842D01*
X64555000Y-70973740D01*
X64555000Y-71266260D01*
X64612068Y-71553158D01*
X64724010Y-71823411D01*
X64886525Y-72066632D01*
X65073608Y-72253715D01*
X64946614Y-72321595D01*
X64812038Y-72432038D01*
X64701595Y-72566614D01*
X64619528Y-72720150D01*
X64568992Y-72886746D01*
X64551928Y-73060000D01*
X56701951Y-73060000D01*
X56679832Y-55365882D01*
X56759263Y-55484759D01*
X56959141Y-55684637D01*
X57194173Y-55841680D01*
X57455326Y-55949853D01*
X57732565Y-56005000D01*
X58015235Y-56005000D01*
X58291734Y-55950000D01*
X59521928Y-55950000D01*
X59521928Y-58350000D01*
X59534188Y-58474482D01*
X59570498Y-58594180D01*
X59629463Y-58704494D01*
X59708815Y-58801185D01*
X59805506Y-58880537D01*
X59915820Y-58939502D01*
X60035518Y-58975812D01*
X60160000Y-58988072D01*
X61760000Y-58988072D01*
X61884482Y-58975812D01*
X62004180Y-58939502D01*
X62114494Y-58880537D01*
X62211185Y-58801185D01*
X62290537Y-58704494D01*
X62349502Y-58594180D01*
X62385812Y-58474482D01*
X62387581Y-58456517D01*
X62480393Y-58569608D01*
X62698900Y-58748932D01*
X62948193Y-58882182D01*
X63218692Y-58964236D01*
X63500000Y-58991943D01*
X63781309Y-58964236D01*
X64051808Y-58882182D01*
X64301101Y-58748932D01*
X64519608Y-58569608D01*
X64698932Y-58351101D01*
X64770000Y-58218142D01*
X64841068Y-58351101D01*
X65020393Y-58569608D01*
X65238900Y-58748932D01*
X65488193Y-58882182D01*
X65758692Y-58964236D01*
X66040000Y-58991943D01*
X66321309Y-58964236D01*
X66591808Y-58882182D01*
X66841101Y-58748932D01*
X67059608Y-58569608D01*
X67238932Y-58351101D01*
X67310000Y-58218142D01*
X67381068Y-58351101D01*
X67560393Y-58569608D01*
X67778900Y-58748932D01*
X68028193Y-58882182D01*
X68298692Y-58964236D01*
X68580000Y-58991943D01*
X68861309Y-58964236D01*
X69131808Y-58882182D01*
X69381101Y-58748932D01*
X69599608Y-58569608D01*
X69778932Y-58351101D01*
X69850000Y-58218142D01*
X69921068Y-58351101D01*
X70100393Y-58569608D01*
X70318900Y-58748932D01*
X70568193Y-58882182D01*
X70838692Y-58964236D01*
X71120000Y-58991943D01*
X71401309Y-58964236D01*
X71671808Y-58882182D01*
X71921101Y-58748932D01*
X72139608Y-58569608D01*
X72318932Y-58351101D01*
X72390000Y-58218142D01*
X72461068Y-58351101D01*
X72640393Y-58569608D01*
X72858900Y-58748932D01*
X73108193Y-58882182D01*
X73378692Y-58964236D01*
X73660000Y-58991943D01*
X73941309Y-58964236D01*
X74211808Y-58882182D01*
X74461101Y-58748932D01*
X74679608Y-58569608D01*
X74858932Y-58351101D01*
X74930000Y-58218142D01*
X75001068Y-58351101D01*
X75180393Y-58569608D01*
X75398900Y-58748932D01*
X75648193Y-58882182D01*
X75918692Y-58964236D01*
X76200000Y-58991943D01*
X76481309Y-58964236D01*
X76751808Y-58882182D01*
X77001101Y-58748932D01*
X77219608Y-58569608D01*
X77398932Y-58351101D01*
X77467265Y-58223259D01*
X77617399Y-58452839D01*
X77815105Y-58654500D01*
X78048354Y-58813715D01*
X78308182Y-58924367D01*
X78390961Y-58941904D01*
X78613000Y-58819915D01*
X78613000Y-57277000D01*
X78867000Y-57277000D01*
X78867000Y-58819915D01*
X79089039Y-58941904D01*
X79171818Y-58924367D01*
X79431646Y-58813715D01*
X79664895Y-58654500D01*
X79862601Y-58452839D01*
X80017166Y-58216483D01*
X80122650Y-57954514D01*
X80175000Y-57677000D01*
X80175000Y-57277000D01*
X78867000Y-57277000D01*
X78613000Y-57277000D01*
X78593000Y-57277000D01*
X78593000Y-57023000D01*
X78613000Y-57023000D01*
X78613000Y-55480085D01*
X78867000Y-55480085D01*
X78867000Y-57023000D01*
X80175000Y-57023000D01*
X80175000Y-56623000D01*
X80122650Y-56345486D01*
X80017166Y-56083517D01*
X79862601Y-55847161D01*
X79664895Y-55645500D01*
X79431646Y-55486285D01*
X79171818Y-55375633D01*
X79089039Y-55358096D01*
X78867000Y-55480085D01*
X78613000Y-55480085D01*
X78390961Y-55358096D01*
X78308182Y-55375633D01*
X78048354Y-55486285D01*
X77815105Y-55645500D01*
X77617399Y-55847161D01*
X77467265Y-56076741D01*
X77398932Y-55948899D01*
X77219607Y-55730392D01*
X77001100Y-55551068D01*
X76751807Y-55417818D01*
X76481308Y-55335764D01*
X76200000Y-55308057D01*
X75918691Y-55335764D01*
X75648192Y-55417818D01*
X75398899Y-55551068D01*
X75180392Y-55730393D01*
X75001068Y-55948900D01*
X74930000Y-56081858D01*
X74858932Y-55948899D01*
X74679607Y-55730392D01*
X74461100Y-55551068D01*
X74211807Y-55417818D01*
X73941308Y-55335764D01*
X73660000Y-55308057D01*
X73378691Y-55335764D01*
X73108192Y-55417818D01*
X72858899Y-55551068D01*
X72640392Y-55730393D01*
X72461068Y-55948900D01*
X72390000Y-56081858D01*
X72318932Y-55948899D01*
X72139607Y-55730392D01*
X71921100Y-55551068D01*
X71671807Y-55417818D01*
X71401308Y-55335764D01*
X71120000Y-55308057D01*
X70838691Y-55335764D01*
X70568192Y-55417818D01*
X70318899Y-55551068D01*
X70100392Y-55730393D01*
X69921068Y-55948900D01*
X69850000Y-56081858D01*
X69778932Y-55948899D01*
X69599607Y-55730392D01*
X69381100Y-55551068D01*
X69131807Y-55417818D01*
X68861308Y-55335764D01*
X68580000Y-55308057D01*
X68298691Y-55335764D01*
X68028192Y-55417818D01*
X67778899Y-55551068D01*
X67560392Y-55730393D01*
X67381068Y-55948900D01*
X67310000Y-56081858D01*
X67238932Y-55948899D01*
X67059607Y-55730392D01*
X66841100Y-55551068D01*
X66591807Y-55417818D01*
X66321308Y-55335764D01*
X66040000Y-55308057D01*
X65758691Y-55335764D01*
X65488192Y-55417818D01*
X65238899Y-55551068D01*
X65020392Y-55730393D01*
X64841068Y-55948900D01*
X64770000Y-56081858D01*
X64698932Y-55948899D01*
X64519607Y-55730392D01*
X64301100Y-55551068D01*
X64051807Y-55417818D01*
X63781308Y-55335764D01*
X63500000Y-55308057D01*
X63218691Y-55335764D01*
X62948192Y-55417818D01*
X62698899Y-55551068D01*
X62480392Y-55730393D01*
X62387581Y-55843483D01*
X62385812Y-55825518D01*
X62349502Y-55705820D01*
X62290537Y-55595506D01*
X62211185Y-55498815D01*
X62114494Y-55419463D01*
X62004180Y-55360498D01*
X61884482Y-55324188D01*
X61760000Y-55311928D01*
X60160000Y-55311928D01*
X60035518Y-55324188D01*
X59915820Y-55360498D01*
X59805506Y-55419463D01*
X59708815Y-55498815D01*
X59629463Y-55595506D01*
X59570498Y-55705820D01*
X59534188Y-55825518D01*
X59521928Y-55950000D01*
X58291734Y-55950000D01*
X58292474Y-55949853D01*
X58553627Y-55841680D01*
X58788659Y-55684637D01*
X58988537Y-55484759D01*
X59145580Y-55249727D01*
X59253753Y-54988574D01*
X59308900Y-54711335D01*
X59308900Y-54468665D01*
X80480000Y-54468665D01*
X80480000Y-54751335D01*
X80535147Y-55028574D01*
X80643320Y-55289727D01*
X80800363Y-55524759D01*
X81000241Y-55724637D01*
X81235273Y-55881680D01*
X81496426Y-55989853D01*
X81773665Y-56045000D01*
X82056335Y-56045000D01*
X82333574Y-55989853D01*
X82429787Y-55950000D01*
X83651928Y-55950000D01*
X83651928Y-58350000D01*
X83664188Y-58474482D01*
X83700498Y-58594180D01*
X83759463Y-58704494D01*
X83838815Y-58801185D01*
X83935506Y-58880537D01*
X84045820Y-58939502D01*
X84165518Y-58975812D01*
X84290000Y-58988072D01*
X85890000Y-58988072D01*
X86014482Y-58975812D01*
X86134180Y-58939502D01*
X86244494Y-58880537D01*
X86341185Y-58801185D01*
X86420537Y-58704494D01*
X86479502Y-58594180D01*
X86515812Y-58474482D01*
X86517581Y-58456517D01*
X86610393Y-58569608D01*
X86828900Y-58748932D01*
X87078193Y-58882182D01*
X87348692Y-58964236D01*
X87630000Y-58991943D01*
X87911309Y-58964236D01*
X88181808Y-58882182D01*
X88431101Y-58748932D01*
X88649608Y-58569608D01*
X88828932Y-58351101D01*
X88900000Y-58218142D01*
X88971068Y-58351101D01*
X89150393Y-58569608D01*
X89368900Y-58748932D01*
X89618193Y-58882182D01*
X89888692Y-58964236D01*
X90170000Y-58991943D01*
X90451309Y-58964236D01*
X90721808Y-58882182D01*
X90971101Y-58748932D01*
X91189608Y-58569608D01*
X91368932Y-58351101D01*
X91440000Y-58218142D01*
X91511068Y-58351101D01*
X91690393Y-58569608D01*
X91908900Y-58748932D01*
X92158193Y-58882182D01*
X92428692Y-58964236D01*
X92710000Y-58991943D01*
X92991309Y-58964236D01*
X93261808Y-58882182D01*
X93511101Y-58748932D01*
X93729608Y-58569608D01*
X93908932Y-58351101D01*
X93980000Y-58218142D01*
X94051068Y-58351101D01*
X94230393Y-58569608D01*
X94448900Y-58748932D01*
X94698193Y-58882182D01*
X94968692Y-58964236D01*
X95250000Y-58991943D01*
X95531309Y-58964236D01*
X95801808Y-58882182D01*
X96051101Y-58748932D01*
X96269608Y-58569608D01*
X96448932Y-58351101D01*
X96520000Y-58218142D01*
X96591068Y-58351101D01*
X96770393Y-58569608D01*
X96988900Y-58748932D01*
X97238193Y-58882182D01*
X97508692Y-58964236D01*
X97790000Y-58991943D01*
X98071309Y-58964236D01*
X98341808Y-58882182D01*
X98591101Y-58748932D01*
X98809608Y-58569608D01*
X98988932Y-58351101D01*
X99060000Y-58218142D01*
X99131068Y-58351101D01*
X99310393Y-58569608D01*
X99528900Y-58748932D01*
X99778193Y-58882182D01*
X100048692Y-58964236D01*
X100330000Y-58991943D01*
X100611309Y-58964236D01*
X100881808Y-58882182D01*
X101131101Y-58748932D01*
X101349608Y-58569608D01*
X101528932Y-58351101D01*
X101597265Y-58223259D01*
X101747399Y-58452839D01*
X101945105Y-58654500D01*
X102178354Y-58813715D01*
X102438182Y-58924367D01*
X102520961Y-58941904D01*
X102743000Y-58819915D01*
X102743000Y-57277000D01*
X102997000Y-57277000D01*
X102997000Y-58819915D01*
X103219039Y-58941904D01*
X103301818Y-58924367D01*
X103561646Y-58813715D01*
X103794895Y-58654500D01*
X103992601Y-58452839D01*
X104147166Y-58216483D01*
X104252650Y-57954514D01*
X104305000Y-57677000D01*
X104305000Y-57277000D01*
X102997000Y-57277000D01*
X102743000Y-57277000D01*
X102723000Y-57277000D01*
X102723000Y-57023000D01*
X102743000Y-57023000D01*
X102743000Y-55480085D01*
X102997000Y-55480085D01*
X102997000Y-57023000D01*
X104305000Y-57023000D01*
X104305000Y-56623000D01*
X104252650Y-56345486D01*
X104147166Y-56083517D01*
X103992601Y-55847161D01*
X103794895Y-55645500D01*
X103561646Y-55486285D01*
X103301818Y-55375633D01*
X103219039Y-55358096D01*
X102997000Y-55480085D01*
X102743000Y-55480085D01*
X102520961Y-55358096D01*
X102438182Y-55375633D01*
X102178354Y-55486285D01*
X101945105Y-55645500D01*
X101747399Y-55847161D01*
X101597265Y-56076741D01*
X101528932Y-55948899D01*
X101349607Y-55730392D01*
X101131100Y-55551068D01*
X100881807Y-55417818D01*
X100611308Y-55335764D01*
X100330000Y-55308057D01*
X100048691Y-55335764D01*
X99778192Y-55417818D01*
X99528899Y-55551068D01*
X99310392Y-55730393D01*
X99131068Y-55948900D01*
X99060000Y-56081858D01*
X98988932Y-55948899D01*
X98809607Y-55730392D01*
X98591100Y-55551068D01*
X98341807Y-55417818D01*
X98071308Y-55335764D01*
X97790000Y-55308057D01*
X97508691Y-55335764D01*
X97238192Y-55417818D01*
X96988899Y-55551068D01*
X96770392Y-55730393D01*
X96591068Y-55948900D01*
X96520000Y-56081858D01*
X96448932Y-55948899D01*
X96269607Y-55730392D01*
X96051100Y-55551068D01*
X95801807Y-55417818D01*
X95531308Y-55335764D01*
X95250000Y-55308057D01*
X94968691Y-55335764D01*
X94698192Y-55417818D01*
X94448899Y-55551068D01*
X94230392Y-55730393D01*
X94051068Y-55948900D01*
X93980000Y-56081858D01*
X93908932Y-55948899D01*
X93729607Y-55730392D01*
X93511100Y-55551068D01*
X93261807Y-55417818D01*
X92991308Y-55335764D01*
X92710000Y-55308057D01*
X92428691Y-55335764D01*
X92158192Y-55417818D01*
X91908899Y-55551068D01*
X91690392Y-55730393D01*
X91511068Y-55948900D01*
X91440000Y-56081858D01*
X91368932Y-55948899D01*
X91189607Y-55730392D01*
X90971100Y-55551068D01*
X90721807Y-55417818D01*
X90451308Y-55335764D01*
X90170000Y-55308057D01*
X89888691Y-55335764D01*
X89618192Y-55417818D01*
X89368899Y-55551068D01*
X89150392Y-55730393D01*
X88971068Y-55948900D01*
X88900000Y-56081858D01*
X88828932Y-55948899D01*
X88649607Y-55730392D01*
X88431100Y-55551068D01*
X88181807Y-55417818D01*
X87911308Y-55335764D01*
X87630000Y-55308057D01*
X87348691Y-55335764D01*
X87078192Y-55417818D01*
X86828899Y-55551068D01*
X86610392Y-55730393D01*
X86517581Y-55843483D01*
X86515812Y-55825518D01*
X86479502Y-55705820D01*
X86420537Y-55595506D01*
X86341185Y-55498815D01*
X86244494Y-55419463D01*
X86134180Y-55360498D01*
X86014482Y-55324188D01*
X85890000Y-55311928D01*
X84290000Y-55311928D01*
X84165518Y-55324188D01*
X84045820Y-55360498D01*
X83935506Y-55419463D01*
X83838815Y-55498815D01*
X83759463Y-55595506D01*
X83700498Y-55705820D01*
X83664188Y-55825518D01*
X83651928Y-55950000D01*
X82429787Y-55950000D01*
X82594727Y-55881680D01*
X82829759Y-55724637D01*
X83029637Y-55524759D01*
X83186680Y-55289727D01*
X83294853Y-55028574D01*
X83350000Y-54751335D01*
X83350000Y-54468665D01*
X104610000Y-54468665D01*
X104610000Y-54751335D01*
X104665147Y-55028574D01*
X104773320Y-55289727D01*
X104930363Y-55524759D01*
X105130241Y-55724637D01*
X105365273Y-55881680D01*
X105626426Y-55989853D01*
X105903665Y-56045000D01*
X106186335Y-56045000D01*
X106463574Y-55989853D01*
X106559787Y-55950000D01*
X107781928Y-55950000D01*
X107781928Y-58350000D01*
X107794188Y-58474482D01*
X107830498Y-58594180D01*
X107889463Y-58704494D01*
X107968815Y-58801185D01*
X108065506Y-58880537D01*
X108175820Y-58939502D01*
X108295518Y-58975812D01*
X108420000Y-58988072D01*
X110020000Y-58988072D01*
X110144482Y-58975812D01*
X110264180Y-58939502D01*
X110374494Y-58880537D01*
X110471185Y-58801185D01*
X110550537Y-58704494D01*
X110609502Y-58594180D01*
X110645812Y-58474482D01*
X110647581Y-58456517D01*
X110740393Y-58569608D01*
X110958900Y-58748932D01*
X111208193Y-58882182D01*
X111478692Y-58964236D01*
X111760000Y-58991943D01*
X112041309Y-58964236D01*
X112311808Y-58882182D01*
X112561101Y-58748932D01*
X112779608Y-58569608D01*
X112958932Y-58351101D01*
X113030000Y-58218142D01*
X113101068Y-58351101D01*
X113280393Y-58569608D01*
X113498900Y-58748932D01*
X113748193Y-58882182D01*
X114018692Y-58964236D01*
X114300000Y-58991943D01*
X114581309Y-58964236D01*
X114851808Y-58882182D01*
X115101101Y-58748932D01*
X115319608Y-58569608D01*
X115498932Y-58351101D01*
X115570000Y-58218142D01*
X115641068Y-58351101D01*
X115820393Y-58569608D01*
X116038900Y-58748932D01*
X116288193Y-58882182D01*
X116558692Y-58964236D01*
X116840000Y-58991943D01*
X117121309Y-58964236D01*
X117391808Y-58882182D01*
X117641101Y-58748932D01*
X117859608Y-58569608D01*
X118038932Y-58351101D01*
X118110000Y-58218142D01*
X118181068Y-58351101D01*
X118360393Y-58569608D01*
X118578900Y-58748932D01*
X118828193Y-58882182D01*
X119098692Y-58964236D01*
X119380000Y-58991943D01*
X119661309Y-58964236D01*
X119931808Y-58882182D01*
X120181101Y-58748932D01*
X120399608Y-58569608D01*
X120578932Y-58351101D01*
X120650000Y-58218142D01*
X120721068Y-58351101D01*
X120900393Y-58569608D01*
X121118900Y-58748932D01*
X121368193Y-58882182D01*
X121638692Y-58964236D01*
X121920000Y-58991943D01*
X122201309Y-58964236D01*
X122471808Y-58882182D01*
X122721101Y-58748932D01*
X122939608Y-58569608D01*
X123118932Y-58351101D01*
X123190000Y-58218142D01*
X123261068Y-58351101D01*
X123440393Y-58569608D01*
X123658900Y-58748932D01*
X123908193Y-58882182D01*
X124178692Y-58964236D01*
X124460000Y-58991943D01*
X124741309Y-58964236D01*
X125011808Y-58882182D01*
X125261101Y-58748932D01*
X125479608Y-58569608D01*
X125658932Y-58351101D01*
X125727265Y-58223259D01*
X125877399Y-58452839D01*
X126075105Y-58654500D01*
X126308354Y-58813715D01*
X126568182Y-58924367D01*
X126650961Y-58941904D01*
X126873000Y-58819915D01*
X126873000Y-57277000D01*
X127127000Y-57277000D01*
X127127000Y-58819915D01*
X127349039Y-58941904D01*
X127431818Y-58924367D01*
X127691646Y-58813715D01*
X127924895Y-58654500D01*
X128122601Y-58452839D01*
X128277166Y-58216483D01*
X128382650Y-57954514D01*
X128435000Y-57677000D01*
X128435000Y-57277000D01*
X127127000Y-57277000D01*
X126873000Y-57277000D01*
X126853000Y-57277000D01*
X126853000Y-57023000D01*
X126873000Y-57023000D01*
X126873000Y-55480085D01*
X127127000Y-55480085D01*
X127127000Y-57023000D01*
X128435000Y-57023000D01*
X128435000Y-56623000D01*
X128382650Y-56345486D01*
X128277166Y-56083517D01*
X128122601Y-55847161D01*
X127924895Y-55645500D01*
X127691646Y-55486285D01*
X127431818Y-55375633D01*
X127349039Y-55358096D01*
X127127000Y-55480085D01*
X126873000Y-55480085D01*
X126650961Y-55358096D01*
X126568182Y-55375633D01*
X126308354Y-55486285D01*
X126075105Y-55645500D01*
X125877399Y-55847161D01*
X125727265Y-56076741D01*
X125658932Y-55948899D01*
X125479607Y-55730392D01*
X125261100Y-55551068D01*
X125011807Y-55417818D01*
X124741308Y-55335764D01*
X124460000Y-55308057D01*
X124178691Y-55335764D01*
X123908192Y-55417818D01*
X123658899Y-55551068D01*
X123440392Y-55730393D01*
X123261068Y-55948900D01*
X123190000Y-56081858D01*
X123118932Y-55948899D01*
X122939607Y-55730392D01*
X122721100Y-55551068D01*
X122471807Y-55417818D01*
X122201308Y-55335764D01*
X121920000Y-55308057D01*
X121638691Y-55335764D01*
X121368192Y-55417818D01*
X121118899Y-55551068D01*
X120900392Y-55730393D01*
X120721068Y-55948900D01*
X120650000Y-56081858D01*
X120578932Y-55948899D01*
X120399607Y-55730392D01*
X120181100Y-55551068D01*
X119931807Y-55417818D01*
X119661308Y-55335764D01*
X119380000Y-55308057D01*
X119098691Y-55335764D01*
X118828192Y-55417818D01*
X118578899Y-55551068D01*
X118360392Y-55730393D01*
X118181068Y-55948900D01*
X118110000Y-56081858D01*
X118038932Y-55948899D01*
X117859607Y-55730392D01*
X117641100Y-55551068D01*
X117391807Y-55417818D01*
X117121308Y-55335764D01*
X116840000Y-55308057D01*
X116558691Y-55335764D01*
X116288192Y-55417818D01*
X116038899Y-55551068D01*
X115820392Y-55730393D01*
X115641068Y-55948900D01*
X115570000Y-56081858D01*
X115498932Y-55948899D01*
X115319607Y-55730392D01*
X115101100Y-55551068D01*
X114851807Y-55417818D01*
X114581308Y-55335764D01*
X114300000Y-55308057D01*
X114018691Y-55335764D01*
X113748192Y-55417818D01*
X113498899Y-55551068D01*
X113280392Y-55730393D01*
X113101068Y-55948900D01*
X113030000Y-56081858D01*
X112958932Y-55948899D01*
X112779607Y-55730392D01*
X112561100Y-55551068D01*
X112311807Y-55417818D01*
X112041308Y-55335764D01*
X111760000Y-55308057D01*
X111478691Y-55335764D01*
X111208192Y-55417818D01*
X110958899Y-55551068D01*
X110740392Y-55730393D01*
X110647581Y-55843483D01*
X110645812Y-55825518D01*
X110609502Y-55705820D01*
X110550537Y-55595506D01*
X110471185Y-55498815D01*
X110374494Y-55419463D01*
X110264180Y-55360498D01*
X110144482Y-55324188D01*
X110020000Y-55311928D01*
X108420000Y-55311928D01*
X108295518Y-55324188D01*
X108175820Y-55360498D01*
X108065506Y-55419463D01*
X107968815Y-55498815D01*
X107889463Y-55595506D01*
X107830498Y-55705820D01*
X107794188Y-55825518D01*
X107781928Y-55950000D01*
X106559787Y-55950000D01*
X106724727Y-55881680D01*
X106959759Y-55724637D01*
X107159637Y-55524759D01*
X107316680Y-55289727D01*
X107424853Y-55028574D01*
X107480000Y-54751335D01*
X107480000Y-54468665D01*
X128740000Y-54468665D01*
X128740000Y-54751335D01*
X128795147Y-55028574D01*
X128903320Y-55289727D01*
X129060363Y-55524759D01*
X129260241Y-55724637D01*
X129495273Y-55881680D01*
X129756426Y-55989853D01*
X130033665Y-56045000D01*
X130316335Y-56045000D01*
X130593574Y-55989853D01*
X130689787Y-55950000D01*
X131911928Y-55950000D01*
X131911928Y-58350000D01*
X131924188Y-58474482D01*
X131960498Y-58594180D01*
X132019463Y-58704494D01*
X132098815Y-58801185D01*
X132195506Y-58880537D01*
X132305820Y-58939502D01*
X132425518Y-58975812D01*
X132550000Y-58988072D01*
X134150000Y-58988072D01*
X134274482Y-58975812D01*
X134394180Y-58939502D01*
X134504494Y-58880537D01*
X134601185Y-58801185D01*
X134680537Y-58704494D01*
X134739502Y-58594180D01*
X134775812Y-58474482D01*
X134777581Y-58456517D01*
X134870393Y-58569608D01*
X135088900Y-58748932D01*
X135338193Y-58882182D01*
X135608692Y-58964236D01*
X135890000Y-58991943D01*
X136171309Y-58964236D01*
X136441808Y-58882182D01*
X136691101Y-58748932D01*
X136909608Y-58569608D01*
X137088932Y-58351101D01*
X137160000Y-58218142D01*
X137231068Y-58351101D01*
X137410393Y-58569608D01*
X137628900Y-58748932D01*
X137878193Y-58882182D01*
X138148692Y-58964236D01*
X138430000Y-58991943D01*
X138711309Y-58964236D01*
X138981808Y-58882182D01*
X139231101Y-58748932D01*
X139449608Y-58569608D01*
X139628932Y-58351101D01*
X139700000Y-58218142D01*
X139771068Y-58351101D01*
X139950393Y-58569608D01*
X140168900Y-58748932D01*
X140418193Y-58882182D01*
X140688692Y-58964236D01*
X140970000Y-58991943D01*
X141251309Y-58964236D01*
X141521808Y-58882182D01*
X141771101Y-58748932D01*
X141989608Y-58569608D01*
X142168932Y-58351101D01*
X142240000Y-58218142D01*
X142311068Y-58351101D01*
X142490393Y-58569608D01*
X142708900Y-58748932D01*
X142958193Y-58882182D01*
X143228692Y-58964236D01*
X143510000Y-58991943D01*
X143791309Y-58964236D01*
X144061808Y-58882182D01*
X144311101Y-58748932D01*
X144529608Y-58569608D01*
X144708932Y-58351101D01*
X144780000Y-58218142D01*
X144851068Y-58351101D01*
X145030393Y-58569608D01*
X145248900Y-58748932D01*
X145498193Y-58882182D01*
X145768692Y-58964236D01*
X146050000Y-58991943D01*
X146331309Y-58964236D01*
X146601808Y-58882182D01*
X146851101Y-58748932D01*
X147069608Y-58569608D01*
X147248932Y-58351101D01*
X147320000Y-58218142D01*
X147391068Y-58351101D01*
X147570393Y-58569608D01*
X147788900Y-58748932D01*
X148038193Y-58882182D01*
X148308692Y-58964236D01*
X148590000Y-58991943D01*
X148871309Y-58964236D01*
X149141808Y-58882182D01*
X149391101Y-58748932D01*
X149609608Y-58569608D01*
X149788932Y-58351101D01*
X149857265Y-58223259D01*
X150007399Y-58452839D01*
X150205105Y-58654500D01*
X150438354Y-58813715D01*
X150698182Y-58924367D01*
X150780961Y-58941904D01*
X151003000Y-58819915D01*
X151003000Y-57277000D01*
X151257000Y-57277000D01*
X151257000Y-58819915D01*
X151479039Y-58941904D01*
X151561818Y-58924367D01*
X151821646Y-58813715D01*
X152054895Y-58654500D01*
X152252601Y-58452839D01*
X152407166Y-58216483D01*
X152512650Y-57954514D01*
X152565000Y-57677000D01*
X152565000Y-57277000D01*
X151257000Y-57277000D01*
X151003000Y-57277000D01*
X150983000Y-57277000D01*
X150983000Y-57023000D01*
X151003000Y-57023000D01*
X151003000Y-55480085D01*
X151257000Y-55480085D01*
X151257000Y-57023000D01*
X152565000Y-57023000D01*
X152565000Y-56623000D01*
X152512650Y-56345486D01*
X152407166Y-56083517D01*
X152252601Y-55847161D01*
X152054895Y-55645500D01*
X151821646Y-55486285D01*
X151561818Y-55375633D01*
X151479039Y-55358096D01*
X151257000Y-55480085D01*
X151003000Y-55480085D01*
X150780961Y-55358096D01*
X150698182Y-55375633D01*
X150438354Y-55486285D01*
X150205105Y-55645500D01*
X150007399Y-55847161D01*
X149857265Y-56076741D01*
X149788932Y-55948899D01*
X149609607Y-55730392D01*
X149391100Y-55551068D01*
X149141807Y-55417818D01*
X148871308Y-55335764D01*
X148590000Y-55308057D01*
X148308691Y-55335764D01*
X148038192Y-55417818D01*
X147788899Y-55551068D01*
X147570392Y-55730393D01*
X147391068Y-55948900D01*
X147320000Y-56081858D01*
X147248932Y-55948899D01*
X147069607Y-55730392D01*
X146851100Y-55551068D01*
X146601807Y-55417818D01*
X146331308Y-55335764D01*
X146050000Y-55308057D01*
X145768691Y-55335764D01*
X145498192Y-55417818D01*
X145248899Y-55551068D01*
X145030392Y-55730393D01*
X144851068Y-55948900D01*
X144780000Y-56081858D01*
X144708932Y-55948899D01*
X144529607Y-55730392D01*
X144311100Y-55551068D01*
X144061807Y-55417818D01*
X143791308Y-55335764D01*
X143510000Y-55308057D01*
X143228691Y-55335764D01*
X142958192Y-55417818D01*
X142708899Y-55551068D01*
X142490392Y-55730393D01*
X142311068Y-55948900D01*
X142240000Y-56081858D01*
X142168932Y-55948899D01*
X141989607Y-55730392D01*
X141771100Y-55551068D01*
X141521807Y-55417818D01*
X141251308Y-55335764D01*
X140970000Y-55308057D01*
X140688691Y-55335764D01*
X140418192Y-55417818D01*
X140168899Y-55551068D01*
X139950392Y-55730393D01*
X139771068Y-55948900D01*
X139700000Y-56081858D01*
X139628932Y-55948899D01*
X139449607Y-55730392D01*
X139231100Y-55551068D01*
X138981807Y-55417818D01*
X138711308Y-55335764D01*
X138430000Y-55308057D01*
X138148691Y-55335764D01*
X137878192Y-55417818D01*
X137628899Y-55551068D01*
X137410392Y-55730393D01*
X137231068Y-55948900D01*
X137160000Y-56081858D01*
X137088932Y-55948899D01*
X136909607Y-55730392D01*
X136691100Y-55551068D01*
X136441807Y-55417818D01*
X136171308Y-55335764D01*
X135890000Y-55308057D01*
X135608691Y-55335764D01*
X135338192Y-55417818D01*
X135088899Y-55551068D01*
X134870392Y-55730393D01*
X134777581Y-55843483D01*
X134775812Y-55825518D01*
X134739502Y-55705820D01*
X134680537Y-55595506D01*
X134601185Y-55498815D01*
X134504494Y-55419463D01*
X134394180Y-55360498D01*
X134274482Y-55324188D01*
X134150000Y-55311928D01*
X132550000Y-55311928D01*
X132425518Y-55324188D01*
X132305820Y-55360498D01*
X132195506Y-55419463D01*
X132098815Y-55498815D01*
X132019463Y-55595506D01*
X131960498Y-55705820D01*
X131924188Y-55825518D01*
X131911928Y-55950000D01*
X130689787Y-55950000D01*
X130854727Y-55881680D01*
X131089759Y-55724637D01*
X131289637Y-55524759D01*
X131446680Y-55289727D01*
X131554853Y-55028574D01*
X131610000Y-54751335D01*
X131610000Y-54468665D01*
X131554853Y-54191426D01*
X131446680Y-53930273D01*
X131289637Y-53695241D01*
X131089759Y-53495363D01*
X130889131Y-53361308D01*
X130916514Y-53346671D01*
X130988097Y-53102702D01*
X130175000Y-52289605D01*
X129361903Y-53102702D01*
X129433486Y-53346671D01*
X129462341Y-53360324D01*
X129260241Y-53495363D01*
X129060363Y-53695241D01*
X128903320Y-53930273D01*
X128795147Y-54191426D01*
X128740000Y-54468665D01*
X107480000Y-54468665D01*
X107424853Y-54191426D01*
X107316680Y-53930273D01*
X107159637Y-53695241D01*
X106959759Y-53495363D01*
X106759131Y-53361308D01*
X106786514Y-53346671D01*
X106858097Y-53102702D01*
X106045000Y-52289605D01*
X105231903Y-53102702D01*
X105303486Y-53346671D01*
X105332341Y-53360324D01*
X105130241Y-53495363D01*
X104930363Y-53695241D01*
X104773320Y-53930273D01*
X104665147Y-54191426D01*
X104610000Y-54468665D01*
X83350000Y-54468665D01*
X83294853Y-54191426D01*
X83186680Y-53930273D01*
X83029637Y-53695241D01*
X82829759Y-53495363D01*
X82629131Y-53361308D01*
X82656514Y-53346671D01*
X82728097Y-53102702D01*
X81915000Y-52289605D01*
X81101903Y-53102702D01*
X81173486Y-53346671D01*
X81202341Y-53360324D01*
X81000241Y-53495363D01*
X80800363Y-53695241D01*
X80643320Y-53930273D01*
X80535147Y-54191426D01*
X80480000Y-54468665D01*
X59308900Y-54468665D01*
X59308900Y-54428665D01*
X59253753Y-54151426D01*
X59145580Y-53890273D01*
X58988537Y-53655241D01*
X58788659Y-53455363D01*
X58588031Y-53321308D01*
X58615414Y-53306671D01*
X58686997Y-53062702D01*
X57873900Y-52249605D01*
X57060803Y-53062702D01*
X57132386Y-53306671D01*
X57161241Y-53320324D01*
X56959141Y-53455363D01*
X56759263Y-53655241D01*
X56677846Y-53777090D01*
X56676654Y-52823082D01*
X56881198Y-52883097D01*
X57694295Y-52070000D01*
X58053505Y-52070000D01*
X58866602Y-52883097D01*
X59110571Y-52811514D01*
X59231471Y-52556004D01*
X59300200Y-52281816D01*
X59305193Y-52180512D01*
X80474783Y-52180512D01*
X80516213Y-52460130D01*
X80611397Y-52726292D01*
X80678329Y-52851514D01*
X80922298Y-52923097D01*
X81735395Y-52110000D01*
X82094605Y-52110000D01*
X82907702Y-52923097D01*
X83151671Y-52851514D01*
X83272571Y-52596004D01*
X83341300Y-52321816D01*
X83348265Y-52180512D01*
X104604783Y-52180512D01*
X104646213Y-52460130D01*
X104741397Y-52726292D01*
X104808329Y-52851514D01*
X105052298Y-52923097D01*
X105865395Y-52110000D01*
X106224605Y-52110000D01*
X107037702Y-52923097D01*
X107281671Y-52851514D01*
X107402571Y-52596004D01*
X107471300Y-52321816D01*
X107478265Y-52180512D01*
X128734783Y-52180512D01*
X128776213Y-52460130D01*
X128871397Y-52726292D01*
X128938329Y-52851514D01*
X129182298Y-52923097D01*
X129995395Y-52110000D01*
X130354605Y-52110000D01*
X131167702Y-52923097D01*
X131411671Y-52851514D01*
X131532571Y-52596004D01*
X131601300Y-52321816D01*
X131610237Y-52140512D01*
X152737783Y-52140512D01*
X152779213Y-52420130D01*
X152874397Y-52686292D01*
X152941329Y-52811514D01*
X153185298Y-52883097D01*
X153998395Y-52070000D01*
X153185298Y-51256903D01*
X152941329Y-51328486D01*
X152820429Y-51583996D01*
X152751700Y-51858184D01*
X152737783Y-52140512D01*
X131610237Y-52140512D01*
X131615217Y-52039488D01*
X131573787Y-51759870D01*
X131478603Y-51493708D01*
X131411671Y-51368486D01*
X131167702Y-51296903D01*
X130354605Y-52110000D01*
X129995395Y-52110000D01*
X129182298Y-51296903D01*
X128938329Y-51368486D01*
X128817429Y-51623996D01*
X128748700Y-51898184D01*
X128734783Y-52180512D01*
X107478265Y-52180512D01*
X107485217Y-52039488D01*
X107443787Y-51759870D01*
X107348603Y-51493708D01*
X107281671Y-51368486D01*
X107037702Y-51296903D01*
X106224605Y-52110000D01*
X105865395Y-52110000D01*
X105052298Y-51296903D01*
X104808329Y-51368486D01*
X104687429Y-51623996D01*
X104618700Y-51898184D01*
X104604783Y-52180512D01*
X83348265Y-52180512D01*
X83355217Y-52039488D01*
X83313787Y-51759870D01*
X83218603Y-51493708D01*
X83151671Y-51368486D01*
X82907702Y-51296903D01*
X82094605Y-52110000D01*
X81735395Y-52110000D01*
X80922298Y-51296903D01*
X80678329Y-51368486D01*
X80557429Y-51623996D01*
X80488700Y-51898184D01*
X80474783Y-52180512D01*
X59305193Y-52180512D01*
X59314117Y-51999488D01*
X59272687Y-51719870D01*
X59177503Y-51453708D01*
X59110571Y-51328486D01*
X58866602Y-51256903D01*
X58053505Y-52070000D01*
X57694295Y-52070000D01*
X56881198Y-51256903D01*
X56674772Y-51317471D01*
X56674472Y-51077298D01*
X57060803Y-51077298D01*
X57873900Y-51890395D01*
X58686997Y-51077298D01*
X58615414Y-50833329D01*
X58359904Y-50712429D01*
X58085716Y-50643700D01*
X57803388Y-50629783D01*
X57523770Y-50671213D01*
X57257608Y-50766397D01*
X57132386Y-50833329D01*
X57060803Y-51077298D01*
X56674472Y-51077298D01*
X56671950Y-49059509D01*
X59525000Y-49059509D01*
X59525000Y-50000492D01*
X59545764Y-50211309D01*
X59627818Y-50481808D01*
X59761068Y-50731101D01*
X59940393Y-50949608D01*
X60158900Y-51128932D01*
X60408193Y-51262182D01*
X60678692Y-51344236D01*
X60960000Y-51371943D01*
X61241309Y-51344236D01*
X61511808Y-51262182D01*
X61761101Y-51128932D01*
X61979608Y-50949608D01*
X62158932Y-50731101D01*
X62230000Y-50598142D01*
X62301068Y-50731101D01*
X62480393Y-50949608D01*
X62698900Y-51128932D01*
X62948193Y-51262182D01*
X63218692Y-51344236D01*
X63500000Y-51371943D01*
X63781309Y-51344236D01*
X64051808Y-51262182D01*
X64301101Y-51128932D01*
X64519608Y-50949608D01*
X64698932Y-50731101D01*
X64770000Y-50598142D01*
X64841068Y-50731101D01*
X65020393Y-50949608D01*
X65238900Y-51128932D01*
X65488193Y-51262182D01*
X65758692Y-51344236D01*
X66040000Y-51371943D01*
X66321309Y-51344236D01*
X66591808Y-51262182D01*
X66841101Y-51128932D01*
X67059608Y-50949608D01*
X67238932Y-50731101D01*
X67307265Y-50603259D01*
X67457399Y-50832839D01*
X67655105Y-51034500D01*
X67888354Y-51193715D01*
X68148182Y-51304367D01*
X68230961Y-51321904D01*
X68453000Y-51199915D01*
X68453000Y-49657000D01*
X68433000Y-49657000D01*
X68433000Y-49403000D01*
X68453000Y-49403000D01*
X68453000Y-47860085D01*
X68707000Y-47860085D01*
X68707000Y-49403000D01*
X68727000Y-49403000D01*
X68727000Y-49657000D01*
X68707000Y-49657000D01*
X68707000Y-51199915D01*
X68929039Y-51321904D01*
X69011818Y-51304367D01*
X69271646Y-51193715D01*
X69504895Y-51034500D01*
X69702601Y-50832839D01*
X69852735Y-50603259D01*
X69921068Y-50731101D01*
X70100393Y-50949608D01*
X70318900Y-51128932D01*
X70568193Y-51262182D01*
X70838692Y-51344236D01*
X71120000Y-51371943D01*
X71401309Y-51344236D01*
X71671808Y-51262182D01*
X71921101Y-51128932D01*
X72139608Y-50949608D01*
X72318932Y-50731101D01*
X72390000Y-50598142D01*
X72461068Y-50731101D01*
X72640393Y-50949608D01*
X72858900Y-51128932D01*
X73108193Y-51262182D01*
X73378692Y-51344236D01*
X73660000Y-51371943D01*
X73941309Y-51344236D01*
X74211808Y-51262182D01*
X74461101Y-51128932D01*
X74679608Y-50949608D01*
X74858932Y-50731101D01*
X74930000Y-50598142D01*
X75001068Y-50731101D01*
X75180393Y-50949608D01*
X75398900Y-51128932D01*
X75648193Y-51262182D01*
X75918692Y-51344236D01*
X76200000Y-51371943D01*
X76481309Y-51344236D01*
X76751808Y-51262182D01*
X77001101Y-51128932D01*
X77219608Y-50949608D01*
X77398932Y-50731101D01*
X77470000Y-50598142D01*
X77541068Y-50731101D01*
X77720393Y-50949608D01*
X77938900Y-51128932D01*
X78188193Y-51262182D01*
X78458692Y-51344236D01*
X78740000Y-51371943D01*
X79021309Y-51344236D01*
X79291808Y-51262182D01*
X79541101Y-51128932D01*
X79555277Y-51117298D01*
X81101903Y-51117298D01*
X81915000Y-51930395D01*
X82728097Y-51117298D01*
X82656514Y-50873329D01*
X82401004Y-50752429D01*
X82126816Y-50683700D01*
X81844488Y-50669783D01*
X81564870Y-50711213D01*
X81298708Y-50806397D01*
X81173486Y-50873329D01*
X81101903Y-51117298D01*
X79555277Y-51117298D01*
X79759608Y-50949608D01*
X79938932Y-50731101D01*
X80072182Y-50481808D01*
X80154236Y-50211309D01*
X80175000Y-50000491D01*
X80175000Y-49059509D01*
X83655000Y-49059509D01*
X83655000Y-50000492D01*
X83675764Y-50211309D01*
X83757818Y-50481808D01*
X83891068Y-50731101D01*
X84070393Y-50949608D01*
X84288900Y-51128932D01*
X84538193Y-51262182D01*
X84808692Y-51344236D01*
X85090000Y-51371943D01*
X85371309Y-51344236D01*
X85641808Y-51262182D01*
X85891101Y-51128932D01*
X86109608Y-50949608D01*
X86288932Y-50731101D01*
X86360000Y-50598142D01*
X86431068Y-50731101D01*
X86610393Y-50949608D01*
X86828900Y-51128932D01*
X87078193Y-51262182D01*
X87348692Y-51344236D01*
X87630000Y-51371943D01*
X87911309Y-51344236D01*
X88181808Y-51262182D01*
X88431101Y-51128932D01*
X88649608Y-50949608D01*
X88828932Y-50731101D01*
X88900000Y-50598142D01*
X88971068Y-50731101D01*
X89150393Y-50949608D01*
X89368900Y-51128932D01*
X89618193Y-51262182D01*
X89888692Y-51344236D01*
X90170000Y-51371943D01*
X90451309Y-51344236D01*
X90721808Y-51262182D01*
X90971101Y-51128932D01*
X91189608Y-50949608D01*
X91368932Y-50731101D01*
X91437265Y-50603259D01*
X91587399Y-50832839D01*
X91785105Y-51034500D01*
X92018354Y-51193715D01*
X92278182Y-51304367D01*
X92360961Y-51321904D01*
X92583000Y-51199915D01*
X92583000Y-49657000D01*
X92563000Y-49657000D01*
X92563000Y-49403000D01*
X92583000Y-49403000D01*
X92583000Y-47860085D01*
X92837000Y-47860085D01*
X92837000Y-49403000D01*
X92857000Y-49403000D01*
X92857000Y-49657000D01*
X92837000Y-49657000D01*
X92837000Y-51199915D01*
X93059039Y-51321904D01*
X93141818Y-51304367D01*
X93401646Y-51193715D01*
X93634895Y-51034500D01*
X93832601Y-50832839D01*
X93982735Y-50603259D01*
X94051068Y-50731101D01*
X94230393Y-50949608D01*
X94448900Y-51128932D01*
X94698193Y-51262182D01*
X94968692Y-51344236D01*
X95250000Y-51371943D01*
X95531309Y-51344236D01*
X95801808Y-51262182D01*
X96051101Y-51128932D01*
X96269608Y-50949608D01*
X96448932Y-50731101D01*
X96520000Y-50598142D01*
X96591068Y-50731101D01*
X96770393Y-50949608D01*
X96988900Y-51128932D01*
X97238193Y-51262182D01*
X97508692Y-51344236D01*
X97790000Y-51371943D01*
X98071309Y-51344236D01*
X98341808Y-51262182D01*
X98591101Y-51128932D01*
X98809608Y-50949608D01*
X98988932Y-50731101D01*
X99060000Y-50598142D01*
X99131068Y-50731101D01*
X99310393Y-50949608D01*
X99528900Y-51128932D01*
X99778193Y-51262182D01*
X100048692Y-51344236D01*
X100330000Y-51371943D01*
X100611309Y-51344236D01*
X100881808Y-51262182D01*
X101131101Y-51128932D01*
X101349608Y-50949608D01*
X101528932Y-50731101D01*
X101600000Y-50598142D01*
X101671068Y-50731101D01*
X101850393Y-50949608D01*
X102068900Y-51128932D01*
X102318193Y-51262182D01*
X102588692Y-51344236D01*
X102870000Y-51371943D01*
X103151309Y-51344236D01*
X103421808Y-51262182D01*
X103671101Y-51128932D01*
X103685277Y-51117298D01*
X105231903Y-51117298D01*
X106045000Y-51930395D01*
X106858097Y-51117298D01*
X106786514Y-50873329D01*
X106531004Y-50752429D01*
X106256816Y-50683700D01*
X105974488Y-50669783D01*
X105694870Y-50711213D01*
X105428708Y-50806397D01*
X105303486Y-50873329D01*
X105231903Y-51117298D01*
X103685277Y-51117298D01*
X103889608Y-50949608D01*
X104068932Y-50731101D01*
X104202182Y-50481808D01*
X104284236Y-50211309D01*
X104305000Y-50000491D01*
X104305000Y-49059509D01*
X107785000Y-49059509D01*
X107785000Y-50000492D01*
X107805764Y-50211309D01*
X107887818Y-50481808D01*
X108021068Y-50731101D01*
X108200393Y-50949608D01*
X108418900Y-51128932D01*
X108668193Y-51262182D01*
X108938692Y-51344236D01*
X109220000Y-51371943D01*
X109501309Y-51344236D01*
X109771808Y-51262182D01*
X110021101Y-51128932D01*
X110239608Y-50949608D01*
X110418932Y-50731101D01*
X110490000Y-50598142D01*
X110561068Y-50731101D01*
X110740393Y-50949608D01*
X110958900Y-51128932D01*
X111208193Y-51262182D01*
X111478692Y-51344236D01*
X111760000Y-51371943D01*
X112041309Y-51344236D01*
X112311808Y-51262182D01*
X112561101Y-51128932D01*
X112779608Y-50949608D01*
X112958932Y-50731101D01*
X113030000Y-50598142D01*
X113101068Y-50731101D01*
X113280393Y-50949608D01*
X113498900Y-51128932D01*
X113748193Y-51262182D01*
X114018692Y-51344236D01*
X114300000Y-51371943D01*
X114581309Y-51344236D01*
X114851808Y-51262182D01*
X115101101Y-51128932D01*
X115319608Y-50949608D01*
X115498932Y-50731101D01*
X115567265Y-50603259D01*
X115717399Y-50832839D01*
X115915105Y-51034500D01*
X116148354Y-51193715D01*
X116408182Y-51304367D01*
X116490961Y-51321904D01*
X116713000Y-51199915D01*
X116713000Y-49657000D01*
X116693000Y-49657000D01*
X116693000Y-49403000D01*
X116713000Y-49403000D01*
X116713000Y-47860085D01*
X116967000Y-47860085D01*
X116967000Y-49403000D01*
X116987000Y-49403000D01*
X116987000Y-49657000D01*
X116967000Y-49657000D01*
X116967000Y-51199915D01*
X117189039Y-51321904D01*
X117271818Y-51304367D01*
X117531646Y-51193715D01*
X117764895Y-51034500D01*
X117962601Y-50832839D01*
X118112735Y-50603259D01*
X118181068Y-50731101D01*
X118360393Y-50949608D01*
X118578900Y-51128932D01*
X118828193Y-51262182D01*
X119098692Y-51344236D01*
X119380000Y-51371943D01*
X119661309Y-51344236D01*
X119931808Y-51262182D01*
X120181101Y-51128932D01*
X120399608Y-50949608D01*
X120578932Y-50731101D01*
X120650000Y-50598142D01*
X120721068Y-50731101D01*
X120900393Y-50949608D01*
X121118900Y-51128932D01*
X121368193Y-51262182D01*
X121638692Y-51344236D01*
X121920000Y-51371943D01*
X122201309Y-51344236D01*
X122471808Y-51262182D01*
X122721101Y-51128932D01*
X122939608Y-50949608D01*
X123118932Y-50731101D01*
X123190000Y-50598142D01*
X123261068Y-50731101D01*
X123440393Y-50949608D01*
X123658900Y-51128932D01*
X123908193Y-51262182D01*
X124178692Y-51344236D01*
X124460000Y-51371943D01*
X124741309Y-51344236D01*
X125011808Y-51262182D01*
X125261101Y-51128932D01*
X125479608Y-50949608D01*
X125658932Y-50731101D01*
X125730000Y-50598142D01*
X125801068Y-50731101D01*
X125980393Y-50949608D01*
X126198900Y-51128932D01*
X126448193Y-51262182D01*
X126718692Y-51344236D01*
X127000000Y-51371943D01*
X127281309Y-51344236D01*
X127551808Y-51262182D01*
X127801101Y-51128932D01*
X127815277Y-51117298D01*
X129361903Y-51117298D01*
X130175000Y-51930395D01*
X130988097Y-51117298D01*
X130916514Y-50873329D01*
X130661004Y-50752429D01*
X130386816Y-50683700D01*
X130104488Y-50669783D01*
X129824870Y-50711213D01*
X129558708Y-50806397D01*
X129433486Y-50873329D01*
X129361903Y-51117298D01*
X127815277Y-51117298D01*
X128019608Y-50949608D01*
X128198932Y-50731101D01*
X128332182Y-50481808D01*
X128414236Y-50211309D01*
X128435000Y-50000491D01*
X128435000Y-49059509D01*
X131915000Y-49059509D01*
X131915000Y-50000492D01*
X131935764Y-50211309D01*
X132017818Y-50481808D01*
X132151068Y-50731101D01*
X132330393Y-50949608D01*
X132548900Y-51128932D01*
X132798193Y-51262182D01*
X133068692Y-51344236D01*
X133350000Y-51371943D01*
X133631309Y-51344236D01*
X133901808Y-51262182D01*
X134151101Y-51128932D01*
X134369608Y-50949608D01*
X134548932Y-50731101D01*
X134620000Y-50598142D01*
X134691068Y-50731101D01*
X134870393Y-50949608D01*
X135088900Y-51128932D01*
X135338193Y-51262182D01*
X135608692Y-51344236D01*
X135890000Y-51371943D01*
X136171309Y-51344236D01*
X136441808Y-51262182D01*
X136691101Y-51128932D01*
X136909608Y-50949608D01*
X137088932Y-50731101D01*
X137160000Y-50598142D01*
X137231068Y-50731101D01*
X137410393Y-50949608D01*
X137628900Y-51128932D01*
X137878193Y-51262182D01*
X138148692Y-51344236D01*
X138430000Y-51371943D01*
X138711309Y-51344236D01*
X138981808Y-51262182D01*
X139231101Y-51128932D01*
X139449608Y-50949608D01*
X139628932Y-50731101D01*
X139697265Y-50603259D01*
X139847399Y-50832839D01*
X140045105Y-51034500D01*
X140278354Y-51193715D01*
X140538182Y-51304367D01*
X140620961Y-51321904D01*
X140843000Y-51199915D01*
X140843000Y-49657000D01*
X140823000Y-49657000D01*
X140823000Y-49403000D01*
X140843000Y-49403000D01*
X140843000Y-47860085D01*
X141097000Y-47860085D01*
X141097000Y-49403000D01*
X141117000Y-49403000D01*
X141117000Y-49657000D01*
X141097000Y-49657000D01*
X141097000Y-51199915D01*
X141319039Y-51321904D01*
X141401818Y-51304367D01*
X141661646Y-51193715D01*
X141894895Y-51034500D01*
X142092601Y-50832839D01*
X142242735Y-50603259D01*
X142311068Y-50731101D01*
X142490393Y-50949608D01*
X142708900Y-51128932D01*
X142958193Y-51262182D01*
X143228692Y-51344236D01*
X143510000Y-51371943D01*
X143791309Y-51344236D01*
X144061808Y-51262182D01*
X144311101Y-51128932D01*
X144529608Y-50949608D01*
X144708932Y-50731101D01*
X144780000Y-50598142D01*
X144851068Y-50731101D01*
X145030393Y-50949608D01*
X145248900Y-51128932D01*
X145498193Y-51262182D01*
X145768692Y-51344236D01*
X146050000Y-51371943D01*
X146331309Y-51344236D01*
X146601808Y-51262182D01*
X146851101Y-51128932D01*
X147069608Y-50949608D01*
X147248932Y-50731101D01*
X147320000Y-50598142D01*
X147391068Y-50731101D01*
X147570393Y-50949608D01*
X147788900Y-51128932D01*
X148038193Y-51262182D01*
X148308692Y-51344236D01*
X148590000Y-51371943D01*
X148871309Y-51344236D01*
X149141808Y-51262182D01*
X149391101Y-51128932D01*
X149609608Y-50949608D01*
X149788932Y-50731101D01*
X149860000Y-50598142D01*
X149931068Y-50731101D01*
X150110393Y-50949608D01*
X150328900Y-51128932D01*
X150578193Y-51262182D01*
X150848692Y-51344236D01*
X151130000Y-51371943D01*
X151411309Y-51344236D01*
X151681808Y-51262182D01*
X151931101Y-51128932D01*
X151994017Y-51077298D01*
X153364903Y-51077298D01*
X154178000Y-51890395D01*
X154991097Y-51077298D01*
X154919514Y-50833329D01*
X154664004Y-50712429D01*
X154389816Y-50643700D01*
X154107488Y-50629783D01*
X153827870Y-50671213D01*
X153561708Y-50766397D01*
X153436486Y-50833329D01*
X153364903Y-51077298D01*
X151994017Y-51077298D01*
X152149608Y-50949608D01*
X152328932Y-50731101D01*
X152462182Y-50481808D01*
X152544236Y-50211309D01*
X152565000Y-50000491D01*
X152565000Y-49059508D01*
X152544236Y-48848691D01*
X152462182Y-48578192D01*
X152328932Y-48328899D01*
X152149607Y-48110392D01*
X151931100Y-47931068D01*
X151681807Y-47797818D01*
X151411308Y-47715764D01*
X151130000Y-47688057D01*
X150848691Y-47715764D01*
X150578192Y-47797818D01*
X150328899Y-47931068D01*
X150110392Y-48110393D01*
X149931068Y-48328900D01*
X149860000Y-48461858D01*
X149788932Y-48328899D01*
X149609607Y-48110392D01*
X149391100Y-47931068D01*
X149141807Y-47797818D01*
X148871308Y-47715764D01*
X148590000Y-47688057D01*
X148308691Y-47715764D01*
X148038192Y-47797818D01*
X147788899Y-47931068D01*
X147570392Y-48110393D01*
X147391068Y-48328900D01*
X147320000Y-48461858D01*
X147248932Y-48328899D01*
X147069607Y-48110392D01*
X146851100Y-47931068D01*
X146601807Y-47797818D01*
X146331308Y-47715764D01*
X146050000Y-47688057D01*
X145768691Y-47715764D01*
X145498192Y-47797818D01*
X145248899Y-47931068D01*
X145030392Y-48110393D01*
X144851068Y-48328900D01*
X144780000Y-48461858D01*
X144708932Y-48328899D01*
X144529607Y-48110392D01*
X144311100Y-47931068D01*
X144061807Y-47797818D01*
X143791308Y-47715764D01*
X143510000Y-47688057D01*
X143228691Y-47715764D01*
X142958192Y-47797818D01*
X142708899Y-47931068D01*
X142490392Y-48110393D01*
X142311068Y-48328900D01*
X142242735Y-48456742D01*
X142092601Y-48227161D01*
X141894895Y-48025500D01*
X141661646Y-47866285D01*
X141401818Y-47755633D01*
X141319039Y-47738096D01*
X141097000Y-47860085D01*
X140843000Y-47860085D01*
X140620961Y-47738096D01*
X140538182Y-47755633D01*
X140278354Y-47866285D01*
X140045105Y-48025500D01*
X139847399Y-48227161D01*
X139697265Y-48456741D01*
X139628932Y-48328899D01*
X139449607Y-48110392D01*
X139231100Y-47931068D01*
X139190000Y-47909100D01*
X139190000Y-45788711D01*
X139233937Y-45744774D01*
X139347205Y-45575256D01*
X139425226Y-45386898D01*
X139465000Y-45186939D01*
X139465000Y-44983061D01*
X139425226Y-44783102D01*
X139347205Y-44594744D01*
X139233937Y-44425226D01*
X139089774Y-44281063D01*
X139020836Y-44235000D01*
X139481928Y-44235000D01*
X139481928Y-45935000D01*
X139494188Y-46059482D01*
X139530498Y-46179180D01*
X139589463Y-46289494D01*
X139668815Y-46386185D01*
X139765506Y-46465537D01*
X139875820Y-46524502D01*
X139995518Y-46560812D01*
X140120000Y-46573072D01*
X141820000Y-46573072D01*
X141944482Y-46560812D01*
X142064180Y-46524502D01*
X142174494Y-46465537D01*
X142271185Y-46386185D01*
X142350537Y-46289494D01*
X142409502Y-46179180D01*
X142431513Y-46106620D01*
X142563368Y-46238475D01*
X142806589Y-46400990D01*
X143076842Y-46512932D01*
X143363740Y-46570000D01*
X143656260Y-46570000D01*
X143943158Y-46512932D01*
X144213411Y-46400990D01*
X144456632Y-46238475D01*
X144663475Y-46031632D01*
X144780000Y-45857240D01*
X144896525Y-46031632D01*
X145103368Y-46238475D01*
X145346589Y-46400990D01*
X145616842Y-46512932D01*
X145903740Y-46570000D01*
X146196260Y-46570000D01*
X146483158Y-46512932D01*
X146753411Y-46400990D01*
X146996632Y-46238475D01*
X147203475Y-46031632D01*
X147365990Y-45788411D01*
X147477932Y-45518158D01*
X147535000Y-45231260D01*
X147535000Y-44938740D01*
X147477932Y-44651842D01*
X147365990Y-44381589D01*
X147203475Y-44138368D01*
X146996632Y-43931525D01*
X146753411Y-43769010D01*
X146483158Y-43657068D01*
X146196260Y-43600000D01*
X145903740Y-43600000D01*
X145616842Y-43657068D01*
X145346589Y-43769010D01*
X145103368Y-43931525D01*
X144896525Y-44138368D01*
X144780000Y-44312760D01*
X144663475Y-44138368D01*
X144456632Y-43931525D01*
X144213411Y-43769010D01*
X143943158Y-43657068D01*
X143656260Y-43600000D01*
X143363740Y-43600000D01*
X143076842Y-43657068D01*
X142806589Y-43769010D01*
X142563368Y-43931525D01*
X142431513Y-44063380D01*
X142409502Y-43990820D01*
X142350537Y-43880506D01*
X142271185Y-43783815D01*
X142174494Y-43704463D01*
X142064180Y-43645498D01*
X141944482Y-43609188D01*
X141820000Y-43596928D01*
X140120000Y-43596928D01*
X139995518Y-43609188D01*
X139875820Y-43645498D01*
X139765506Y-43704463D01*
X139668815Y-43783815D01*
X139589463Y-43880506D01*
X139530498Y-43990820D01*
X139494188Y-44110518D01*
X139481928Y-44235000D01*
X139020836Y-44235000D01*
X138920256Y-44167795D01*
X138731898Y-44089774D01*
X138531939Y-44050000D01*
X138328061Y-44050000D01*
X138128102Y-44089774D01*
X137939744Y-44167795D01*
X137770226Y-44281063D01*
X137626063Y-44425226D01*
X137512795Y-44594744D01*
X137434774Y-44783102D01*
X137395000Y-44983061D01*
X137395000Y-45186939D01*
X137434774Y-45386898D01*
X137512795Y-45575256D01*
X137626063Y-45744774D01*
X137670000Y-45788711D01*
X137670001Y-47909099D01*
X137628899Y-47931068D01*
X137410392Y-48110393D01*
X137231068Y-48328900D01*
X137160000Y-48461858D01*
X137088932Y-48328899D01*
X136909607Y-48110392D01*
X136691100Y-47931068D01*
X136441807Y-47797818D01*
X136171308Y-47715764D01*
X135890000Y-47688057D01*
X135608691Y-47715764D01*
X135338192Y-47797818D01*
X135088899Y-47931068D01*
X134870392Y-48110393D01*
X134691068Y-48328900D01*
X134620000Y-48461858D01*
X134548932Y-48328899D01*
X134369607Y-48110392D01*
X134151100Y-47931068D01*
X133901807Y-47797818D01*
X133631308Y-47715764D01*
X133350000Y-47688057D01*
X133068691Y-47715764D01*
X132798192Y-47797818D01*
X132548899Y-47931068D01*
X132330392Y-48110393D01*
X132151068Y-48328900D01*
X132017818Y-48578193D01*
X131935764Y-48848692D01*
X131915000Y-49059509D01*
X128435000Y-49059509D01*
X128435000Y-49059508D01*
X128414236Y-48848691D01*
X128332182Y-48578192D01*
X128198932Y-48328899D01*
X128019607Y-48110392D01*
X127801100Y-47931068D01*
X127551807Y-47797818D01*
X127281308Y-47715764D01*
X127000000Y-47688057D01*
X126718691Y-47715764D01*
X126448192Y-47797818D01*
X126198899Y-47931068D01*
X125980392Y-48110393D01*
X125801068Y-48328900D01*
X125730000Y-48461858D01*
X125658932Y-48328899D01*
X125479607Y-48110392D01*
X125261100Y-47931068D01*
X125011807Y-47797818D01*
X124741308Y-47715764D01*
X124460000Y-47688057D01*
X124178691Y-47715764D01*
X123908192Y-47797818D01*
X123658899Y-47931068D01*
X123440392Y-48110393D01*
X123261068Y-48328900D01*
X123190000Y-48461858D01*
X123118932Y-48328899D01*
X122939607Y-48110392D01*
X122721100Y-47931068D01*
X122471807Y-47797818D01*
X122201308Y-47715764D01*
X121920000Y-47688057D01*
X121638691Y-47715764D01*
X121368192Y-47797818D01*
X121118899Y-47931068D01*
X120900392Y-48110393D01*
X120721068Y-48328900D01*
X120650000Y-48461858D01*
X120578932Y-48328899D01*
X120399607Y-48110392D01*
X120181100Y-47931068D01*
X119931807Y-47797818D01*
X119661308Y-47715764D01*
X119380000Y-47688057D01*
X119098691Y-47715764D01*
X118828192Y-47797818D01*
X118578899Y-47931068D01*
X118360392Y-48110393D01*
X118181068Y-48328900D01*
X118112735Y-48456742D01*
X117962601Y-48227161D01*
X117764895Y-48025500D01*
X117531646Y-47866285D01*
X117271818Y-47755633D01*
X117189039Y-47738096D01*
X116967000Y-47860085D01*
X116713000Y-47860085D01*
X116490961Y-47738096D01*
X116408182Y-47755633D01*
X116148354Y-47866285D01*
X115915105Y-48025500D01*
X115717399Y-48227161D01*
X115567265Y-48456741D01*
X115498932Y-48328899D01*
X115319607Y-48110392D01*
X115101100Y-47931068D01*
X115060000Y-47909100D01*
X115060000Y-45915711D01*
X115103937Y-45871774D01*
X115217205Y-45702256D01*
X115295226Y-45513898D01*
X115335000Y-45313939D01*
X115335000Y-45110061D01*
X115295226Y-44910102D01*
X115217205Y-44721744D01*
X115103937Y-44552226D01*
X114959774Y-44408063D01*
X114790256Y-44294795D01*
X114601898Y-44216774D01*
X114401939Y-44177000D01*
X114198061Y-44177000D01*
X113998102Y-44216774D01*
X113809744Y-44294795D01*
X113640226Y-44408063D01*
X113496063Y-44552226D01*
X113382795Y-44721744D01*
X113304774Y-44910102D01*
X113265000Y-45110061D01*
X113265000Y-45313939D01*
X113304774Y-45513898D01*
X113382795Y-45702256D01*
X113496063Y-45871774D01*
X113540000Y-45915711D01*
X113540001Y-47909099D01*
X113498899Y-47931068D01*
X113280392Y-48110393D01*
X113101068Y-48328900D01*
X113030000Y-48461858D01*
X112958932Y-48328899D01*
X112779607Y-48110392D01*
X112561100Y-47931068D01*
X112311807Y-47797818D01*
X112041308Y-47715764D01*
X111760000Y-47688057D01*
X111478691Y-47715764D01*
X111208192Y-47797818D01*
X110958899Y-47931068D01*
X110740392Y-48110393D01*
X110561068Y-48328900D01*
X110490000Y-48461858D01*
X110418932Y-48328899D01*
X110239607Y-48110392D01*
X110021100Y-47931068D01*
X109771807Y-47797818D01*
X109501308Y-47715764D01*
X109220000Y-47688057D01*
X108938691Y-47715764D01*
X108668192Y-47797818D01*
X108418899Y-47931068D01*
X108200392Y-48110393D01*
X108021068Y-48328900D01*
X107887818Y-48578193D01*
X107805764Y-48848692D01*
X107785000Y-49059509D01*
X104305000Y-49059509D01*
X104305000Y-49059508D01*
X104284236Y-48848691D01*
X104202182Y-48578192D01*
X104068932Y-48328899D01*
X103889607Y-48110392D01*
X103671100Y-47931068D01*
X103421807Y-47797818D01*
X103151308Y-47715764D01*
X102870000Y-47688057D01*
X102588691Y-47715764D01*
X102318192Y-47797818D01*
X102068899Y-47931068D01*
X101850392Y-48110393D01*
X101671068Y-48328900D01*
X101600000Y-48461858D01*
X101528932Y-48328899D01*
X101349607Y-48110392D01*
X101131100Y-47931068D01*
X100881807Y-47797818D01*
X100611308Y-47715764D01*
X100330000Y-47688057D01*
X100048691Y-47715764D01*
X99778192Y-47797818D01*
X99528899Y-47931068D01*
X99310392Y-48110393D01*
X99131068Y-48328900D01*
X99060000Y-48461858D01*
X98988932Y-48328899D01*
X98809607Y-48110392D01*
X98591100Y-47931068D01*
X98341807Y-47797818D01*
X98071308Y-47715764D01*
X97790000Y-47688057D01*
X97508691Y-47715764D01*
X97238192Y-47797818D01*
X96988899Y-47931068D01*
X96770392Y-48110393D01*
X96591068Y-48328900D01*
X96520000Y-48461858D01*
X96448932Y-48328899D01*
X96269607Y-48110392D01*
X96051100Y-47931068D01*
X95801807Y-47797818D01*
X95531308Y-47715764D01*
X95250000Y-47688057D01*
X94968691Y-47715764D01*
X94698192Y-47797818D01*
X94448899Y-47931068D01*
X94230392Y-48110393D01*
X94051068Y-48328900D01*
X93982735Y-48456742D01*
X93832601Y-48227161D01*
X93634895Y-48025500D01*
X93401646Y-47866285D01*
X93141818Y-47755633D01*
X93059039Y-47738096D01*
X92837000Y-47860085D01*
X92583000Y-47860085D01*
X92360961Y-47738096D01*
X92278182Y-47755633D01*
X92018354Y-47866285D01*
X91785105Y-48025500D01*
X91587399Y-48227161D01*
X91437265Y-48456741D01*
X91368932Y-48328899D01*
X91189607Y-48110392D01*
X90971100Y-47931068D01*
X90930000Y-47909100D01*
X90930000Y-45788711D01*
X90973937Y-45744774D01*
X91087205Y-45575256D01*
X91165226Y-45386898D01*
X91205000Y-45186939D01*
X91205000Y-44983061D01*
X91165226Y-44783102D01*
X91087205Y-44594744D01*
X90973937Y-44425226D01*
X90829774Y-44281063D01*
X90660256Y-44167795D01*
X90471898Y-44089774D01*
X90271939Y-44050000D01*
X90068061Y-44050000D01*
X89868102Y-44089774D01*
X89679744Y-44167795D01*
X89510226Y-44281063D01*
X89366063Y-44425226D01*
X89252795Y-44594744D01*
X89174774Y-44783102D01*
X89135000Y-44983061D01*
X89135000Y-45186939D01*
X89174774Y-45386898D01*
X89252795Y-45575256D01*
X89366063Y-45744774D01*
X89410000Y-45788711D01*
X89410001Y-47909099D01*
X89368899Y-47931068D01*
X89150392Y-48110393D01*
X88971068Y-48328900D01*
X88900000Y-48461858D01*
X88828932Y-48328899D01*
X88649607Y-48110392D01*
X88431100Y-47931068D01*
X88181807Y-47797818D01*
X87911308Y-47715764D01*
X87630000Y-47688057D01*
X87348691Y-47715764D01*
X87078192Y-47797818D01*
X86828899Y-47931068D01*
X86610392Y-48110393D01*
X86431068Y-48328900D01*
X86360000Y-48461858D01*
X86288932Y-48328899D01*
X86109607Y-48110392D01*
X85891100Y-47931068D01*
X85641807Y-47797818D01*
X85371308Y-47715764D01*
X85090000Y-47688057D01*
X84808691Y-47715764D01*
X84538192Y-47797818D01*
X84288899Y-47931068D01*
X84070392Y-48110393D01*
X83891068Y-48328900D01*
X83757818Y-48578193D01*
X83675764Y-48848692D01*
X83655000Y-49059509D01*
X80175000Y-49059509D01*
X80175000Y-49059508D01*
X80154236Y-48848691D01*
X80072182Y-48578192D01*
X79938932Y-48328899D01*
X79759607Y-48110392D01*
X79541100Y-47931068D01*
X79291807Y-47797818D01*
X79021308Y-47715764D01*
X78740000Y-47688057D01*
X78458691Y-47715764D01*
X78188192Y-47797818D01*
X77938899Y-47931068D01*
X77720392Y-48110393D01*
X77541068Y-48328900D01*
X77470000Y-48461858D01*
X77398932Y-48328899D01*
X77219607Y-48110392D01*
X77001100Y-47931068D01*
X76751807Y-47797818D01*
X76481308Y-47715764D01*
X76200000Y-47688057D01*
X75918691Y-47715764D01*
X75648192Y-47797818D01*
X75398899Y-47931068D01*
X75180392Y-48110393D01*
X75001068Y-48328900D01*
X74930000Y-48461858D01*
X74858932Y-48328899D01*
X74679607Y-48110392D01*
X74461100Y-47931068D01*
X74211807Y-47797818D01*
X73941308Y-47715764D01*
X73660000Y-47688057D01*
X73378691Y-47715764D01*
X73108192Y-47797818D01*
X72858899Y-47931068D01*
X72640392Y-48110393D01*
X72461068Y-48328900D01*
X72390000Y-48461858D01*
X72318932Y-48328899D01*
X72139607Y-48110392D01*
X71921100Y-47931068D01*
X71671807Y-47797818D01*
X71401308Y-47715764D01*
X71120000Y-47688057D01*
X70838691Y-47715764D01*
X70568192Y-47797818D01*
X70318899Y-47931068D01*
X70100392Y-48110393D01*
X69921068Y-48328900D01*
X69852735Y-48456742D01*
X69702601Y-48227161D01*
X69504895Y-48025500D01*
X69271646Y-47866285D01*
X69011818Y-47755633D01*
X68929039Y-47738096D01*
X68707000Y-47860085D01*
X68453000Y-47860085D01*
X68230961Y-47738096D01*
X68148182Y-47755633D01*
X67888354Y-47866285D01*
X67655105Y-48025500D01*
X67457399Y-48227161D01*
X67307265Y-48456741D01*
X67238932Y-48328899D01*
X67059607Y-48110392D01*
X66841100Y-47931068D01*
X66591807Y-47797818D01*
X66321308Y-47715764D01*
X66040000Y-47688057D01*
X65758691Y-47715764D01*
X65488192Y-47797818D01*
X65238899Y-47931068D01*
X65020392Y-48110393D01*
X64841068Y-48328900D01*
X64770000Y-48461858D01*
X64698932Y-48328899D01*
X64519607Y-48110392D01*
X64301100Y-47931068D01*
X64051807Y-47797818D01*
X63781308Y-47715764D01*
X63500000Y-47688057D01*
X63218691Y-47715764D01*
X62948192Y-47797818D01*
X62698899Y-47931068D01*
X62480392Y-48110393D01*
X62301068Y-48328900D01*
X62230000Y-48461858D01*
X62158932Y-48328899D01*
X61979607Y-48110392D01*
X61761100Y-47931068D01*
X61511807Y-47797818D01*
X61241308Y-47715764D01*
X60960000Y-47688057D01*
X60678691Y-47715764D01*
X60408192Y-47797818D01*
X60158899Y-47931068D01*
X59940392Y-48110393D01*
X59761068Y-48328900D01*
X59627818Y-48578193D01*
X59545764Y-48848692D01*
X59525000Y-49059509D01*
X56671950Y-49059509D01*
X56666799Y-44938740D01*
X64555000Y-44938740D01*
X64555000Y-45231260D01*
X64612068Y-45518158D01*
X64724010Y-45788411D01*
X64886525Y-46031632D01*
X65093368Y-46238475D01*
X65336589Y-46400990D01*
X65606842Y-46512932D01*
X65893740Y-46570000D01*
X66186260Y-46570000D01*
X66473158Y-46512932D01*
X66743411Y-46400990D01*
X66986632Y-46238475D01*
X67193475Y-46031632D01*
X67310000Y-45857240D01*
X67426525Y-46031632D01*
X67633368Y-46238475D01*
X67876589Y-46400990D01*
X68146842Y-46512932D01*
X68433740Y-46570000D01*
X68726260Y-46570000D01*
X69013158Y-46512932D01*
X69283411Y-46400990D01*
X69526632Y-46238475D01*
X69658487Y-46106620D01*
X69680498Y-46179180D01*
X69739463Y-46289494D01*
X69818815Y-46386185D01*
X69915506Y-46465537D01*
X70025820Y-46524502D01*
X70145518Y-46560812D01*
X70270000Y-46573072D01*
X71970000Y-46573072D01*
X72094482Y-46560812D01*
X72214180Y-46524502D01*
X72324494Y-46465537D01*
X72421185Y-46386185D01*
X72500537Y-46289494D01*
X72559502Y-46179180D01*
X72595812Y-46059482D01*
X72608072Y-45935000D01*
X72608072Y-44235000D01*
X72595812Y-44110518D01*
X72559502Y-43990820D01*
X72500537Y-43880506D01*
X72421185Y-43783815D01*
X72324494Y-43704463D01*
X72214180Y-43645498D01*
X72094482Y-43609188D01*
X71970000Y-43596928D01*
X70270000Y-43596928D01*
X70145518Y-43609188D01*
X70025820Y-43645498D01*
X69915506Y-43704463D01*
X69818815Y-43783815D01*
X69739463Y-43880506D01*
X69680498Y-43990820D01*
X69658487Y-44063380D01*
X69526632Y-43931525D01*
X69283411Y-43769010D01*
X69013158Y-43657068D01*
X68726260Y-43600000D01*
X68433740Y-43600000D01*
X68146842Y-43657068D01*
X67876589Y-43769010D01*
X67633368Y-43931525D01*
X67426525Y-44138368D01*
X67310000Y-44312760D01*
X67193475Y-44138368D01*
X66986632Y-43931525D01*
X66743411Y-43769010D01*
X66473158Y-43657068D01*
X66186260Y-43600000D01*
X65893740Y-43600000D01*
X65606842Y-43657068D01*
X65336589Y-43769010D01*
X65093368Y-43931525D01*
X64886525Y-44138368D01*
X64724010Y-44381589D01*
X64612068Y-44651842D01*
X64555000Y-44938740D01*
X56666799Y-44938740D01*
X56663779Y-42523801D01*
X56852337Y-42805998D01*
X57094002Y-43047663D01*
X57378169Y-43237537D01*
X57693919Y-43368325D01*
X58029117Y-43435000D01*
X58370883Y-43435000D01*
X58706081Y-43368325D01*
X59021831Y-43237537D01*
X59305998Y-43047663D01*
X59547663Y-42805998D01*
X59737537Y-42521831D01*
X59868325Y-42206081D01*
X59935000Y-41870883D01*
X59935000Y-41529117D01*
X59868325Y-41193919D01*
X59737537Y-40878169D01*
X59547663Y-40594002D01*
X59305998Y-40352337D01*
X59021831Y-40162463D01*
X59015885Y-40160000D01*
X153034115Y-40160000D01*
X153028169Y-40162463D01*
G37*
%TD.AperFunction*%
%TD*%
M02*
