%TF.GenerationSoftware,KiCad,Pcbnew,(5.1.7-0-10_14)*%
%TF.CreationDate,2020-10-19T14:39:56+02:00*%
%TF.ProjectId,32Bit shift register,33324269-7420-4736-9869-667420726567,rev?*%
%TF.SameCoordinates,Original*%
%TF.FileFunction,Legend,Bot*%
%TF.FilePolarity,Positive*%
%FSLAX46Y46*%
G04 Gerber Fmt 4.6, Leading zero omitted, Abs format (unit mm)*
G04 Created by KiCad (PCBNEW (5.1.7-0-10_14)) date 2020-10-19 14:39:56*
%MOMM*%
%LPD*%
G01*
G04 APERTURE LIST*
%ADD10C,0.010000*%
G04 APERTURE END LIST*
D10*
%TO.C,G\u002A\u002A\u002A*%
G36*
X101720090Y-60726033D02*
G01*
X101577857Y-60754243D01*
X101461361Y-60803497D01*
X101392049Y-60860120D01*
X101334126Y-60910172D01*
X101273444Y-60937629D01*
X101269200Y-60938322D01*
X101157494Y-60975228D01*
X101075755Y-61047486D01*
X101026936Y-61147423D01*
X101013992Y-61267370D01*
X101039877Y-61399654D01*
X101066593Y-61464524D01*
X101146060Y-61586444D01*
X101264623Y-61713424D01*
X101412200Y-61837788D01*
X101578710Y-61951862D01*
X101754070Y-62047974D01*
X101923816Y-62117018D01*
X102015753Y-62144667D01*
X102089253Y-62157446D01*
X102166299Y-62156938D01*
X102268874Y-62144730D01*
X102281993Y-62142837D01*
X102380611Y-62129393D01*
X102443134Y-62125582D01*
X102483668Y-62133230D01*
X102516316Y-62154163D01*
X102540590Y-62176332D01*
X102611249Y-62227021D01*
X102670502Y-62229470D01*
X102724733Y-62183020D01*
X102743485Y-62155450D01*
X102776798Y-62078266D01*
X102788946Y-62001383D01*
X102788644Y-61995521D01*
X102799906Y-61916021D01*
X102838166Y-61828437D01*
X102841246Y-61823357D01*
X102847630Y-61808600D01*
X102283119Y-61808600D01*
X102280300Y-61811414D01*
X102233436Y-61822475D01*
X102151475Y-61822945D01*
X102048707Y-61814125D01*
X101939422Y-61797313D01*
X101837913Y-61773808D01*
X101824990Y-61770014D01*
X101649187Y-61703171D01*
X101501545Y-61619910D01*
X101386737Y-61524802D01*
X101309434Y-61422417D01*
X101274310Y-61317326D01*
X101279264Y-61236160D01*
X101315598Y-61181910D01*
X101384923Y-61157122D01*
X101480085Y-61160131D01*
X101593927Y-61189274D01*
X101719294Y-61242887D01*
X101849030Y-61319305D01*
X101945494Y-61391075D01*
X102032539Y-61468676D01*
X102115938Y-61553950D01*
X102189194Y-61638737D01*
X102245809Y-61714880D01*
X102279283Y-61774221D01*
X102283119Y-61808600D01*
X102847630Y-61808600D01*
X102901357Y-61684422D01*
X102911975Y-61544691D01*
X102637048Y-61544691D01*
X102630991Y-61575492D01*
X102623974Y-61577600D01*
X102598547Y-61560548D01*
X102545212Y-61513985D01*
X102471501Y-61444796D01*
X102384943Y-61359870D01*
X102374892Y-61349795D01*
X102290785Y-61262685D01*
X102223640Y-61188093D01*
X102179678Y-61133316D01*
X102165117Y-61105651D01*
X102165731Y-61104402D01*
X102200987Y-61101804D01*
X102262894Y-61125188D01*
X102339675Y-61167314D01*
X102419551Y-61220942D01*
X102490745Y-61278832D01*
X102541477Y-61333744D01*
X102543498Y-61336618D01*
X102589263Y-61413164D01*
X102621793Y-61486552D01*
X102637048Y-61544691D01*
X102911975Y-61544691D01*
X102912289Y-61540564D01*
X102873829Y-61390400D01*
X102785766Y-61232546D01*
X102742026Y-61173754D01*
X102651635Y-61079750D01*
X102529413Y-60980201D01*
X102391432Y-60886473D01*
X102253764Y-60809934D01*
X102184628Y-60779524D01*
X102035134Y-60737488D01*
X101876402Y-60720053D01*
X101720090Y-60726033D01*
G37*
X101720090Y-60726033D02*
X101577857Y-60754243D01*
X101461361Y-60803497D01*
X101392049Y-60860120D01*
X101334126Y-60910172D01*
X101273444Y-60937629D01*
X101269200Y-60938322D01*
X101157494Y-60975228D01*
X101075755Y-61047486D01*
X101026936Y-61147423D01*
X101013992Y-61267370D01*
X101039877Y-61399654D01*
X101066593Y-61464524D01*
X101146060Y-61586444D01*
X101264623Y-61713424D01*
X101412200Y-61837788D01*
X101578710Y-61951862D01*
X101754070Y-62047974D01*
X101923816Y-62117018D01*
X102015753Y-62144667D01*
X102089253Y-62157446D01*
X102166299Y-62156938D01*
X102268874Y-62144730D01*
X102281993Y-62142837D01*
X102380611Y-62129393D01*
X102443134Y-62125582D01*
X102483668Y-62133230D01*
X102516316Y-62154163D01*
X102540590Y-62176332D01*
X102611249Y-62227021D01*
X102670502Y-62229470D01*
X102724733Y-62183020D01*
X102743485Y-62155450D01*
X102776798Y-62078266D01*
X102788946Y-62001383D01*
X102788644Y-61995521D01*
X102799906Y-61916021D01*
X102838166Y-61828437D01*
X102841246Y-61823357D01*
X102847630Y-61808600D01*
X102283119Y-61808600D01*
X102280300Y-61811414D01*
X102233436Y-61822475D01*
X102151475Y-61822945D01*
X102048707Y-61814125D01*
X101939422Y-61797313D01*
X101837913Y-61773808D01*
X101824990Y-61770014D01*
X101649187Y-61703171D01*
X101501545Y-61619910D01*
X101386737Y-61524802D01*
X101309434Y-61422417D01*
X101274310Y-61317326D01*
X101279264Y-61236160D01*
X101315598Y-61181910D01*
X101384923Y-61157122D01*
X101480085Y-61160131D01*
X101593927Y-61189274D01*
X101719294Y-61242887D01*
X101849030Y-61319305D01*
X101945494Y-61391075D01*
X102032539Y-61468676D01*
X102115938Y-61553950D01*
X102189194Y-61638737D01*
X102245809Y-61714880D01*
X102279283Y-61774221D01*
X102283119Y-61808600D01*
X102847630Y-61808600D01*
X102901357Y-61684422D01*
X102911975Y-61544691D01*
X102637048Y-61544691D01*
X102630991Y-61575492D01*
X102623974Y-61577600D01*
X102598547Y-61560548D01*
X102545212Y-61513985D01*
X102471501Y-61444796D01*
X102384943Y-61359870D01*
X102374892Y-61349795D01*
X102290785Y-61262685D01*
X102223640Y-61188093D01*
X102179678Y-61133316D01*
X102165117Y-61105651D01*
X102165731Y-61104402D01*
X102200987Y-61101804D01*
X102262894Y-61125188D01*
X102339675Y-61167314D01*
X102419551Y-61220942D01*
X102490745Y-61278832D01*
X102541477Y-61333744D01*
X102543498Y-61336618D01*
X102589263Y-61413164D01*
X102621793Y-61486552D01*
X102637048Y-61544691D01*
X102911975Y-61544691D01*
X102912289Y-61540564D01*
X102873829Y-61390400D01*
X102785766Y-61232546D01*
X102742026Y-61173754D01*
X102651635Y-61079750D01*
X102529413Y-60980201D01*
X102391432Y-60886473D01*
X102253764Y-60809934D01*
X102184628Y-60779524D01*
X102035134Y-60737488D01*
X101876402Y-60720053D01*
X101720090Y-60726033D01*
G36*
X100273196Y-62485592D02*
G01*
X100027369Y-62524604D01*
X99942050Y-62544942D01*
X99876982Y-62569118D01*
X99849998Y-62602308D01*
X99846800Y-62628742D01*
X99853347Y-62673808D01*
X99876184Y-62711158D01*
X99920104Y-62742066D01*
X99989902Y-62767808D01*
X100090373Y-62789656D01*
X100226310Y-62808886D01*
X100402508Y-62826771D01*
X100623761Y-62844586D01*
X100672300Y-62848141D01*
X100864544Y-62864570D01*
X101039813Y-62884388D01*
X101191112Y-62906457D01*
X101311443Y-62929637D01*
X101393811Y-62952790D01*
X101428300Y-62971139D01*
X101423362Y-62992691D01*
X101376083Y-63017904D01*
X101294563Y-63044410D01*
X101186903Y-63069844D01*
X101061203Y-63091838D01*
X100978250Y-63102653D01*
X100840286Y-63118228D01*
X100688691Y-63135291D01*
X100553562Y-63150455D01*
X100538781Y-63152109D01*
X100324606Y-63191687D01*
X100153139Y-63257402D01*
X100024826Y-63348727D01*
X99940111Y-63465137D01*
X99899441Y-63606105D01*
X99903261Y-63771105D01*
X99925678Y-63876300D01*
X99976469Y-63981953D01*
X100064308Y-64086055D01*
X100176501Y-64176751D01*
X100300351Y-64242186D01*
X100328091Y-64252076D01*
X100497738Y-64291145D01*
X100688068Y-64309527D01*
X100877997Y-64306526D01*
X101046439Y-64281447D01*
X101066000Y-64276437D01*
X101283818Y-64195183D01*
X101464235Y-64080130D01*
X101557075Y-63991932D01*
X101614368Y-63920983D01*
X101642156Y-63859577D01*
X101650117Y-63784926D01*
X101650200Y-63772672D01*
X101642593Y-63686661D01*
X101613143Y-63624154D01*
X101577756Y-63584047D01*
X101465580Y-63506263D01*
X101318966Y-63458478D01*
X101144574Y-63440825D01*
X100949061Y-63453442D01*
X100739084Y-63496461D01*
X100538950Y-63562971D01*
X100466310Y-63595294D01*
X100417877Y-63623949D01*
X100405600Y-63638323D01*
X100427522Y-63669930D01*
X100483347Y-63707675D01*
X100558169Y-63743626D01*
X100637078Y-63769847D01*
X100662907Y-63775258D01*
X100744630Y-63777589D01*
X100855363Y-63760006D01*
X100987315Y-63725977D01*
X101174575Y-63680038D01*
X101322419Y-63661057D01*
X101429937Y-63668924D01*
X101496222Y-63703524D01*
X101520367Y-63764747D01*
X101518800Y-63791716D01*
X101497160Y-63843095D01*
X101445580Y-63879132D01*
X101358419Y-63901639D01*
X101230038Y-63912427D01*
X101138085Y-63914025D01*
X100952755Y-63907030D01*
X100770818Y-63886882D01*
X100600304Y-63855679D01*
X100449244Y-63815520D01*
X100325669Y-63768504D01*
X100237611Y-63716728D01*
X100195305Y-63667669D01*
X100180515Y-63620111D01*
X100195159Y-63582896D01*
X100235422Y-63544025D01*
X100321462Y-63488876D01*
X100443045Y-63442407D01*
X100603851Y-63403747D01*
X100807561Y-63372025D01*
X101057858Y-63346370D01*
X101078392Y-63344684D01*
X101283233Y-63326022D01*
X101442710Y-63305482D01*
X101562256Y-63280594D01*
X101647304Y-63248888D01*
X101703286Y-63207894D01*
X101735636Y-63155142D01*
X101749785Y-63088162D01*
X101751800Y-63038508D01*
X101727534Y-62906989D01*
X101655425Y-62790072D01*
X101536508Y-62688512D01*
X101371818Y-62603067D01*
X101162389Y-62534495D01*
X101019316Y-62502460D01*
X100788944Y-62473741D01*
X100533646Y-62468378D01*
X100273196Y-62485592D01*
G37*
X100273196Y-62485592D02*
X100027369Y-62524604D01*
X99942050Y-62544942D01*
X99876982Y-62569118D01*
X99849998Y-62602308D01*
X99846800Y-62628742D01*
X99853347Y-62673808D01*
X99876184Y-62711158D01*
X99920104Y-62742066D01*
X99989902Y-62767808D01*
X100090373Y-62789656D01*
X100226310Y-62808886D01*
X100402508Y-62826771D01*
X100623761Y-62844586D01*
X100672300Y-62848141D01*
X100864544Y-62864570D01*
X101039813Y-62884388D01*
X101191112Y-62906457D01*
X101311443Y-62929637D01*
X101393811Y-62952790D01*
X101428300Y-62971139D01*
X101423362Y-62992691D01*
X101376083Y-63017904D01*
X101294563Y-63044410D01*
X101186903Y-63069844D01*
X101061203Y-63091838D01*
X100978250Y-63102653D01*
X100840286Y-63118228D01*
X100688691Y-63135291D01*
X100553562Y-63150455D01*
X100538781Y-63152109D01*
X100324606Y-63191687D01*
X100153139Y-63257402D01*
X100024826Y-63348727D01*
X99940111Y-63465137D01*
X99899441Y-63606105D01*
X99903261Y-63771105D01*
X99925678Y-63876300D01*
X99976469Y-63981953D01*
X100064308Y-64086055D01*
X100176501Y-64176751D01*
X100300351Y-64242186D01*
X100328091Y-64252076D01*
X100497738Y-64291145D01*
X100688068Y-64309527D01*
X100877997Y-64306526D01*
X101046439Y-64281447D01*
X101066000Y-64276437D01*
X101283818Y-64195183D01*
X101464235Y-64080130D01*
X101557075Y-63991932D01*
X101614368Y-63920983D01*
X101642156Y-63859577D01*
X101650117Y-63784926D01*
X101650200Y-63772672D01*
X101642593Y-63686661D01*
X101613143Y-63624154D01*
X101577756Y-63584047D01*
X101465580Y-63506263D01*
X101318966Y-63458478D01*
X101144574Y-63440825D01*
X100949061Y-63453442D01*
X100739084Y-63496461D01*
X100538950Y-63562971D01*
X100466310Y-63595294D01*
X100417877Y-63623949D01*
X100405600Y-63638323D01*
X100427522Y-63669930D01*
X100483347Y-63707675D01*
X100558169Y-63743626D01*
X100637078Y-63769847D01*
X100662907Y-63775258D01*
X100744630Y-63777589D01*
X100855363Y-63760006D01*
X100987315Y-63725977D01*
X101174575Y-63680038D01*
X101322419Y-63661057D01*
X101429937Y-63668924D01*
X101496222Y-63703524D01*
X101520367Y-63764747D01*
X101518800Y-63791716D01*
X101497160Y-63843095D01*
X101445580Y-63879132D01*
X101358419Y-63901639D01*
X101230038Y-63912427D01*
X101138085Y-63914025D01*
X100952755Y-63907030D01*
X100770818Y-63886882D01*
X100600304Y-63855679D01*
X100449244Y-63815520D01*
X100325669Y-63768504D01*
X100237611Y-63716728D01*
X100195305Y-63667669D01*
X100180515Y-63620111D01*
X100195159Y-63582896D01*
X100235422Y-63544025D01*
X100321462Y-63488876D01*
X100443045Y-63442407D01*
X100603851Y-63403747D01*
X100807561Y-63372025D01*
X101057858Y-63346370D01*
X101078392Y-63344684D01*
X101283233Y-63326022D01*
X101442710Y-63305482D01*
X101562256Y-63280594D01*
X101647304Y-63248888D01*
X101703286Y-63207894D01*
X101735636Y-63155142D01*
X101749785Y-63088162D01*
X101751800Y-63038508D01*
X101727534Y-62906989D01*
X101655425Y-62790072D01*
X101536508Y-62688512D01*
X101371818Y-62603067D01*
X101162389Y-62534495D01*
X101019316Y-62502460D01*
X100788944Y-62473741D01*
X100533646Y-62468378D01*
X100273196Y-62485592D01*
G36*
X102223288Y-62498827D02*
G01*
X102184975Y-62520497D01*
X102154338Y-62548858D01*
X102130140Y-62589833D01*
X102111141Y-62649342D01*
X102096105Y-62733308D01*
X102083793Y-62847651D01*
X102072967Y-62998293D01*
X102062389Y-63191156D01*
X102057438Y-63292100D01*
X102045216Y-63554329D01*
X102036547Y-63770315D01*
X102032100Y-63944532D01*
X102032540Y-64081456D01*
X102038534Y-64185560D01*
X102050749Y-64261320D01*
X102069852Y-64313211D01*
X102096509Y-64345706D01*
X102131387Y-64363281D01*
X102175154Y-64370410D01*
X102218286Y-64371600D01*
X102297327Y-64363986D01*
X102360420Y-64345044D01*
X102371696Y-64338399D01*
X102413673Y-64281272D01*
X102446262Y-64183675D01*
X102467403Y-64055405D01*
X102475037Y-63906262D01*
X102474135Y-63850900D01*
X102465021Y-63632410D01*
X102452764Y-63415646D01*
X102438000Y-63206959D01*
X102421367Y-63012703D01*
X102403502Y-62839231D01*
X102385042Y-62692897D01*
X102366625Y-62580054D01*
X102348887Y-62507055D01*
X102336902Y-62482741D01*
X102294597Y-62473791D01*
X102223288Y-62498827D01*
G37*
X102223288Y-62498827D02*
X102184975Y-62520497D01*
X102154338Y-62548858D01*
X102130140Y-62589833D01*
X102111141Y-62649342D01*
X102096105Y-62733308D01*
X102083793Y-62847651D01*
X102072967Y-62998293D01*
X102062389Y-63191156D01*
X102057438Y-63292100D01*
X102045216Y-63554329D01*
X102036547Y-63770315D01*
X102032100Y-63944532D01*
X102032540Y-64081456D01*
X102038534Y-64185560D01*
X102050749Y-64261320D01*
X102069852Y-64313211D01*
X102096509Y-64345706D01*
X102131387Y-64363281D01*
X102175154Y-64370410D01*
X102218286Y-64371600D01*
X102297327Y-64363986D01*
X102360420Y-64345044D01*
X102371696Y-64338399D01*
X102413673Y-64281272D01*
X102446262Y-64183675D01*
X102467403Y-64055405D01*
X102475037Y-63906262D01*
X102474135Y-63850900D01*
X102465021Y-63632410D01*
X102452764Y-63415646D01*
X102438000Y-63206959D01*
X102421367Y-63012703D01*
X102403502Y-62839231D01*
X102385042Y-62692897D01*
X102366625Y-62580054D01*
X102348887Y-62507055D01*
X102336902Y-62482741D01*
X102294597Y-62473791D01*
X102223288Y-62498827D01*
G36*
X103013599Y-62406336D02*
G01*
X102907500Y-62428709D01*
X102876897Y-62986275D01*
X102866466Y-63161799D01*
X102854933Y-63331405D01*
X102843122Y-63484564D01*
X102831860Y-63610750D01*
X102821972Y-63699436D01*
X102819747Y-63714936D01*
X102805581Y-63835180D01*
X102795950Y-63972310D01*
X102793200Y-64072363D01*
X102798919Y-64202683D01*
X102819134Y-64290439D01*
X102858434Y-64342893D01*
X102921410Y-64367306D01*
X102982327Y-64371600D01*
X103072308Y-64364943D01*
X103135310Y-64339867D01*
X103176915Y-64288716D01*
X103202705Y-64203832D01*
X103218262Y-64077557D01*
X103220792Y-64044501D01*
X103237700Y-63807700D01*
X103733024Y-63800100D01*
X103733012Y-64061078D01*
X103733494Y-64178501D01*
X103736478Y-64255162D01*
X103744252Y-64301099D01*
X103759104Y-64326351D01*
X103783324Y-64340955D01*
X103798154Y-64346828D01*
X103908872Y-64369267D01*
X104021413Y-64348022D01*
X104051706Y-64335895D01*
X104101212Y-64306102D01*
X104132801Y-64259902D01*
X104157020Y-64181073D01*
X104159656Y-64169851D01*
X104176746Y-64067851D01*
X104187831Y-63948027D01*
X104190200Y-63875279D01*
X104192071Y-63784992D01*
X104202711Y-63726420D01*
X104229665Y-63680497D01*
X104280477Y-63628151D01*
X104292429Y-63616867D01*
X104348569Y-63559660D01*
X104382047Y-63507799D01*
X104401467Y-63442418D01*
X104415035Y-63348033D01*
X104422741Y-63260094D01*
X104423513Y-63194125D01*
X104417203Y-63164126D01*
X104416978Y-63163973D01*
X104384908Y-63166818D01*
X104324351Y-63186946D01*
X104288022Y-63202226D01*
X104177500Y-63251872D01*
X104161419Y-63094186D01*
X104152432Y-62982077D01*
X104145419Y-62851049D01*
X104142369Y-62751053D01*
X104139400Y-62565607D01*
X104047277Y-62527116D01*
X103950578Y-62504542D01*
X103844465Y-62506096D01*
X103753987Y-62530841D01*
X103739808Y-62538592D01*
X103728557Y-62558292D01*
X103722682Y-62604206D01*
X103722141Y-62682433D01*
X103726887Y-62799071D01*
X103736720Y-62957935D01*
X103744927Y-63095608D01*
X103749915Y-63215129D01*
X103751478Y-63307470D01*
X103749407Y-63363603D01*
X103746341Y-63376140D01*
X103712226Y-63386726D01*
X103642713Y-63395103D01*
X103552435Y-63400835D01*
X103456028Y-63403490D01*
X103368125Y-63402634D01*
X103303361Y-63397832D01*
X103277180Y-63390054D01*
X103272670Y-63358581D01*
X103272536Y-63285479D01*
X103276486Y-63179704D01*
X103284226Y-63050211D01*
X103291480Y-62953472D01*
X103303641Y-62797143D01*
X103310875Y-62683055D01*
X103313063Y-62602876D01*
X103310082Y-62548276D01*
X103301815Y-62510922D01*
X103288140Y-62482484D01*
X103284608Y-62476924D01*
X103220235Y-62416858D01*
X103128037Y-62394444D01*
X103013599Y-62406336D01*
G37*
X103013599Y-62406336D02*
X102907500Y-62428709D01*
X102876897Y-62986275D01*
X102866466Y-63161799D01*
X102854933Y-63331405D01*
X102843122Y-63484564D01*
X102831860Y-63610750D01*
X102821972Y-63699436D01*
X102819747Y-63714936D01*
X102805581Y-63835180D01*
X102795950Y-63972310D01*
X102793200Y-64072363D01*
X102798919Y-64202683D01*
X102819134Y-64290439D01*
X102858434Y-64342893D01*
X102921410Y-64367306D01*
X102982327Y-64371600D01*
X103072308Y-64364943D01*
X103135310Y-64339867D01*
X103176915Y-64288716D01*
X103202705Y-64203832D01*
X103218262Y-64077557D01*
X103220792Y-64044501D01*
X103237700Y-63807700D01*
X103733024Y-63800100D01*
X103733012Y-64061078D01*
X103733494Y-64178501D01*
X103736478Y-64255162D01*
X103744252Y-64301099D01*
X103759104Y-64326351D01*
X103783324Y-64340955D01*
X103798154Y-64346828D01*
X103908872Y-64369267D01*
X104021413Y-64348022D01*
X104051706Y-64335895D01*
X104101212Y-64306102D01*
X104132801Y-64259902D01*
X104157020Y-64181073D01*
X104159656Y-64169851D01*
X104176746Y-64067851D01*
X104187831Y-63948027D01*
X104190200Y-63875279D01*
X104192071Y-63784992D01*
X104202711Y-63726420D01*
X104229665Y-63680497D01*
X104280477Y-63628151D01*
X104292429Y-63616867D01*
X104348569Y-63559660D01*
X104382047Y-63507799D01*
X104401467Y-63442418D01*
X104415035Y-63348033D01*
X104422741Y-63260094D01*
X104423513Y-63194125D01*
X104417203Y-63164126D01*
X104416978Y-63163973D01*
X104384908Y-63166818D01*
X104324351Y-63186946D01*
X104288022Y-63202226D01*
X104177500Y-63251872D01*
X104161419Y-63094186D01*
X104152432Y-62982077D01*
X104145419Y-62851049D01*
X104142369Y-62751053D01*
X104139400Y-62565607D01*
X104047277Y-62527116D01*
X103950578Y-62504542D01*
X103844465Y-62506096D01*
X103753987Y-62530841D01*
X103739808Y-62538592D01*
X103728557Y-62558292D01*
X103722682Y-62604206D01*
X103722141Y-62682433D01*
X103726887Y-62799071D01*
X103736720Y-62957935D01*
X103744927Y-63095608D01*
X103749915Y-63215129D01*
X103751478Y-63307470D01*
X103749407Y-63363603D01*
X103746341Y-63376140D01*
X103712226Y-63386726D01*
X103642713Y-63395103D01*
X103552435Y-63400835D01*
X103456028Y-63403490D01*
X103368125Y-63402634D01*
X103303361Y-63397832D01*
X103277180Y-63390054D01*
X103272670Y-63358581D01*
X103272536Y-63285479D01*
X103276486Y-63179704D01*
X103284226Y-63050211D01*
X103291480Y-62953472D01*
X103303641Y-62797143D01*
X103310875Y-62683055D01*
X103313063Y-62602876D01*
X103310082Y-62548276D01*
X103301815Y-62510922D01*
X103288140Y-62482484D01*
X103284608Y-62476924D01*
X103220235Y-62416858D01*
X103128037Y-62394444D01*
X103013599Y-62406336D01*
G36*
X99448731Y-62423496D02*
G01*
X99385628Y-62470371D01*
X99378147Y-62480961D01*
X99342027Y-62560241D01*
X99309515Y-62675430D01*
X99283590Y-62811644D01*
X99267235Y-62953997D01*
X99263042Y-63055742D01*
X99262600Y-63225784D01*
X99129250Y-63171641D01*
X98998049Y-63110856D01*
X98880416Y-63037940D01*
X98767797Y-62945501D01*
X98651634Y-62826148D01*
X98523370Y-62672490D01*
X98465830Y-62598551D01*
X98403708Y-62519302D01*
X98362561Y-62474635D01*
X98333328Y-62458160D01*
X98306950Y-62463489D01*
X98289339Y-62474086D01*
X98234031Y-62521419D01*
X98187370Y-62574366D01*
X98163814Y-62608642D01*
X98154983Y-62639182D01*
X98162900Y-62679066D01*
X98189593Y-62741376D01*
X98224345Y-62813131D01*
X98312506Y-62957327D01*
X98435787Y-63108784D01*
X98582537Y-63254934D01*
X98741108Y-63383211D01*
X98774372Y-63406400D01*
X98842911Y-63454870D01*
X98890667Y-63492594D01*
X98906346Y-63509778D01*
X98889625Y-63543014D01*
X98844691Y-63598542D01*
X98781898Y-63665591D01*
X98711599Y-63733388D01*
X98644146Y-63791160D01*
X98615532Y-63812365D01*
X98531774Y-63860643D01*
X98424714Y-63910019D01*
X98336169Y-63943329D01*
X98220965Y-63989238D01*
X98146006Y-64037057D01*
X98127216Y-64058295D01*
X98099727Y-64142653D01*
X98113889Y-64233790D01*
X98165867Y-64315869D01*
X98196031Y-64342354D01*
X98239362Y-64372025D01*
X98276694Y-64385030D01*
X98324714Y-64382447D01*
X98400104Y-64365356D01*
X98430685Y-64357526D01*
X98601054Y-64299621D01*
X98761178Y-64213693D01*
X98921625Y-64093118D01*
X99063757Y-63960843D01*
X99262600Y-63762000D01*
X99262600Y-64341230D01*
X99342591Y-64369115D01*
X99441953Y-64391754D01*
X99538555Y-64394056D01*
X99611859Y-64375794D01*
X99618200Y-64372155D01*
X99634377Y-64336236D01*
X99648738Y-64250992D01*
X99661208Y-64117868D01*
X99671711Y-63938309D01*
X99680169Y-63713761D01*
X99686507Y-63445669D01*
X99690647Y-63135478D01*
X99691772Y-62982679D01*
X99694400Y-62520859D01*
X99620629Y-62468329D01*
X99528564Y-62422737D01*
X99448731Y-62423496D01*
G37*
X99448731Y-62423496D02*
X99385628Y-62470371D01*
X99378147Y-62480961D01*
X99342027Y-62560241D01*
X99309515Y-62675430D01*
X99283590Y-62811644D01*
X99267235Y-62953997D01*
X99263042Y-63055742D01*
X99262600Y-63225784D01*
X99129250Y-63171641D01*
X98998049Y-63110856D01*
X98880416Y-63037940D01*
X98767797Y-62945501D01*
X98651634Y-62826148D01*
X98523370Y-62672490D01*
X98465830Y-62598551D01*
X98403708Y-62519302D01*
X98362561Y-62474635D01*
X98333328Y-62458160D01*
X98306950Y-62463489D01*
X98289339Y-62474086D01*
X98234031Y-62521419D01*
X98187370Y-62574366D01*
X98163814Y-62608642D01*
X98154983Y-62639182D01*
X98162900Y-62679066D01*
X98189593Y-62741376D01*
X98224345Y-62813131D01*
X98312506Y-62957327D01*
X98435787Y-63108784D01*
X98582537Y-63254934D01*
X98741108Y-63383211D01*
X98774372Y-63406400D01*
X98842911Y-63454870D01*
X98890667Y-63492594D01*
X98906346Y-63509778D01*
X98889625Y-63543014D01*
X98844691Y-63598542D01*
X98781898Y-63665591D01*
X98711599Y-63733388D01*
X98644146Y-63791160D01*
X98615532Y-63812365D01*
X98531774Y-63860643D01*
X98424714Y-63910019D01*
X98336169Y-63943329D01*
X98220965Y-63989238D01*
X98146006Y-64037057D01*
X98127216Y-64058295D01*
X98099727Y-64142653D01*
X98113889Y-64233790D01*
X98165867Y-64315869D01*
X98196031Y-64342354D01*
X98239362Y-64372025D01*
X98276694Y-64385030D01*
X98324714Y-64382447D01*
X98400104Y-64365356D01*
X98430685Y-64357526D01*
X98601054Y-64299621D01*
X98761178Y-64213693D01*
X98921625Y-64093118D01*
X99063757Y-63960843D01*
X99262600Y-63762000D01*
X99262600Y-64341230D01*
X99342591Y-64369115D01*
X99441953Y-64391754D01*
X99538555Y-64394056D01*
X99611859Y-64375794D01*
X99618200Y-64372155D01*
X99634377Y-64336236D01*
X99648738Y-64250992D01*
X99661208Y-64117868D01*
X99671711Y-63938309D01*
X99680169Y-63713761D01*
X99686507Y-63445669D01*
X99690647Y-63135478D01*
X99691772Y-62982679D01*
X99694400Y-62520859D01*
X99620629Y-62468329D01*
X99528564Y-62422737D01*
X99448731Y-62423496D01*
G36*
X112199059Y-62361125D02*
G01*
X112179755Y-62380074D01*
X112158573Y-62417546D01*
X112151139Y-62477806D01*
X112158120Y-62566124D01*
X112180178Y-62687771D01*
X112217979Y-62848015D01*
X112257956Y-63000000D01*
X112308083Y-63195194D01*
X112349811Y-63378135D01*
X112381799Y-63541365D01*
X112402709Y-63677426D01*
X112411204Y-63778862D01*
X112407468Y-63833077D01*
X112394261Y-63864560D01*
X112369396Y-63880829D01*
X112325830Y-63880845D01*
X112256525Y-63863570D01*
X112154440Y-63827965D01*
X112019923Y-63775916D01*
X111888236Y-63725982D01*
X111795124Y-63697228D01*
X111733200Y-63689198D01*
X111695078Y-63701437D01*
X111673369Y-63733491D01*
X111667008Y-63754173D01*
X111669242Y-63840979D01*
X111709851Y-63942752D01*
X111782054Y-64051190D01*
X111879070Y-64157990D01*
X111994116Y-64254847D01*
X112120413Y-64333459D01*
X112153100Y-64349358D01*
X112286708Y-64389545D01*
X112420546Y-64392768D01*
X112539260Y-64359376D01*
X112573421Y-64339763D01*
X112651623Y-64276244D01*
X112706555Y-64201768D01*
X112742309Y-64106067D01*
X112762981Y-63978877D01*
X112771585Y-63842925D01*
X112773455Y-63682587D01*
X112764724Y-63537327D01*
X112743061Y-63392662D01*
X112706134Y-63234112D01*
X112651610Y-63047195D01*
X112634930Y-62994252D01*
X112556344Y-62767805D01*
X112480920Y-62591736D01*
X112408706Y-62466140D01*
X112339750Y-62391112D01*
X112319413Y-62378326D01*
X112260433Y-62349326D01*
X112226931Y-62343510D01*
X112199059Y-62361125D01*
G37*
X112199059Y-62361125D02*
X112179755Y-62380074D01*
X112158573Y-62417546D01*
X112151139Y-62477806D01*
X112158120Y-62566124D01*
X112180178Y-62687771D01*
X112217979Y-62848015D01*
X112257956Y-63000000D01*
X112308083Y-63195194D01*
X112349811Y-63378135D01*
X112381799Y-63541365D01*
X112402709Y-63677426D01*
X112411204Y-63778862D01*
X112407468Y-63833077D01*
X112394261Y-63864560D01*
X112369396Y-63880829D01*
X112325830Y-63880845D01*
X112256525Y-63863570D01*
X112154440Y-63827965D01*
X112019923Y-63775916D01*
X111888236Y-63725982D01*
X111795124Y-63697228D01*
X111733200Y-63689198D01*
X111695078Y-63701437D01*
X111673369Y-63733491D01*
X111667008Y-63754173D01*
X111669242Y-63840979D01*
X111709851Y-63942752D01*
X111782054Y-64051190D01*
X111879070Y-64157990D01*
X111994116Y-64254847D01*
X112120413Y-64333459D01*
X112153100Y-64349358D01*
X112286708Y-64389545D01*
X112420546Y-64392768D01*
X112539260Y-64359376D01*
X112573421Y-64339763D01*
X112651623Y-64276244D01*
X112706555Y-64201768D01*
X112742309Y-64106067D01*
X112762981Y-63978877D01*
X112771585Y-63842925D01*
X112773455Y-63682587D01*
X112764724Y-63537327D01*
X112743061Y-63392662D01*
X112706134Y-63234112D01*
X112651610Y-63047195D01*
X112634930Y-62994252D01*
X112556344Y-62767805D01*
X112480920Y-62591736D01*
X112408706Y-62466140D01*
X112339750Y-62391112D01*
X112319413Y-62378326D01*
X112260433Y-62349326D01*
X112226931Y-62343510D01*
X112199059Y-62361125D01*
G36*
X96783970Y-62497681D02*
G01*
X96683243Y-62505203D01*
X96617559Y-62516236D01*
X96571247Y-62537252D01*
X96528635Y-62574721D01*
X96487298Y-62620196D01*
X96422701Y-62705240D01*
X96396063Y-62774594D01*
X96409445Y-62829809D01*
X96464909Y-62872437D01*
X96564513Y-62904029D01*
X96710321Y-62926136D01*
X96904391Y-62940309D01*
X96913100Y-62940729D01*
X97056978Y-62949132D01*
X97157685Y-62961050D01*
X97222850Y-62980442D01*
X97260101Y-63011265D01*
X97277065Y-63057480D01*
X97281372Y-63123043D01*
X97281400Y-63131854D01*
X97281400Y-63228600D01*
X97067154Y-63228600D01*
X96927568Y-63231267D01*
X96831026Y-63241607D01*
X96769944Y-63263129D01*
X96736737Y-63299342D01*
X96723821Y-63353755D01*
X96722600Y-63387991D01*
X96729266Y-63463019D01*
X96745945Y-63518125D01*
X96753080Y-63528320D01*
X96794709Y-63543458D01*
X96884681Y-63553412D01*
X97023894Y-63558262D01*
X97105387Y-63558800D01*
X97427213Y-63558800D01*
X97494007Y-63746947D01*
X97525443Y-63836847D01*
X97548926Y-63906571D01*
X97560323Y-63943776D01*
X97560800Y-63946483D01*
X97537852Y-63947898D01*
X97477076Y-63941346D01*
X97390580Y-63928208D01*
X97370468Y-63924775D01*
X97245746Y-63905772D01*
X97101471Y-63887724D01*
X96968803Y-63874529D01*
X96968384Y-63874495D01*
X96864657Y-63866736D01*
X96798738Y-63865784D01*
X96757809Y-63874238D01*
X96729053Y-63894695D01*
X96700387Y-63928818D01*
X96660927Y-63994196D01*
X96657257Y-64052581D01*
X96692559Y-64112052D01*
X96770012Y-64180691D01*
X96811500Y-64211100D01*
X96990549Y-64322093D01*
X97174146Y-64406849D01*
X97353500Y-64462929D01*
X97519817Y-64487897D01*
X97664303Y-64479312D01*
X97721232Y-64463345D01*
X97831956Y-64408335D01*
X97909090Y-64332389D01*
X97954805Y-64253070D01*
X97991660Y-64119772D01*
X97990395Y-63961558D01*
X97951392Y-63786652D01*
X97930488Y-63727152D01*
X97895756Y-63629979D01*
X97879949Y-63563048D01*
X97880686Y-63510489D01*
X97891612Y-63468046D01*
X97903819Y-63374814D01*
X97873585Y-63305421D01*
X97803124Y-63264740D01*
X97798601Y-63263552D01*
X97746513Y-63233957D01*
X97698100Y-63167588D01*
X97672583Y-63117202D01*
X97632146Y-63024735D01*
X97615685Y-62966764D01*
X97622581Y-62933336D01*
X97652215Y-62914498D01*
X97659823Y-62911918D01*
X97708107Y-62888415D01*
X97776554Y-62845900D01*
X97813817Y-62819992D01*
X97885264Y-62753796D01*
X97913013Y-62693672D01*
X97896363Y-62645074D01*
X97840200Y-62614943D01*
X97744523Y-62593558D01*
X97612286Y-62571298D01*
X97456299Y-62549586D01*
X97289373Y-62529844D01*
X97124321Y-62513495D01*
X96973953Y-62501960D01*
X96851080Y-62496662D01*
X96783970Y-62497681D01*
G37*
X96783970Y-62497681D02*
X96683243Y-62505203D01*
X96617559Y-62516236D01*
X96571247Y-62537252D01*
X96528635Y-62574721D01*
X96487298Y-62620196D01*
X96422701Y-62705240D01*
X96396063Y-62774594D01*
X96409445Y-62829809D01*
X96464909Y-62872437D01*
X96564513Y-62904029D01*
X96710321Y-62926136D01*
X96904391Y-62940309D01*
X96913100Y-62940729D01*
X97056978Y-62949132D01*
X97157685Y-62961050D01*
X97222850Y-62980442D01*
X97260101Y-63011265D01*
X97277065Y-63057480D01*
X97281372Y-63123043D01*
X97281400Y-63131854D01*
X97281400Y-63228600D01*
X97067154Y-63228600D01*
X96927568Y-63231267D01*
X96831026Y-63241607D01*
X96769944Y-63263129D01*
X96736737Y-63299342D01*
X96723821Y-63353755D01*
X96722600Y-63387991D01*
X96729266Y-63463019D01*
X96745945Y-63518125D01*
X96753080Y-63528320D01*
X96794709Y-63543458D01*
X96884681Y-63553412D01*
X97023894Y-63558262D01*
X97105387Y-63558800D01*
X97427213Y-63558800D01*
X97494007Y-63746947D01*
X97525443Y-63836847D01*
X97548926Y-63906571D01*
X97560323Y-63943776D01*
X97560800Y-63946483D01*
X97537852Y-63947898D01*
X97477076Y-63941346D01*
X97390580Y-63928208D01*
X97370468Y-63924775D01*
X97245746Y-63905772D01*
X97101471Y-63887724D01*
X96968803Y-63874529D01*
X96968384Y-63874495D01*
X96864657Y-63866736D01*
X96798738Y-63865784D01*
X96757809Y-63874238D01*
X96729053Y-63894695D01*
X96700387Y-63928818D01*
X96660927Y-63994196D01*
X96657257Y-64052581D01*
X96692559Y-64112052D01*
X96770012Y-64180691D01*
X96811500Y-64211100D01*
X96990549Y-64322093D01*
X97174146Y-64406849D01*
X97353500Y-64462929D01*
X97519817Y-64487897D01*
X97664303Y-64479312D01*
X97721232Y-64463345D01*
X97831956Y-64408335D01*
X97909090Y-64332389D01*
X97954805Y-64253070D01*
X97991660Y-64119772D01*
X97990395Y-63961558D01*
X97951392Y-63786652D01*
X97930488Y-63727152D01*
X97895756Y-63629979D01*
X97879949Y-63563048D01*
X97880686Y-63510489D01*
X97891612Y-63468046D01*
X97903819Y-63374814D01*
X97873585Y-63305421D01*
X97803124Y-63264740D01*
X97798601Y-63263552D01*
X97746513Y-63233957D01*
X97698100Y-63167588D01*
X97672583Y-63117202D01*
X97632146Y-63024735D01*
X97615685Y-62966764D01*
X97622581Y-62933336D01*
X97652215Y-62914498D01*
X97659823Y-62911918D01*
X97708107Y-62888415D01*
X97776554Y-62845900D01*
X97813817Y-62819992D01*
X97885264Y-62753796D01*
X97913013Y-62693672D01*
X97896363Y-62645074D01*
X97840200Y-62614943D01*
X97744523Y-62593558D01*
X97612286Y-62571298D01*
X97456299Y-62549586D01*
X97289373Y-62529844D01*
X97124321Y-62513495D01*
X96973953Y-62501960D01*
X96851080Y-62496662D01*
X96783970Y-62497681D01*
G36*
X113338784Y-62243613D02*
G01*
X113316186Y-62261970D01*
X113288933Y-62304461D01*
X113252297Y-62385156D01*
X113210252Y-62493244D01*
X113166773Y-62617915D01*
X113125831Y-62748361D01*
X113091593Y-62873000D01*
X113074860Y-62959226D01*
X113056787Y-63085078D01*
X113038420Y-63239440D01*
X113020806Y-63411193D01*
X113004989Y-63589219D01*
X112992018Y-63762403D01*
X112982938Y-63919625D01*
X112978794Y-64049768D01*
X112978649Y-64073150D01*
X112978600Y-64422400D01*
X113054800Y-64422400D01*
X113145070Y-64398430D01*
X113220317Y-64329122D01*
X113278016Y-64218376D01*
X113315644Y-64070092D01*
X113323965Y-64006578D01*
X113341216Y-63838200D01*
X113603823Y-63838200D01*
X113716099Y-63838312D01*
X113797469Y-63843262D01*
X113855985Y-63859965D01*
X113899702Y-63895341D01*
X113936674Y-63956305D01*
X113974955Y-64049777D01*
X114022599Y-64182672D01*
X114030384Y-64204563D01*
X114070562Y-64310954D01*
X114108203Y-64399361D01*
X114138334Y-64458695D01*
X114152642Y-64477224D01*
X114198408Y-64491032D01*
X114268321Y-64498020D01*
X114279765Y-64498211D01*
X114354249Y-64488883D01*
X114402856Y-64453038D01*
X114417569Y-64432760D01*
X114462934Y-64320073D01*
X114472636Y-64182397D01*
X114446754Y-64030842D01*
X114414160Y-63937836D01*
X114367182Y-63823075D01*
X114340390Y-63743602D01*
X114333283Y-63688306D01*
X114345361Y-63646078D01*
X114376125Y-63605807D01*
X114398201Y-63583091D01*
X114459063Y-63513705D01*
X114475801Y-63467935D01*
X114447045Y-63441960D01*
X114371426Y-63431960D01*
X114343850Y-63431506D01*
X114210500Y-63431212D01*
X114185066Y-63381267D01*
X113689800Y-63381267D01*
X113666688Y-63394410D01*
X113606436Y-63403498D01*
X113533717Y-63406400D01*
X113377633Y-63406400D01*
X113392111Y-63234950D01*
X113404023Y-63133787D01*
X113420522Y-63042230D01*
X113435569Y-62987594D01*
X113464547Y-62911689D01*
X113512966Y-62974894D01*
X113544368Y-63026410D01*
X113583780Y-63105039D01*
X113624575Y-63195557D01*
X113660127Y-63282737D01*
X113683811Y-63351352D01*
X113689800Y-63381267D01*
X114185066Y-63381267D01*
X114033700Y-63084030D01*
X113945442Y-62920159D01*
X113850470Y-62759850D01*
X113758332Y-62618651D01*
X113694645Y-62531874D01*
X113623723Y-62439524D01*
X113563699Y-62356276D01*
X113522647Y-62293602D01*
X113510124Y-62269750D01*
X113469710Y-62223662D01*
X113407973Y-62214764D01*
X113338784Y-62243613D01*
G37*
X113338784Y-62243613D02*
X113316186Y-62261970D01*
X113288933Y-62304461D01*
X113252297Y-62385156D01*
X113210252Y-62493244D01*
X113166773Y-62617915D01*
X113125831Y-62748361D01*
X113091593Y-62873000D01*
X113074860Y-62959226D01*
X113056787Y-63085078D01*
X113038420Y-63239440D01*
X113020806Y-63411193D01*
X113004989Y-63589219D01*
X112992018Y-63762403D01*
X112982938Y-63919625D01*
X112978794Y-64049768D01*
X112978649Y-64073150D01*
X112978600Y-64422400D01*
X113054800Y-64422400D01*
X113145070Y-64398430D01*
X113220317Y-64329122D01*
X113278016Y-64218376D01*
X113315644Y-64070092D01*
X113323965Y-64006578D01*
X113341216Y-63838200D01*
X113603823Y-63838200D01*
X113716099Y-63838312D01*
X113797469Y-63843262D01*
X113855985Y-63859965D01*
X113899702Y-63895341D01*
X113936674Y-63956305D01*
X113974955Y-64049777D01*
X114022599Y-64182672D01*
X114030384Y-64204563D01*
X114070562Y-64310954D01*
X114108203Y-64399361D01*
X114138334Y-64458695D01*
X114152642Y-64477224D01*
X114198408Y-64491032D01*
X114268321Y-64498020D01*
X114279765Y-64498211D01*
X114354249Y-64488883D01*
X114402856Y-64453038D01*
X114417569Y-64432760D01*
X114462934Y-64320073D01*
X114472636Y-64182397D01*
X114446754Y-64030842D01*
X114414160Y-63937836D01*
X114367182Y-63823075D01*
X114340390Y-63743602D01*
X114333283Y-63688306D01*
X114345361Y-63646078D01*
X114376125Y-63605807D01*
X114398201Y-63583091D01*
X114459063Y-63513705D01*
X114475801Y-63467935D01*
X114447045Y-63441960D01*
X114371426Y-63431960D01*
X114343850Y-63431506D01*
X114210500Y-63431212D01*
X114185066Y-63381267D01*
X113689800Y-63381267D01*
X113666688Y-63394410D01*
X113606436Y-63403498D01*
X113533717Y-63406400D01*
X113377633Y-63406400D01*
X113392111Y-63234950D01*
X113404023Y-63133787D01*
X113420522Y-63042230D01*
X113435569Y-62987594D01*
X113464547Y-62911689D01*
X113512966Y-62974894D01*
X113544368Y-63026410D01*
X113583780Y-63105039D01*
X113624575Y-63195557D01*
X113660127Y-63282737D01*
X113683811Y-63351352D01*
X113689800Y-63381267D01*
X114185066Y-63381267D01*
X114033700Y-63084030D01*
X113945442Y-62920159D01*
X113850470Y-62759850D01*
X113758332Y-62618651D01*
X113694645Y-62531874D01*
X113623723Y-62439524D01*
X113563699Y-62356276D01*
X113522647Y-62293602D01*
X113510124Y-62269750D01*
X113469710Y-62223662D01*
X113407973Y-62214764D01*
X113338784Y-62243613D01*
G36*
X105443851Y-60098224D02*
G01*
X105339559Y-60165539D01*
X105226514Y-60258774D01*
X105111383Y-60372610D01*
X105000833Y-60501728D01*
X104931827Y-60595326D01*
X104728602Y-60931162D01*
X104573053Y-61278827D01*
X104465861Y-61635686D01*
X104407706Y-61999108D01*
X104399269Y-62366460D01*
X104417806Y-62583328D01*
X104485951Y-62948412D01*
X104594494Y-63288623D01*
X104741805Y-63601166D01*
X104926252Y-63883247D01*
X105146205Y-64132070D01*
X105400033Y-64344842D01*
X105476360Y-64397188D01*
X105693125Y-64519695D01*
X105913314Y-64607596D01*
X106129521Y-64659396D01*
X106334339Y-64673598D01*
X106520363Y-64648708D01*
X106597637Y-64623697D01*
X106692987Y-64573876D01*
X106798375Y-64499871D01*
X106901166Y-64412722D01*
X106988729Y-64323468D01*
X107048429Y-64243149D01*
X107060322Y-64219389D01*
X107084210Y-64167208D01*
X107099694Y-64143179D01*
X107100343Y-64143000D01*
X107127389Y-64148883D01*
X107189034Y-64164148D01*
X107254998Y-64181100D01*
X107358005Y-64200694D01*
X107483349Y-64214444D01*
X107595080Y-64219200D01*
X107708546Y-64215798D01*
X107794999Y-64202106D01*
X107877974Y-64172887D01*
X107944326Y-64141526D01*
X108069340Y-64067707D01*
X108166296Y-63980472D01*
X108247509Y-63866554D01*
X108308530Y-63749189D01*
X108371160Y-63590144D01*
X108410370Y-63423414D01*
X108429166Y-63233287D01*
X108431898Y-63104483D01*
X108407855Y-62744906D01*
X108338251Y-62385339D01*
X108226375Y-62032658D01*
X108075516Y-61693744D01*
X107888964Y-61375476D01*
X107670007Y-61084731D01*
X107421933Y-60828390D01*
X107290504Y-60717235D01*
X107153153Y-60617461D01*
X107036388Y-60548593D01*
X106943389Y-60509818D01*
X106877339Y-60500319D01*
X106841419Y-60519280D01*
X106838810Y-60565888D01*
X106872694Y-60639326D01*
X106946253Y-60738779D01*
X106994372Y-60793129D01*
X107238484Y-61090309D01*
X107456958Y-61423804D01*
X107644531Y-61783398D01*
X107795940Y-62158871D01*
X107905924Y-62540006D01*
X107915064Y-62580900D01*
X107937286Y-62712501D01*
X107954261Y-62870662D01*
X107965457Y-63041428D01*
X107970342Y-63210842D01*
X107968384Y-63364952D01*
X107959050Y-63489802D01*
X107951517Y-63536578D01*
X107899113Y-63702602D01*
X107820115Y-63833493D01*
X107718007Y-63924267D01*
X107660862Y-63952489D01*
X107539234Y-63980419D01*
X107415267Y-63977822D01*
X107306978Y-63946248D01*
X107261986Y-63918199D01*
X107237430Y-63896557D01*
X107223399Y-63872971D01*
X107219448Y-63836655D01*
X107225132Y-63776824D01*
X107240005Y-63682692D01*
X107249874Y-63624530D01*
X107269453Y-63478347D01*
X107279926Y-63352420D01*
X106791820Y-63352420D01*
X106782564Y-63435565D01*
X106763710Y-63468885D01*
X106750008Y-63466443D01*
X106725703Y-63439385D01*
X106681969Y-63380201D01*
X106626610Y-63299650D01*
X106602119Y-63262570D01*
X106463803Y-63015815D01*
X106370160Y-62764941D01*
X106347081Y-62674491D01*
X106333088Y-62585644D01*
X106323577Y-62470568D01*
X106318572Y-62341860D01*
X106318099Y-62212120D01*
X106322181Y-62093946D01*
X106330843Y-61999936D01*
X106344110Y-61942689D01*
X106345649Y-61939550D01*
X106394916Y-61893068D01*
X106460531Y-61885626D01*
X106525175Y-61918220D01*
X106535556Y-61928620D01*
X106583889Y-62006640D01*
X106630657Y-62128817D01*
X106674387Y-62288508D01*
X106713605Y-62479070D01*
X106746836Y-62693859D01*
X106772606Y-62926233D01*
X106781522Y-63036822D01*
X106791473Y-63219492D01*
X106791820Y-63352420D01*
X107279926Y-63352420D01*
X107283465Y-63309883D01*
X107291711Y-63131596D01*
X107293996Y-62955941D01*
X107290121Y-62795375D01*
X107279889Y-62662353D01*
X107266405Y-62581699D01*
X107186698Y-62351956D01*
X107067609Y-62141485D01*
X106915237Y-61958164D01*
X106735681Y-61809872D01*
X106614468Y-61739516D01*
X106513883Y-61692306D01*
X106439370Y-61665966D01*
X106372942Y-61656077D01*
X106296611Y-61658219D01*
X106286748Y-61659007D01*
X106180052Y-61676347D01*
X106105394Y-61711163D01*
X106079791Y-61732105D01*
X105999185Y-61833544D01*
X105929824Y-61970351D01*
X105877216Y-62127421D01*
X105846868Y-62289647D01*
X105841642Y-62385300D01*
X105865601Y-62606711D01*
X105933141Y-62840408D01*
X106040756Y-63079616D01*
X106184939Y-63317560D01*
X106362182Y-63547465D01*
X106540680Y-63735797D01*
X106711957Y-63900094D01*
X106663929Y-63989392D01*
X106583423Y-64088241D01*
X106469672Y-64157781D01*
X106332225Y-64196076D01*
X106180630Y-64201190D01*
X106024436Y-64171188D01*
X105935657Y-64137008D01*
X105752326Y-64026031D01*
X105578240Y-63869951D01*
X105417065Y-63674156D01*
X105272469Y-63444038D01*
X105148120Y-63184984D01*
X105047685Y-62902385D01*
X105015076Y-62784150D01*
X104939315Y-62406296D01*
X104904602Y-62036560D01*
X104910191Y-61679011D01*
X104955335Y-61337718D01*
X105039284Y-61016753D01*
X105161293Y-60720185D01*
X105320612Y-60452083D01*
X105479656Y-60255164D01*
X105555365Y-60171168D01*
X105598891Y-60116035D01*
X105614373Y-60083114D01*
X105605952Y-60065754D01*
X105599505Y-60062633D01*
X105532722Y-60062149D01*
X105443851Y-60098224D01*
G37*
X105443851Y-60098224D02*
X105339559Y-60165539D01*
X105226514Y-60258774D01*
X105111383Y-60372610D01*
X105000833Y-60501728D01*
X104931827Y-60595326D01*
X104728602Y-60931162D01*
X104573053Y-61278827D01*
X104465861Y-61635686D01*
X104407706Y-61999108D01*
X104399269Y-62366460D01*
X104417806Y-62583328D01*
X104485951Y-62948412D01*
X104594494Y-63288623D01*
X104741805Y-63601166D01*
X104926252Y-63883247D01*
X105146205Y-64132070D01*
X105400033Y-64344842D01*
X105476360Y-64397188D01*
X105693125Y-64519695D01*
X105913314Y-64607596D01*
X106129521Y-64659396D01*
X106334339Y-64673598D01*
X106520363Y-64648708D01*
X106597637Y-64623697D01*
X106692987Y-64573876D01*
X106798375Y-64499871D01*
X106901166Y-64412722D01*
X106988729Y-64323468D01*
X107048429Y-64243149D01*
X107060322Y-64219389D01*
X107084210Y-64167208D01*
X107099694Y-64143179D01*
X107100343Y-64143000D01*
X107127389Y-64148883D01*
X107189034Y-64164148D01*
X107254998Y-64181100D01*
X107358005Y-64200694D01*
X107483349Y-64214444D01*
X107595080Y-64219200D01*
X107708546Y-64215798D01*
X107794999Y-64202106D01*
X107877974Y-64172887D01*
X107944326Y-64141526D01*
X108069340Y-64067707D01*
X108166296Y-63980472D01*
X108247509Y-63866554D01*
X108308530Y-63749189D01*
X108371160Y-63590144D01*
X108410370Y-63423414D01*
X108429166Y-63233287D01*
X108431898Y-63104483D01*
X108407855Y-62744906D01*
X108338251Y-62385339D01*
X108226375Y-62032658D01*
X108075516Y-61693744D01*
X107888964Y-61375476D01*
X107670007Y-61084731D01*
X107421933Y-60828390D01*
X107290504Y-60717235D01*
X107153153Y-60617461D01*
X107036388Y-60548593D01*
X106943389Y-60509818D01*
X106877339Y-60500319D01*
X106841419Y-60519280D01*
X106838810Y-60565888D01*
X106872694Y-60639326D01*
X106946253Y-60738779D01*
X106994372Y-60793129D01*
X107238484Y-61090309D01*
X107456958Y-61423804D01*
X107644531Y-61783398D01*
X107795940Y-62158871D01*
X107905924Y-62540006D01*
X107915064Y-62580900D01*
X107937286Y-62712501D01*
X107954261Y-62870662D01*
X107965457Y-63041428D01*
X107970342Y-63210842D01*
X107968384Y-63364952D01*
X107959050Y-63489802D01*
X107951517Y-63536578D01*
X107899113Y-63702602D01*
X107820115Y-63833493D01*
X107718007Y-63924267D01*
X107660862Y-63952489D01*
X107539234Y-63980419D01*
X107415267Y-63977822D01*
X107306978Y-63946248D01*
X107261986Y-63918199D01*
X107237430Y-63896557D01*
X107223399Y-63872971D01*
X107219448Y-63836655D01*
X107225132Y-63776824D01*
X107240005Y-63682692D01*
X107249874Y-63624530D01*
X107269453Y-63478347D01*
X107279926Y-63352420D01*
X106791820Y-63352420D01*
X106782564Y-63435565D01*
X106763710Y-63468885D01*
X106750008Y-63466443D01*
X106725703Y-63439385D01*
X106681969Y-63380201D01*
X106626610Y-63299650D01*
X106602119Y-63262570D01*
X106463803Y-63015815D01*
X106370160Y-62764941D01*
X106347081Y-62674491D01*
X106333088Y-62585644D01*
X106323577Y-62470568D01*
X106318572Y-62341860D01*
X106318099Y-62212120D01*
X106322181Y-62093946D01*
X106330843Y-61999936D01*
X106344110Y-61942689D01*
X106345649Y-61939550D01*
X106394916Y-61893068D01*
X106460531Y-61885626D01*
X106525175Y-61918220D01*
X106535556Y-61928620D01*
X106583889Y-62006640D01*
X106630657Y-62128817D01*
X106674387Y-62288508D01*
X106713605Y-62479070D01*
X106746836Y-62693859D01*
X106772606Y-62926233D01*
X106781522Y-63036822D01*
X106791473Y-63219492D01*
X106791820Y-63352420D01*
X107279926Y-63352420D01*
X107283465Y-63309883D01*
X107291711Y-63131596D01*
X107293996Y-62955941D01*
X107290121Y-62795375D01*
X107279889Y-62662353D01*
X107266405Y-62581699D01*
X107186698Y-62351956D01*
X107067609Y-62141485D01*
X106915237Y-61958164D01*
X106735681Y-61809872D01*
X106614468Y-61739516D01*
X106513883Y-61692306D01*
X106439370Y-61665966D01*
X106372942Y-61656077D01*
X106296611Y-61658219D01*
X106286748Y-61659007D01*
X106180052Y-61676347D01*
X106105394Y-61711163D01*
X106079791Y-61732105D01*
X105999185Y-61833544D01*
X105929824Y-61970351D01*
X105877216Y-62127421D01*
X105846868Y-62289647D01*
X105841642Y-62385300D01*
X105865601Y-62606711D01*
X105933141Y-62840408D01*
X106040756Y-63079616D01*
X106184939Y-63317560D01*
X106362182Y-63547465D01*
X106540680Y-63735797D01*
X106711957Y-63900094D01*
X106663929Y-63989392D01*
X106583423Y-64088241D01*
X106469672Y-64157781D01*
X106332225Y-64196076D01*
X106180630Y-64201190D01*
X106024436Y-64171188D01*
X105935657Y-64137008D01*
X105752326Y-64026031D01*
X105578240Y-63869951D01*
X105417065Y-63674156D01*
X105272469Y-63444038D01*
X105148120Y-63184984D01*
X105047685Y-62902385D01*
X105015076Y-62784150D01*
X104939315Y-62406296D01*
X104904602Y-62036560D01*
X104910191Y-61679011D01*
X104955335Y-61337718D01*
X105039284Y-61016753D01*
X105161293Y-60720185D01*
X105320612Y-60452083D01*
X105479656Y-60255164D01*
X105555365Y-60171168D01*
X105598891Y-60116035D01*
X105614373Y-60083114D01*
X105605952Y-60065754D01*
X105599505Y-60062633D01*
X105532722Y-60062149D01*
X105443851Y-60098224D01*
G36*
X111656501Y-62226660D02*
G01*
X111634919Y-62272399D01*
X111632086Y-62307052D01*
X111615652Y-62369952D01*
X111560300Y-62423076D01*
X111549536Y-62430164D01*
X111407639Y-62504245D01*
X111238857Y-62566451D01*
X111133486Y-62594410D01*
X111016685Y-62620585D01*
X110880312Y-62491609D01*
X110758626Y-62389026D01*
X110647165Y-62325343D01*
X110532708Y-62294392D01*
X110445766Y-62288894D01*
X110309133Y-62309392D01*
X110203450Y-62369625D01*
X110130042Y-62468066D01*
X110090233Y-62603184D01*
X110083000Y-62707928D01*
X110086341Y-62795866D01*
X110101547Y-62854365D01*
X110136395Y-62904622D01*
X110166888Y-62936567D01*
X110270023Y-63010413D01*
X110406115Y-63065687D01*
X110559013Y-63096805D01*
X110644306Y-63101600D01*
X110764591Y-63101600D01*
X110790238Y-63222250D01*
X110822664Y-63397399D01*
X110846897Y-63583276D01*
X110863717Y-63789657D01*
X110873904Y-64026315D01*
X110878240Y-64303025D01*
X110878350Y-64325419D01*
X110880701Y-64876138D01*
X110940246Y-64903269D01*
X110997384Y-64924452D01*
X111046466Y-64924827D01*
X111105405Y-64901402D01*
X111169164Y-64865032D01*
X111252921Y-64803550D01*
X111315825Y-64728122D01*
X111360286Y-64631493D01*
X111388713Y-64506407D01*
X111403515Y-64345608D01*
X111407132Y-64148288D01*
X111396042Y-63883173D01*
X111366632Y-63617352D01*
X111321374Y-63368650D01*
X111274331Y-63190500D01*
X111249385Y-63108331D01*
X111232007Y-63046461D01*
X111226328Y-63020680D01*
X111247124Y-63001504D01*
X111302117Y-62967526D01*
X111379690Y-62925886D01*
X111384750Y-62923330D01*
X111547586Y-62825364D01*
X111673560Y-62715887D01*
X111727355Y-62642730D01*
X110641800Y-62642730D01*
X110620220Y-62663717D01*
X110565425Y-62668475D01*
X110492337Y-62657011D01*
X110446651Y-62642632D01*
X110354278Y-62595681D01*
X110309124Y-62543937D01*
X110312968Y-62489451D01*
X110313311Y-62488802D01*
X110357420Y-62451883D01*
X110422472Y-62447306D01*
X110495938Y-62469200D01*
X110565289Y-62511694D01*
X110617996Y-62568917D01*
X110641531Y-62634998D01*
X110641800Y-62642730D01*
X111727355Y-62642730D01*
X111759142Y-62599503D01*
X111800805Y-62480818D01*
X111799216Y-62382394D01*
X111772100Y-62300330D01*
X111733602Y-62244462D01*
X111692232Y-62218627D01*
X111656501Y-62226660D01*
G37*
X111656501Y-62226660D02*
X111634919Y-62272399D01*
X111632086Y-62307052D01*
X111615652Y-62369952D01*
X111560300Y-62423076D01*
X111549536Y-62430164D01*
X111407639Y-62504245D01*
X111238857Y-62566451D01*
X111133486Y-62594410D01*
X111016685Y-62620585D01*
X110880312Y-62491609D01*
X110758626Y-62389026D01*
X110647165Y-62325343D01*
X110532708Y-62294392D01*
X110445766Y-62288894D01*
X110309133Y-62309392D01*
X110203450Y-62369625D01*
X110130042Y-62468066D01*
X110090233Y-62603184D01*
X110083000Y-62707928D01*
X110086341Y-62795866D01*
X110101547Y-62854365D01*
X110136395Y-62904622D01*
X110166888Y-62936567D01*
X110270023Y-63010413D01*
X110406115Y-63065687D01*
X110559013Y-63096805D01*
X110644306Y-63101600D01*
X110764591Y-63101600D01*
X110790238Y-63222250D01*
X110822664Y-63397399D01*
X110846897Y-63583276D01*
X110863717Y-63789657D01*
X110873904Y-64026315D01*
X110878240Y-64303025D01*
X110878350Y-64325419D01*
X110880701Y-64876138D01*
X110940246Y-64903269D01*
X110997384Y-64924452D01*
X111046466Y-64924827D01*
X111105405Y-64901402D01*
X111169164Y-64865032D01*
X111252921Y-64803550D01*
X111315825Y-64728122D01*
X111360286Y-64631493D01*
X111388713Y-64506407D01*
X111403515Y-64345608D01*
X111407132Y-64148288D01*
X111396042Y-63883173D01*
X111366632Y-63617352D01*
X111321374Y-63368650D01*
X111274331Y-63190500D01*
X111249385Y-63108331D01*
X111232007Y-63046461D01*
X111226328Y-63020680D01*
X111247124Y-63001504D01*
X111302117Y-62967526D01*
X111379690Y-62925886D01*
X111384750Y-62923330D01*
X111547586Y-62825364D01*
X111673560Y-62715887D01*
X111727355Y-62642730D01*
X110641800Y-62642730D01*
X110620220Y-62663717D01*
X110565425Y-62668475D01*
X110492337Y-62657011D01*
X110446651Y-62642632D01*
X110354278Y-62595681D01*
X110309124Y-62543937D01*
X110312968Y-62489451D01*
X110313311Y-62488802D01*
X110357420Y-62451883D01*
X110422472Y-62447306D01*
X110495938Y-62469200D01*
X110565289Y-62511694D01*
X110617996Y-62568917D01*
X110641531Y-62634998D01*
X110641800Y-62642730D01*
X111727355Y-62642730D01*
X111759142Y-62599503D01*
X111800805Y-62480818D01*
X111799216Y-62382394D01*
X111772100Y-62300330D01*
X111733602Y-62244462D01*
X111692232Y-62218627D01*
X111656501Y-62226660D01*
G36*
X116126862Y-60348795D02*
G01*
X115987257Y-60382012D01*
X115928825Y-60406618D01*
X115809673Y-60482726D01*
X115690324Y-60583504D01*
X115588614Y-60692683D01*
X115539758Y-60761530D01*
X115504385Y-60820101D01*
X115481917Y-60856743D01*
X115478820Y-60861553D01*
X115453611Y-60859284D01*
X115393940Y-60845373D01*
X115330486Y-60827900D01*
X115107815Y-60785332D01*
X114900375Y-60789877D01*
X114711391Y-60840007D01*
X114544088Y-60934192D01*
X114401691Y-61070906D01*
X114287425Y-61248620D01*
X114245937Y-61341829D01*
X114212856Y-61460811D01*
X114189476Y-61616949D01*
X114176234Y-61797455D01*
X114173564Y-61989538D01*
X114181899Y-62180407D01*
X114201675Y-62357273D01*
X114209807Y-62405170D01*
X114287528Y-62725242D01*
X114399868Y-63048056D01*
X114540286Y-63357837D01*
X114702241Y-63638806D01*
X114751284Y-63711200D01*
X114862257Y-63855191D01*
X114990149Y-63998600D01*
X115127566Y-64135038D01*
X115267114Y-64258120D01*
X115401397Y-64361457D01*
X115523020Y-64438662D01*
X115624589Y-64483348D01*
X115652864Y-64489938D01*
X115725831Y-64494218D01*
X115760465Y-64475811D01*
X115756395Y-64432638D01*
X115713250Y-64362617D01*
X115630658Y-64263671D01*
X115608025Y-64238759D01*
X115406778Y-63994864D01*
X115215216Y-63715604D01*
X115042415Y-63416410D01*
X114897450Y-63112714D01*
X114808296Y-62878920D01*
X114731738Y-62614726D01*
X114674518Y-62343588D01*
X114637797Y-62076236D01*
X114622738Y-61823400D01*
X114630502Y-61595811D01*
X114652935Y-61443719D01*
X114700607Y-61302372D01*
X114775226Y-61179966D01*
X114868272Y-61088221D01*
X114940376Y-61048301D01*
X115045393Y-61027040D01*
X115160934Y-61032058D01*
X115265370Y-61060888D01*
X115317091Y-61091261D01*
X115345205Y-61117637D01*
X115358794Y-61147803D01*
X115359458Y-61195550D01*
X115348797Y-61274670D01*
X115342721Y-61312119D01*
X115331064Y-61403344D01*
X115319371Y-61530236D01*
X115308830Y-61677677D01*
X115300624Y-61830548D01*
X115299005Y-61869700D01*
X115294954Y-62087517D01*
X115302636Y-62266948D01*
X115323986Y-62419451D01*
X115360942Y-62556486D01*
X115415439Y-62689513D01*
X115448805Y-62756083D01*
X115556200Y-62922533D01*
X115689918Y-63070741D01*
X115841190Y-63194354D01*
X116001248Y-63287017D01*
X116161321Y-63342379D01*
X116276311Y-63355600D01*
X116357431Y-63352886D01*
X116412910Y-63338695D01*
X116462881Y-63303951D01*
X116522785Y-63244474D01*
X116620276Y-63114952D01*
X116686432Y-62959308D01*
X116719574Y-62793933D01*
X116266874Y-62793933D01*
X116262766Y-62916452D01*
X116252090Y-63012877D01*
X116235257Y-63069850D01*
X116184206Y-63116967D01*
X116119456Y-63124094D01*
X116058590Y-63091269D01*
X116040853Y-63069434D01*
X115980756Y-62949485D01*
X115927098Y-62786287D01*
X115881345Y-62587146D01*
X115844960Y-62359370D01*
X115819409Y-62110264D01*
X115808012Y-61907800D01*
X115793644Y-61514100D01*
X115883639Y-61615700D01*
X115959843Y-61718311D01*
X116040134Y-61854022D01*
X116116369Y-62006628D01*
X116180406Y-62159923D01*
X116221849Y-62288800D01*
X116241902Y-62392751D01*
X116256231Y-62519787D01*
X116264626Y-62657612D01*
X116266874Y-62793933D01*
X116719574Y-62793933D01*
X116724530Y-62769208D01*
X116729826Y-62717952D01*
X116725326Y-62493428D01*
X116675453Y-62257541D01*
X116582789Y-62015686D01*
X116449915Y-61773259D01*
X116279415Y-61535657D01*
X116073870Y-61308275D01*
X116038841Y-61274102D01*
X115868085Y-61110305D01*
X115914244Y-61024592D01*
X115995509Y-60925210D01*
X116113204Y-60853126D01*
X116258287Y-60812984D01*
X116339152Y-60806323D01*
X116512502Y-60825387D01*
X116682237Y-60891109D01*
X116851053Y-61004869D01*
X117000658Y-61145464D01*
X117188960Y-61376240D01*
X117346393Y-61637955D01*
X117474938Y-61934704D01*
X117576575Y-62270583D01*
X117605856Y-62396746D01*
X117633226Y-62559854D01*
X117652673Y-62751135D01*
X117664100Y-62958357D01*
X117667408Y-63169291D01*
X117662500Y-63371705D01*
X117649278Y-63553368D01*
X117627644Y-63702051D01*
X117616680Y-63749300D01*
X117522721Y-64048862D01*
X117410902Y-64307844D01*
X117276829Y-64534648D01*
X117116107Y-64737676D01*
X117078726Y-64777902D01*
X117000950Y-64866117D01*
X116964330Y-64924565D01*
X116968881Y-64953280D01*
X117014619Y-64952294D01*
X117101557Y-64921639D01*
X117136454Y-64906309D01*
X117255421Y-64832983D01*
X117385092Y-64719253D01*
X117519195Y-64572597D01*
X117651458Y-64400490D01*
X117775611Y-64210408D01*
X117880926Y-64018800D01*
X118029817Y-63666528D01*
X118128375Y-63307463D01*
X118176578Y-62941825D01*
X118174407Y-62569836D01*
X118121841Y-62191717D01*
X118069370Y-61973710D01*
X117960999Y-61663763D01*
X117815214Y-61374123D01*
X117636311Y-61109476D01*
X117428589Y-60874505D01*
X117196342Y-60673896D01*
X116943867Y-60512335D01*
X116675461Y-60394506D01*
X116598904Y-60370240D01*
X116450348Y-60341950D01*
X116287113Y-60335121D01*
X116126862Y-60348795D01*
G37*
X116126862Y-60348795D02*
X115987257Y-60382012D01*
X115928825Y-60406618D01*
X115809673Y-60482726D01*
X115690324Y-60583504D01*
X115588614Y-60692683D01*
X115539758Y-60761530D01*
X115504385Y-60820101D01*
X115481917Y-60856743D01*
X115478820Y-60861553D01*
X115453611Y-60859284D01*
X115393940Y-60845373D01*
X115330486Y-60827900D01*
X115107815Y-60785332D01*
X114900375Y-60789877D01*
X114711391Y-60840007D01*
X114544088Y-60934192D01*
X114401691Y-61070906D01*
X114287425Y-61248620D01*
X114245937Y-61341829D01*
X114212856Y-61460811D01*
X114189476Y-61616949D01*
X114176234Y-61797455D01*
X114173564Y-61989538D01*
X114181899Y-62180407D01*
X114201675Y-62357273D01*
X114209807Y-62405170D01*
X114287528Y-62725242D01*
X114399868Y-63048056D01*
X114540286Y-63357837D01*
X114702241Y-63638806D01*
X114751284Y-63711200D01*
X114862257Y-63855191D01*
X114990149Y-63998600D01*
X115127566Y-64135038D01*
X115267114Y-64258120D01*
X115401397Y-64361457D01*
X115523020Y-64438662D01*
X115624589Y-64483348D01*
X115652864Y-64489938D01*
X115725831Y-64494218D01*
X115760465Y-64475811D01*
X115756395Y-64432638D01*
X115713250Y-64362617D01*
X115630658Y-64263671D01*
X115608025Y-64238759D01*
X115406778Y-63994864D01*
X115215216Y-63715604D01*
X115042415Y-63416410D01*
X114897450Y-63112714D01*
X114808296Y-62878920D01*
X114731738Y-62614726D01*
X114674518Y-62343588D01*
X114637797Y-62076236D01*
X114622738Y-61823400D01*
X114630502Y-61595811D01*
X114652935Y-61443719D01*
X114700607Y-61302372D01*
X114775226Y-61179966D01*
X114868272Y-61088221D01*
X114940376Y-61048301D01*
X115045393Y-61027040D01*
X115160934Y-61032058D01*
X115265370Y-61060888D01*
X115317091Y-61091261D01*
X115345205Y-61117637D01*
X115358794Y-61147803D01*
X115359458Y-61195550D01*
X115348797Y-61274670D01*
X115342721Y-61312119D01*
X115331064Y-61403344D01*
X115319371Y-61530236D01*
X115308830Y-61677677D01*
X115300624Y-61830548D01*
X115299005Y-61869700D01*
X115294954Y-62087517D01*
X115302636Y-62266948D01*
X115323986Y-62419451D01*
X115360942Y-62556486D01*
X115415439Y-62689513D01*
X115448805Y-62756083D01*
X115556200Y-62922533D01*
X115689918Y-63070741D01*
X115841190Y-63194354D01*
X116001248Y-63287017D01*
X116161321Y-63342379D01*
X116276311Y-63355600D01*
X116357431Y-63352886D01*
X116412910Y-63338695D01*
X116462881Y-63303951D01*
X116522785Y-63244474D01*
X116620276Y-63114952D01*
X116686432Y-62959308D01*
X116719574Y-62793933D01*
X116266874Y-62793933D01*
X116262766Y-62916452D01*
X116252090Y-63012877D01*
X116235257Y-63069850D01*
X116184206Y-63116967D01*
X116119456Y-63124094D01*
X116058590Y-63091269D01*
X116040853Y-63069434D01*
X115980756Y-62949485D01*
X115927098Y-62786287D01*
X115881345Y-62587146D01*
X115844960Y-62359370D01*
X115819409Y-62110264D01*
X115808012Y-61907800D01*
X115793644Y-61514100D01*
X115883639Y-61615700D01*
X115959843Y-61718311D01*
X116040134Y-61854022D01*
X116116369Y-62006628D01*
X116180406Y-62159923D01*
X116221849Y-62288800D01*
X116241902Y-62392751D01*
X116256231Y-62519787D01*
X116264626Y-62657612D01*
X116266874Y-62793933D01*
X116719574Y-62793933D01*
X116724530Y-62769208D01*
X116729826Y-62717952D01*
X116725326Y-62493428D01*
X116675453Y-62257541D01*
X116582789Y-62015686D01*
X116449915Y-61773259D01*
X116279415Y-61535657D01*
X116073870Y-61308275D01*
X116038841Y-61274102D01*
X115868085Y-61110305D01*
X115914244Y-61024592D01*
X115995509Y-60925210D01*
X116113204Y-60853126D01*
X116258287Y-60812984D01*
X116339152Y-60806323D01*
X116512502Y-60825387D01*
X116682237Y-60891109D01*
X116851053Y-61004869D01*
X117000658Y-61145464D01*
X117188960Y-61376240D01*
X117346393Y-61637955D01*
X117474938Y-61934704D01*
X117576575Y-62270583D01*
X117605856Y-62396746D01*
X117633226Y-62559854D01*
X117652673Y-62751135D01*
X117664100Y-62958357D01*
X117667408Y-63169291D01*
X117662500Y-63371705D01*
X117649278Y-63553368D01*
X117627644Y-63702051D01*
X117616680Y-63749300D01*
X117522721Y-64048862D01*
X117410902Y-64307844D01*
X117276829Y-64534648D01*
X117116107Y-64737676D01*
X117078726Y-64777902D01*
X117000950Y-64866117D01*
X116964330Y-64924565D01*
X116968881Y-64953280D01*
X117014619Y-64952294D01*
X117101557Y-64921639D01*
X117136454Y-64906309D01*
X117255421Y-64832983D01*
X117385092Y-64719253D01*
X117519195Y-64572597D01*
X117651458Y-64400490D01*
X117775611Y-64210408D01*
X117880926Y-64018800D01*
X118029817Y-63666528D01*
X118128375Y-63307463D01*
X118176578Y-62941825D01*
X118174407Y-62569836D01*
X118121841Y-62191717D01*
X118069370Y-61973710D01*
X117960999Y-61663763D01*
X117815214Y-61374123D01*
X117636311Y-61109476D01*
X117428589Y-60874505D01*
X117196342Y-60673896D01*
X116943867Y-60512335D01*
X116675461Y-60394506D01*
X116598904Y-60370240D01*
X116450348Y-60341950D01*
X116287113Y-60335121D01*
X116126862Y-60348795D01*
G36*
X95720938Y-62453018D02*
G01*
X95714683Y-62456472D01*
X95677773Y-62504940D01*
X95660515Y-62578844D01*
X95660962Y-62625285D01*
X95673259Y-62675243D01*
X95701704Y-62738173D01*
X95750590Y-62823533D01*
X95824213Y-62940778D01*
X95826646Y-62944571D01*
X95898229Y-63058492D01*
X95963706Y-63166982D01*
X96015746Y-63257626D01*
X96046637Y-63317161D01*
X96068856Y-63380329D01*
X96089093Y-63461426D01*
X96105035Y-63546426D01*
X96114370Y-63621301D01*
X96114782Y-63672025D01*
X96107443Y-63685800D01*
X96087458Y-63667310D01*
X96041997Y-63616813D01*
X95977568Y-63541765D01*
X95900684Y-63449623D01*
X95891240Y-63438150D01*
X95696552Y-63210464D01*
X95516473Y-63018484D01*
X95352931Y-62863863D01*
X95207854Y-62748252D01*
X95083171Y-62673304D01*
X94980809Y-62640672D01*
X94959161Y-62639320D01*
X94876568Y-62651481D01*
X94803866Y-62680867D01*
X94801928Y-62682111D01*
X94730132Y-62755806D01*
X94670945Y-62868099D01*
X94626605Y-63007857D01*
X94599351Y-63163950D01*
X94591421Y-63325246D01*
X94605052Y-63480611D01*
X94624295Y-63565610D01*
X94694929Y-63729638D01*
X94807549Y-63893708D01*
X94953972Y-64049906D01*
X95126012Y-64190315D01*
X95315483Y-64307021D01*
X95458131Y-64371941D01*
X95565940Y-64408483D01*
X95671091Y-64435495D01*
X95753291Y-64447899D01*
X95762931Y-64448188D01*
X95838895Y-64453309D01*
X95895932Y-64465620D01*
X95906226Y-64470453D01*
X95925245Y-64502349D01*
X95954429Y-64576631D01*
X95991720Y-64686376D01*
X96035063Y-64824659D01*
X96082401Y-64984559D01*
X96131678Y-65159152D01*
X96180838Y-65341514D01*
X96227824Y-65524724D01*
X96265432Y-65679835D01*
X96300180Y-65824412D01*
X96328477Y-65925034D01*
X96355125Y-65987285D01*
X96384926Y-66016746D01*
X96422680Y-66019001D01*
X96473189Y-65999635D01*
X96519797Y-65975623D01*
X96619941Y-65894841D01*
X96690286Y-65779070D01*
X96726329Y-65637378D01*
X96729927Y-65552700D01*
X96719570Y-65450516D01*
X96694703Y-65311362D01*
X96658044Y-65146056D01*
X96612311Y-64965418D01*
X96560221Y-64780267D01*
X96504493Y-64601422D01*
X96455578Y-64460500D01*
X96406217Y-64325040D01*
X96372996Y-64226849D01*
X96354247Y-64155620D01*
X96348304Y-64101045D01*
X96353497Y-64052817D01*
X96368161Y-64000627D01*
X96376946Y-63974453D01*
X96377724Y-63970549D01*
X95636378Y-63970549D01*
X95550839Y-63953488D01*
X95482763Y-63933378D01*
X95391021Y-63898071D01*
X95308206Y-63861137D01*
X95143360Y-63758106D01*
X95009299Y-63625334D01*
X94911426Y-63470743D01*
X94855144Y-63302256D01*
X94843389Y-63179539D01*
X94854041Y-63085929D01*
X94885453Y-63036737D01*
X94938304Y-63032055D01*
X95013270Y-63071979D01*
X95111028Y-63156601D01*
X95178229Y-63225974D01*
X95304943Y-63381476D01*
X95424774Y-63569004D01*
X95488532Y-63685996D01*
X95636378Y-63970549D01*
X96377724Y-63970549D01*
X96412336Y-63797063D01*
X96408131Y-63598787D01*
X96366855Y-63387131D01*
X96291037Y-63169605D01*
X96183204Y-62953714D01*
X96045881Y-62746967D01*
X95909541Y-62585807D01*
X95834580Y-62508962D01*
X95783923Y-62465041D01*
X95748925Y-62448306D01*
X95720938Y-62453018D01*
G37*
X95720938Y-62453018D02*
X95714683Y-62456472D01*
X95677773Y-62504940D01*
X95660515Y-62578844D01*
X95660962Y-62625285D01*
X95673259Y-62675243D01*
X95701704Y-62738173D01*
X95750590Y-62823533D01*
X95824213Y-62940778D01*
X95826646Y-62944571D01*
X95898229Y-63058492D01*
X95963706Y-63166982D01*
X96015746Y-63257626D01*
X96046637Y-63317161D01*
X96068856Y-63380329D01*
X96089093Y-63461426D01*
X96105035Y-63546426D01*
X96114370Y-63621301D01*
X96114782Y-63672025D01*
X96107443Y-63685800D01*
X96087458Y-63667310D01*
X96041997Y-63616813D01*
X95977568Y-63541765D01*
X95900684Y-63449623D01*
X95891240Y-63438150D01*
X95696552Y-63210464D01*
X95516473Y-63018484D01*
X95352931Y-62863863D01*
X95207854Y-62748252D01*
X95083171Y-62673304D01*
X94980809Y-62640672D01*
X94959161Y-62639320D01*
X94876568Y-62651481D01*
X94803866Y-62680867D01*
X94801928Y-62682111D01*
X94730132Y-62755806D01*
X94670945Y-62868099D01*
X94626605Y-63007857D01*
X94599351Y-63163950D01*
X94591421Y-63325246D01*
X94605052Y-63480611D01*
X94624295Y-63565610D01*
X94694929Y-63729638D01*
X94807549Y-63893708D01*
X94953972Y-64049906D01*
X95126012Y-64190315D01*
X95315483Y-64307021D01*
X95458131Y-64371941D01*
X95565940Y-64408483D01*
X95671091Y-64435495D01*
X95753291Y-64447899D01*
X95762931Y-64448188D01*
X95838895Y-64453309D01*
X95895932Y-64465620D01*
X95906226Y-64470453D01*
X95925245Y-64502349D01*
X95954429Y-64576631D01*
X95991720Y-64686376D01*
X96035063Y-64824659D01*
X96082401Y-64984559D01*
X96131678Y-65159152D01*
X96180838Y-65341514D01*
X96227824Y-65524724D01*
X96265432Y-65679835D01*
X96300180Y-65824412D01*
X96328477Y-65925034D01*
X96355125Y-65987285D01*
X96384926Y-66016746D01*
X96422680Y-66019001D01*
X96473189Y-65999635D01*
X96519797Y-65975623D01*
X96619941Y-65894841D01*
X96690286Y-65779070D01*
X96726329Y-65637378D01*
X96729927Y-65552700D01*
X96719570Y-65450516D01*
X96694703Y-65311362D01*
X96658044Y-65146056D01*
X96612311Y-64965418D01*
X96560221Y-64780267D01*
X96504493Y-64601422D01*
X96455578Y-64460500D01*
X96406217Y-64325040D01*
X96372996Y-64226849D01*
X96354247Y-64155620D01*
X96348304Y-64101045D01*
X96353497Y-64052817D01*
X96368161Y-64000627D01*
X96376946Y-63974453D01*
X96377724Y-63970549D01*
X95636378Y-63970549D01*
X95550839Y-63953488D01*
X95482763Y-63933378D01*
X95391021Y-63898071D01*
X95308206Y-63861137D01*
X95143360Y-63758106D01*
X95009299Y-63625334D01*
X94911426Y-63470743D01*
X94855144Y-63302256D01*
X94843389Y-63179539D01*
X94854041Y-63085929D01*
X94885453Y-63036737D01*
X94938304Y-63032055D01*
X95013270Y-63071979D01*
X95111028Y-63156601D01*
X95178229Y-63225974D01*
X95304943Y-63381476D01*
X95424774Y-63569004D01*
X95488532Y-63685996D01*
X95636378Y-63970549D01*
X96377724Y-63970549D01*
X96412336Y-63797063D01*
X96408131Y-63598787D01*
X96366855Y-63387131D01*
X96291037Y-63169605D01*
X96183204Y-62953714D01*
X96045881Y-62746967D01*
X95909541Y-62585807D01*
X95834580Y-62508962D01*
X95783923Y-62465041D01*
X95748925Y-62448306D01*
X95720938Y-62453018D01*
%TD*%
M02*
