%TF.GenerationSoftware,KiCad,Pcbnew,(5.1.7-0-10_14)*%
%TF.CreationDate,2020-10-16T13:11:49+02:00*%
%TF.ProjectId,32Bit shift register,33324269-7420-4736-9869-667420726567,rev?*%
%TF.SameCoordinates,Original*%
%TF.FileFunction,Paste,Top*%
%TF.FilePolarity,Positive*%
%FSLAX46Y46*%
G04 Gerber Fmt 4.6, Leading zero omitted, Abs format (unit mm)*
G04 Created by KiCad (PCBNEW (5.1.7-0-10_14)) date 2020-10-16 13:11:49*
%MOMM*%
%LPD*%
G01*
G04 APERTURE LIST*
G04 APERTURE END LIST*
%TO.C,R32*%
G36*
G01*
X151580001Y-62100000D02*
X150679999Y-62100000D01*
G75*
G02*
X150430000Y-61850001I0J249999D01*
G01*
X150430000Y-61149999D01*
G75*
G02*
X150679999Y-60900000I249999J0D01*
G01*
X151580001Y-60900000D01*
G75*
G02*
X151830000Y-61149999I0J-249999D01*
G01*
X151830000Y-61850001D01*
G75*
G02*
X151580001Y-62100000I-249999J0D01*
G01*
G37*
G36*
G01*
X151580001Y-64100000D02*
X150679999Y-64100000D01*
G75*
G02*
X150430000Y-63850001I0J249999D01*
G01*
X150430000Y-63149999D01*
G75*
G02*
X150679999Y-62900000I249999J0D01*
G01*
X151580001Y-62900000D01*
G75*
G02*
X151830000Y-63149999I0J-249999D01*
G01*
X151830000Y-63850001D01*
G75*
G02*
X151580001Y-64100000I-249999J0D01*
G01*
G37*
%TD*%
%TO.C,R31*%
G36*
G01*
X149040001Y-62100000D02*
X148139999Y-62100000D01*
G75*
G02*
X147890000Y-61850001I0J249999D01*
G01*
X147890000Y-61149999D01*
G75*
G02*
X148139999Y-60900000I249999J0D01*
G01*
X149040001Y-60900000D01*
G75*
G02*
X149290000Y-61149999I0J-249999D01*
G01*
X149290000Y-61850001D01*
G75*
G02*
X149040001Y-62100000I-249999J0D01*
G01*
G37*
G36*
G01*
X149040001Y-64100000D02*
X148139999Y-64100000D01*
G75*
G02*
X147890000Y-63850001I0J249999D01*
G01*
X147890000Y-63149999D01*
G75*
G02*
X148139999Y-62900000I249999J0D01*
G01*
X149040001Y-62900000D01*
G75*
G02*
X149290000Y-63149999I0J-249999D01*
G01*
X149290000Y-63850001D01*
G75*
G02*
X149040001Y-64100000I-249999J0D01*
G01*
G37*
%TD*%
%TO.C,R30*%
G36*
G01*
X146500001Y-62100000D02*
X145599999Y-62100000D01*
G75*
G02*
X145350000Y-61850001I0J249999D01*
G01*
X145350000Y-61149999D01*
G75*
G02*
X145599999Y-60900000I249999J0D01*
G01*
X146500001Y-60900000D01*
G75*
G02*
X146750000Y-61149999I0J-249999D01*
G01*
X146750000Y-61850001D01*
G75*
G02*
X146500001Y-62100000I-249999J0D01*
G01*
G37*
G36*
G01*
X146500001Y-64100000D02*
X145599999Y-64100000D01*
G75*
G02*
X145350000Y-63850001I0J249999D01*
G01*
X145350000Y-63149999D01*
G75*
G02*
X145599999Y-62900000I249999J0D01*
G01*
X146500001Y-62900000D01*
G75*
G02*
X146750000Y-63149999I0J-249999D01*
G01*
X146750000Y-63850001D01*
G75*
G02*
X146500001Y-64100000I-249999J0D01*
G01*
G37*
%TD*%
%TO.C,R29*%
G36*
G01*
X143960001Y-62100000D02*
X143059999Y-62100000D01*
G75*
G02*
X142810000Y-61850001I0J249999D01*
G01*
X142810000Y-61149999D01*
G75*
G02*
X143059999Y-60900000I249999J0D01*
G01*
X143960001Y-60900000D01*
G75*
G02*
X144210000Y-61149999I0J-249999D01*
G01*
X144210000Y-61850001D01*
G75*
G02*
X143960001Y-62100000I-249999J0D01*
G01*
G37*
G36*
G01*
X143960001Y-64100000D02*
X143059999Y-64100000D01*
G75*
G02*
X142810000Y-63850001I0J249999D01*
G01*
X142810000Y-63149999D01*
G75*
G02*
X143059999Y-62900000I249999J0D01*
G01*
X143960001Y-62900000D01*
G75*
G02*
X144210000Y-63149999I0J-249999D01*
G01*
X144210000Y-63850001D01*
G75*
G02*
X143960001Y-64100000I-249999J0D01*
G01*
G37*
%TD*%
%TO.C,R28*%
G36*
G01*
X141420001Y-62100000D02*
X140519999Y-62100000D01*
G75*
G02*
X140270000Y-61850001I0J249999D01*
G01*
X140270000Y-61149999D01*
G75*
G02*
X140519999Y-60900000I249999J0D01*
G01*
X141420001Y-60900000D01*
G75*
G02*
X141670000Y-61149999I0J-249999D01*
G01*
X141670000Y-61850001D01*
G75*
G02*
X141420001Y-62100000I-249999J0D01*
G01*
G37*
G36*
G01*
X141420001Y-64100000D02*
X140519999Y-64100000D01*
G75*
G02*
X140270000Y-63850001I0J249999D01*
G01*
X140270000Y-63149999D01*
G75*
G02*
X140519999Y-62900000I249999J0D01*
G01*
X141420001Y-62900000D01*
G75*
G02*
X141670000Y-63149999I0J-249999D01*
G01*
X141670000Y-63850001D01*
G75*
G02*
X141420001Y-64100000I-249999J0D01*
G01*
G37*
%TD*%
%TO.C,R27*%
G36*
G01*
X138880001Y-62100000D02*
X137979999Y-62100000D01*
G75*
G02*
X137730000Y-61850001I0J249999D01*
G01*
X137730000Y-61149999D01*
G75*
G02*
X137979999Y-60900000I249999J0D01*
G01*
X138880001Y-60900000D01*
G75*
G02*
X139130000Y-61149999I0J-249999D01*
G01*
X139130000Y-61850001D01*
G75*
G02*
X138880001Y-62100000I-249999J0D01*
G01*
G37*
G36*
G01*
X138880001Y-64100000D02*
X137979999Y-64100000D01*
G75*
G02*
X137730000Y-63850001I0J249999D01*
G01*
X137730000Y-63149999D01*
G75*
G02*
X137979999Y-62900000I249999J0D01*
G01*
X138880001Y-62900000D01*
G75*
G02*
X139130000Y-63149999I0J-249999D01*
G01*
X139130000Y-63850001D01*
G75*
G02*
X138880001Y-64100000I-249999J0D01*
G01*
G37*
%TD*%
%TO.C,R26*%
G36*
G01*
X136340001Y-62100000D02*
X135439999Y-62100000D01*
G75*
G02*
X135190000Y-61850001I0J249999D01*
G01*
X135190000Y-61149999D01*
G75*
G02*
X135439999Y-60900000I249999J0D01*
G01*
X136340001Y-60900000D01*
G75*
G02*
X136590000Y-61149999I0J-249999D01*
G01*
X136590000Y-61850001D01*
G75*
G02*
X136340001Y-62100000I-249999J0D01*
G01*
G37*
G36*
G01*
X136340001Y-64100000D02*
X135439999Y-64100000D01*
G75*
G02*
X135190000Y-63850001I0J249999D01*
G01*
X135190000Y-63149999D01*
G75*
G02*
X135439999Y-62900000I249999J0D01*
G01*
X136340001Y-62900000D01*
G75*
G02*
X136590000Y-63149999I0J-249999D01*
G01*
X136590000Y-63850001D01*
G75*
G02*
X136340001Y-64100000I-249999J0D01*
G01*
G37*
%TD*%
%TO.C,R25*%
G36*
G01*
X133800001Y-62100000D02*
X132899999Y-62100000D01*
G75*
G02*
X132650000Y-61850001I0J249999D01*
G01*
X132650000Y-61149999D01*
G75*
G02*
X132899999Y-60900000I249999J0D01*
G01*
X133800001Y-60900000D01*
G75*
G02*
X134050000Y-61149999I0J-249999D01*
G01*
X134050000Y-61850001D01*
G75*
G02*
X133800001Y-62100000I-249999J0D01*
G01*
G37*
G36*
G01*
X133800001Y-64100000D02*
X132899999Y-64100000D01*
G75*
G02*
X132650000Y-63850001I0J249999D01*
G01*
X132650000Y-63149999D01*
G75*
G02*
X132899999Y-62900000I249999J0D01*
G01*
X133800001Y-62900000D01*
G75*
G02*
X134050000Y-63149999I0J-249999D01*
G01*
X134050000Y-63850001D01*
G75*
G02*
X133800001Y-64100000I-249999J0D01*
G01*
G37*
%TD*%
%TO.C,R24*%
G36*
G01*
X127450001Y-62100000D02*
X126549999Y-62100000D01*
G75*
G02*
X126300000Y-61850001I0J249999D01*
G01*
X126300000Y-61149999D01*
G75*
G02*
X126549999Y-60900000I249999J0D01*
G01*
X127450001Y-60900000D01*
G75*
G02*
X127700000Y-61149999I0J-249999D01*
G01*
X127700000Y-61850001D01*
G75*
G02*
X127450001Y-62100000I-249999J0D01*
G01*
G37*
G36*
G01*
X127450001Y-64100000D02*
X126549999Y-64100000D01*
G75*
G02*
X126300000Y-63850001I0J249999D01*
G01*
X126300000Y-63149999D01*
G75*
G02*
X126549999Y-62900000I249999J0D01*
G01*
X127450001Y-62900000D01*
G75*
G02*
X127700000Y-63149999I0J-249999D01*
G01*
X127700000Y-63850001D01*
G75*
G02*
X127450001Y-64100000I-249999J0D01*
G01*
G37*
%TD*%
%TO.C,R23*%
G36*
G01*
X124910001Y-62100000D02*
X124009999Y-62100000D01*
G75*
G02*
X123760000Y-61850001I0J249999D01*
G01*
X123760000Y-61149999D01*
G75*
G02*
X124009999Y-60900000I249999J0D01*
G01*
X124910001Y-60900000D01*
G75*
G02*
X125160000Y-61149999I0J-249999D01*
G01*
X125160000Y-61850001D01*
G75*
G02*
X124910001Y-62100000I-249999J0D01*
G01*
G37*
G36*
G01*
X124910001Y-64100000D02*
X124009999Y-64100000D01*
G75*
G02*
X123760000Y-63850001I0J249999D01*
G01*
X123760000Y-63149999D01*
G75*
G02*
X124009999Y-62900000I249999J0D01*
G01*
X124910001Y-62900000D01*
G75*
G02*
X125160000Y-63149999I0J-249999D01*
G01*
X125160000Y-63850001D01*
G75*
G02*
X124910001Y-64100000I-249999J0D01*
G01*
G37*
%TD*%
%TO.C,R22*%
G36*
G01*
X122370001Y-62100000D02*
X121469999Y-62100000D01*
G75*
G02*
X121220000Y-61850001I0J249999D01*
G01*
X121220000Y-61149999D01*
G75*
G02*
X121469999Y-60900000I249999J0D01*
G01*
X122370001Y-60900000D01*
G75*
G02*
X122620000Y-61149999I0J-249999D01*
G01*
X122620000Y-61850001D01*
G75*
G02*
X122370001Y-62100000I-249999J0D01*
G01*
G37*
G36*
G01*
X122370001Y-64100000D02*
X121469999Y-64100000D01*
G75*
G02*
X121220000Y-63850001I0J249999D01*
G01*
X121220000Y-63149999D01*
G75*
G02*
X121469999Y-62900000I249999J0D01*
G01*
X122370001Y-62900000D01*
G75*
G02*
X122620000Y-63149999I0J-249999D01*
G01*
X122620000Y-63850001D01*
G75*
G02*
X122370001Y-64100000I-249999J0D01*
G01*
G37*
%TD*%
%TO.C,R21*%
G36*
G01*
X119830001Y-62100000D02*
X118929999Y-62100000D01*
G75*
G02*
X118680000Y-61850001I0J249999D01*
G01*
X118680000Y-61149999D01*
G75*
G02*
X118929999Y-60900000I249999J0D01*
G01*
X119830001Y-60900000D01*
G75*
G02*
X120080000Y-61149999I0J-249999D01*
G01*
X120080000Y-61850001D01*
G75*
G02*
X119830001Y-62100000I-249999J0D01*
G01*
G37*
G36*
G01*
X119830001Y-64100000D02*
X118929999Y-64100000D01*
G75*
G02*
X118680000Y-63850001I0J249999D01*
G01*
X118680000Y-63149999D01*
G75*
G02*
X118929999Y-62900000I249999J0D01*
G01*
X119830001Y-62900000D01*
G75*
G02*
X120080000Y-63149999I0J-249999D01*
G01*
X120080000Y-63850001D01*
G75*
G02*
X119830001Y-64100000I-249999J0D01*
G01*
G37*
%TD*%
%TO.C,R20*%
G36*
G01*
X117290001Y-62100000D02*
X116389999Y-62100000D01*
G75*
G02*
X116140000Y-61850001I0J249999D01*
G01*
X116140000Y-61149999D01*
G75*
G02*
X116389999Y-60900000I249999J0D01*
G01*
X117290001Y-60900000D01*
G75*
G02*
X117540000Y-61149999I0J-249999D01*
G01*
X117540000Y-61850001D01*
G75*
G02*
X117290001Y-62100000I-249999J0D01*
G01*
G37*
G36*
G01*
X117290001Y-64100000D02*
X116389999Y-64100000D01*
G75*
G02*
X116140000Y-63850001I0J249999D01*
G01*
X116140000Y-63149999D01*
G75*
G02*
X116389999Y-62900000I249999J0D01*
G01*
X117290001Y-62900000D01*
G75*
G02*
X117540000Y-63149999I0J-249999D01*
G01*
X117540000Y-63850001D01*
G75*
G02*
X117290001Y-64100000I-249999J0D01*
G01*
G37*
%TD*%
%TO.C,R19*%
G36*
G01*
X114750001Y-62100000D02*
X113849999Y-62100000D01*
G75*
G02*
X113600000Y-61850001I0J249999D01*
G01*
X113600000Y-61149999D01*
G75*
G02*
X113849999Y-60900000I249999J0D01*
G01*
X114750001Y-60900000D01*
G75*
G02*
X115000000Y-61149999I0J-249999D01*
G01*
X115000000Y-61850001D01*
G75*
G02*
X114750001Y-62100000I-249999J0D01*
G01*
G37*
G36*
G01*
X114750001Y-64100000D02*
X113849999Y-64100000D01*
G75*
G02*
X113600000Y-63850001I0J249999D01*
G01*
X113600000Y-63149999D01*
G75*
G02*
X113849999Y-62900000I249999J0D01*
G01*
X114750001Y-62900000D01*
G75*
G02*
X115000000Y-63149999I0J-249999D01*
G01*
X115000000Y-63850001D01*
G75*
G02*
X114750001Y-64100000I-249999J0D01*
G01*
G37*
%TD*%
%TO.C,R18*%
G36*
G01*
X112210001Y-62100000D02*
X111309999Y-62100000D01*
G75*
G02*
X111060000Y-61850001I0J249999D01*
G01*
X111060000Y-61149999D01*
G75*
G02*
X111309999Y-60900000I249999J0D01*
G01*
X112210001Y-60900000D01*
G75*
G02*
X112460000Y-61149999I0J-249999D01*
G01*
X112460000Y-61850001D01*
G75*
G02*
X112210001Y-62100000I-249999J0D01*
G01*
G37*
G36*
G01*
X112210001Y-64100000D02*
X111309999Y-64100000D01*
G75*
G02*
X111060000Y-63850001I0J249999D01*
G01*
X111060000Y-63149999D01*
G75*
G02*
X111309999Y-62900000I249999J0D01*
G01*
X112210001Y-62900000D01*
G75*
G02*
X112460000Y-63149999I0J-249999D01*
G01*
X112460000Y-63850001D01*
G75*
G02*
X112210001Y-64100000I-249999J0D01*
G01*
G37*
%TD*%
%TO.C,R17*%
G36*
G01*
X109670001Y-62100000D02*
X108769999Y-62100000D01*
G75*
G02*
X108520000Y-61850001I0J249999D01*
G01*
X108520000Y-61149999D01*
G75*
G02*
X108769999Y-60900000I249999J0D01*
G01*
X109670001Y-60900000D01*
G75*
G02*
X109920000Y-61149999I0J-249999D01*
G01*
X109920000Y-61850001D01*
G75*
G02*
X109670001Y-62100000I-249999J0D01*
G01*
G37*
G36*
G01*
X109670001Y-64100000D02*
X108769999Y-64100000D01*
G75*
G02*
X108520000Y-63850001I0J249999D01*
G01*
X108520000Y-63149999D01*
G75*
G02*
X108769999Y-62900000I249999J0D01*
G01*
X109670001Y-62900000D01*
G75*
G02*
X109920000Y-63149999I0J-249999D01*
G01*
X109920000Y-63850001D01*
G75*
G02*
X109670001Y-64100000I-249999J0D01*
G01*
G37*
%TD*%
%TO.C,R16*%
G36*
G01*
X103320001Y-62100000D02*
X102419999Y-62100000D01*
G75*
G02*
X102170000Y-61850001I0J249999D01*
G01*
X102170000Y-61149999D01*
G75*
G02*
X102419999Y-60900000I249999J0D01*
G01*
X103320001Y-60900000D01*
G75*
G02*
X103570000Y-61149999I0J-249999D01*
G01*
X103570000Y-61850001D01*
G75*
G02*
X103320001Y-62100000I-249999J0D01*
G01*
G37*
G36*
G01*
X103320001Y-64100000D02*
X102419999Y-64100000D01*
G75*
G02*
X102170000Y-63850001I0J249999D01*
G01*
X102170000Y-63149999D01*
G75*
G02*
X102419999Y-62900000I249999J0D01*
G01*
X103320001Y-62900000D01*
G75*
G02*
X103570000Y-63149999I0J-249999D01*
G01*
X103570000Y-63850001D01*
G75*
G02*
X103320001Y-64100000I-249999J0D01*
G01*
G37*
%TD*%
%TO.C,R15*%
G36*
G01*
X100780001Y-62100000D02*
X99879999Y-62100000D01*
G75*
G02*
X99630000Y-61850001I0J249999D01*
G01*
X99630000Y-61149999D01*
G75*
G02*
X99879999Y-60900000I249999J0D01*
G01*
X100780001Y-60900000D01*
G75*
G02*
X101030000Y-61149999I0J-249999D01*
G01*
X101030000Y-61850001D01*
G75*
G02*
X100780001Y-62100000I-249999J0D01*
G01*
G37*
G36*
G01*
X100780001Y-64100000D02*
X99879999Y-64100000D01*
G75*
G02*
X99630000Y-63850001I0J249999D01*
G01*
X99630000Y-63149999D01*
G75*
G02*
X99879999Y-62900000I249999J0D01*
G01*
X100780001Y-62900000D01*
G75*
G02*
X101030000Y-63149999I0J-249999D01*
G01*
X101030000Y-63850001D01*
G75*
G02*
X100780001Y-64100000I-249999J0D01*
G01*
G37*
%TD*%
%TO.C,R14*%
G36*
G01*
X98240001Y-62100000D02*
X97339999Y-62100000D01*
G75*
G02*
X97090000Y-61850001I0J249999D01*
G01*
X97090000Y-61149999D01*
G75*
G02*
X97339999Y-60900000I249999J0D01*
G01*
X98240001Y-60900000D01*
G75*
G02*
X98490000Y-61149999I0J-249999D01*
G01*
X98490000Y-61850001D01*
G75*
G02*
X98240001Y-62100000I-249999J0D01*
G01*
G37*
G36*
G01*
X98240001Y-64100000D02*
X97339999Y-64100000D01*
G75*
G02*
X97090000Y-63850001I0J249999D01*
G01*
X97090000Y-63149999D01*
G75*
G02*
X97339999Y-62900000I249999J0D01*
G01*
X98240001Y-62900000D01*
G75*
G02*
X98490000Y-63149999I0J-249999D01*
G01*
X98490000Y-63850001D01*
G75*
G02*
X98240001Y-64100000I-249999J0D01*
G01*
G37*
%TD*%
%TO.C,R13*%
G36*
G01*
X95700001Y-62100000D02*
X94799999Y-62100000D01*
G75*
G02*
X94550000Y-61850001I0J249999D01*
G01*
X94550000Y-61149999D01*
G75*
G02*
X94799999Y-60900000I249999J0D01*
G01*
X95700001Y-60900000D01*
G75*
G02*
X95950000Y-61149999I0J-249999D01*
G01*
X95950000Y-61850001D01*
G75*
G02*
X95700001Y-62100000I-249999J0D01*
G01*
G37*
G36*
G01*
X95700001Y-64100000D02*
X94799999Y-64100000D01*
G75*
G02*
X94550000Y-63850001I0J249999D01*
G01*
X94550000Y-63149999D01*
G75*
G02*
X94799999Y-62900000I249999J0D01*
G01*
X95700001Y-62900000D01*
G75*
G02*
X95950000Y-63149999I0J-249999D01*
G01*
X95950000Y-63850001D01*
G75*
G02*
X95700001Y-64100000I-249999J0D01*
G01*
G37*
%TD*%
%TO.C,R12*%
G36*
G01*
X93160001Y-62100000D02*
X92259999Y-62100000D01*
G75*
G02*
X92010000Y-61850001I0J249999D01*
G01*
X92010000Y-61149999D01*
G75*
G02*
X92259999Y-60900000I249999J0D01*
G01*
X93160001Y-60900000D01*
G75*
G02*
X93410000Y-61149999I0J-249999D01*
G01*
X93410000Y-61850001D01*
G75*
G02*
X93160001Y-62100000I-249999J0D01*
G01*
G37*
G36*
G01*
X93160001Y-64100000D02*
X92259999Y-64100000D01*
G75*
G02*
X92010000Y-63850001I0J249999D01*
G01*
X92010000Y-63149999D01*
G75*
G02*
X92259999Y-62900000I249999J0D01*
G01*
X93160001Y-62900000D01*
G75*
G02*
X93410000Y-63149999I0J-249999D01*
G01*
X93410000Y-63850001D01*
G75*
G02*
X93160001Y-64100000I-249999J0D01*
G01*
G37*
%TD*%
%TO.C,R11*%
G36*
G01*
X90620001Y-62100000D02*
X89719999Y-62100000D01*
G75*
G02*
X89470000Y-61850001I0J249999D01*
G01*
X89470000Y-61149999D01*
G75*
G02*
X89719999Y-60900000I249999J0D01*
G01*
X90620001Y-60900000D01*
G75*
G02*
X90870000Y-61149999I0J-249999D01*
G01*
X90870000Y-61850001D01*
G75*
G02*
X90620001Y-62100000I-249999J0D01*
G01*
G37*
G36*
G01*
X90620001Y-64100000D02*
X89719999Y-64100000D01*
G75*
G02*
X89470000Y-63850001I0J249999D01*
G01*
X89470000Y-63149999D01*
G75*
G02*
X89719999Y-62900000I249999J0D01*
G01*
X90620001Y-62900000D01*
G75*
G02*
X90870000Y-63149999I0J-249999D01*
G01*
X90870000Y-63850001D01*
G75*
G02*
X90620001Y-64100000I-249999J0D01*
G01*
G37*
%TD*%
%TO.C,R10*%
G36*
G01*
X88080001Y-62100000D02*
X87179999Y-62100000D01*
G75*
G02*
X86930000Y-61850001I0J249999D01*
G01*
X86930000Y-61149999D01*
G75*
G02*
X87179999Y-60900000I249999J0D01*
G01*
X88080001Y-60900000D01*
G75*
G02*
X88330000Y-61149999I0J-249999D01*
G01*
X88330000Y-61850001D01*
G75*
G02*
X88080001Y-62100000I-249999J0D01*
G01*
G37*
G36*
G01*
X88080001Y-64100000D02*
X87179999Y-64100000D01*
G75*
G02*
X86930000Y-63850001I0J249999D01*
G01*
X86930000Y-63149999D01*
G75*
G02*
X87179999Y-62900000I249999J0D01*
G01*
X88080001Y-62900000D01*
G75*
G02*
X88330000Y-63149999I0J-249999D01*
G01*
X88330000Y-63850001D01*
G75*
G02*
X88080001Y-64100000I-249999J0D01*
G01*
G37*
%TD*%
%TO.C,R9*%
G36*
G01*
X85540001Y-62100000D02*
X84639999Y-62100000D01*
G75*
G02*
X84390000Y-61850001I0J249999D01*
G01*
X84390000Y-61149999D01*
G75*
G02*
X84639999Y-60900000I249999J0D01*
G01*
X85540001Y-60900000D01*
G75*
G02*
X85790000Y-61149999I0J-249999D01*
G01*
X85790000Y-61850001D01*
G75*
G02*
X85540001Y-62100000I-249999J0D01*
G01*
G37*
G36*
G01*
X85540001Y-64100000D02*
X84639999Y-64100000D01*
G75*
G02*
X84390000Y-63850001I0J249999D01*
G01*
X84390000Y-63149999D01*
G75*
G02*
X84639999Y-62900000I249999J0D01*
G01*
X85540001Y-62900000D01*
G75*
G02*
X85790000Y-63149999I0J-249999D01*
G01*
X85790000Y-63850001D01*
G75*
G02*
X85540001Y-64100000I-249999J0D01*
G01*
G37*
%TD*%
%TO.C,R8*%
G36*
G01*
X79190001Y-62100000D02*
X78289999Y-62100000D01*
G75*
G02*
X78040000Y-61850001I0J249999D01*
G01*
X78040000Y-61149999D01*
G75*
G02*
X78289999Y-60900000I249999J0D01*
G01*
X79190001Y-60900000D01*
G75*
G02*
X79440000Y-61149999I0J-249999D01*
G01*
X79440000Y-61850001D01*
G75*
G02*
X79190001Y-62100000I-249999J0D01*
G01*
G37*
G36*
G01*
X79190001Y-64100000D02*
X78289999Y-64100000D01*
G75*
G02*
X78040000Y-63850001I0J249999D01*
G01*
X78040000Y-63149999D01*
G75*
G02*
X78289999Y-62900000I249999J0D01*
G01*
X79190001Y-62900000D01*
G75*
G02*
X79440000Y-63149999I0J-249999D01*
G01*
X79440000Y-63850001D01*
G75*
G02*
X79190001Y-64100000I-249999J0D01*
G01*
G37*
%TD*%
%TO.C,R7*%
G36*
G01*
X76650001Y-62100000D02*
X75749999Y-62100000D01*
G75*
G02*
X75500000Y-61850001I0J249999D01*
G01*
X75500000Y-61149999D01*
G75*
G02*
X75749999Y-60900000I249999J0D01*
G01*
X76650001Y-60900000D01*
G75*
G02*
X76900000Y-61149999I0J-249999D01*
G01*
X76900000Y-61850001D01*
G75*
G02*
X76650001Y-62100000I-249999J0D01*
G01*
G37*
G36*
G01*
X76650001Y-64100000D02*
X75749999Y-64100000D01*
G75*
G02*
X75500000Y-63850001I0J249999D01*
G01*
X75500000Y-63149999D01*
G75*
G02*
X75749999Y-62900000I249999J0D01*
G01*
X76650001Y-62900000D01*
G75*
G02*
X76900000Y-63149999I0J-249999D01*
G01*
X76900000Y-63850001D01*
G75*
G02*
X76650001Y-64100000I-249999J0D01*
G01*
G37*
%TD*%
%TO.C,R6*%
G36*
G01*
X74110001Y-62100000D02*
X73209999Y-62100000D01*
G75*
G02*
X72960000Y-61850001I0J249999D01*
G01*
X72960000Y-61149999D01*
G75*
G02*
X73209999Y-60900000I249999J0D01*
G01*
X74110001Y-60900000D01*
G75*
G02*
X74360000Y-61149999I0J-249999D01*
G01*
X74360000Y-61850001D01*
G75*
G02*
X74110001Y-62100000I-249999J0D01*
G01*
G37*
G36*
G01*
X74110001Y-64100000D02*
X73209999Y-64100000D01*
G75*
G02*
X72960000Y-63850001I0J249999D01*
G01*
X72960000Y-63149999D01*
G75*
G02*
X73209999Y-62900000I249999J0D01*
G01*
X74110001Y-62900000D01*
G75*
G02*
X74360000Y-63149999I0J-249999D01*
G01*
X74360000Y-63850001D01*
G75*
G02*
X74110001Y-64100000I-249999J0D01*
G01*
G37*
%TD*%
%TO.C,R5*%
G36*
G01*
X71570001Y-62100000D02*
X70669999Y-62100000D01*
G75*
G02*
X70420000Y-61850001I0J249999D01*
G01*
X70420000Y-61149999D01*
G75*
G02*
X70669999Y-60900000I249999J0D01*
G01*
X71570001Y-60900000D01*
G75*
G02*
X71820000Y-61149999I0J-249999D01*
G01*
X71820000Y-61850001D01*
G75*
G02*
X71570001Y-62100000I-249999J0D01*
G01*
G37*
G36*
G01*
X71570001Y-64100000D02*
X70669999Y-64100000D01*
G75*
G02*
X70420000Y-63850001I0J249999D01*
G01*
X70420000Y-63149999D01*
G75*
G02*
X70669999Y-62900000I249999J0D01*
G01*
X71570001Y-62900000D01*
G75*
G02*
X71820000Y-63149999I0J-249999D01*
G01*
X71820000Y-63850001D01*
G75*
G02*
X71570001Y-64100000I-249999J0D01*
G01*
G37*
%TD*%
%TO.C,R4*%
G36*
G01*
X69030001Y-62100000D02*
X68129999Y-62100000D01*
G75*
G02*
X67880000Y-61850001I0J249999D01*
G01*
X67880000Y-61149999D01*
G75*
G02*
X68129999Y-60900000I249999J0D01*
G01*
X69030001Y-60900000D01*
G75*
G02*
X69280000Y-61149999I0J-249999D01*
G01*
X69280000Y-61850001D01*
G75*
G02*
X69030001Y-62100000I-249999J0D01*
G01*
G37*
G36*
G01*
X69030001Y-64100000D02*
X68129999Y-64100000D01*
G75*
G02*
X67880000Y-63850001I0J249999D01*
G01*
X67880000Y-63149999D01*
G75*
G02*
X68129999Y-62900000I249999J0D01*
G01*
X69030001Y-62900000D01*
G75*
G02*
X69280000Y-63149999I0J-249999D01*
G01*
X69280000Y-63850001D01*
G75*
G02*
X69030001Y-64100000I-249999J0D01*
G01*
G37*
%TD*%
%TO.C,R3*%
G36*
G01*
X66490001Y-62100000D02*
X65589999Y-62100000D01*
G75*
G02*
X65340000Y-61850001I0J249999D01*
G01*
X65340000Y-61149999D01*
G75*
G02*
X65589999Y-60900000I249999J0D01*
G01*
X66490001Y-60900000D01*
G75*
G02*
X66740000Y-61149999I0J-249999D01*
G01*
X66740000Y-61850001D01*
G75*
G02*
X66490001Y-62100000I-249999J0D01*
G01*
G37*
G36*
G01*
X66490001Y-64100000D02*
X65589999Y-64100000D01*
G75*
G02*
X65340000Y-63850001I0J249999D01*
G01*
X65340000Y-63149999D01*
G75*
G02*
X65589999Y-62900000I249999J0D01*
G01*
X66490001Y-62900000D01*
G75*
G02*
X66740000Y-63149999I0J-249999D01*
G01*
X66740000Y-63850001D01*
G75*
G02*
X66490001Y-64100000I-249999J0D01*
G01*
G37*
%TD*%
%TO.C,R2*%
G36*
G01*
X63950001Y-62100000D02*
X63049999Y-62100000D01*
G75*
G02*
X62800000Y-61850001I0J249999D01*
G01*
X62800000Y-61149999D01*
G75*
G02*
X63049999Y-60900000I249999J0D01*
G01*
X63950001Y-60900000D01*
G75*
G02*
X64200000Y-61149999I0J-249999D01*
G01*
X64200000Y-61850001D01*
G75*
G02*
X63950001Y-62100000I-249999J0D01*
G01*
G37*
G36*
G01*
X63950001Y-64100000D02*
X63049999Y-64100000D01*
G75*
G02*
X62800000Y-63850001I0J249999D01*
G01*
X62800000Y-63149999D01*
G75*
G02*
X63049999Y-62900000I249999J0D01*
G01*
X63950001Y-62900000D01*
G75*
G02*
X64200000Y-63149999I0J-249999D01*
G01*
X64200000Y-63850001D01*
G75*
G02*
X63950001Y-64100000I-249999J0D01*
G01*
G37*
%TD*%
%TO.C,R1*%
G36*
G01*
X61410001Y-62100000D02*
X60509999Y-62100000D01*
G75*
G02*
X60260000Y-61850001I0J249999D01*
G01*
X60260000Y-61149999D01*
G75*
G02*
X60509999Y-60900000I249999J0D01*
G01*
X61410001Y-60900000D01*
G75*
G02*
X61660000Y-61149999I0J-249999D01*
G01*
X61660000Y-61850001D01*
G75*
G02*
X61410001Y-62100000I-249999J0D01*
G01*
G37*
G36*
G01*
X61410001Y-64100000D02*
X60509999Y-64100000D01*
G75*
G02*
X60260000Y-63850001I0J249999D01*
G01*
X60260000Y-63149999D01*
G75*
G02*
X60509999Y-62900000I249999J0D01*
G01*
X61410001Y-62900000D01*
G75*
G02*
X61660000Y-63149999I0J-249999D01*
G01*
X61660000Y-63850001D01*
G75*
G02*
X61410001Y-64100000I-249999J0D01*
G01*
G37*
%TD*%
M02*
