M48
; DRILL file {KiCad (5.1.7-0-10_14)} date Friday, October 16, 2020 at 01:13:16 PM
; FORMAT={-:-/ absolute / inch / decimal}
; #@! TF.CreationDate,2020-10-16T13:13:16+02:00
; #@! TF.GenerationSoftware,Kicad,Pcbnew,(5.1.7-0-10_14)
; #@! TF.FileFunction,Plated,1,2,PTH
FMAT,2
INCH
T1C0.0157
T2C0.0315
T3C0.0394
T4C0.0598
%
G90
G05
T1
X2.2717Y-2.8425
X2.2795Y-1.8583
X2.35Y-2.5945
X2.4Y-1.6225
X2.4425Y-2.8425
X2.445Y-3.085
X2.46Y-1.8575
X2.55Y-1.71
X2.9528Y-1.7087
X2.9528Y-1.8583
X3.0Y-1.5925
X3.0433Y-1.7087
X3.0433Y-1.8583
X3.05Y-2.85
X3.1457Y-2.5945
X3.225Y-3.085
X3.2925Y-2.8525
X3.2992Y-2.5906
X3.55Y-1.7126
X3.55Y-1.775
X3.8071Y-2.8543
X3.905Y-1.7125
X3.9055Y-1.8543
X3.95Y-1.5925
X3.9961Y-1.7087
X3.9961Y-1.8543
X4.1024Y-2.5906
X4.175Y-3.085
X4.2362Y-2.5906
X4.45Y-2.855
X4.5Y-1.7087
X4.5Y-1.78
X4.8465Y-1.8622
X4.855Y-1.71
X4.9Y-1.5925
X4.9475Y-1.7125
X4.9488Y-1.8622
X5.0394Y-2.8543
X5.0591Y-2.5906
X5.12Y-3.085
X5.1925Y-2.5945
X5.3Y-2.855
X5.45Y-1.71
X5.45Y-1.775
X5.86Y-3.085
X5.865Y-1.7125
X5.875Y-1.5925
X5.885Y-2.845
X5.9425Y-1.82
X5.975Y-2.6025
X6.0748Y-2.8425
X6.0906Y-1.8504
T2
X2.4Y-1.95
X2.4Y-2.25
X2.5Y-1.95
X2.5Y-2.25
X2.6Y-1.95
X2.6Y-2.25
X2.7Y-1.95
X2.7Y-2.25
X2.8Y-1.95
X2.8Y-2.25
X2.9Y-1.95
X2.9Y-2.25
X3.0Y-1.95
X3.0Y-2.25
X3.1Y-1.95
X3.1Y-2.25
X3.35Y-1.95
X3.35Y-2.25
X3.45Y-1.95
X3.45Y-2.25
X3.55Y-1.95
X3.55Y-2.25
X3.65Y-1.95
X3.65Y-2.25
X3.75Y-1.95
X3.75Y-2.25
X3.85Y-1.95
X3.85Y-2.25
X3.95Y-1.95
X3.95Y-2.25
X4.05Y-1.95
X4.05Y-2.25
X5.25Y-1.95
X5.25Y-2.25
X5.35Y-1.95
X5.35Y-2.25
X5.45Y-1.95
X5.45Y-2.25
X5.55Y-1.95
X5.55Y-2.25
X5.65Y-1.95
X5.65Y-2.25
X5.75Y-1.95
X5.75Y-2.25
X5.85Y-1.95
X5.85Y-2.25
X5.95Y-1.95
X5.95Y-2.25
X2.2785Y-2.05
X2.2785Y-2.1484
X5.125Y-2.0516
X5.125Y-2.15
X3.225Y-2.0516
X3.225Y-2.15
X4.3Y-1.95
X4.3Y-2.25
X4.4Y-1.95
X4.4Y-2.25
X4.5Y-1.95
X4.5Y-2.25
X4.6Y-1.95
X4.6Y-2.25
X4.7Y-1.95
X4.7Y-2.25
X4.8Y-1.95
X4.8Y-2.25
X4.9Y-1.95
X4.9Y-2.25
X5.0Y-1.95
X5.0Y-2.25
X6.07Y-2.05
X6.07Y-2.1484
X4.175Y-2.0516
X4.175Y-2.15
T3
X4.65Y-2.8
X4.65Y-2.9
X4.75Y-2.8
X4.75Y-2.9
X4.85Y-2.8
X4.85Y-2.9
X4.95Y-2.8
X4.95Y-2.9
X3.4Y-2.8
X3.4Y-2.9
X3.5Y-2.8
X3.5Y-2.9
X3.6Y-2.8
X3.6Y-2.9
X3.7Y-2.8
X3.7Y-2.9
X5.55Y-1.775
X5.65Y-1.775
X5.75Y-1.775
X2.6Y-2.8
X2.6Y-2.9
X2.7Y-2.8
X2.7Y-2.9
X2.8Y-2.8
X2.8Y-2.9
X2.9Y-2.8
X2.9Y-2.9
X5.45Y-2.8
X5.45Y-2.9
X5.55Y-2.8
X5.55Y-2.9
X5.65Y-2.8
X5.65Y-2.9
X5.75Y-2.8
X5.75Y-2.9
X2.6Y-1.775
X2.7Y-1.775
X2.8Y-1.775
T4
X4.075Y-2.85
X4.275Y-2.85
T0
M30
