M48
; DRILL file {KiCad (6.0.0-0)} date 2022 February 05, Saturday 17:27:25
; FORMAT={-:-/ absolute / metric / decimal}
; #@! TF.CreationDate,2022-02-05T17:27:25+01:00
; #@! TF.GenerationSoftware,Kicad,Pcbnew,(6.0.0-0)
; #@! TF.FileFunction,Plated,1,4,PTH
FMAT,2
METRIC
; #@! TA.AperFunction,Plated,PTH,ViaDrill
T1C0.400
; #@! TA.AperFunction,Plated,PTH,ComponentDrill
T2C0.500
; #@! TA.AperFunction,Plated,PTH,ComponentDrill
T3C0.800
; #@! TA.AperFunction,Plated,PTH,ComponentDrill
T4C0.950
; #@! TA.AperFunction,Plated,PTH,ComponentDrill
T5C1.000
; #@! TA.AperFunction,Plated,PTH,ComponentDrill
T6C1.100
; #@! TA.AperFunction,Plated,PTH,ComponentDrill
T7C2.000
; #@! TA.AperFunction,Plated,PTH,ComponentDrill
T8C3.200
%
G90
G05
T1
X-667.5Y-373.5
X-667.5Y-378.5
X-667.5Y-383.5
X-667.5Y-393.5
X-667.5Y-401.0
X-667.5Y-406.0
X-667.2Y-388.2
X-662.5Y-401.0
X-662.5Y-406.0
X-658.2Y-374.4
X-658.2Y-379.4
X-658.2Y-387.4
X-658.0Y-367.2
X-657.8Y-370.4
X-657.5Y-363.5
X-657.5Y-406.0
X-655.755Y-378.255
X-655.4Y-371.0
X-655.25Y-375.0
X-655.2Y-399.4
X-653.4Y-385.2
X-652.5Y-363.5
X-652.5Y-368.5
X-651.5Y-401.5
X-650.1Y-372.15
X-650.1Y-374.15
X-650.0Y-370.0
X-649.5Y-373.25
X-649.1Y-375.15
X-648.4Y-386.5
X-648.35Y-369.8
X-648.0Y-376.15
X-647.75Y-402.25
X-647.75Y-407.25
X-646.55Y-375.9
X-645.0Y-393.5
X-644.75Y-377.9
X-644.0Y-381.6
X-643.95Y-371.45
X-643.929Y-374.3
X-642.95Y-371.45
X-642.903Y-374.3
X-642.8Y-387.0
X-642.0Y-398.0
X-642.0Y-401.5
X-640.85Y-373.15
X-640.45Y-369.85
X-640.108Y-371.991
X-640.0Y-396.0
X-640.0Y-399.8
X-640.0Y-406.0
X-639.579Y-373.701
X-639.4Y-377.3
X-639.1Y-374.9
X-638.55Y-369.85
X-638.0Y-398.0
X-638.0Y-401.5
X-637.6Y-375.7
X-636.3Y-375.8
X-635.25Y-391.5
X-635.1Y-375.7
X-635.05Y-377.25
X-634.3Y-405.9
X-634.25Y-407.25
X-633.95Y-371.4
X-633.9Y-374.2
X-633.4Y-375.75
X-633.0Y-371.4
X-633.0Y-374.2
X-630.2Y-386.2
X-630.0Y-378.5
X-630.0Y-382.0
X-627.75Y-404.25
X-627.5Y-363.5
X-627.5Y-368.5
X-627.5Y-373.5
X-627.5Y-398.5
X-626.8Y-405.9
X-626.75Y-407.5
X-622.6Y-382.2
X-622.5Y-378.5
X-622.5Y-393.5
X-622.5Y-398.5
X-620.5Y-401.5
X-620.25Y-407.25
X-617.5Y-373.5
X-617.5Y-378.5
X-617.2Y-386.5
X-617.0Y-382.0
X-616.75Y-402.25
X-616.75Y-407.25
X-615.0Y-393.5
X-613.0Y-382.0
X-613.0Y-386.4
X-612.5Y-373.5
X-612.5Y-378.5
X-610.5Y-398.0
X-610.5Y-401.5
X-610.0Y-406.0
X-609.0Y-399.8
X-607.5Y-373.5
X-607.5Y-378.5
X-607.5Y-396.0
X-607.0Y-382.0
X-607.0Y-386.4
X-607.0Y-398.0
X-607.0Y-401.5
X-604.25Y-391.5
X-603.3Y-405.9
X-603.25Y-407.25
X-602.5Y-363.5
X-602.5Y-368.5
X-602.5Y-373.5
X-602.5Y-378.5
X-600.0Y-382.0
X-600.0Y-386.4
X-597.5Y-363.5
X-597.5Y-368.5
X-597.5Y-373.5
X-597.5Y-378.5
X-596.75Y-404.25
X-595.9Y-405.9
X-595.75Y-407.5
X-595.0Y-393.5
X-595.0Y-398.5
X-594.0Y-382.0
X-592.6Y-386.4
X-592.5Y-363.5
X-592.5Y-368.5
X-592.5Y-373.5
X-592.5Y-378.5
X-590.0Y-393.5
X-590.0Y-398.5
X-589.5Y-401.5
X-589.25Y-407.25
X-587.5Y-363.5
X-587.5Y-368.5
X-587.5Y-373.5
X-586.4Y-386.5
X-585.75Y-402.25
X-585.75Y-407.25
X-585.0Y-393.5
X-582.5Y-363.5
X-582.5Y-368.5
X-582.5Y-373.5
X-582.5Y-378.5
X-582.5Y-383.5
X-582.4Y-386.8
X-579.5Y-398.0
X-579.5Y-401.5
X-578.0Y-399.6
X-577.6Y-386.8
X-577.5Y-373.5
X-577.5Y-378.5
X-577.5Y-383.5
X-577.5Y-396.0
X-577.5Y-406.0
X-576.0Y-398.0
X-576.0Y-401.5
X-573.25Y-391.5
X-572.6Y-386.8
X-572.5Y-373.5
X-572.5Y-378.5
X-572.5Y-383.5
X-572.4Y-405.9
X-572.25Y-407.25
X-567.5Y-378.5
X-567.5Y-383.5
X-567.4Y-386.8
X-565.75Y-404.25
X-565.0Y-405.9
X-565.0Y-407.5
X-562.6Y-386.8
X-562.5Y-378.5
X-562.5Y-383.5
X-562.5Y-393.5
X-562.5Y-398.5
X-562.5Y-411.0
X-562.5Y-413.5
X-557.6Y-386.8
X-557.5Y-378.5
X-557.5Y-383.5
X-557.5Y-393.5
X-557.5Y-398.5
X-557.5Y-411.0
X-557.5Y-413.5
X-557.4Y-374.6
X-556.6Y-403.6
X-556.6Y-404.6
X-556.6Y-405.6
X-556.6Y-406.6
X-556.6Y-407.6
X-556.6Y-408.6
X-556.6Y-409.6
X-555.5Y-411.5
X-555.5Y-413.5
X-553.0Y-413.5
X-552.6Y-386.8
X-552.5Y-383.5
X-552.5Y-393.5
X-551.25Y-376.25
X-550.5Y-413.5
X-550.05Y-377.64
X-548.0Y-413.5
X-547.6Y-386.8
X-547.5Y-383.5
X-547.5Y-393.5
X-547.5Y-398.5
X-545.5Y-409.5
X-545.5Y-411.5
X-545.5Y-413.5
X-545.0Y-377.73
X-543.7Y-377.8
X-543.0Y-412.0
X-543.0Y-413.5
X-542.6Y-386.8
X-542.5Y-383.5
X-542.5Y-393.5
X-542.3Y-376.2
X-541.55Y-379.89
X-541.129Y-403.88
X-540.8Y-379.14
X-540.5Y-412.0
X-540.5Y-413.5
X-539.6Y-396.8
X-539.6Y-398.0
X-539.6Y-399.2
X-539.554Y-405.28
X-539.25Y-376.25
X-539.0Y-404.0
X-538.0Y-377.8
X-538.0Y-404.0
X-537.6Y-386.8
X-537.5Y-383.5
X-537.5Y-393.5
X-537.0Y-404.0
X-536.0Y-404.0
X-534.5Y-404.0
X-533.5Y-404.0
X-533.03Y-377.74
X-532.6Y-386.8
X-532.5Y-383.5
X-532.5Y-393.5
X-532.5Y-405.0
X-532.5Y-413.5
X-531.6Y-377.8
X-531.4Y-370.2
X-531.4Y-406.4
X-530.2Y-376.2
X-529.55Y-379.89
X-528.8Y-379.14
X-527.6Y-386.8
X-527.5Y-383.5
X-527.5Y-393.5
X-527.5Y-398.5
X-527.5Y-403.5
X-527.5Y-408.5
X-527.5Y-413.5
X-527.25Y-376.25
X-526.2Y-370.2
X-526.05Y-377.725
X-522.6Y-386.8
X-522.5Y-383.5
X-522.5Y-393.5
X-522.5Y-398.5
X-522.5Y-403.5
X-522.5Y-408.5
X-522.5Y-413.5
X-521.05Y-377.75
X-519.6Y-377.8
X-518.2Y-376.2
X-517.55Y-379.89
X-517.5Y-403.5
X-517.5Y-408.5
X-517.5Y-413.5
X-516.8Y-379.14
X-515.437Y-393.837
X-515.25Y-376.25
X-513.99Y-377.79
X-513.8Y-391.2
X-512.5Y-403.5
X-512.5Y-408.5
X-512.5Y-413.5
X-510.17Y-377.73
X-509.6Y-393.85
X-509.2Y-370.2
X-507.6Y-391.6
X-507.5Y-389.024
X-507.5Y-403.5
X-507.5Y-408.5
X-507.5Y-413.5
X-505.3Y-380.14
X-504.8Y-379.14
X-504.6Y-391.6
X-504.2Y-389.2
X-503.6Y-370.2
X-503.25Y-376.25
X-502.8Y-395.4
X-502.5Y-403.5
X-502.5Y-408.5
X-502.5Y-413.5
X-500.2Y-388.6
X-497.8Y-370.2
X-497.5Y-376.0
X-497.5Y-381.0
X-497.5Y-403.5
X-497.5Y-408.5
X-497.5Y-413.5
X-496.8Y-385.2
X-496.6Y-394.4
X-495.0Y-389.1
X-492.6Y-385.2
X-492.5Y-376.0
X-492.5Y-381.0
X-492.5Y-388.5
X-492.5Y-392.9
X-492.5Y-403.5
X-492.5Y-408.5
X-492.5Y-413.5
X-490.0Y-396.8
X-487.5Y-376.0
X-487.5Y-381.0
X-487.5Y-388.5
X-487.5Y-393.5
X-487.5Y-403.5
X-487.5Y-408.5
X-487.5Y-413.5
X-484.0Y-379.0
X-483.0Y-385.4
X-483.0Y-388.0
X-483.0Y-391.0
X-483.0Y-394.0
X-483.0Y-396.4
X-483.0Y-405.0
X-482.5Y-408.5
X-482.5Y-413.5
X-482.0Y-383.0
X-482.0Y-399.0
X-481.6Y-380.0
X-481.6Y-401.6
X-481.0Y-375.0
X-480.4Y-383.4
X-480.4Y-398.4
X-480.2Y-376.8
X-480.2Y-405.0
X-480.0Y-370.2
X-480.0Y-388.0
X-480.0Y-394.0
X-479.0Y-408.0
X-477.0Y-374.0
X-477.0Y-375.6
X-477.0Y-385.0
X-477.0Y-397.0
X-477.0Y-406.4
X-473.8Y-376.8
X-473.6Y-383.4
X-473.6Y-404.8
X-473.4Y-398.6
X-473.0Y-396.4
X-472.8Y-385.4
X-472.8Y-388.0
X-472.8Y-391.0
X-472.8Y-394.0
X-472.4Y-380.2
X-472.4Y-401.6
T2
X-668.4Y-365.0
X-668.4Y-411.0
X-667.697Y-363.303
X-667.697Y-366.697
X-667.697Y-409.303
X-667.697Y-412.697
X-666.0Y-362.6
X-666.0Y-367.4
X-666.0Y-408.6
X-666.0Y-413.4
X-664.303Y-363.303
X-664.303Y-366.697
X-664.303Y-409.303
X-664.303Y-412.697
X-663.6Y-365.0
X-663.6Y-411.0
X-476.4Y-365.0
X-476.4Y-411.0
X-475.697Y-363.303
X-475.697Y-366.697
X-475.697Y-409.303
X-475.697Y-412.697
X-474.0Y-362.6
X-474.0Y-367.4
X-474.0Y-408.6
X-474.0Y-413.4
X-472.303Y-363.303
X-472.303Y-366.697
X-472.303Y-409.303
X-472.303Y-412.697
X-471.6Y-365.0
X-471.6Y-411.0
T3
X-477.0Y-379.0
X-477.0Y-381.5
X-477.0Y-400.347
X-477.0Y-402.847
T4
X-621.25Y-366.15
X-618.75Y-366.15
X-616.25Y-366.15
X-613.75Y-366.15
X-611.25Y-366.15
X-608.75Y-366.15
X-574.8Y-366.14
X-572.3Y-366.14
X-569.8Y-366.14
X-567.3Y-366.14
X-564.8Y-366.14
X-562.3Y-366.14
X-559.8Y-366.14
X-557.3Y-366.14
X-549.8Y-366.14
X-547.3Y-366.14
X-544.8Y-366.14
X-542.3Y-366.14
X-539.8Y-366.14
X-537.3Y-366.14
X-534.8Y-366.14
X-532.3Y-366.14
X-524.8Y-366.14
X-522.3Y-366.14
X-519.8Y-366.14
X-517.3Y-366.14
X-514.8Y-366.14
X-512.3Y-366.14
X-509.8Y-366.14
X-507.3Y-366.14
X-499.8Y-366.14
X-497.3Y-366.14
X-494.8Y-366.14
X-492.3Y-366.14
X-489.8Y-366.14
X-487.3Y-366.14
X-484.8Y-366.14
X-482.3Y-366.14
T5
X-661.0Y-362.85
X-661.0Y-365.39
X-661.0Y-367.93
X-661.0Y-370.47
X-661.0Y-373.01
X-661.0Y-375.55
X-661.0Y-378.09
X-661.0Y-380.63
X-661.0Y-383.17
X-661.0Y-385.71
X-661.0Y-388.25
X-661.0Y-390.79
X-661.0Y-393.33
X-661.0Y-395.87
X-647.3Y-366.15
X-644.8Y-366.15
X-637.3Y-366.15
X-634.8Y-366.15
X-587.82Y-375.55
X-587.82Y-378.09
X-587.82Y-380.63
X-587.82Y-383.17
T6
X-517.91Y-383.38
X-517.91Y-398.62
X-515.37Y-383.38
X-515.37Y-398.62
X-512.83Y-383.38
X-512.83Y-398.62
X-510.29Y-383.38
X-510.29Y-398.62
X-507.75Y-383.38
X-507.75Y-398.62
X-505.21Y-383.38
X-505.21Y-398.62
X-502.67Y-383.38
X-502.67Y-398.62
X-500.13Y-383.38
X-500.13Y-398.62
X-497.59Y-383.38
X-497.59Y-398.62
X-495.05Y-383.38
X-495.05Y-398.62
X-492.51Y-383.38
X-492.51Y-398.62
X-489.97Y-383.38
X-489.97Y-398.62
X-487.43Y-383.38
X-487.43Y-398.62
X-484.89Y-383.38
X-484.89Y-398.62
T7
X-477.0Y-388.42
X-477.0Y-393.5
T8
X-666.0Y-365.0
X-666.0Y-411.0
X-474.0Y-365.0
X-474.0Y-411.0
T0
M30
