M48
; DRILL file {KiCad (5.1.8-0-10_14)} date Friday, December 11, 2020 at 05:33:25 PM
; FORMAT={-:-/ absolute / inch / decimal}
; #@! TF.CreationDate,2020-12-11T17:33:25+01:00
; #@! TF.GenerationSoftware,Kicad,Pcbnew,(5.1.8-0-10_14)
; #@! TF.FileFunction,Plated,1,4,PTH
FMAT,2
INCH
T1C0.0157
T2C0.0197
T3C0.0315
T4C0.0374
T5C0.0394
T6C0.0433
T7C0.0598
T8C0.1260
%
G90
G05
T1
X3.7402Y-1.7717
X3.7402Y-2.1654
X3.7402Y-2.3622
X3.7402Y-2.7559
X3.7402Y-3.4449
X3.937Y-1.7717
X3.937Y-1.9685
X3.937Y-2.1654
X3.937Y-2.7559
X3.937Y-2.9528
X3.937Y-3.4449
X4.1339Y-1.4764
X4.1339Y-1.7717
X4.1339Y-1.9685
X4.1339Y-2.3622
X4.1339Y-2.7559
X4.1339Y-2.9528
X4.1339Y-3.4449
X4.3307Y-1.4764
X4.3307Y-1.9685
X4.3307Y-2.1654
X4.3307Y-2.3622
X4.3307Y-2.7559
X4.3307Y-2.9528
X4.3307Y-3.4449
X4.5276Y-1.4764
X4.5276Y-1.9685
X4.5276Y-2.1654
X4.5276Y-2.3622
X4.5276Y-2.7559
X4.5276Y-2.9528
X4.5276Y-3.4449
X4.6358Y-2.7618
X4.6378Y-2.8268
X4.7244Y-1.4764
X4.7244Y-1.9685
X4.7244Y-2.1654
X4.7244Y-2.3622
X4.7244Y-2.9732
X4.7244Y-3.4449
X4.7276Y-2.8268
X4.7283Y-2.7618
X4.8189Y-2.7598
X4.9213Y-1.9685
X4.9213Y-2.1654
X4.9213Y-2.3622
X4.9213Y-3.4449
X5.1063Y-2.7677
X5.1063Y-2.8268
X5.1181Y-2.1654
X5.1181Y-2.3622
X5.1181Y-2.5591
X5.1181Y-3.4449
X5.1969Y-2.9732
X5.2Y-2.8264
X5.2028Y-2.7677
X5.2913Y-2.7598
X5.315Y-1.7717
X5.315Y-2.1654
X5.315Y-2.3622
X5.315Y-2.5591
X5.315Y-3.4449
X5.3642Y-2.6358
X5.4134Y-1.4764
X5.5118Y-1.7717
X5.5118Y-2.1654
X5.5118Y-2.3622
X5.5118Y-2.5591
X5.5118Y-3.4449
X5.5756Y-2.7689
X5.5815Y-2.8295
X5.6713Y-2.9732
X5.6752Y-2.7697
X5.6752Y-2.8287
X5.7087Y-1.8701
X5.7087Y-2.1654
X5.7087Y-2.3622
X5.7087Y-2.5591
X5.7087Y-3.4449
X5.7638Y-2.7598
X5.8386Y-2.6358
X5.9055Y-1.7717
X5.9055Y-1.8701
X5.9055Y-2.1654
X5.9055Y-2.3622
X5.9055Y-2.5591
X5.9055Y-3.4449
X5.9252Y-2.0276
X6.05Y-2.8295
X6.0524Y-2.7693
X6.1024Y-1.4764
X6.1024Y-1.7717
X6.1024Y-2.1654
X6.1024Y-2.3622
X6.1024Y-2.5591
X6.1024Y-3.4449
X6.1417Y-2.9728
X6.1488Y-2.7701
X6.1492Y-2.8287
X6.2362Y-2.3622
X6.2362Y-2.7598
X6.2992Y-1.4764
X6.2992Y-1.5748
X6.2992Y-1.7717
X6.2992Y-1.9685
X6.2992Y-3.4449
X6.311Y-2.6319
X6.3189Y-2.5
X6.4331Y-2.5276
X6.4961Y-1.9685
X6.4961Y-1.9685
X6.4961Y-3.4449
X6.5236Y-2.7717
X6.5236Y-2.8287
X6.5354Y-2.5276
X6.6181Y-2.8268
X6.6201Y-2.7717
X6.626Y-2.4252
X6.6929Y-1.5748
X6.6929Y-1.7717
X6.6929Y-1.9685
X6.6929Y-2.1654
X6.6929Y-2.3622
X6.6929Y-2.5591
X6.6929Y-2.7559
X6.6929Y-2.9528
X6.6929Y-3.4449
X6.8898Y-1.5748
X6.8898Y-1.7717
X6.8898Y-1.9685
X6.8898Y-2.1654
X6.8898Y-2.7559
X6.8898Y-2.9528
X6.8898Y-3.4449
X6.9331Y-2.5394
X6.937Y-2.4409
X7.0079Y-2.374
X7.0079Y-2.6142
X7.0827Y-2.4409
X7.0866Y-1.5748
X7.0866Y-1.7717
X7.0866Y-1.9685
X7.0866Y-2.1654
X7.0866Y-2.5394
X7.0866Y-2.7559
X7.0866Y-2.9528
X7.0866Y-3.4449
X7.2795Y-2.5787
X7.2835Y-1.5748
X7.2835Y-1.7717
X7.2835Y-1.9685
X7.2835Y-2.1654
X7.2835Y-2.7559
X7.2835Y-2.9528
X7.2835Y-3.1496
X7.2835Y-3.4449
X7.2992Y-2.3071
X7.2992Y-2.4606
X7.374Y-2.4882
X7.374Y-2.6811
X7.4488Y-2.4646
X7.4528Y-2.311
X7.4724Y-2.5827
X7.4803Y-1.7717
X7.4803Y-1.9685
X7.4803Y-2.1654
X7.4803Y-2.7559
X7.4803Y-3.4449
T2
X7.3465Y-1.5748
X7.3741Y-1.508
X7.3741Y-1.6416
X7.4409Y-1.4803
X7.4409Y-1.6693
X7.5078Y-1.508
X7.5078Y-1.6416
X7.5354Y-1.5748
X3.7244Y-1.5748
X3.7521Y-1.508
X3.7521Y-1.6416
X3.8189Y-1.4803
X3.8189Y-1.6693
X3.8857Y-1.508
X3.8857Y-1.6416
X3.9134Y-1.5748
X7.3465Y-3.0709
X7.3741Y-3.0041
X7.3741Y-3.1377
X7.4409Y-2.9764
X7.4409Y-3.1654
X7.5078Y-3.0041
X7.5078Y-3.1377
X7.5354Y-3.0709
X3.7244Y-3.0709
X3.7521Y-3.0041
X3.7521Y-3.1377
X3.8189Y-2.9764
X3.8189Y-3.1654
X3.8857Y-3.0041
X3.8857Y-3.1377
X3.9134Y-3.0709
T3
X7.0079Y-2.4409
X7.0079Y-2.5394
T4
X6.74Y-3.34
X6.8384Y-3.34
X6.9369Y-3.34
X7.0353Y-3.34
X7.1337Y-3.34
X7.2321Y-3.34
X7.3306Y-3.34
X7.429Y-3.34
X5.77Y-3.34
X5.8684Y-3.34
X5.9669Y-3.34
X6.0653Y-3.34
X6.1637Y-3.34
X6.2621Y-3.34
X6.3606Y-3.34
X6.459Y-3.34
X5.8661Y-1.5748
X5.9646Y-1.5748
X6.063Y-1.5748
X6.1614Y-1.5748
X5.1969Y-1.5748
X5.2953Y-1.5748
X5.3937Y-1.5748
X5.4921Y-1.5748
X5.5906Y-1.5748
X4.8Y-3.34
X4.8984Y-3.34
X4.9969Y-3.34
X5.0953Y-3.34
X5.1937Y-3.34
X5.2921Y-3.34
X5.3906Y-3.34
X5.489Y-3.34
X3.83Y-3.34
X3.9284Y-3.34
X4.0269Y-3.34
X4.1253Y-3.34
X4.2237Y-3.34
X4.3221Y-3.34
X4.4206Y-3.34
X4.519Y-3.34
X4.1339Y-1.5748
X4.2323Y-1.5748
X4.3307Y-1.5748
X4.4291Y-1.5748
X4.5276Y-1.5748
X4.626Y-1.5748
X4.7244Y-1.5748
X4.8228Y-1.5748
X4.9213Y-1.5748
T5
X6.3925Y-1.5358
X6.3925Y-1.6358
X6.3925Y-1.7358
X6.3925Y-1.8358
X6.4925Y-1.5358
X6.4925Y-1.6358
X6.4925Y-1.7358
X6.4925Y-1.8358
T6
X3.7122Y-1.9008
X3.7122Y-2.5008
X3.8122Y-1.9008
X3.8122Y-2.5008
X3.9122Y-1.9008
X3.9122Y-2.5008
X4.0122Y-1.9008
X4.0122Y-2.5008
X4.1122Y-1.9008
X4.1122Y-2.5008
X4.2122Y-1.9008
X4.2122Y-2.5008
X4.3122Y-1.9008
X4.3122Y-2.5008
X4.4122Y-1.9008
X4.4122Y-2.5008
X4.5122Y-1.9008
X4.5122Y-2.5008
X4.6122Y-1.9008
X4.6122Y-2.5008
X4.7122Y-1.9008
X4.7122Y-2.5008
X4.8122Y-1.9008
X4.8122Y-2.5008
X4.9122Y-1.9008
X4.9122Y-2.5008
X5.0122Y-1.9008
X5.0122Y-2.5008
T7
X7.3752Y-2.3846
X7.3752Y-2.5846
T8
X7.4409Y-3.0709
X3.8189Y-3.0709
X7.4409Y-1.5748
X3.8189Y-1.5748
T0
M30
