%TF.GenerationSoftware,KiCad,Pcbnew,(5.1.8-0-10_14)*%
%TF.CreationDate,2020-12-11T17:33:19+01:00*%
%TF.ProjectId,32Bit shift register,33324269-7420-4736-9869-667420726567,rev?*%
%TF.SameCoordinates,Original*%
%TF.FileFunction,Soldermask,Top*%
%TF.FilePolarity,Negative*%
%FSLAX46Y46*%
G04 Gerber Fmt 4.6, Leading zero omitted, Abs format (unit mm)*
G04 Created by KiCad (PCBNEW (5.1.8-0-10_14)) date 2020-12-11 17:33:19*
%MOMM*%
%LPD*%
G01*
G04 APERTURE LIST*
%ADD10C,1.600000*%
%ADD11R,1.700000X1.700000*%
%ADD12O,1.700000X1.700000*%
%ADD13O,1.700000X1.950000*%
%ADD14R,3.800000X2.000000*%
%ADD15R,1.500000X2.000000*%
%ADD16C,3.000000*%
%ADD17R,3.000000X3.000000*%
%ADD18C,0.800000*%
%ADD19C,6.400000*%
%ADD20R,1.600000X1.600000*%
G04 APERTURE END LIST*
%TO.C,FB*%
G36*
G01*
X164318750Y-63787500D02*
X165081250Y-63787500D01*
G75*
G02*
X165300000Y-64006250I0J-218750D01*
G01*
X165300000Y-64443750D01*
G75*
G02*
X165081250Y-64662500I-218750J0D01*
G01*
X164318750Y-64662500D01*
G75*
G02*
X164100000Y-64443750I0J218750D01*
G01*
X164100000Y-64006250D01*
G75*
G02*
X164318750Y-63787500I218750J0D01*
G01*
G37*
G36*
G01*
X164318750Y-61662500D02*
X165081250Y-61662500D01*
G75*
G02*
X165300000Y-61881250I0J-218750D01*
G01*
X165300000Y-62318750D01*
G75*
G02*
X165081250Y-62537500I-218750J0D01*
G01*
X164318750Y-62537500D01*
G75*
G02*
X164100000Y-62318750I0J218750D01*
G01*
X164100000Y-61881250D01*
G75*
G02*
X164318750Y-61662500I218750J0D01*
G01*
G37*
%TD*%
%TO.C,C7*%
G36*
G01*
X166550000Y-59575000D02*
X167050000Y-59575000D01*
G75*
G02*
X167275000Y-59800000I0J-225000D01*
G01*
X167275000Y-60250000D01*
G75*
G02*
X167050000Y-60475000I-225000J0D01*
G01*
X166550000Y-60475000D01*
G75*
G02*
X166325000Y-60250000I0J225000D01*
G01*
X166325000Y-59800000D01*
G75*
G02*
X166550000Y-59575000I225000J0D01*
G01*
G37*
G36*
G01*
X166550000Y-61125000D02*
X167050000Y-61125000D01*
G75*
G02*
X167275000Y-61350000I0J-225000D01*
G01*
X167275000Y-61800000D01*
G75*
G02*
X167050000Y-62025000I-225000J0D01*
G01*
X166550000Y-62025000D01*
G75*
G02*
X166325000Y-61800000I0J225000D01*
G01*
X166325000Y-61350000D01*
G75*
G02*
X166550000Y-61125000I225000J0D01*
G01*
G37*
%TD*%
D10*
%TO.C,U6*%
X94290000Y-63520000D03*
X96830000Y-63520000D03*
X99370000Y-63520000D03*
X101910000Y-63520000D03*
X104450000Y-63520000D03*
X106990000Y-63520000D03*
X109530000Y-63520000D03*
X112070000Y-63520000D03*
X114610000Y-63520000D03*
X117150000Y-63520000D03*
X119690000Y-63520000D03*
X122230000Y-63520000D03*
X124770000Y-63520000D03*
X94290000Y-48280000D03*
X96830000Y-48280000D03*
X99370000Y-48280000D03*
X101910000Y-48280000D03*
X104450000Y-48280000D03*
X106990000Y-48280000D03*
X109530000Y-48280000D03*
X112070000Y-48280000D03*
X114610000Y-48280000D03*
X117150000Y-48280000D03*
X119690000Y-48280000D03*
X122230000Y-48280000D03*
X124770000Y-48280000D03*
X127310000Y-63520000D03*
X127310000Y-48280000D03*
%TD*%
D11*
%TO.C,J5*%
X164910000Y-39010000D03*
D12*
X162370000Y-39010000D03*
X164910000Y-41550000D03*
X162370000Y-41550000D03*
X164910000Y-44090000D03*
X162370000Y-44090000D03*
X164910000Y-46630000D03*
X162370000Y-46630000D03*
%TD*%
%TO.C,J8*%
G36*
G01*
X104150000Y-40725100D02*
X104150000Y-39274900D01*
G75*
G02*
X104399900Y-39025000I249900J0D01*
G01*
X105600100Y-39025000D01*
G75*
G02*
X105850000Y-39274900I0J-249900D01*
G01*
X105850000Y-40725100D01*
G75*
G02*
X105600100Y-40975000I-249900J0D01*
G01*
X104399900Y-40975000D01*
G75*
G02*
X104150000Y-40725100I0J249900D01*
G01*
G37*
D13*
X107500000Y-40000000D03*
X110000000Y-40000000D03*
X112500000Y-40000000D03*
X115000000Y-40000000D03*
X117500000Y-40000000D03*
X120000000Y-40000000D03*
X122500000Y-40000000D03*
X125000000Y-40000000D03*
%TD*%
%TO.C,J7*%
X156500000Y-40000000D03*
X154000000Y-40000000D03*
X151500000Y-40000000D03*
G36*
G01*
X148150000Y-40725000D02*
X148150000Y-39275000D01*
G75*
G02*
X148400000Y-39025000I250000J0D01*
G01*
X149600000Y-39025000D01*
G75*
G02*
X149850000Y-39275000I0J-250000D01*
G01*
X149850000Y-40725000D01*
G75*
G02*
X149600000Y-40975000I-250000J0D01*
G01*
X148400000Y-40975000D01*
G75*
G02*
X148150000Y-40725000I0J250000D01*
G01*
G37*
%TD*%
%TO.C,J6*%
X142000000Y-40000000D03*
X139500000Y-40000000D03*
X137000000Y-40000000D03*
X134500000Y-40000000D03*
G36*
G01*
X131150000Y-40725000D02*
X131150000Y-39275000D01*
G75*
G02*
X131400000Y-39025000I250000J0D01*
G01*
X132600000Y-39025000D01*
G75*
G02*
X132850000Y-39275000I0J-250000D01*
G01*
X132850000Y-40725000D01*
G75*
G02*
X132600000Y-40975000I-250000J0D01*
G01*
X131400000Y-40975000D01*
G75*
G02*
X131150000Y-40725000I0J250000D01*
G01*
G37*
%TD*%
%TO.C,U3*%
G36*
G01*
X144632000Y-74485900D02*
X144332000Y-74485900D01*
G75*
G02*
X144182000Y-74335900I0J150000D01*
G01*
X144182000Y-72685900D01*
G75*
G02*
X144332000Y-72535900I150000J0D01*
G01*
X144632000Y-72535900D01*
G75*
G02*
X144782000Y-72685900I0J-150000D01*
G01*
X144782000Y-74335900D01*
G75*
G02*
X144632000Y-74485900I-150000J0D01*
G01*
G37*
G36*
G01*
X145902000Y-74485900D02*
X145602000Y-74485900D01*
G75*
G02*
X145452000Y-74335900I0J150000D01*
G01*
X145452000Y-72685900D01*
G75*
G02*
X145602000Y-72535900I150000J0D01*
G01*
X145902000Y-72535900D01*
G75*
G02*
X146052000Y-72685900I0J-150000D01*
G01*
X146052000Y-74335900D01*
G75*
G02*
X145902000Y-74485900I-150000J0D01*
G01*
G37*
G36*
G01*
X147172000Y-74485900D02*
X146872000Y-74485900D01*
G75*
G02*
X146722000Y-74335900I0J150000D01*
G01*
X146722000Y-72685900D01*
G75*
G02*
X146872000Y-72535900I150000J0D01*
G01*
X147172000Y-72535900D01*
G75*
G02*
X147322000Y-72685900I0J-150000D01*
G01*
X147322000Y-74335900D01*
G75*
G02*
X147172000Y-74485900I-150000J0D01*
G01*
G37*
G36*
G01*
X148442000Y-74485900D02*
X148142000Y-74485900D01*
G75*
G02*
X147992000Y-74335900I0J150000D01*
G01*
X147992000Y-72685900D01*
G75*
G02*
X148142000Y-72535900I150000J0D01*
G01*
X148442000Y-72535900D01*
G75*
G02*
X148592000Y-72685900I0J-150000D01*
G01*
X148592000Y-74335900D01*
G75*
G02*
X148442000Y-74485900I-150000J0D01*
G01*
G37*
G36*
G01*
X149712000Y-74485900D02*
X149412000Y-74485900D01*
G75*
G02*
X149262000Y-74335900I0J150000D01*
G01*
X149262000Y-72685900D01*
G75*
G02*
X149412000Y-72535900I150000J0D01*
G01*
X149712000Y-72535900D01*
G75*
G02*
X149862000Y-72685900I0J-150000D01*
G01*
X149862000Y-74335900D01*
G75*
G02*
X149712000Y-74485900I-150000J0D01*
G01*
G37*
G36*
G01*
X150982000Y-74485900D02*
X150682000Y-74485900D01*
G75*
G02*
X150532000Y-74335900I0J150000D01*
G01*
X150532000Y-72685900D01*
G75*
G02*
X150682000Y-72535900I150000J0D01*
G01*
X150982000Y-72535900D01*
G75*
G02*
X151132000Y-72685900I0J-150000D01*
G01*
X151132000Y-74335900D01*
G75*
G02*
X150982000Y-74485900I-150000J0D01*
G01*
G37*
G36*
G01*
X152252000Y-74485900D02*
X151952000Y-74485900D01*
G75*
G02*
X151802000Y-74335900I0J150000D01*
G01*
X151802000Y-72685900D01*
G75*
G02*
X151952000Y-72535900I150000J0D01*
G01*
X152252000Y-72535900D01*
G75*
G02*
X152402000Y-72685900I0J-150000D01*
G01*
X152402000Y-74335900D01*
G75*
G02*
X152252000Y-74485900I-150000J0D01*
G01*
G37*
G36*
G01*
X153522000Y-74485900D02*
X153222000Y-74485900D01*
G75*
G02*
X153072000Y-74335900I0J150000D01*
G01*
X153072000Y-72685900D01*
G75*
G02*
X153222000Y-72535900I150000J0D01*
G01*
X153522000Y-72535900D01*
G75*
G02*
X153672000Y-72685900I0J-150000D01*
G01*
X153672000Y-74335900D01*
G75*
G02*
X153522000Y-74485900I-150000J0D01*
G01*
G37*
G36*
G01*
X153522000Y-69535900D02*
X153222000Y-69535900D01*
G75*
G02*
X153072000Y-69385900I0J150000D01*
G01*
X153072000Y-67735900D01*
G75*
G02*
X153222000Y-67585900I150000J0D01*
G01*
X153522000Y-67585900D01*
G75*
G02*
X153672000Y-67735900I0J-150000D01*
G01*
X153672000Y-69385900D01*
G75*
G02*
X153522000Y-69535900I-150000J0D01*
G01*
G37*
G36*
G01*
X152252000Y-69535900D02*
X151952000Y-69535900D01*
G75*
G02*
X151802000Y-69385900I0J150000D01*
G01*
X151802000Y-67735900D01*
G75*
G02*
X151952000Y-67585900I150000J0D01*
G01*
X152252000Y-67585900D01*
G75*
G02*
X152402000Y-67735900I0J-150000D01*
G01*
X152402000Y-69385900D01*
G75*
G02*
X152252000Y-69535900I-150000J0D01*
G01*
G37*
G36*
G01*
X150982000Y-69535900D02*
X150682000Y-69535900D01*
G75*
G02*
X150532000Y-69385900I0J150000D01*
G01*
X150532000Y-67735900D01*
G75*
G02*
X150682000Y-67585900I150000J0D01*
G01*
X150982000Y-67585900D01*
G75*
G02*
X151132000Y-67735900I0J-150000D01*
G01*
X151132000Y-69385900D01*
G75*
G02*
X150982000Y-69535900I-150000J0D01*
G01*
G37*
G36*
G01*
X149712000Y-69535900D02*
X149412000Y-69535900D01*
G75*
G02*
X149262000Y-69385900I0J150000D01*
G01*
X149262000Y-67735900D01*
G75*
G02*
X149412000Y-67585900I150000J0D01*
G01*
X149712000Y-67585900D01*
G75*
G02*
X149862000Y-67735900I0J-150000D01*
G01*
X149862000Y-69385900D01*
G75*
G02*
X149712000Y-69535900I-150000J0D01*
G01*
G37*
G36*
G01*
X148442000Y-69535900D02*
X148142000Y-69535900D01*
G75*
G02*
X147992000Y-69385900I0J150000D01*
G01*
X147992000Y-67735900D01*
G75*
G02*
X148142000Y-67585900I150000J0D01*
G01*
X148442000Y-67585900D01*
G75*
G02*
X148592000Y-67735900I0J-150000D01*
G01*
X148592000Y-69385900D01*
G75*
G02*
X148442000Y-69535900I-150000J0D01*
G01*
G37*
G36*
G01*
X147172000Y-69535900D02*
X146872000Y-69535900D01*
G75*
G02*
X146722000Y-69385900I0J150000D01*
G01*
X146722000Y-67735900D01*
G75*
G02*
X146872000Y-67585900I150000J0D01*
G01*
X147172000Y-67585900D01*
G75*
G02*
X147322000Y-67735900I0J-150000D01*
G01*
X147322000Y-69385900D01*
G75*
G02*
X147172000Y-69535900I-150000J0D01*
G01*
G37*
G36*
G01*
X145902000Y-69535900D02*
X145602000Y-69535900D01*
G75*
G02*
X145452000Y-69385900I0J150000D01*
G01*
X145452000Y-67735900D01*
G75*
G02*
X145602000Y-67585900I150000J0D01*
G01*
X145902000Y-67585900D01*
G75*
G02*
X146052000Y-67735900I0J-150000D01*
G01*
X146052000Y-69385900D01*
G75*
G02*
X145902000Y-69535900I-150000J0D01*
G01*
G37*
G36*
G01*
X144632000Y-69535900D02*
X144332000Y-69535900D01*
G75*
G02*
X144182000Y-69385900I0J150000D01*
G01*
X144182000Y-67735900D01*
G75*
G02*
X144332000Y-67585900I150000J0D01*
G01*
X144632000Y-67585900D01*
G75*
G02*
X144782000Y-67735900I0J-150000D01*
G01*
X144782000Y-69385900D01*
G75*
G02*
X144632000Y-69535900I-150000J0D01*
G01*
G37*
%TD*%
%TO.C,R32*%
G36*
G01*
X165982000Y-77980900D02*
X165612000Y-77980900D01*
G75*
G02*
X165477000Y-77845900I0J135000D01*
G01*
X165477000Y-77575900D01*
G75*
G02*
X165612000Y-77440900I135000J0D01*
G01*
X165982000Y-77440900D01*
G75*
G02*
X166117000Y-77575900I0J-135000D01*
G01*
X166117000Y-77845900D01*
G75*
G02*
X165982000Y-77980900I-135000J0D01*
G01*
G37*
G36*
G01*
X165982000Y-76960900D02*
X165612000Y-76960900D01*
G75*
G02*
X165477000Y-76825900I0J135000D01*
G01*
X165477000Y-76555900D01*
G75*
G02*
X165612000Y-76420900I135000J0D01*
G01*
X165982000Y-76420900D01*
G75*
G02*
X166117000Y-76555900I0J-135000D01*
G01*
X166117000Y-76825900D01*
G75*
G02*
X165982000Y-76960900I-135000J0D01*
G01*
G37*
%TD*%
%TO.C,R31*%
G36*
G01*
X154044000Y-77980900D02*
X153674000Y-77980900D01*
G75*
G02*
X153539000Y-77845900I0J135000D01*
G01*
X153539000Y-77575900D01*
G75*
G02*
X153674000Y-77440900I135000J0D01*
G01*
X154044000Y-77440900D01*
G75*
G02*
X154179000Y-77575900I0J-135000D01*
G01*
X154179000Y-77845900D01*
G75*
G02*
X154044000Y-77980900I-135000J0D01*
G01*
G37*
G36*
G01*
X154044000Y-76960900D02*
X153674000Y-76960900D01*
G75*
G02*
X153539000Y-76825900I0J135000D01*
G01*
X153539000Y-76555900D01*
G75*
G02*
X153674000Y-76420900I135000J0D01*
G01*
X154044000Y-76420900D01*
G75*
G02*
X154179000Y-76555900I0J-135000D01*
G01*
X154179000Y-76825900D01*
G75*
G02*
X154044000Y-76960900I-135000J0D01*
G01*
G37*
%TD*%
%TO.C,R30*%
G36*
G01*
X141979000Y-77984900D02*
X141609000Y-77984900D01*
G75*
G02*
X141474000Y-77849900I0J135000D01*
G01*
X141474000Y-77579900D01*
G75*
G02*
X141609000Y-77444900I135000J0D01*
G01*
X141979000Y-77444900D01*
G75*
G02*
X142114000Y-77579900I0J-135000D01*
G01*
X142114000Y-77849900D01*
G75*
G02*
X141979000Y-77984900I-135000J0D01*
G01*
G37*
G36*
G01*
X141979000Y-76964900D02*
X141609000Y-76964900D01*
G75*
G02*
X141474000Y-76829900I0J135000D01*
G01*
X141474000Y-76559900D01*
G75*
G02*
X141609000Y-76424900I135000J0D01*
G01*
X141979000Y-76424900D01*
G75*
G02*
X142114000Y-76559900I0J-135000D01*
G01*
X142114000Y-76829900D01*
G75*
G02*
X141979000Y-76964900I-135000J0D01*
G01*
G37*
%TD*%
%TO.C,R29*%
G36*
G01*
X130041000Y-76962900D02*
X129671000Y-76962900D01*
G75*
G02*
X129536000Y-76827900I0J135000D01*
G01*
X129536000Y-76557900D01*
G75*
G02*
X129671000Y-76422900I135000J0D01*
G01*
X130041000Y-76422900D01*
G75*
G02*
X130176000Y-76557900I0J-135000D01*
G01*
X130176000Y-76827900D01*
G75*
G02*
X130041000Y-76962900I-135000J0D01*
G01*
G37*
G36*
G01*
X130041000Y-77982900D02*
X129671000Y-77982900D01*
G75*
G02*
X129536000Y-77847900I0J135000D01*
G01*
X129536000Y-77577900D01*
G75*
G02*
X129671000Y-77442900I135000J0D01*
G01*
X130041000Y-77442900D01*
G75*
G02*
X130176000Y-77577900I0J-135000D01*
G01*
X130176000Y-77847900D01*
G75*
G02*
X130041000Y-77982900I-135000J0D01*
G01*
G37*
%TD*%
%TO.C,R28*%
G36*
G01*
X164585000Y-77980900D02*
X164215000Y-77980900D01*
G75*
G02*
X164080000Y-77845900I0J135000D01*
G01*
X164080000Y-77575900D01*
G75*
G02*
X164215000Y-77440900I135000J0D01*
G01*
X164585000Y-77440900D01*
G75*
G02*
X164720000Y-77575900I0J-135000D01*
G01*
X164720000Y-77845900D01*
G75*
G02*
X164585000Y-77980900I-135000J0D01*
G01*
G37*
G36*
G01*
X164585000Y-76960900D02*
X164215000Y-76960900D01*
G75*
G02*
X164080000Y-76825900I0J135000D01*
G01*
X164080000Y-76555900D01*
G75*
G02*
X164215000Y-76420900I135000J0D01*
G01*
X164585000Y-76420900D01*
G75*
G02*
X164720000Y-76555900I0J-135000D01*
G01*
X164720000Y-76825900D01*
G75*
G02*
X164585000Y-76960900I-135000J0D01*
G01*
G37*
%TD*%
%TO.C,R27*%
G36*
G01*
X152647000Y-77982900D02*
X152277000Y-77982900D01*
G75*
G02*
X152142000Y-77847900I0J135000D01*
G01*
X152142000Y-77577900D01*
G75*
G02*
X152277000Y-77442900I135000J0D01*
G01*
X152647000Y-77442900D01*
G75*
G02*
X152782000Y-77577900I0J-135000D01*
G01*
X152782000Y-77847900D01*
G75*
G02*
X152647000Y-77982900I-135000J0D01*
G01*
G37*
G36*
G01*
X152647000Y-76962900D02*
X152277000Y-76962900D01*
G75*
G02*
X152142000Y-76827900I0J135000D01*
G01*
X152142000Y-76557900D01*
G75*
G02*
X152277000Y-76422900I135000J0D01*
G01*
X152647000Y-76422900D01*
G75*
G02*
X152782000Y-76557900I0J-135000D01*
G01*
X152782000Y-76827900D01*
G75*
G02*
X152647000Y-76962900I-135000J0D01*
G01*
G37*
%TD*%
%TO.C,R26*%
G36*
G01*
X140582000Y-77984900D02*
X140212000Y-77984900D01*
G75*
G02*
X140077000Y-77849900I0J135000D01*
G01*
X140077000Y-77579900D01*
G75*
G02*
X140212000Y-77444900I135000J0D01*
G01*
X140582000Y-77444900D01*
G75*
G02*
X140717000Y-77579900I0J-135000D01*
G01*
X140717000Y-77849900D01*
G75*
G02*
X140582000Y-77984900I-135000J0D01*
G01*
G37*
G36*
G01*
X140582000Y-76964900D02*
X140212000Y-76964900D01*
G75*
G02*
X140077000Y-76829900I0J135000D01*
G01*
X140077000Y-76559900D01*
G75*
G02*
X140212000Y-76424900I135000J0D01*
G01*
X140582000Y-76424900D01*
G75*
G02*
X140717000Y-76559900I0J-135000D01*
G01*
X140717000Y-76829900D01*
G75*
G02*
X140582000Y-76964900I-135000J0D01*
G01*
G37*
%TD*%
%TO.C,R25*%
G36*
G01*
X128644000Y-76962900D02*
X128274000Y-76962900D01*
G75*
G02*
X128139000Y-76827900I0J135000D01*
G01*
X128139000Y-76557900D01*
G75*
G02*
X128274000Y-76422900I135000J0D01*
G01*
X128644000Y-76422900D01*
G75*
G02*
X128779000Y-76557900I0J-135000D01*
G01*
X128779000Y-76827900D01*
G75*
G02*
X128644000Y-76962900I-135000J0D01*
G01*
G37*
G36*
G01*
X128644000Y-77982900D02*
X128274000Y-77982900D01*
G75*
G02*
X128139000Y-77847900I0J135000D01*
G01*
X128139000Y-77577900D01*
G75*
G02*
X128274000Y-77442900I135000J0D01*
G01*
X128644000Y-77442900D01*
G75*
G02*
X128779000Y-77577900I0J-135000D01*
G01*
X128779000Y-77847900D01*
G75*
G02*
X128644000Y-77982900I-135000J0D01*
G01*
G37*
%TD*%
%TO.C,R24*%
G36*
G01*
X163188000Y-77980900D02*
X162818000Y-77980900D01*
G75*
G02*
X162683000Y-77845900I0J135000D01*
G01*
X162683000Y-77575900D01*
G75*
G02*
X162818000Y-77440900I135000J0D01*
G01*
X163188000Y-77440900D01*
G75*
G02*
X163323000Y-77575900I0J-135000D01*
G01*
X163323000Y-77845900D01*
G75*
G02*
X163188000Y-77980900I-135000J0D01*
G01*
G37*
G36*
G01*
X163188000Y-76960900D02*
X162818000Y-76960900D01*
G75*
G02*
X162683000Y-76825900I0J135000D01*
G01*
X162683000Y-76555900D01*
G75*
G02*
X162818000Y-76420900I135000J0D01*
G01*
X163188000Y-76420900D01*
G75*
G02*
X163323000Y-76555900I0J-135000D01*
G01*
X163323000Y-76825900D01*
G75*
G02*
X163188000Y-76960900I-135000J0D01*
G01*
G37*
%TD*%
%TO.C,R23*%
G36*
G01*
X151250000Y-77982900D02*
X150880000Y-77982900D01*
G75*
G02*
X150745000Y-77847900I0J135000D01*
G01*
X150745000Y-77577900D01*
G75*
G02*
X150880000Y-77442900I135000J0D01*
G01*
X151250000Y-77442900D01*
G75*
G02*
X151385000Y-77577900I0J-135000D01*
G01*
X151385000Y-77847900D01*
G75*
G02*
X151250000Y-77982900I-135000J0D01*
G01*
G37*
G36*
G01*
X151250000Y-76962900D02*
X150880000Y-76962900D01*
G75*
G02*
X150745000Y-76827900I0J135000D01*
G01*
X150745000Y-76557900D01*
G75*
G02*
X150880000Y-76422900I135000J0D01*
G01*
X151250000Y-76422900D01*
G75*
G02*
X151385000Y-76557900I0J-135000D01*
G01*
X151385000Y-76827900D01*
G75*
G02*
X151250000Y-76962900I-135000J0D01*
G01*
G37*
%TD*%
%TO.C,R22*%
G36*
G01*
X139185000Y-77984900D02*
X138815000Y-77984900D01*
G75*
G02*
X138680000Y-77849900I0J135000D01*
G01*
X138680000Y-77579900D01*
G75*
G02*
X138815000Y-77444900I135000J0D01*
G01*
X139185000Y-77444900D01*
G75*
G02*
X139320000Y-77579900I0J-135000D01*
G01*
X139320000Y-77849900D01*
G75*
G02*
X139185000Y-77984900I-135000J0D01*
G01*
G37*
G36*
G01*
X139185000Y-76964900D02*
X138815000Y-76964900D01*
G75*
G02*
X138680000Y-76829900I0J135000D01*
G01*
X138680000Y-76559900D01*
G75*
G02*
X138815000Y-76424900I135000J0D01*
G01*
X139185000Y-76424900D01*
G75*
G02*
X139320000Y-76559900I0J-135000D01*
G01*
X139320000Y-76829900D01*
G75*
G02*
X139185000Y-76964900I-135000J0D01*
G01*
G37*
%TD*%
%TO.C,R21*%
G36*
G01*
X127247000Y-77982900D02*
X126877000Y-77982900D01*
G75*
G02*
X126742000Y-77847900I0J135000D01*
G01*
X126742000Y-77577900D01*
G75*
G02*
X126877000Y-77442900I135000J0D01*
G01*
X127247000Y-77442900D01*
G75*
G02*
X127382000Y-77577900I0J-135000D01*
G01*
X127382000Y-77847900D01*
G75*
G02*
X127247000Y-77982900I-135000J0D01*
G01*
G37*
G36*
G01*
X127247000Y-76962900D02*
X126877000Y-76962900D01*
G75*
G02*
X126742000Y-76827900I0J135000D01*
G01*
X126742000Y-76557900D01*
G75*
G02*
X126877000Y-76422900I135000J0D01*
G01*
X127247000Y-76422900D01*
G75*
G02*
X127382000Y-76557900I0J-135000D01*
G01*
X127382000Y-76827900D01*
G75*
G02*
X127247000Y-76962900I-135000J0D01*
G01*
G37*
%TD*%
%TO.C,R20*%
G36*
G01*
X161791000Y-77980900D02*
X161421000Y-77980900D01*
G75*
G02*
X161286000Y-77845900I0J135000D01*
G01*
X161286000Y-77575900D01*
G75*
G02*
X161421000Y-77440900I135000J0D01*
G01*
X161791000Y-77440900D01*
G75*
G02*
X161926000Y-77575900I0J-135000D01*
G01*
X161926000Y-77845900D01*
G75*
G02*
X161791000Y-77980900I-135000J0D01*
G01*
G37*
G36*
G01*
X161791000Y-76960900D02*
X161421000Y-76960900D01*
G75*
G02*
X161286000Y-76825900I0J135000D01*
G01*
X161286000Y-76555900D01*
G75*
G02*
X161421000Y-76420900I135000J0D01*
G01*
X161791000Y-76420900D01*
G75*
G02*
X161926000Y-76555900I0J-135000D01*
G01*
X161926000Y-76825900D01*
G75*
G02*
X161791000Y-76960900I-135000J0D01*
G01*
G37*
%TD*%
%TO.C,R19*%
G36*
G01*
X149853000Y-77980900D02*
X149483000Y-77980900D01*
G75*
G02*
X149348000Y-77845900I0J135000D01*
G01*
X149348000Y-77575900D01*
G75*
G02*
X149483000Y-77440900I135000J0D01*
G01*
X149853000Y-77440900D01*
G75*
G02*
X149988000Y-77575900I0J-135000D01*
G01*
X149988000Y-77845900D01*
G75*
G02*
X149853000Y-77980900I-135000J0D01*
G01*
G37*
G36*
G01*
X149853000Y-76960900D02*
X149483000Y-76960900D01*
G75*
G02*
X149348000Y-76825900I0J135000D01*
G01*
X149348000Y-76555900D01*
G75*
G02*
X149483000Y-76420900I135000J0D01*
G01*
X149853000Y-76420900D01*
G75*
G02*
X149988000Y-76555900I0J-135000D01*
G01*
X149988000Y-76825900D01*
G75*
G02*
X149853000Y-76960900I-135000J0D01*
G01*
G37*
%TD*%
%TO.C,R18*%
G36*
G01*
X137788000Y-77982900D02*
X137418000Y-77982900D01*
G75*
G02*
X137283000Y-77847900I0J135000D01*
G01*
X137283000Y-77577900D01*
G75*
G02*
X137418000Y-77442900I135000J0D01*
G01*
X137788000Y-77442900D01*
G75*
G02*
X137923000Y-77577900I0J-135000D01*
G01*
X137923000Y-77847900D01*
G75*
G02*
X137788000Y-77982900I-135000J0D01*
G01*
G37*
G36*
G01*
X137788000Y-76962900D02*
X137418000Y-76962900D01*
G75*
G02*
X137283000Y-76827900I0J135000D01*
G01*
X137283000Y-76557900D01*
G75*
G02*
X137418000Y-76422900I135000J0D01*
G01*
X137788000Y-76422900D01*
G75*
G02*
X137923000Y-76557900I0J-135000D01*
G01*
X137923000Y-76827900D01*
G75*
G02*
X137788000Y-76962900I-135000J0D01*
G01*
G37*
%TD*%
%TO.C,R17*%
G36*
G01*
X125850000Y-76962900D02*
X125480000Y-76962900D01*
G75*
G02*
X125345000Y-76827900I0J135000D01*
G01*
X125345000Y-76557900D01*
G75*
G02*
X125480000Y-76422900I135000J0D01*
G01*
X125850000Y-76422900D01*
G75*
G02*
X125985000Y-76557900I0J-135000D01*
G01*
X125985000Y-76827900D01*
G75*
G02*
X125850000Y-76962900I-135000J0D01*
G01*
G37*
G36*
G01*
X125850000Y-77982900D02*
X125480000Y-77982900D01*
G75*
G02*
X125345000Y-77847900I0J135000D01*
G01*
X125345000Y-77577900D01*
G75*
G02*
X125480000Y-77442900I135000J0D01*
G01*
X125850000Y-77442900D01*
G75*
G02*
X125985000Y-77577900I0J-135000D01*
G01*
X125985000Y-77847900D01*
G75*
G02*
X125850000Y-77982900I-135000J0D01*
G01*
G37*
%TD*%
%TO.C,R16*%
G36*
G01*
X160394000Y-77980900D02*
X160024000Y-77980900D01*
G75*
G02*
X159889000Y-77845900I0J135000D01*
G01*
X159889000Y-77575900D01*
G75*
G02*
X160024000Y-77440900I135000J0D01*
G01*
X160394000Y-77440900D01*
G75*
G02*
X160529000Y-77575900I0J-135000D01*
G01*
X160529000Y-77845900D01*
G75*
G02*
X160394000Y-77980900I-135000J0D01*
G01*
G37*
G36*
G01*
X160394000Y-76960900D02*
X160024000Y-76960900D01*
G75*
G02*
X159889000Y-76825900I0J135000D01*
G01*
X159889000Y-76555900D01*
G75*
G02*
X160024000Y-76420900I135000J0D01*
G01*
X160394000Y-76420900D01*
G75*
G02*
X160529000Y-76555900I0J-135000D01*
G01*
X160529000Y-76825900D01*
G75*
G02*
X160394000Y-76960900I-135000J0D01*
G01*
G37*
%TD*%
%TO.C,R15*%
G36*
G01*
X148456000Y-77982900D02*
X148086000Y-77982900D01*
G75*
G02*
X147951000Y-77847900I0J135000D01*
G01*
X147951000Y-77577900D01*
G75*
G02*
X148086000Y-77442900I135000J0D01*
G01*
X148456000Y-77442900D01*
G75*
G02*
X148591000Y-77577900I0J-135000D01*
G01*
X148591000Y-77847900D01*
G75*
G02*
X148456000Y-77982900I-135000J0D01*
G01*
G37*
G36*
G01*
X148456000Y-76962900D02*
X148086000Y-76962900D01*
G75*
G02*
X147951000Y-76827900I0J135000D01*
G01*
X147951000Y-76557900D01*
G75*
G02*
X148086000Y-76422900I135000J0D01*
G01*
X148456000Y-76422900D01*
G75*
G02*
X148591000Y-76557900I0J-135000D01*
G01*
X148591000Y-76827900D01*
G75*
G02*
X148456000Y-76962900I-135000J0D01*
G01*
G37*
%TD*%
%TO.C,R14*%
G36*
G01*
X136391000Y-77982900D02*
X136021000Y-77982900D01*
G75*
G02*
X135886000Y-77847900I0J135000D01*
G01*
X135886000Y-77577900D01*
G75*
G02*
X136021000Y-77442900I135000J0D01*
G01*
X136391000Y-77442900D01*
G75*
G02*
X136526000Y-77577900I0J-135000D01*
G01*
X136526000Y-77847900D01*
G75*
G02*
X136391000Y-77982900I-135000J0D01*
G01*
G37*
G36*
G01*
X136391000Y-76962900D02*
X136021000Y-76962900D01*
G75*
G02*
X135886000Y-76827900I0J135000D01*
G01*
X135886000Y-76557900D01*
G75*
G02*
X136021000Y-76422900I135000J0D01*
G01*
X136391000Y-76422900D01*
G75*
G02*
X136526000Y-76557900I0J-135000D01*
G01*
X136526000Y-76827900D01*
G75*
G02*
X136391000Y-76962900I-135000J0D01*
G01*
G37*
%TD*%
%TO.C,R13*%
G36*
G01*
X124453000Y-77982900D02*
X124083000Y-77982900D01*
G75*
G02*
X123948000Y-77847900I0J135000D01*
G01*
X123948000Y-77577900D01*
G75*
G02*
X124083000Y-77442900I135000J0D01*
G01*
X124453000Y-77442900D01*
G75*
G02*
X124588000Y-77577900I0J-135000D01*
G01*
X124588000Y-77847900D01*
G75*
G02*
X124453000Y-77982900I-135000J0D01*
G01*
G37*
G36*
G01*
X124453000Y-76962900D02*
X124083000Y-76962900D01*
G75*
G02*
X123948000Y-76827900I0J135000D01*
G01*
X123948000Y-76557900D01*
G75*
G02*
X124083000Y-76422900I135000J0D01*
G01*
X124453000Y-76422900D01*
G75*
G02*
X124588000Y-76557900I0J-135000D01*
G01*
X124588000Y-76827900D01*
G75*
G02*
X124453000Y-76962900I-135000J0D01*
G01*
G37*
%TD*%
%TO.C,R12*%
G36*
G01*
X158997000Y-77980900D02*
X158627000Y-77980900D01*
G75*
G02*
X158492000Y-77845900I0J135000D01*
G01*
X158492000Y-77575900D01*
G75*
G02*
X158627000Y-77440900I135000J0D01*
G01*
X158997000Y-77440900D01*
G75*
G02*
X159132000Y-77575900I0J-135000D01*
G01*
X159132000Y-77845900D01*
G75*
G02*
X158997000Y-77980900I-135000J0D01*
G01*
G37*
G36*
G01*
X158997000Y-76960900D02*
X158627000Y-76960900D01*
G75*
G02*
X158492000Y-76825900I0J135000D01*
G01*
X158492000Y-76555900D01*
G75*
G02*
X158627000Y-76420900I135000J0D01*
G01*
X158997000Y-76420900D01*
G75*
G02*
X159132000Y-76555900I0J-135000D01*
G01*
X159132000Y-76825900D01*
G75*
G02*
X158997000Y-76960900I-135000J0D01*
G01*
G37*
%TD*%
%TO.C,R11*%
G36*
G01*
X147059000Y-77982900D02*
X146689000Y-77982900D01*
G75*
G02*
X146554000Y-77847900I0J135000D01*
G01*
X146554000Y-77577900D01*
G75*
G02*
X146689000Y-77442900I135000J0D01*
G01*
X147059000Y-77442900D01*
G75*
G02*
X147194000Y-77577900I0J-135000D01*
G01*
X147194000Y-77847900D01*
G75*
G02*
X147059000Y-77982900I-135000J0D01*
G01*
G37*
G36*
G01*
X147059000Y-76962900D02*
X146689000Y-76962900D01*
G75*
G02*
X146554000Y-76827900I0J135000D01*
G01*
X146554000Y-76557900D01*
G75*
G02*
X146689000Y-76422900I135000J0D01*
G01*
X147059000Y-76422900D01*
G75*
G02*
X147194000Y-76557900I0J-135000D01*
G01*
X147194000Y-76827900D01*
G75*
G02*
X147059000Y-76962900I-135000J0D01*
G01*
G37*
%TD*%
%TO.C,R10*%
G36*
G01*
X134994000Y-77982900D02*
X134624000Y-77982900D01*
G75*
G02*
X134489000Y-77847900I0J135000D01*
G01*
X134489000Y-77577900D01*
G75*
G02*
X134624000Y-77442900I135000J0D01*
G01*
X134994000Y-77442900D01*
G75*
G02*
X135129000Y-77577900I0J-135000D01*
G01*
X135129000Y-77847900D01*
G75*
G02*
X134994000Y-77982900I-135000J0D01*
G01*
G37*
G36*
G01*
X134994000Y-76962900D02*
X134624000Y-76962900D01*
G75*
G02*
X134489000Y-76827900I0J135000D01*
G01*
X134489000Y-76557900D01*
G75*
G02*
X134624000Y-76422900I135000J0D01*
G01*
X134994000Y-76422900D01*
G75*
G02*
X135129000Y-76557900I0J-135000D01*
G01*
X135129000Y-76827900D01*
G75*
G02*
X134994000Y-76962900I-135000J0D01*
G01*
G37*
%TD*%
%TO.C,R9*%
G36*
G01*
X123056000Y-77982900D02*
X122686000Y-77982900D01*
G75*
G02*
X122551000Y-77847900I0J135000D01*
G01*
X122551000Y-77577900D01*
G75*
G02*
X122686000Y-77442900I135000J0D01*
G01*
X123056000Y-77442900D01*
G75*
G02*
X123191000Y-77577900I0J-135000D01*
G01*
X123191000Y-77847900D01*
G75*
G02*
X123056000Y-77982900I-135000J0D01*
G01*
G37*
G36*
G01*
X123056000Y-76962900D02*
X122686000Y-76962900D01*
G75*
G02*
X122551000Y-76827900I0J135000D01*
G01*
X122551000Y-76557900D01*
G75*
G02*
X122686000Y-76422900I135000J0D01*
G01*
X123056000Y-76422900D01*
G75*
G02*
X123191000Y-76557900I0J-135000D01*
G01*
X123191000Y-76827900D01*
G75*
G02*
X123056000Y-76962900I-135000J0D01*
G01*
G37*
%TD*%
%TO.C,R8*%
G36*
G01*
X157600000Y-77980900D02*
X157230000Y-77980900D01*
G75*
G02*
X157095000Y-77845900I0J135000D01*
G01*
X157095000Y-77575900D01*
G75*
G02*
X157230000Y-77440900I135000J0D01*
G01*
X157600000Y-77440900D01*
G75*
G02*
X157735000Y-77575900I0J-135000D01*
G01*
X157735000Y-77845900D01*
G75*
G02*
X157600000Y-77980900I-135000J0D01*
G01*
G37*
G36*
G01*
X157600000Y-76960900D02*
X157230000Y-76960900D01*
G75*
G02*
X157095000Y-76825900I0J135000D01*
G01*
X157095000Y-76555900D01*
G75*
G02*
X157230000Y-76420900I135000J0D01*
G01*
X157600000Y-76420900D01*
G75*
G02*
X157735000Y-76555900I0J-135000D01*
G01*
X157735000Y-76825900D01*
G75*
G02*
X157600000Y-76960900I-135000J0D01*
G01*
G37*
%TD*%
%TO.C,R7*%
G36*
G01*
X145662000Y-77984900D02*
X145292000Y-77984900D01*
G75*
G02*
X145157000Y-77849900I0J135000D01*
G01*
X145157000Y-77579900D01*
G75*
G02*
X145292000Y-77444900I135000J0D01*
G01*
X145662000Y-77444900D01*
G75*
G02*
X145797000Y-77579900I0J-135000D01*
G01*
X145797000Y-77849900D01*
G75*
G02*
X145662000Y-77984900I-135000J0D01*
G01*
G37*
G36*
G01*
X145662000Y-76964900D02*
X145292000Y-76964900D01*
G75*
G02*
X145157000Y-76829900I0J135000D01*
G01*
X145157000Y-76559900D01*
G75*
G02*
X145292000Y-76424900I135000J0D01*
G01*
X145662000Y-76424900D01*
G75*
G02*
X145797000Y-76559900I0J-135000D01*
G01*
X145797000Y-76829900D01*
G75*
G02*
X145662000Y-76964900I-135000J0D01*
G01*
G37*
%TD*%
%TO.C,R6*%
G36*
G01*
X133597000Y-77982900D02*
X133227000Y-77982900D01*
G75*
G02*
X133092000Y-77847900I0J135000D01*
G01*
X133092000Y-77577900D01*
G75*
G02*
X133227000Y-77442900I135000J0D01*
G01*
X133597000Y-77442900D01*
G75*
G02*
X133732000Y-77577900I0J-135000D01*
G01*
X133732000Y-77847900D01*
G75*
G02*
X133597000Y-77982900I-135000J0D01*
G01*
G37*
G36*
G01*
X133597000Y-76962900D02*
X133227000Y-76962900D01*
G75*
G02*
X133092000Y-76827900I0J135000D01*
G01*
X133092000Y-76557900D01*
G75*
G02*
X133227000Y-76422900I135000J0D01*
G01*
X133597000Y-76422900D01*
G75*
G02*
X133732000Y-76557900I0J-135000D01*
G01*
X133732000Y-76827900D01*
G75*
G02*
X133597000Y-76962900I-135000J0D01*
G01*
G37*
%TD*%
%TO.C,R5*%
G36*
G01*
X121659000Y-77982900D02*
X121289000Y-77982900D01*
G75*
G02*
X121154000Y-77847900I0J135000D01*
G01*
X121154000Y-77577900D01*
G75*
G02*
X121289000Y-77442900I135000J0D01*
G01*
X121659000Y-77442900D01*
G75*
G02*
X121794000Y-77577900I0J-135000D01*
G01*
X121794000Y-77847900D01*
G75*
G02*
X121659000Y-77982900I-135000J0D01*
G01*
G37*
G36*
G01*
X121659000Y-76962900D02*
X121289000Y-76962900D01*
G75*
G02*
X121154000Y-76827900I0J135000D01*
G01*
X121154000Y-76557900D01*
G75*
G02*
X121289000Y-76422900I135000J0D01*
G01*
X121659000Y-76422900D01*
G75*
G02*
X121794000Y-76557900I0J-135000D01*
G01*
X121794000Y-76827900D01*
G75*
G02*
X121659000Y-76962900I-135000J0D01*
G01*
G37*
%TD*%
%TO.C,R4*%
G36*
G01*
X156203000Y-77980900D02*
X155833000Y-77980900D01*
G75*
G02*
X155698000Y-77845900I0J135000D01*
G01*
X155698000Y-77575900D01*
G75*
G02*
X155833000Y-77440900I135000J0D01*
G01*
X156203000Y-77440900D01*
G75*
G02*
X156338000Y-77575900I0J-135000D01*
G01*
X156338000Y-77845900D01*
G75*
G02*
X156203000Y-77980900I-135000J0D01*
G01*
G37*
G36*
G01*
X156203000Y-76960900D02*
X155833000Y-76960900D01*
G75*
G02*
X155698000Y-76825900I0J135000D01*
G01*
X155698000Y-76555900D01*
G75*
G02*
X155833000Y-76420900I135000J0D01*
G01*
X156203000Y-76420900D01*
G75*
G02*
X156338000Y-76555900I0J-135000D01*
G01*
X156338000Y-76825900D01*
G75*
G02*
X156203000Y-76960900I-135000J0D01*
G01*
G37*
%TD*%
%TO.C,R3*%
G36*
G01*
X144265000Y-77984900D02*
X143895000Y-77984900D01*
G75*
G02*
X143760000Y-77849900I0J135000D01*
G01*
X143760000Y-77579900D01*
G75*
G02*
X143895000Y-77444900I135000J0D01*
G01*
X144265000Y-77444900D01*
G75*
G02*
X144400000Y-77579900I0J-135000D01*
G01*
X144400000Y-77849900D01*
G75*
G02*
X144265000Y-77984900I-135000J0D01*
G01*
G37*
G36*
G01*
X144265000Y-76964900D02*
X143895000Y-76964900D01*
G75*
G02*
X143760000Y-76829900I0J135000D01*
G01*
X143760000Y-76559900D01*
G75*
G02*
X143895000Y-76424900I135000J0D01*
G01*
X144265000Y-76424900D01*
G75*
G02*
X144400000Y-76559900I0J-135000D01*
G01*
X144400000Y-76829900D01*
G75*
G02*
X144265000Y-76964900I-135000J0D01*
G01*
G37*
%TD*%
%TO.C,R2*%
G36*
G01*
X132200000Y-77982900D02*
X131830000Y-77982900D01*
G75*
G02*
X131695000Y-77847900I0J135000D01*
G01*
X131695000Y-77577900D01*
G75*
G02*
X131830000Y-77442900I135000J0D01*
G01*
X132200000Y-77442900D01*
G75*
G02*
X132335000Y-77577900I0J-135000D01*
G01*
X132335000Y-77847900D01*
G75*
G02*
X132200000Y-77982900I-135000J0D01*
G01*
G37*
G36*
G01*
X132200000Y-76962900D02*
X131830000Y-76962900D01*
G75*
G02*
X131695000Y-76827900I0J135000D01*
G01*
X131695000Y-76557900D01*
G75*
G02*
X131830000Y-76422900I135000J0D01*
G01*
X132200000Y-76422900D01*
G75*
G02*
X132335000Y-76557900I0J-135000D01*
G01*
X132335000Y-76827900D01*
G75*
G02*
X132200000Y-76962900I-135000J0D01*
G01*
G37*
%TD*%
%TO.C,R1*%
G36*
G01*
X120262000Y-77982900D02*
X119892000Y-77982900D01*
G75*
G02*
X119757000Y-77847900I0J135000D01*
G01*
X119757000Y-77577900D01*
G75*
G02*
X119892000Y-77442900I135000J0D01*
G01*
X120262000Y-77442900D01*
G75*
G02*
X120397000Y-77577900I0J-135000D01*
G01*
X120397000Y-77847900D01*
G75*
G02*
X120262000Y-77982900I-135000J0D01*
G01*
G37*
G36*
G01*
X120262000Y-76962900D02*
X119892000Y-76962900D01*
G75*
G02*
X119757000Y-76827900I0J135000D01*
G01*
X119757000Y-76557900D01*
G75*
G02*
X119892000Y-76422900I135000J0D01*
G01*
X120262000Y-76422900D01*
G75*
G02*
X120397000Y-76557900I0J-135000D01*
G01*
X120397000Y-76827900D01*
G75*
G02*
X120262000Y-76962900I-135000J0D01*
G01*
G37*
%TD*%
%TO.C,J1*%
G36*
G01*
X96432000Y-85561000D02*
X96432000Y-84111000D01*
G75*
G02*
X96682000Y-83861000I250000J0D01*
G01*
X97882000Y-83861000D01*
G75*
G02*
X98132000Y-84111000I0J-250000D01*
G01*
X98132000Y-85561000D01*
G75*
G02*
X97882000Y-85811000I-250000J0D01*
G01*
X96682000Y-85811000D01*
G75*
G02*
X96432000Y-85561000I0J250000D01*
G01*
G37*
X99782000Y-84836000D03*
X102282000Y-84836000D03*
X104782000Y-84836000D03*
X107282000Y-84836000D03*
X109782000Y-84836000D03*
X112282000Y-84836000D03*
X114782000Y-84836000D03*
%TD*%
D14*
%TO.C,U5*%
X162393000Y-53707000D03*
D15*
X162393000Y-60007000D03*
X164693000Y-60007000D03*
X160093000Y-60007000D03*
%TD*%
D16*
%TO.C,J9*%
X187330000Y-65650000D03*
D17*
X187330000Y-60570000D03*
%TD*%
D18*
%TO.C,H4*%
X98697056Y-38302944D03*
X97000000Y-37600000D03*
X95302944Y-38302944D03*
X94600000Y-40000000D03*
X95302944Y-41697056D03*
X97000000Y-42400000D03*
X98697056Y-41697056D03*
X99400000Y-40000000D03*
D19*
X97000000Y-40000000D03*
%TD*%
D18*
%TO.C,H3*%
X98697056Y-76302944D03*
X97000000Y-75600000D03*
X95302944Y-76302944D03*
X94600000Y-78000000D03*
X95302944Y-79697056D03*
X97000000Y-80400000D03*
X98697056Y-79697056D03*
X99400000Y-78000000D03*
D19*
X97000000Y-78000000D03*
%TD*%
D18*
%TO.C,H2*%
X190697056Y-38302944D03*
X189000000Y-37600000D03*
X187302944Y-38302944D03*
X186600000Y-40000000D03*
X187302944Y-41697056D03*
X189000000Y-42400000D03*
X190697056Y-41697056D03*
X191400000Y-40000000D03*
D19*
X189000000Y-40000000D03*
%TD*%
D18*
%TO.C,H1*%
X190697056Y-76302944D03*
X189000000Y-75600000D03*
X187302944Y-76302944D03*
X186600000Y-78000000D03*
X187302944Y-79697056D03*
X189000000Y-80400000D03*
X190697056Y-79697056D03*
X191400000Y-78000000D03*
D19*
X189000000Y-78000000D03*
%TD*%
D10*
%TO.C,C9*%
X178000000Y-64500000D03*
D20*
X178000000Y-62000000D03*
%TD*%
%TO.C,C8*%
G36*
G01*
X162500000Y-61850000D02*
X162500000Y-62350000D01*
G75*
G02*
X162275000Y-62575000I-225000J0D01*
G01*
X161825000Y-62575000D01*
G75*
G02*
X161600000Y-62350000I0J225000D01*
G01*
X161600000Y-61850000D01*
G75*
G02*
X161825000Y-61625000I225000J0D01*
G01*
X162275000Y-61625000D01*
G75*
G02*
X162500000Y-61850000I0J-225000D01*
G01*
G37*
G36*
G01*
X160950000Y-61850000D02*
X160950000Y-62350000D01*
G75*
G02*
X160725000Y-62575000I-225000J0D01*
G01*
X160275000Y-62575000D01*
G75*
G02*
X160050000Y-62350000I0J225000D01*
G01*
X160050000Y-61850000D01*
G75*
G02*
X160275000Y-61625000I225000J0D01*
G01*
X160725000Y-61625000D01*
G75*
G02*
X160950000Y-61850000I0J-225000D01*
G01*
G37*
%TD*%
%TO.C,C6*%
G36*
G01*
X95925000Y-46450000D02*
X95925000Y-45950000D01*
G75*
G02*
X96150000Y-45725000I225000J0D01*
G01*
X96600000Y-45725000D01*
G75*
G02*
X96825000Y-45950000I0J-225000D01*
G01*
X96825000Y-46450000D01*
G75*
G02*
X96600000Y-46675000I-225000J0D01*
G01*
X96150000Y-46675000D01*
G75*
G02*
X95925000Y-46450000I0J225000D01*
G01*
G37*
G36*
G01*
X94375000Y-46450000D02*
X94375000Y-45950000D01*
G75*
G02*
X94600000Y-45725000I225000J0D01*
G01*
X95050000Y-45725000D01*
G75*
G02*
X95275000Y-45950000I0J-225000D01*
G01*
X95275000Y-46450000D01*
G75*
G02*
X95050000Y-46675000I-225000J0D01*
G01*
X94600000Y-46675000D01*
G75*
G02*
X94375000Y-46450000I0J225000D01*
G01*
G37*
%TD*%
%TO.C,C5*%
G36*
G01*
X166677000Y-69860900D02*
X167177000Y-69860900D01*
G75*
G02*
X167402000Y-70085900I0J-225000D01*
G01*
X167402000Y-70535900D01*
G75*
G02*
X167177000Y-70760900I-225000J0D01*
G01*
X166677000Y-70760900D01*
G75*
G02*
X166452000Y-70535900I0J225000D01*
G01*
X166452000Y-70085900D01*
G75*
G02*
X166677000Y-69860900I225000J0D01*
G01*
G37*
G36*
G01*
X166677000Y-71410900D02*
X167177000Y-71410900D01*
G75*
G02*
X167402000Y-71635900I0J-225000D01*
G01*
X167402000Y-72085900D01*
G75*
G02*
X167177000Y-72310900I-225000J0D01*
G01*
X166677000Y-72310900D01*
G75*
G02*
X166452000Y-72085900I0J225000D01*
G01*
X166452000Y-71635900D01*
G75*
G02*
X166677000Y-71410900I225000J0D01*
G01*
G37*
%TD*%
%TO.C,C4*%
G36*
G01*
X154677000Y-69860900D02*
X155177000Y-69860900D01*
G75*
G02*
X155402000Y-70085900I0J-225000D01*
G01*
X155402000Y-70535900D01*
G75*
G02*
X155177000Y-70760900I-225000J0D01*
G01*
X154677000Y-70760900D01*
G75*
G02*
X154452000Y-70535900I0J225000D01*
G01*
X154452000Y-70085900D01*
G75*
G02*
X154677000Y-69860900I225000J0D01*
G01*
G37*
G36*
G01*
X154677000Y-71410900D02*
X155177000Y-71410900D01*
G75*
G02*
X155402000Y-71635900I0J-225000D01*
G01*
X155402000Y-72085900D01*
G75*
G02*
X155177000Y-72310900I-225000J0D01*
G01*
X154677000Y-72310900D01*
G75*
G02*
X154452000Y-72085900I0J225000D01*
G01*
X154452000Y-71635900D01*
G75*
G02*
X154677000Y-71410900I225000J0D01*
G01*
G37*
%TD*%
%TO.C,C3*%
G36*
G01*
X142677000Y-69860900D02*
X143177000Y-69860900D01*
G75*
G02*
X143402000Y-70085900I0J-225000D01*
G01*
X143402000Y-70535900D01*
G75*
G02*
X143177000Y-70760900I-225000J0D01*
G01*
X142677000Y-70760900D01*
G75*
G02*
X142452000Y-70535900I0J225000D01*
G01*
X142452000Y-70085900D01*
G75*
G02*
X142677000Y-69860900I225000J0D01*
G01*
G37*
G36*
G01*
X142677000Y-71410900D02*
X143177000Y-71410900D01*
G75*
G02*
X143402000Y-71635900I0J-225000D01*
G01*
X143402000Y-72085900D01*
G75*
G02*
X143177000Y-72310900I-225000J0D01*
G01*
X142677000Y-72310900D01*
G75*
G02*
X142452000Y-72085900I0J225000D01*
G01*
X142452000Y-71635900D01*
G75*
G02*
X142677000Y-71410900I225000J0D01*
G01*
G37*
%TD*%
%TO.C,C2*%
G36*
G01*
X130677000Y-69810900D02*
X131177000Y-69810900D01*
G75*
G02*
X131402000Y-70035900I0J-225000D01*
G01*
X131402000Y-70485900D01*
G75*
G02*
X131177000Y-70710900I-225000J0D01*
G01*
X130677000Y-70710900D01*
G75*
G02*
X130452000Y-70485900I0J225000D01*
G01*
X130452000Y-70035900D01*
G75*
G02*
X130677000Y-69810900I225000J0D01*
G01*
G37*
G36*
G01*
X130677000Y-71360900D02*
X131177000Y-71360900D01*
G75*
G02*
X131402000Y-71585900I0J-225000D01*
G01*
X131402000Y-72035900D01*
G75*
G02*
X131177000Y-72260900I-225000J0D01*
G01*
X130677000Y-72260900D01*
G75*
G02*
X130452000Y-72035900I0J225000D01*
G01*
X130452000Y-71585900D01*
G75*
G02*
X130677000Y-71360900I225000J0D01*
G01*
G37*
%TD*%
%TO.C,C1*%
G36*
G01*
X118677000Y-69860900D02*
X119177000Y-69860900D01*
G75*
G02*
X119402000Y-70085900I0J-225000D01*
G01*
X119402000Y-70535900D01*
G75*
G02*
X119177000Y-70760900I-225000J0D01*
G01*
X118677000Y-70760900D01*
G75*
G02*
X118452000Y-70535900I0J225000D01*
G01*
X118452000Y-70085900D01*
G75*
G02*
X118677000Y-69860900I225000J0D01*
G01*
G37*
G36*
G01*
X118677000Y-71410900D02*
X119177000Y-71410900D01*
G75*
G02*
X119402000Y-71635900I0J-225000D01*
G01*
X119402000Y-72085900D01*
G75*
G02*
X119177000Y-72310900I-225000J0D01*
G01*
X118677000Y-72310900D01*
G75*
G02*
X118452000Y-72085900I0J225000D01*
G01*
X118452000Y-71635900D01*
G75*
G02*
X118677000Y-71410900I225000J0D01*
G01*
G37*
%TD*%
%TO.C,U4*%
G36*
G01*
X156632000Y-74485900D02*
X156332000Y-74485900D01*
G75*
G02*
X156182000Y-74335900I0J150000D01*
G01*
X156182000Y-72685900D01*
G75*
G02*
X156332000Y-72535900I150000J0D01*
G01*
X156632000Y-72535900D01*
G75*
G02*
X156782000Y-72685900I0J-150000D01*
G01*
X156782000Y-74335900D01*
G75*
G02*
X156632000Y-74485900I-150000J0D01*
G01*
G37*
G36*
G01*
X157902000Y-74485900D02*
X157602000Y-74485900D01*
G75*
G02*
X157452000Y-74335900I0J150000D01*
G01*
X157452000Y-72685900D01*
G75*
G02*
X157602000Y-72535900I150000J0D01*
G01*
X157902000Y-72535900D01*
G75*
G02*
X158052000Y-72685900I0J-150000D01*
G01*
X158052000Y-74335900D01*
G75*
G02*
X157902000Y-74485900I-150000J0D01*
G01*
G37*
G36*
G01*
X159172000Y-74485900D02*
X158872000Y-74485900D01*
G75*
G02*
X158722000Y-74335900I0J150000D01*
G01*
X158722000Y-72685900D01*
G75*
G02*
X158872000Y-72535900I150000J0D01*
G01*
X159172000Y-72535900D01*
G75*
G02*
X159322000Y-72685900I0J-150000D01*
G01*
X159322000Y-74335900D01*
G75*
G02*
X159172000Y-74485900I-150000J0D01*
G01*
G37*
G36*
G01*
X160442000Y-74485900D02*
X160142000Y-74485900D01*
G75*
G02*
X159992000Y-74335900I0J150000D01*
G01*
X159992000Y-72685900D01*
G75*
G02*
X160142000Y-72535900I150000J0D01*
G01*
X160442000Y-72535900D01*
G75*
G02*
X160592000Y-72685900I0J-150000D01*
G01*
X160592000Y-74335900D01*
G75*
G02*
X160442000Y-74485900I-150000J0D01*
G01*
G37*
G36*
G01*
X161712000Y-74485900D02*
X161412000Y-74485900D01*
G75*
G02*
X161262000Y-74335900I0J150000D01*
G01*
X161262000Y-72685900D01*
G75*
G02*
X161412000Y-72535900I150000J0D01*
G01*
X161712000Y-72535900D01*
G75*
G02*
X161862000Y-72685900I0J-150000D01*
G01*
X161862000Y-74335900D01*
G75*
G02*
X161712000Y-74485900I-150000J0D01*
G01*
G37*
G36*
G01*
X162982000Y-74485900D02*
X162682000Y-74485900D01*
G75*
G02*
X162532000Y-74335900I0J150000D01*
G01*
X162532000Y-72685900D01*
G75*
G02*
X162682000Y-72535900I150000J0D01*
G01*
X162982000Y-72535900D01*
G75*
G02*
X163132000Y-72685900I0J-150000D01*
G01*
X163132000Y-74335900D01*
G75*
G02*
X162982000Y-74485900I-150000J0D01*
G01*
G37*
G36*
G01*
X164252000Y-74485900D02*
X163952000Y-74485900D01*
G75*
G02*
X163802000Y-74335900I0J150000D01*
G01*
X163802000Y-72685900D01*
G75*
G02*
X163952000Y-72535900I150000J0D01*
G01*
X164252000Y-72535900D01*
G75*
G02*
X164402000Y-72685900I0J-150000D01*
G01*
X164402000Y-74335900D01*
G75*
G02*
X164252000Y-74485900I-150000J0D01*
G01*
G37*
G36*
G01*
X165522000Y-74485900D02*
X165222000Y-74485900D01*
G75*
G02*
X165072000Y-74335900I0J150000D01*
G01*
X165072000Y-72685900D01*
G75*
G02*
X165222000Y-72535900I150000J0D01*
G01*
X165522000Y-72535900D01*
G75*
G02*
X165672000Y-72685900I0J-150000D01*
G01*
X165672000Y-74335900D01*
G75*
G02*
X165522000Y-74485900I-150000J0D01*
G01*
G37*
G36*
G01*
X165522000Y-69535900D02*
X165222000Y-69535900D01*
G75*
G02*
X165072000Y-69385900I0J150000D01*
G01*
X165072000Y-67735900D01*
G75*
G02*
X165222000Y-67585900I150000J0D01*
G01*
X165522000Y-67585900D01*
G75*
G02*
X165672000Y-67735900I0J-150000D01*
G01*
X165672000Y-69385900D01*
G75*
G02*
X165522000Y-69535900I-150000J0D01*
G01*
G37*
G36*
G01*
X164252000Y-69535900D02*
X163952000Y-69535900D01*
G75*
G02*
X163802000Y-69385900I0J150000D01*
G01*
X163802000Y-67735900D01*
G75*
G02*
X163952000Y-67585900I150000J0D01*
G01*
X164252000Y-67585900D01*
G75*
G02*
X164402000Y-67735900I0J-150000D01*
G01*
X164402000Y-69385900D01*
G75*
G02*
X164252000Y-69535900I-150000J0D01*
G01*
G37*
G36*
G01*
X162982000Y-69535900D02*
X162682000Y-69535900D01*
G75*
G02*
X162532000Y-69385900I0J150000D01*
G01*
X162532000Y-67735900D01*
G75*
G02*
X162682000Y-67585900I150000J0D01*
G01*
X162982000Y-67585900D01*
G75*
G02*
X163132000Y-67735900I0J-150000D01*
G01*
X163132000Y-69385900D01*
G75*
G02*
X162982000Y-69535900I-150000J0D01*
G01*
G37*
G36*
G01*
X161712000Y-69535900D02*
X161412000Y-69535900D01*
G75*
G02*
X161262000Y-69385900I0J150000D01*
G01*
X161262000Y-67735900D01*
G75*
G02*
X161412000Y-67585900I150000J0D01*
G01*
X161712000Y-67585900D01*
G75*
G02*
X161862000Y-67735900I0J-150000D01*
G01*
X161862000Y-69385900D01*
G75*
G02*
X161712000Y-69535900I-150000J0D01*
G01*
G37*
G36*
G01*
X160442000Y-69535900D02*
X160142000Y-69535900D01*
G75*
G02*
X159992000Y-69385900I0J150000D01*
G01*
X159992000Y-67735900D01*
G75*
G02*
X160142000Y-67585900I150000J0D01*
G01*
X160442000Y-67585900D01*
G75*
G02*
X160592000Y-67735900I0J-150000D01*
G01*
X160592000Y-69385900D01*
G75*
G02*
X160442000Y-69535900I-150000J0D01*
G01*
G37*
G36*
G01*
X159172000Y-69535900D02*
X158872000Y-69535900D01*
G75*
G02*
X158722000Y-69385900I0J150000D01*
G01*
X158722000Y-67735900D01*
G75*
G02*
X158872000Y-67585900I150000J0D01*
G01*
X159172000Y-67585900D01*
G75*
G02*
X159322000Y-67735900I0J-150000D01*
G01*
X159322000Y-69385900D01*
G75*
G02*
X159172000Y-69535900I-150000J0D01*
G01*
G37*
G36*
G01*
X157902000Y-69535900D02*
X157602000Y-69535900D01*
G75*
G02*
X157452000Y-69385900I0J150000D01*
G01*
X157452000Y-67735900D01*
G75*
G02*
X157602000Y-67585900I150000J0D01*
G01*
X157902000Y-67585900D01*
G75*
G02*
X158052000Y-67735900I0J-150000D01*
G01*
X158052000Y-69385900D01*
G75*
G02*
X157902000Y-69535900I-150000J0D01*
G01*
G37*
G36*
G01*
X156632000Y-69535900D02*
X156332000Y-69535900D01*
G75*
G02*
X156182000Y-69385900I0J150000D01*
G01*
X156182000Y-67735900D01*
G75*
G02*
X156332000Y-67585900I150000J0D01*
G01*
X156632000Y-67585900D01*
G75*
G02*
X156782000Y-67735900I0J-150000D01*
G01*
X156782000Y-69385900D01*
G75*
G02*
X156632000Y-69535900I-150000J0D01*
G01*
G37*
%TD*%
%TO.C,U1*%
G36*
G01*
X120632000Y-74485900D02*
X120332000Y-74485900D01*
G75*
G02*
X120182000Y-74335900I0J150000D01*
G01*
X120182000Y-72685900D01*
G75*
G02*
X120332000Y-72535900I150000J0D01*
G01*
X120632000Y-72535900D01*
G75*
G02*
X120782000Y-72685900I0J-150000D01*
G01*
X120782000Y-74335900D01*
G75*
G02*
X120632000Y-74485900I-150000J0D01*
G01*
G37*
G36*
G01*
X121902000Y-74485900D02*
X121602000Y-74485900D01*
G75*
G02*
X121452000Y-74335900I0J150000D01*
G01*
X121452000Y-72685900D01*
G75*
G02*
X121602000Y-72535900I150000J0D01*
G01*
X121902000Y-72535900D01*
G75*
G02*
X122052000Y-72685900I0J-150000D01*
G01*
X122052000Y-74335900D01*
G75*
G02*
X121902000Y-74485900I-150000J0D01*
G01*
G37*
G36*
G01*
X123172000Y-74485900D02*
X122872000Y-74485900D01*
G75*
G02*
X122722000Y-74335900I0J150000D01*
G01*
X122722000Y-72685900D01*
G75*
G02*
X122872000Y-72535900I150000J0D01*
G01*
X123172000Y-72535900D01*
G75*
G02*
X123322000Y-72685900I0J-150000D01*
G01*
X123322000Y-74335900D01*
G75*
G02*
X123172000Y-74485900I-150000J0D01*
G01*
G37*
G36*
G01*
X124442000Y-74485900D02*
X124142000Y-74485900D01*
G75*
G02*
X123992000Y-74335900I0J150000D01*
G01*
X123992000Y-72685900D01*
G75*
G02*
X124142000Y-72535900I150000J0D01*
G01*
X124442000Y-72535900D01*
G75*
G02*
X124592000Y-72685900I0J-150000D01*
G01*
X124592000Y-74335900D01*
G75*
G02*
X124442000Y-74485900I-150000J0D01*
G01*
G37*
G36*
G01*
X125712000Y-74485900D02*
X125412000Y-74485900D01*
G75*
G02*
X125262000Y-74335900I0J150000D01*
G01*
X125262000Y-72685900D01*
G75*
G02*
X125412000Y-72535900I150000J0D01*
G01*
X125712000Y-72535900D01*
G75*
G02*
X125862000Y-72685900I0J-150000D01*
G01*
X125862000Y-74335900D01*
G75*
G02*
X125712000Y-74485900I-150000J0D01*
G01*
G37*
G36*
G01*
X126982000Y-74485900D02*
X126682000Y-74485900D01*
G75*
G02*
X126532000Y-74335900I0J150000D01*
G01*
X126532000Y-72685900D01*
G75*
G02*
X126682000Y-72535900I150000J0D01*
G01*
X126982000Y-72535900D01*
G75*
G02*
X127132000Y-72685900I0J-150000D01*
G01*
X127132000Y-74335900D01*
G75*
G02*
X126982000Y-74485900I-150000J0D01*
G01*
G37*
G36*
G01*
X128252000Y-74485900D02*
X127952000Y-74485900D01*
G75*
G02*
X127802000Y-74335900I0J150000D01*
G01*
X127802000Y-72685900D01*
G75*
G02*
X127952000Y-72535900I150000J0D01*
G01*
X128252000Y-72535900D01*
G75*
G02*
X128402000Y-72685900I0J-150000D01*
G01*
X128402000Y-74335900D01*
G75*
G02*
X128252000Y-74485900I-150000J0D01*
G01*
G37*
G36*
G01*
X129522000Y-74485900D02*
X129222000Y-74485900D01*
G75*
G02*
X129072000Y-74335900I0J150000D01*
G01*
X129072000Y-72685900D01*
G75*
G02*
X129222000Y-72535900I150000J0D01*
G01*
X129522000Y-72535900D01*
G75*
G02*
X129672000Y-72685900I0J-150000D01*
G01*
X129672000Y-74335900D01*
G75*
G02*
X129522000Y-74485900I-150000J0D01*
G01*
G37*
G36*
G01*
X129522000Y-69535900D02*
X129222000Y-69535900D01*
G75*
G02*
X129072000Y-69385900I0J150000D01*
G01*
X129072000Y-67735900D01*
G75*
G02*
X129222000Y-67585900I150000J0D01*
G01*
X129522000Y-67585900D01*
G75*
G02*
X129672000Y-67735900I0J-150000D01*
G01*
X129672000Y-69385900D01*
G75*
G02*
X129522000Y-69535900I-150000J0D01*
G01*
G37*
G36*
G01*
X128252000Y-69535900D02*
X127952000Y-69535900D01*
G75*
G02*
X127802000Y-69385900I0J150000D01*
G01*
X127802000Y-67735900D01*
G75*
G02*
X127952000Y-67585900I150000J0D01*
G01*
X128252000Y-67585900D01*
G75*
G02*
X128402000Y-67735900I0J-150000D01*
G01*
X128402000Y-69385900D01*
G75*
G02*
X128252000Y-69535900I-150000J0D01*
G01*
G37*
G36*
G01*
X126982000Y-69535900D02*
X126682000Y-69535900D01*
G75*
G02*
X126532000Y-69385900I0J150000D01*
G01*
X126532000Y-67735900D01*
G75*
G02*
X126682000Y-67585900I150000J0D01*
G01*
X126982000Y-67585900D01*
G75*
G02*
X127132000Y-67735900I0J-150000D01*
G01*
X127132000Y-69385900D01*
G75*
G02*
X126982000Y-69535900I-150000J0D01*
G01*
G37*
G36*
G01*
X125712000Y-69535900D02*
X125412000Y-69535900D01*
G75*
G02*
X125262000Y-69385900I0J150000D01*
G01*
X125262000Y-67735900D01*
G75*
G02*
X125412000Y-67585900I150000J0D01*
G01*
X125712000Y-67585900D01*
G75*
G02*
X125862000Y-67735900I0J-150000D01*
G01*
X125862000Y-69385900D01*
G75*
G02*
X125712000Y-69535900I-150000J0D01*
G01*
G37*
G36*
G01*
X124442000Y-69535900D02*
X124142000Y-69535900D01*
G75*
G02*
X123992000Y-69385900I0J150000D01*
G01*
X123992000Y-67735900D01*
G75*
G02*
X124142000Y-67585900I150000J0D01*
G01*
X124442000Y-67585900D01*
G75*
G02*
X124592000Y-67735900I0J-150000D01*
G01*
X124592000Y-69385900D01*
G75*
G02*
X124442000Y-69535900I-150000J0D01*
G01*
G37*
G36*
G01*
X123172000Y-69535900D02*
X122872000Y-69535900D01*
G75*
G02*
X122722000Y-69385900I0J150000D01*
G01*
X122722000Y-67735900D01*
G75*
G02*
X122872000Y-67585900I150000J0D01*
G01*
X123172000Y-67585900D01*
G75*
G02*
X123322000Y-67735900I0J-150000D01*
G01*
X123322000Y-69385900D01*
G75*
G02*
X123172000Y-69535900I-150000J0D01*
G01*
G37*
G36*
G01*
X121902000Y-69535900D02*
X121602000Y-69535900D01*
G75*
G02*
X121452000Y-69385900I0J150000D01*
G01*
X121452000Y-67735900D01*
G75*
G02*
X121602000Y-67585900I150000J0D01*
G01*
X121902000Y-67585900D01*
G75*
G02*
X122052000Y-67735900I0J-150000D01*
G01*
X122052000Y-69385900D01*
G75*
G02*
X121902000Y-69535900I-150000J0D01*
G01*
G37*
G36*
G01*
X120632000Y-69535900D02*
X120332000Y-69535900D01*
G75*
G02*
X120182000Y-69385900I0J150000D01*
G01*
X120182000Y-67735900D01*
G75*
G02*
X120332000Y-67585900I150000J0D01*
G01*
X120632000Y-67585900D01*
G75*
G02*
X120782000Y-67735900I0J-150000D01*
G01*
X120782000Y-69385900D01*
G75*
G02*
X120632000Y-69535900I-150000J0D01*
G01*
G37*
%TD*%
%TO.C,U2*%
G36*
G01*
X132632000Y-74485900D02*
X132332000Y-74485900D01*
G75*
G02*
X132182000Y-74335900I0J150000D01*
G01*
X132182000Y-72685900D01*
G75*
G02*
X132332000Y-72535900I150000J0D01*
G01*
X132632000Y-72535900D01*
G75*
G02*
X132782000Y-72685900I0J-150000D01*
G01*
X132782000Y-74335900D01*
G75*
G02*
X132632000Y-74485900I-150000J0D01*
G01*
G37*
G36*
G01*
X133902000Y-74485900D02*
X133602000Y-74485900D01*
G75*
G02*
X133452000Y-74335900I0J150000D01*
G01*
X133452000Y-72685900D01*
G75*
G02*
X133602000Y-72535900I150000J0D01*
G01*
X133902000Y-72535900D01*
G75*
G02*
X134052000Y-72685900I0J-150000D01*
G01*
X134052000Y-74335900D01*
G75*
G02*
X133902000Y-74485900I-150000J0D01*
G01*
G37*
G36*
G01*
X135172000Y-74485900D02*
X134872000Y-74485900D01*
G75*
G02*
X134722000Y-74335900I0J150000D01*
G01*
X134722000Y-72685900D01*
G75*
G02*
X134872000Y-72535900I150000J0D01*
G01*
X135172000Y-72535900D01*
G75*
G02*
X135322000Y-72685900I0J-150000D01*
G01*
X135322000Y-74335900D01*
G75*
G02*
X135172000Y-74485900I-150000J0D01*
G01*
G37*
G36*
G01*
X136442000Y-74485900D02*
X136142000Y-74485900D01*
G75*
G02*
X135992000Y-74335900I0J150000D01*
G01*
X135992000Y-72685900D01*
G75*
G02*
X136142000Y-72535900I150000J0D01*
G01*
X136442000Y-72535900D01*
G75*
G02*
X136592000Y-72685900I0J-150000D01*
G01*
X136592000Y-74335900D01*
G75*
G02*
X136442000Y-74485900I-150000J0D01*
G01*
G37*
G36*
G01*
X137712000Y-74485900D02*
X137412000Y-74485900D01*
G75*
G02*
X137262000Y-74335900I0J150000D01*
G01*
X137262000Y-72685900D01*
G75*
G02*
X137412000Y-72535900I150000J0D01*
G01*
X137712000Y-72535900D01*
G75*
G02*
X137862000Y-72685900I0J-150000D01*
G01*
X137862000Y-74335900D01*
G75*
G02*
X137712000Y-74485900I-150000J0D01*
G01*
G37*
G36*
G01*
X138982000Y-74485900D02*
X138682000Y-74485900D01*
G75*
G02*
X138532000Y-74335900I0J150000D01*
G01*
X138532000Y-72685900D01*
G75*
G02*
X138682000Y-72535900I150000J0D01*
G01*
X138982000Y-72535900D01*
G75*
G02*
X139132000Y-72685900I0J-150000D01*
G01*
X139132000Y-74335900D01*
G75*
G02*
X138982000Y-74485900I-150000J0D01*
G01*
G37*
G36*
G01*
X140252000Y-74485900D02*
X139952000Y-74485900D01*
G75*
G02*
X139802000Y-74335900I0J150000D01*
G01*
X139802000Y-72685900D01*
G75*
G02*
X139952000Y-72535900I150000J0D01*
G01*
X140252000Y-72535900D01*
G75*
G02*
X140402000Y-72685900I0J-150000D01*
G01*
X140402000Y-74335900D01*
G75*
G02*
X140252000Y-74485900I-150000J0D01*
G01*
G37*
G36*
G01*
X141522000Y-74485900D02*
X141222000Y-74485900D01*
G75*
G02*
X141072000Y-74335900I0J150000D01*
G01*
X141072000Y-72685900D01*
G75*
G02*
X141222000Y-72535900I150000J0D01*
G01*
X141522000Y-72535900D01*
G75*
G02*
X141672000Y-72685900I0J-150000D01*
G01*
X141672000Y-74335900D01*
G75*
G02*
X141522000Y-74485900I-150000J0D01*
G01*
G37*
G36*
G01*
X141522000Y-69535900D02*
X141222000Y-69535900D01*
G75*
G02*
X141072000Y-69385900I0J150000D01*
G01*
X141072000Y-67735900D01*
G75*
G02*
X141222000Y-67585900I150000J0D01*
G01*
X141522000Y-67585900D01*
G75*
G02*
X141672000Y-67735900I0J-150000D01*
G01*
X141672000Y-69385900D01*
G75*
G02*
X141522000Y-69535900I-150000J0D01*
G01*
G37*
G36*
G01*
X140252000Y-69535900D02*
X139952000Y-69535900D01*
G75*
G02*
X139802000Y-69385900I0J150000D01*
G01*
X139802000Y-67735900D01*
G75*
G02*
X139952000Y-67585900I150000J0D01*
G01*
X140252000Y-67585900D01*
G75*
G02*
X140402000Y-67735900I0J-150000D01*
G01*
X140402000Y-69385900D01*
G75*
G02*
X140252000Y-69535900I-150000J0D01*
G01*
G37*
G36*
G01*
X138982000Y-69535900D02*
X138682000Y-69535900D01*
G75*
G02*
X138532000Y-69385900I0J150000D01*
G01*
X138532000Y-67735900D01*
G75*
G02*
X138682000Y-67585900I150000J0D01*
G01*
X138982000Y-67585900D01*
G75*
G02*
X139132000Y-67735900I0J-150000D01*
G01*
X139132000Y-69385900D01*
G75*
G02*
X138982000Y-69535900I-150000J0D01*
G01*
G37*
G36*
G01*
X137712000Y-69535900D02*
X137412000Y-69535900D01*
G75*
G02*
X137262000Y-69385900I0J150000D01*
G01*
X137262000Y-67735900D01*
G75*
G02*
X137412000Y-67585900I150000J0D01*
G01*
X137712000Y-67585900D01*
G75*
G02*
X137862000Y-67735900I0J-150000D01*
G01*
X137862000Y-69385900D01*
G75*
G02*
X137712000Y-69535900I-150000J0D01*
G01*
G37*
G36*
G01*
X136442000Y-69535900D02*
X136142000Y-69535900D01*
G75*
G02*
X135992000Y-69385900I0J150000D01*
G01*
X135992000Y-67735900D01*
G75*
G02*
X136142000Y-67585900I150000J0D01*
G01*
X136442000Y-67585900D01*
G75*
G02*
X136592000Y-67735900I0J-150000D01*
G01*
X136592000Y-69385900D01*
G75*
G02*
X136442000Y-69535900I-150000J0D01*
G01*
G37*
G36*
G01*
X135172000Y-69535900D02*
X134872000Y-69535900D01*
G75*
G02*
X134722000Y-69385900I0J150000D01*
G01*
X134722000Y-67735900D01*
G75*
G02*
X134872000Y-67585900I150000J0D01*
G01*
X135172000Y-67585900D01*
G75*
G02*
X135322000Y-67735900I0J-150000D01*
G01*
X135322000Y-69385900D01*
G75*
G02*
X135172000Y-69535900I-150000J0D01*
G01*
G37*
G36*
G01*
X133902000Y-69535900D02*
X133602000Y-69535900D01*
G75*
G02*
X133452000Y-69385900I0J150000D01*
G01*
X133452000Y-67735900D01*
G75*
G02*
X133602000Y-67585900I150000J0D01*
G01*
X133902000Y-67585900D01*
G75*
G02*
X134052000Y-67735900I0J-150000D01*
G01*
X134052000Y-69385900D01*
G75*
G02*
X133902000Y-69535900I-150000J0D01*
G01*
G37*
G36*
G01*
X132632000Y-69535900D02*
X132332000Y-69535900D01*
G75*
G02*
X132182000Y-69385900I0J150000D01*
G01*
X132182000Y-67735900D01*
G75*
G02*
X132332000Y-67585900I150000J0D01*
G01*
X132632000Y-67585900D01*
G75*
G02*
X132782000Y-67735900I0J-150000D01*
G01*
X132782000Y-69385900D01*
G75*
G02*
X132632000Y-69535900I-150000J0D01*
G01*
G37*
%TD*%
D13*
%TO.C,J4*%
X188696000Y-84836000D03*
X186196000Y-84836000D03*
X183696000Y-84836000D03*
X181196000Y-84836000D03*
X178696000Y-84836000D03*
X176196000Y-84836000D03*
X173696000Y-84836000D03*
G36*
G01*
X170346000Y-85561000D02*
X170346000Y-84111000D01*
G75*
G02*
X170596000Y-83861000I250000J0D01*
G01*
X171796000Y-83861000D01*
G75*
G02*
X172046000Y-84111000I0J-250000D01*
G01*
X172046000Y-85561000D01*
G75*
G02*
X171796000Y-85811000I-250000J0D01*
G01*
X170596000Y-85811000D01*
G75*
G02*
X170346000Y-85561000I0J250000D01*
G01*
G37*
%TD*%
%TO.C,J3*%
G36*
G01*
X145708000Y-85561000D02*
X145708000Y-84111000D01*
G75*
G02*
X145958000Y-83861000I250000J0D01*
G01*
X147158000Y-83861000D01*
G75*
G02*
X147408000Y-84111000I0J-250000D01*
G01*
X147408000Y-85561000D01*
G75*
G02*
X147158000Y-85811000I-250000J0D01*
G01*
X145958000Y-85811000D01*
G75*
G02*
X145708000Y-85561000I0J250000D01*
G01*
G37*
X149058000Y-84836000D03*
X151558000Y-84836000D03*
X154058000Y-84836000D03*
X156558000Y-84836000D03*
X159058000Y-84836000D03*
X161558000Y-84836000D03*
X164058000Y-84836000D03*
%TD*%
%TO.C,J2*%
G36*
G01*
X121070000Y-85561000D02*
X121070000Y-84111000D01*
G75*
G02*
X121320000Y-83861000I250000J0D01*
G01*
X122520000Y-83861000D01*
G75*
G02*
X122770000Y-84111000I0J-250000D01*
G01*
X122770000Y-85561000D01*
G75*
G02*
X122520000Y-85811000I-250000J0D01*
G01*
X121320000Y-85811000D01*
G75*
G02*
X121070000Y-85561000I0J250000D01*
G01*
G37*
X124420000Y-84836000D03*
X126920000Y-84836000D03*
X129420000Y-84836000D03*
X131920000Y-84836000D03*
X134420000Y-84836000D03*
X136920000Y-84836000D03*
X139420000Y-84836000D03*
%TD*%
M02*
