%TF.GenerationSoftware,KiCad,Pcbnew,(5.1.8-0-10_14)*%
%TF.CreationDate,2020-12-11T17:33:19+01:00*%
%TF.ProjectId,32Bit shift register,33324269-7420-4736-9869-667420726567,rev?*%
%TF.SameCoordinates,Original*%
%TF.FileFunction,Soldermask,Bot*%
%TF.FilePolarity,Negative*%
%FSLAX46Y46*%
G04 Gerber Fmt 4.6, Leading zero omitted, Abs format (unit mm)*
G04 Created by KiCad (PCBNEW (5.1.8-0-10_14)) date 2020-12-11 17:33:19*
%MOMM*%
%LPD*%
G01*
G04 APERTURE LIST*
%ADD10C,1.600000*%
%ADD11R,1.700000X1.700000*%
%ADD12O,1.700000X1.700000*%
%ADD13O,1.700000X1.950000*%
%ADD14C,3.000000*%
%ADD15R,3.000000X3.000000*%
%ADD16C,0.800000*%
%ADD17C,6.400000*%
%ADD18R,1.600000X1.600000*%
G04 APERTURE END LIST*
D10*
%TO.C,U6*%
X94290000Y-63520000D03*
X96830000Y-63520000D03*
X99370000Y-63520000D03*
X101910000Y-63520000D03*
X104450000Y-63520000D03*
X106990000Y-63520000D03*
X109530000Y-63520000D03*
X112070000Y-63520000D03*
X114610000Y-63520000D03*
X117150000Y-63520000D03*
X119690000Y-63520000D03*
X122230000Y-63520000D03*
X124770000Y-63520000D03*
X94290000Y-48280000D03*
X96830000Y-48280000D03*
X99370000Y-48280000D03*
X101910000Y-48280000D03*
X104450000Y-48280000D03*
X106990000Y-48280000D03*
X109530000Y-48280000D03*
X112070000Y-48280000D03*
X114610000Y-48280000D03*
X117150000Y-48280000D03*
X119690000Y-48280000D03*
X122230000Y-48280000D03*
X124770000Y-48280000D03*
X127310000Y-63520000D03*
X127310000Y-48280000D03*
%TD*%
D11*
%TO.C,J5*%
X164910000Y-39010000D03*
D12*
X162370000Y-39010000D03*
X164910000Y-41550000D03*
X162370000Y-41550000D03*
X164910000Y-44090000D03*
X162370000Y-44090000D03*
X164910000Y-46630000D03*
X162370000Y-46630000D03*
%TD*%
%TO.C,J8*%
G36*
G01*
X104150000Y-40725100D02*
X104150000Y-39274900D01*
G75*
G02*
X104399900Y-39025000I249900J0D01*
G01*
X105600100Y-39025000D01*
G75*
G02*
X105850000Y-39274900I0J-249900D01*
G01*
X105850000Y-40725100D01*
G75*
G02*
X105600100Y-40975000I-249900J0D01*
G01*
X104399900Y-40975000D01*
G75*
G02*
X104150000Y-40725100I0J249900D01*
G01*
G37*
D13*
X107500000Y-40000000D03*
X110000000Y-40000000D03*
X112500000Y-40000000D03*
X115000000Y-40000000D03*
X117500000Y-40000000D03*
X120000000Y-40000000D03*
X122500000Y-40000000D03*
X125000000Y-40000000D03*
%TD*%
%TO.C,J7*%
X156500000Y-40000000D03*
X154000000Y-40000000D03*
X151500000Y-40000000D03*
G36*
G01*
X148150000Y-40725000D02*
X148150000Y-39275000D01*
G75*
G02*
X148400000Y-39025000I250000J0D01*
G01*
X149600000Y-39025000D01*
G75*
G02*
X149850000Y-39275000I0J-250000D01*
G01*
X149850000Y-40725000D01*
G75*
G02*
X149600000Y-40975000I-250000J0D01*
G01*
X148400000Y-40975000D01*
G75*
G02*
X148150000Y-40725000I0J250000D01*
G01*
G37*
%TD*%
%TO.C,J6*%
X142000000Y-40000000D03*
X139500000Y-40000000D03*
X137000000Y-40000000D03*
X134500000Y-40000000D03*
G36*
G01*
X131150000Y-40725000D02*
X131150000Y-39275000D01*
G75*
G02*
X131400000Y-39025000I250000J0D01*
G01*
X132600000Y-39025000D01*
G75*
G02*
X132850000Y-39275000I0J-250000D01*
G01*
X132850000Y-40725000D01*
G75*
G02*
X132600000Y-40975000I-250000J0D01*
G01*
X131400000Y-40975000D01*
G75*
G02*
X131150000Y-40725000I0J250000D01*
G01*
G37*
%TD*%
%TO.C,J1*%
G36*
G01*
X96432000Y-85561000D02*
X96432000Y-84111000D01*
G75*
G02*
X96682000Y-83861000I250000J0D01*
G01*
X97882000Y-83861000D01*
G75*
G02*
X98132000Y-84111000I0J-250000D01*
G01*
X98132000Y-85561000D01*
G75*
G02*
X97882000Y-85811000I-250000J0D01*
G01*
X96682000Y-85811000D01*
G75*
G02*
X96432000Y-85561000I0J250000D01*
G01*
G37*
X99782000Y-84836000D03*
X102282000Y-84836000D03*
X104782000Y-84836000D03*
X107282000Y-84836000D03*
X109782000Y-84836000D03*
X112282000Y-84836000D03*
X114782000Y-84836000D03*
%TD*%
D14*
%TO.C,J9*%
X187330000Y-65650000D03*
D15*
X187330000Y-60570000D03*
%TD*%
D16*
%TO.C,H4*%
X98697056Y-38302944D03*
X97000000Y-37600000D03*
X95302944Y-38302944D03*
X94600000Y-40000000D03*
X95302944Y-41697056D03*
X97000000Y-42400000D03*
X98697056Y-41697056D03*
X99400000Y-40000000D03*
D17*
X97000000Y-40000000D03*
%TD*%
D16*
%TO.C,H3*%
X98697056Y-76302944D03*
X97000000Y-75600000D03*
X95302944Y-76302944D03*
X94600000Y-78000000D03*
X95302944Y-79697056D03*
X97000000Y-80400000D03*
X98697056Y-79697056D03*
X99400000Y-78000000D03*
D17*
X97000000Y-78000000D03*
%TD*%
D16*
%TO.C,H2*%
X190697056Y-38302944D03*
X189000000Y-37600000D03*
X187302944Y-38302944D03*
X186600000Y-40000000D03*
X187302944Y-41697056D03*
X189000000Y-42400000D03*
X190697056Y-41697056D03*
X191400000Y-40000000D03*
D17*
X189000000Y-40000000D03*
%TD*%
D16*
%TO.C,H1*%
X190697056Y-76302944D03*
X189000000Y-75600000D03*
X187302944Y-76302944D03*
X186600000Y-78000000D03*
X187302944Y-79697056D03*
X189000000Y-80400000D03*
X190697056Y-79697056D03*
X191400000Y-78000000D03*
D17*
X189000000Y-78000000D03*
%TD*%
D10*
%TO.C,C9*%
X178000000Y-64500000D03*
D18*
X178000000Y-62000000D03*
%TD*%
D13*
%TO.C,J4*%
X188696000Y-84836000D03*
X186196000Y-84836000D03*
X183696000Y-84836000D03*
X181196000Y-84836000D03*
X178696000Y-84836000D03*
X176196000Y-84836000D03*
X173696000Y-84836000D03*
G36*
G01*
X170346000Y-85561000D02*
X170346000Y-84111000D01*
G75*
G02*
X170596000Y-83861000I250000J0D01*
G01*
X171796000Y-83861000D01*
G75*
G02*
X172046000Y-84111000I0J-250000D01*
G01*
X172046000Y-85561000D01*
G75*
G02*
X171796000Y-85811000I-250000J0D01*
G01*
X170596000Y-85811000D01*
G75*
G02*
X170346000Y-85561000I0J250000D01*
G01*
G37*
%TD*%
%TO.C,J3*%
G36*
G01*
X145708000Y-85561000D02*
X145708000Y-84111000D01*
G75*
G02*
X145958000Y-83861000I250000J0D01*
G01*
X147158000Y-83861000D01*
G75*
G02*
X147408000Y-84111000I0J-250000D01*
G01*
X147408000Y-85561000D01*
G75*
G02*
X147158000Y-85811000I-250000J0D01*
G01*
X145958000Y-85811000D01*
G75*
G02*
X145708000Y-85561000I0J250000D01*
G01*
G37*
X149058000Y-84836000D03*
X151558000Y-84836000D03*
X154058000Y-84836000D03*
X156558000Y-84836000D03*
X159058000Y-84836000D03*
X161558000Y-84836000D03*
X164058000Y-84836000D03*
%TD*%
%TO.C,J2*%
G36*
G01*
X121070000Y-85561000D02*
X121070000Y-84111000D01*
G75*
G02*
X121320000Y-83861000I250000J0D01*
G01*
X122520000Y-83861000D01*
G75*
G02*
X122770000Y-84111000I0J-250000D01*
G01*
X122770000Y-85561000D01*
G75*
G02*
X122520000Y-85811000I-250000J0D01*
G01*
X121320000Y-85811000D01*
G75*
G02*
X121070000Y-85561000I0J250000D01*
G01*
G37*
X124420000Y-84836000D03*
X126920000Y-84836000D03*
X129420000Y-84836000D03*
X131920000Y-84836000D03*
X134420000Y-84836000D03*
X136920000Y-84836000D03*
X139420000Y-84836000D03*
%TD*%
M02*
