%TF.GenerationSoftware,KiCad,Pcbnew,(5.1.8-0-10_14)*%
%TF.CreationDate,2020-12-11T17:33:19+01:00*%
%TF.ProjectId,32Bit shift register,33324269-7420-4736-9869-667420726567,rev?*%
%TF.SameCoordinates,Original*%
%TF.FileFunction,Legend,Bot*%
%TF.FilePolarity,Positive*%
%FSLAX46Y46*%
G04 Gerber Fmt 4.6, Leading zero omitted, Abs format (unit mm)*
G04 Created by KiCad (PCBNEW (5.1.8-0-10_14)) date 2020-12-11 17:33:19*
%MOMM*%
%LPD*%
G01*
G04 APERTURE LIST*
%ADD10C,0.125000*%
%ADD11C,0.250000*%
%ADD12C,0.300000*%
G04 APERTURE END LIST*
D10*
X158438095Y-43638095D02*
X158171428Y-44019047D01*
X157980952Y-43638095D02*
X157980952Y-44438095D01*
X158285714Y-44438095D01*
X158361904Y-44400000D01*
X158400000Y-44361904D01*
X158438095Y-44285714D01*
X158438095Y-44171428D01*
X158400000Y-44095238D01*
X158361904Y-44057142D01*
X158285714Y-44019047D01*
X157980952Y-44019047D01*
X158780952Y-44057142D02*
X159047619Y-44057142D01*
X159161904Y-43638095D02*
X158780952Y-43638095D01*
X158780952Y-44438095D01*
X159161904Y-44438095D01*
X159466666Y-43676190D02*
X159580952Y-43638095D01*
X159771428Y-43638095D01*
X159847619Y-43676190D01*
X159885714Y-43714285D01*
X159923809Y-43790476D01*
X159923809Y-43866666D01*
X159885714Y-43942857D01*
X159847619Y-43980952D01*
X159771428Y-44019047D01*
X159619047Y-44057142D01*
X159542857Y-44095238D01*
X159504761Y-44133333D01*
X159466666Y-44209523D01*
X159466666Y-44285714D01*
X159504761Y-44361904D01*
X159542857Y-44400000D01*
X159619047Y-44438095D01*
X159809523Y-44438095D01*
X159923809Y-44400000D01*
X160266666Y-44057142D02*
X160533333Y-44057142D01*
X160647619Y-43638095D02*
X160266666Y-43638095D01*
X160266666Y-44438095D01*
X160647619Y-44438095D01*
X160876190Y-44438095D02*
X161333333Y-44438095D01*
X161104761Y-43638095D02*
X161104761Y-44438095D01*
D11*
X158761904Y-47147619D02*
X159380952Y-47147619D01*
X159047619Y-46766666D01*
X159190476Y-46766666D01*
X159285714Y-46719047D01*
X159333333Y-46671428D01*
X159380952Y-46576190D01*
X159380952Y-46338095D01*
X159333333Y-46242857D01*
X159285714Y-46195238D01*
X159190476Y-46147619D01*
X158904761Y-46147619D01*
X158809523Y-46195238D01*
X158761904Y-46242857D01*
X159666666Y-47147619D02*
X160000000Y-46147619D01*
X160333333Y-47147619D01*
X160571428Y-47147619D02*
X161190476Y-47147619D01*
X160857142Y-46766666D01*
X161000000Y-46766666D01*
X161095238Y-46719047D01*
X161142857Y-46671428D01*
X161190476Y-46576190D01*
X161190476Y-46338095D01*
X161142857Y-46242857D01*
X161095238Y-46195238D01*
X161000000Y-46147619D01*
X160714285Y-46147619D01*
X160619047Y-46195238D01*
X160571428Y-46242857D01*
X159861904Y-41671428D02*
X160195238Y-41671428D01*
X160338095Y-41147619D02*
X159861904Y-41147619D01*
X159861904Y-42147619D01*
X160338095Y-42147619D01*
X160766666Y-41147619D02*
X160766666Y-42147619D01*
X161338095Y-41147619D01*
X161338095Y-42147619D01*
X159838095Y-39547619D02*
X160409523Y-39547619D01*
X160123809Y-38547619D02*
X160123809Y-39547619D01*
X160647619Y-39547619D02*
X161314285Y-38547619D01*
X161314285Y-39547619D02*
X160647619Y-38547619D01*
X167038095Y-39300000D02*
X166942857Y-39347619D01*
X166800000Y-39347619D01*
X166657142Y-39300000D01*
X166561904Y-39204761D01*
X166514285Y-39109523D01*
X166466666Y-38919047D01*
X166466666Y-38776190D01*
X166514285Y-38585714D01*
X166561904Y-38490476D01*
X166657142Y-38395238D01*
X166800000Y-38347619D01*
X166895238Y-38347619D01*
X167038095Y-38395238D01*
X167085714Y-38442857D01*
X167085714Y-38776190D01*
X166895238Y-38776190D01*
X167514285Y-38347619D02*
X167514285Y-39347619D01*
X168085714Y-38347619D01*
X168085714Y-39347619D01*
X168561904Y-38347619D02*
X168561904Y-39347619D01*
X168800000Y-39347619D01*
X168942857Y-39300000D01*
X169038095Y-39204761D01*
X169085714Y-39109523D01*
X169133333Y-38919047D01*
X169133333Y-38776190D01*
X169085714Y-38585714D01*
X169038095Y-38490476D01*
X168942857Y-38395238D01*
X168800000Y-38347619D01*
X168561904Y-38347619D01*
X166600000Y-41147619D02*
X166600000Y-42147619D01*
X167266666Y-42147619D02*
X167457142Y-42147619D01*
X167552380Y-42100000D01*
X167647619Y-42004761D01*
X167695238Y-41814285D01*
X167695238Y-41480952D01*
X167647619Y-41290476D01*
X167552380Y-41195238D01*
X167457142Y-41147619D01*
X167266666Y-41147619D01*
X167171428Y-41195238D01*
X167076190Y-41290476D01*
X167028571Y-41480952D01*
X167028571Y-41814285D01*
X167076190Y-42004761D01*
X167171428Y-42100000D01*
X167266666Y-42147619D01*
X168647619Y-41147619D02*
X168076190Y-41147619D01*
X168361904Y-41147619D02*
X168361904Y-42147619D01*
X168266666Y-42004761D01*
X168171428Y-41909523D01*
X168076190Y-41861904D01*
X166600000Y-43747619D02*
X166600000Y-44747619D01*
X167266666Y-44747619D02*
X167457142Y-44747619D01*
X167552380Y-44700000D01*
X167647619Y-44604761D01*
X167695238Y-44414285D01*
X167695238Y-44080952D01*
X167647619Y-43890476D01*
X167552380Y-43795238D01*
X167457142Y-43747619D01*
X167266666Y-43747619D01*
X167171428Y-43795238D01*
X167076190Y-43890476D01*
X167028571Y-44080952D01*
X167028571Y-44414285D01*
X167076190Y-44604761D01*
X167171428Y-44700000D01*
X167266666Y-44747619D01*
X168314285Y-44747619D02*
X168409523Y-44747619D01*
X168504761Y-44700000D01*
X168552380Y-44652380D01*
X168600000Y-44557142D01*
X168647619Y-44366666D01*
X168647619Y-44128571D01*
X168600000Y-43938095D01*
X168552380Y-43842857D01*
X168504761Y-43795238D01*
X168409523Y-43747619D01*
X168314285Y-43747619D01*
X168219047Y-43795238D01*
X168171428Y-43842857D01*
X168123809Y-43938095D01*
X168076190Y-44128571D01*
X168076190Y-44366666D01*
X168123809Y-44557142D01*
X168171428Y-44652380D01*
X168219047Y-44700000D01*
X168314285Y-44747619D01*
X167033333Y-46147619D02*
X166700000Y-46623809D01*
X166461904Y-46147619D02*
X166461904Y-47147619D01*
X166842857Y-47147619D01*
X166938095Y-47100000D01*
X166985714Y-47052380D01*
X167033333Y-46957142D01*
X167033333Y-46814285D01*
X166985714Y-46719047D01*
X166938095Y-46671428D01*
X166842857Y-46623809D01*
X166461904Y-46623809D01*
X167366666Y-47147619D02*
X168033333Y-46147619D01*
X168033333Y-47147619D02*
X167366666Y-46147619D01*
D12*
X152178571Y-41552142D02*
X150678571Y-41552142D01*
X151750000Y-42052142D01*
X150678571Y-42552142D01*
X152178571Y-42552142D01*
X150678571Y-43552142D02*
X150678571Y-43837857D01*
X150750000Y-43980714D01*
X150892857Y-44123571D01*
X151178571Y-44195000D01*
X151678571Y-44195000D01*
X151964285Y-44123571D01*
X152107142Y-43980714D01*
X152178571Y-43837857D01*
X152178571Y-43552142D01*
X152107142Y-43409285D01*
X151964285Y-43266428D01*
X151678571Y-43195000D01*
X151178571Y-43195000D01*
X150892857Y-43266428D01*
X150750000Y-43409285D01*
X150678571Y-43552142D01*
X152107142Y-44766428D02*
X152178571Y-44980714D01*
X152178571Y-45337857D01*
X152107142Y-45480714D01*
X152035714Y-45552142D01*
X151892857Y-45623571D01*
X151750000Y-45623571D01*
X151607142Y-45552142D01*
X151535714Y-45480714D01*
X151464285Y-45337857D01*
X151392857Y-45052142D01*
X151321428Y-44909285D01*
X151250000Y-44837857D01*
X151107142Y-44766428D01*
X150964285Y-44766428D01*
X150821428Y-44837857D01*
X150750000Y-44909285D01*
X150678571Y-45052142D01*
X150678571Y-45409285D01*
X150750000Y-45623571D01*
X152178571Y-46266428D02*
X150678571Y-46266428D01*
X154678571Y-41552142D02*
X153178571Y-41552142D01*
X154250000Y-42052142D01*
X153178571Y-42552142D01*
X154678571Y-42552142D01*
X154678571Y-43266428D02*
X153178571Y-43266428D01*
X154607142Y-43909285D02*
X154678571Y-44123571D01*
X154678571Y-44480714D01*
X154607142Y-44623571D01*
X154535714Y-44695000D01*
X154392857Y-44766428D01*
X154250000Y-44766428D01*
X154107142Y-44695000D01*
X154035714Y-44623571D01*
X153964285Y-44480714D01*
X153892857Y-44195000D01*
X153821428Y-44052142D01*
X153750000Y-43980714D01*
X153607142Y-43909285D01*
X153464285Y-43909285D01*
X153321428Y-43980714D01*
X153250000Y-44052142D01*
X153178571Y-44195000D01*
X153178571Y-44552142D01*
X153250000Y-44766428D01*
X153178571Y-45695000D02*
X153178571Y-45980714D01*
X153250000Y-46123571D01*
X153392857Y-46266428D01*
X153678571Y-46337857D01*
X154178571Y-46337857D01*
X154464285Y-46266428D01*
X154607142Y-46123571D01*
X154678571Y-45980714D01*
X154678571Y-45695000D01*
X154607142Y-45552142D01*
X154464285Y-45409285D01*
X154178571Y-45337857D01*
X153678571Y-45337857D01*
X153392857Y-45409285D01*
X153250000Y-45552142D01*
X153178571Y-45695000D01*
X157107142Y-41480714D02*
X157178571Y-41695000D01*
X157178571Y-42052142D01*
X157107142Y-42195000D01*
X157035714Y-42266428D01*
X156892857Y-42337857D01*
X156750000Y-42337857D01*
X156607142Y-42266428D01*
X156535714Y-42195000D01*
X156464285Y-42052142D01*
X156392857Y-41766428D01*
X156321428Y-41623571D01*
X156250000Y-41552142D01*
X156107142Y-41480714D01*
X155964285Y-41480714D01*
X155821428Y-41552142D01*
X155750000Y-41623571D01*
X155678571Y-41766428D01*
X155678571Y-42123571D01*
X155750000Y-42337857D01*
X157035714Y-43837857D02*
X157107142Y-43766428D01*
X157178571Y-43552142D01*
X157178571Y-43409285D01*
X157107142Y-43195000D01*
X156964285Y-43052142D01*
X156821428Y-42980714D01*
X156535714Y-42909285D01*
X156321428Y-42909285D01*
X156035714Y-42980714D01*
X155892857Y-43052142D01*
X155750000Y-43195000D01*
X155678571Y-43409285D01*
X155678571Y-43552142D01*
X155750000Y-43766428D01*
X155821428Y-43837857D01*
X157178571Y-44480714D02*
X155678571Y-44480714D01*
X157178571Y-45337857D02*
X156321428Y-44695000D01*
X155678571Y-45337857D02*
X156535714Y-44480714D01*
X149535714Y-42409285D02*
X149607142Y-42337857D01*
X149678571Y-42123571D01*
X149678571Y-41980714D01*
X149607142Y-41766428D01*
X149464285Y-41623571D01*
X149321428Y-41552142D01*
X149035714Y-41480714D01*
X148821428Y-41480714D01*
X148535714Y-41552142D01*
X148392857Y-41623571D01*
X148250000Y-41766428D01*
X148178571Y-41980714D01*
X148178571Y-42123571D01*
X148250000Y-42337857D01*
X148321428Y-42409285D01*
X149607142Y-42980714D02*
X149678571Y-43195000D01*
X149678571Y-43552142D01*
X149607142Y-43695000D01*
X149535714Y-43766428D01*
X149392857Y-43837857D01*
X149250000Y-43837857D01*
X149107142Y-43766428D01*
X149035714Y-43695000D01*
X148964285Y-43552142D01*
X148892857Y-43266428D01*
X148821428Y-43123571D01*
X148750000Y-43052142D01*
X148607142Y-42980714D01*
X148464285Y-42980714D01*
X148321428Y-43052142D01*
X148250000Y-43123571D01*
X148178571Y-43266428D01*
X148178571Y-43623571D01*
X148250000Y-43837857D01*
X142607142Y-41480714D02*
X142678571Y-41695000D01*
X142678571Y-42052142D01*
X142607142Y-42195000D01*
X142535714Y-42266428D01*
X142392857Y-42337857D01*
X142250000Y-42337857D01*
X142107142Y-42266428D01*
X142035714Y-42195000D01*
X141964285Y-42052142D01*
X141892857Y-41766428D01*
X141821428Y-41623571D01*
X141750000Y-41552142D01*
X141607142Y-41480714D01*
X141464285Y-41480714D01*
X141321428Y-41552142D01*
X141250000Y-41623571D01*
X141178571Y-41766428D01*
X141178571Y-42123571D01*
X141250000Y-42337857D01*
X142535714Y-43837857D02*
X142607142Y-43766428D01*
X142678571Y-43552142D01*
X142678571Y-43409285D01*
X142607142Y-43195000D01*
X142464285Y-43052142D01*
X142321428Y-42980714D01*
X142035714Y-42909285D01*
X141821428Y-42909285D01*
X141535714Y-42980714D01*
X141392857Y-43052142D01*
X141250000Y-43195000D01*
X141178571Y-43409285D01*
X141178571Y-43552142D01*
X141250000Y-43766428D01*
X141321428Y-43837857D01*
X142678571Y-44480714D02*
X141178571Y-44480714D01*
X142678571Y-45337857D02*
X141821428Y-44695000D01*
X141178571Y-45337857D02*
X142035714Y-44480714D01*
X140178571Y-41552142D02*
X138678571Y-41552142D01*
X139750000Y-42052142D01*
X138678571Y-42552142D01*
X140178571Y-42552142D01*
X140178571Y-43266428D02*
X138678571Y-43266428D01*
X140107142Y-43909285D02*
X140178571Y-44123571D01*
X140178571Y-44480714D01*
X140107142Y-44623571D01*
X140035714Y-44695000D01*
X139892857Y-44766428D01*
X139750000Y-44766428D01*
X139607142Y-44695000D01*
X139535714Y-44623571D01*
X139464285Y-44480714D01*
X139392857Y-44195000D01*
X139321428Y-44052142D01*
X139250000Y-43980714D01*
X139107142Y-43909285D01*
X138964285Y-43909285D01*
X138821428Y-43980714D01*
X138750000Y-44052142D01*
X138678571Y-44195000D01*
X138678571Y-44552142D01*
X138750000Y-44766428D01*
X138678571Y-45695000D02*
X138678571Y-45980714D01*
X138750000Y-46123571D01*
X138892857Y-46266428D01*
X139178571Y-46337857D01*
X139678571Y-46337857D01*
X139964285Y-46266428D01*
X140107142Y-46123571D01*
X140178571Y-45980714D01*
X140178571Y-45695000D01*
X140107142Y-45552142D01*
X139964285Y-45409285D01*
X139678571Y-45337857D01*
X139178571Y-45337857D01*
X138892857Y-45409285D01*
X138750000Y-45552142D01*
X138678571Y-45695000D01*
X137678571Y-41552142D02*
X136178571Y-41552142D01*
X137250000Y-42052142D01*
X136178571Y-42552142D01*
X137678571Y-42552142D01*
X136178571Y-43552142D02*
X136178571Y-43837857D01*
X136250000Y-43980714D01*
X136392857Y-44123571D01*
X136678571Y-44195000D01*
X137178571Y-44195000D01*
X137464285Y-44123571D01*
X137607142Y-43980714D01*
X137678571Y-43837857D01*
X137678571Y-43552142D01*
X137607142Y-43409285D01*
X137464285Y-43266428D01*
X137178571Y-43195000D01*
X136678571Y-43195000D01*
X136392857Y-43266428D01*
X136250000Y-43409285D01*
X136178571Y-43552142D01*
X137607142Y-44766428D02*
X137678571Y-44980714D01*
X137678571Y-45337857D01*
X137607142Y-45480714D01*
X137535714Y-45552142D01*
X137392857Y-45623571D01*
X137250000Y-45623571D01*
X137107142Y-45552142D01*
X137035714Y-45480714D01*
X136964285Y-45337857D01*
X136892857Y-45052142D01*
X136821428Y-44909285D01*
X136750000Y-44837857D01*
X136607142Y-44766428D01*
X136464285Y-44766428D01*
X136321428Y-44837857D01*
X136250000Y-44909285D01*
X136178571Y-45052142D01*
X136178571Y-45409285D01*
X136250000Y-45623571D01*
X137678571Y-46266428D02*
X136178571Y-46266428D01*
X135035714Y-42409285D02*
X135107142Y-42337857D01*
X135178571Y-42123571D01*
X135178571Y-41980714D01*
X135107142Y-41766428D01*
X134964285Y-41623571D01*
X134821428Y-41552142D01*
X134535714Y-41480714D01*
X134321428Y-41480714D01*
X134035714Y-41552142D01*
X133892857Y-41623571D01*
X133750000Y-41766428D01*
X133678571Y-41980714D01*
X133678571Y-42123571D01*
X133750000Y-42337857D01*
X133821428Y-42409285D01*
X135107142Y-42980714D02*
X135178571Y-43195000D01*
X135178571Y-43552142D01*
X135107142Y-43695000D01*
X135035714Y-43766428D01*
X134892857Y-43837857D01*
X134750000Y-43837857D01*
X134607142Y-43766428D01*
X134535714Y-43695000D01*
X134464285Y-43552142D01*
X134392857Y-43266428D01*
X134321428Y-43123571D01*
X134250000Y-43052142D01*
X134107142Y-42980714D01*
X133964285Y-42980714D01*
X133821428Y-43052142D01*
X133750000Y-43123571D01*
X133678571Y-43266428D01*
X133678571Y-43623571D01*
X133750000Y-43837857D01*
X132678571Y-41552142D02*
X131178571Y-41552142D01*
X132678571Y-43123571D02*
X131964285Y-42623571D01*
X132678571Y-42266428D02*
X131178571Y-42266428D01*
X131178571Y-42837857D01*
X131250000Y-42980714D01*
X131321428Y-43052142D01*
X131464285Y-43123571D01*
X131678571Y-43123571D01*
X131821428Y-43052142D01*
X131892857Y-42980714D01*
X131964285Y-42837857D01*
X131964285Y-42266428D01*
X132821428Y-44766428D02*
X132750000Y-44623571D01*
X132607142Y-44480714D01*
X132392857Y-44266428D01*
X132321428Y-44123571D01*
X132321428Y-43980714D01*
X132678571Y-44052142D02*
X132607142Y-43909285D01*
X132464285Y-43766428D01*
X132178571Y-43695000D01*
X131678571Y-43695000D01*
X131392857Y-43766428D01*
X131250000Y-43909285D01*
X131178571Y-44052142D01*
X131178571Y-44337857D01*
X131250000Y-44480714D01*
X131392857Y-44623571D01*
X131678571Y-44695000D01*
X132178571Y-44695000D01*
X132464285Y-44623571D01*
X132607142Y-44480714D01*
X132678571Y-44337857D01*
X132678571Y-44052142D01*
X125607142Y-41480714D02*
X125678571Y-41695000D01*
X125678571Y-42052142D01*
X125607142Y-42195000D01*
X125535714Y-42266428D01*
X125392857Y-42337857D01*
X125250000Y-42337857D01*
X125107142Y-42266428D01*
X125035714Y-42195000D01*
X124964285Y-42052142D01*
X124892857Y-41766428D01*
X124821428Y-41623571D01*
X124750000Y-41552142D01*
X124607142Y-41480714D01*
X124464285Y-41480714D01*
X124321428Y-41552142D01*
X124250000Y-41623571D01*
X124178571Y-41766428D01*
X124178571Y-42123571D01*
X124250000Y-42337857D01*
X125535714Y-43837857D02*
X125607142Y-43766428D01*
X125678571Y-43552142D01*
X125678571Y-43409285D01*
X125607142Y-43195000D01*
X125464285Y-43052142D01*
X125321428Y-42980714D01*
X125035714Y-42909285D01*
X124821428Y-42909285D01*
X124535714Y-42980714D01*
X124392857Y-43052142D01*
X124250000Y-43195000D01*
X124178571Y-43409285D01*
X124178571Y-43552142D01*
X124250000Y-43766428D01*
X124321428Y-43837857D01*
X125678571Y-44480714D02*
X124178571Y-44480714D01*
X125678571Y-45337857D02*
X124821428Y-44695000D01*
X124178571Y-45337857D02*
X125035714Y-44480714D01*
X123178571Y-41552142D02*
X121678571Y-41552142D01*
X122750000Y-42052142D01*
X121678571Y-42552142D01*
X123178571Y-42552142D01*
X123178571Y-43266428D02*
X121678571Y-43266428D01*
X123107142Y-43909285D02*
X123178571Y-44123571D01*
X123178571Y-44480714D01*
X123107142Y-44623571D01*
X123035714Y-44695000D01*
X122892857Y-44766428D01*
X122750000Y-44766428D01*
X122607142Y-44695000D01*
X122535714Y-44623571D01*
X122464285Y-44480714D01*
X122392857Y-44195000D01*
X122321428Y-44052142D01*
X122250000Y-43980714D01*
X122107142Y-43909285D01*
X121964285Y-43909285D01*
X121821428Y-43980714D01*
X121750000Y-44052142D01*
X121678571Y-44195000D01*
X121678571Y-44552142D01*
X121750000Y-44766428D01*
X121678571Y-45695000D02*
X121678571Y-45980714D01*
X121750000Y-46123571D01*
X121892857Y-46266428D01*
X122178571Y-46337857D01*
X122678571Y-46337857D01*
X122964285Y-46266428D01*
X123107142Y-46123571D01*
X123178571Y-45980714D01*
X123178571Y-45695000D01*
X123107142Y-45552142D01*
X122964285Y-45409285D01*
X122678571Y-45337857D01*
X122178571Y-45337857D01*
X121892857Y-45409285D01*
X121750000Y-45552142D01*
X121678571Y-45695000D01*
X120678571Y-41552142D02*
X119178571Y-41552142D01*
X120250000Y-42052142D01*
X119178571Y-42552142D01*
X120678571Y-42552142D01*
X119178571Y-43552142D02*
X119178571Y-43837857D01*
X119250000Y-43980714D01*
X119392857Y-44123571D01*
X119678571Y-44195000D01*
X120178571Y-44195000D01*
X120464285Y-44123571D01*
X120607142Y-43980714D01*
X120678571Y-43837857D01*
X120678571Y-43552142D01*
X120607142Y-43409285D01*
X120464285Y-43266428D01*
X120178571Y-43195000D01*
X119678571Y-43195000D01*
X119392857Y-43266428D01*
X119250000Y-43409285D01*
X119178571Y-43552142D01*
X120607142Y-44766428D02*
X120678571Y-44980714D01*
X120678571Y-45337857D01*
X120607142Y-45480714D01*
X120535714Y-45552142D01*
X120392857Y-45623571D01*
X120250000Y-45623571D01*
X120107142Y-45552142D01*
X120035714Y-45480714D01*
X119964285Y-45337857D01*
X119892857Y-45052142D01*
X119821428Y-44909285D01*
X119750000Y-44837857D01*
X119607142Y-44766428D01*
X119464285Y-44766428D01*
X119321428Y-44837857D01*
X119250000Y-44909285D01*
X119178571Y-45052142D01*
X119178571Y-45409285D01*
X119250000Y-45623571D01*
X120678571Y-46266428D02*
X119178571Y-46266428D01*
X118035714Y-42409285D02*
X118107142Y-42337857D01*
X118178571Y-42123571D01*
X118178571Y-41980714D01*
X118107142Y-41766428D01*
X117964285Y-41623571D01*
X117821428Y-41552142D01*
X117535714Y-41480714D01*
X117321428Y-41480714D01*
X117035714Y-41552142D01*
X116892857Y-41623571D01*
X116750000Y-41766428D01*
X116678571Y-41980714D01*
X116678571Y-42123571D01*
X116750000Y-42337857D01*
X116821428Y-42409285D01*
X118107142Y-42980714D02*
X118178571Y-43195000D01*
X118178571Y-43552142D01*
X118107142Y-43695000D01*
X118035714Y-43766428D01*
X117892857Y-43837857D01*
X117750000Y-43837857D01*
X117607142Y-43766428D01*
X117535714Y-43695000D01*
X117464285Y-43552142D01*
X117392857Y-43266428D01*
X117321428Y-43123571D01*
X117250000Y-43052142D01*
X117107142Y-42980714D01*
X116964285Y-42980714D01*
X116821428Y-43052142D01*
X116750000Y-43123571D01*
X116678571Y-43266428D01*
X116678571Y-43623571D01*
X116750000Y-43837857D01*
X115678571Y-41552142D02*
X114178571Y-41552142D01*
X114178571Y-41909285D01*
X114250000Y-42123571D01*
X114392857Y-42266428D01*
X114535714Y-42337857D01*
X114821428Y-42409285D01*
X115035714Y-42409285D01*
X115321428Y-42337857D01*
X115464285Y-42266428D01*
X115607142Y-42123571D01*
X115678571Y-41909285D01*
X115678571Y-41552142D01*
X115535714Y-43909285D02*
X115607142Y-43837857D01*
X115678571Y-43623571D01*
X115678571Y-43480714D01*
X115607142Y-43266428D01*
X115464285Y-43123571D01*
X115321428Y-43052142D01*
X115035714Y-42980714D01*
X114821428Y-42980714D01*
X114535714Y-43052142D01*
X114392857Y-43123571D01*
X114250000Y-43266428D01*
X114178571Y-43480714D01*
X114178571Y-43623571D01*
X114250000Y-43837857D01*
X114321428Y-43909285D01*
D11*
X112952380Y-41972023D02*
X112476190Y-41638690D01*
X112952380Y-41400595D02*
X111952380Y-41400595D01*
X111952380Y-41781547D01*
X112000000Y-41876785D01*
X112047619Y-41924404D01*
X112142857Y-41972023D01*
X112285714Y-41972023D01*
X112380952Y-41924404D01*
X112428571Y-41876785D01*
X112476190Y-41781547D01*
X112476190Y-41400595D01*
X112428571Y-42400595D02*
X112428571Y-42733928D01*
X112952380Y-42876785D02*
X112952380Y-42400595D01*
X111952380Y-42400595D01*
X111952380Y-42876785D01*
X112904761Y-43257738D02*
X112952380Y-43400595D01*
X112952380Y-43638690D01*
X112904761Y-43733928D01*
X112857142Y-43781547D01*
X112761904Y-43829166D01*
X112666666Y-43829166D01*
X112571428Y-43781547D01*
X112523809Y-43733928D01*
X112476190Y-43638690D01*
X112428571Y-43448214D01*
X112380952Y-43352976D01*
X112333333Y-43305357D01*
X112238095Y-43257738D01*
X112142857Y-43257738D01*
X112047619Y-43305357D01*
X112000000Y-43352976D01*
X111952380Y-43448214D01*
X111952380Y-43686309D01*
X112000000Y-43829166D01*
X112428571Y-44257738D02*
X112428571Y-44591071D01*
X112952380Y-44733928D02*
X112952380Y-44257738D01*
X111952380Y-44257738D01*
X111952380Y-44733928D01*
X111952380Y-45019642D02*
X111952380Y-45591071D01*
X112952380Y-45305357D02*
X111952380Y-45305357D01*
D12*
X110678571Y-42266428D02*
X110678571Y-41552142D01*
X109178571Y-41552142D01*
X109892857Y-42766428D02*
X109892857Y-43266428D01*
X110678571Y-43480714D02*
X110678571Y-42766428D01*
X109178571Y-42766428D01*
X109178571Y-43480714D01*
X110678571Y-44123571D02*
X109178571Y-44123571D01*
X109178571Y-44480714D01*
X109250000Y-44695000D01*
X109392857Y-44837857D01*
X109535714Y-44909285D01*
X109821428Y-44980714D01*
X110035714Y-44980714D01*
X110321428Y-44909285D01*
X110464285Y-44837857D01*
X110607142Y-44695000D01*
X110678571Y-44480714D01*
X110678571Y-44123571D01*
X106750000Y-42337857D02*
X106678571Y-42195000D01*
X106678571Y-41980714D01*
X106750000Y-41766428D01*
X106892857Y-41623571D01*
X107035714Y-41552142D01*
X107321428Y-41480714D01*
X107535714Y-41480714D01*
X107821428Y-41552142D01*
X107964285Y-41623571D01*
X108107142Y-41766428D01*
X108178571Y-41980714D01*
X108178571Y-42123571D01*
X108107142Y-42337857D01*
X108035714Y-42409285D01*
X107535714Y-42409285D01*
X107535714Y-42123571D01*
X108178571Y-43052142D02*
X106678571Y-43052142D01*
X108178571Y-43909285D01*
X106678571Y-43909285D01*
X108178571Y-44623571D02*
X106678571Y-44623571D01*
X106678571Y-44980714D01*
X106750000Y-45195000D01*
X106892857Y-45337857D01*
X107035714Y-45409285D01*
X107321428Y-45480714D01*
X107535714Y-45480714D01*
X107821428Y-45409285D01*
X107964285Y-45337857D01*
X108107142Y-45195000D01*
X108178571Y-44980714D01*
X108178571Y-44623571D01*
X104378571Y-42374285D02*
X104378571Y-41660000D01*
X105092857Y-41588571D01*
X105021428Y-41660000D01*
X104950000Y-41802857D01*
X104950000Y-42160000D01*
X105021428Y-42302857D01*
X105092857Y-42374285D01*
X105235714Y-42445714D01*
X105592857Y-42445714D01*
X105735714Y-42374285D01*
X105807142Y-42302857D01*
X105878571Y-42160000D01*
X105878571Y-41802857D01*
X105807142Y-41660000D01*
X105735714Y-41588571D01*
X104378571Y-42874285D02*
X105878571Y-43374285D01*
X104378571Y-43874285D01*
M02*
